<?xml version="1.0" standalone="no"?>
<!DOCTYPE svg PUBLIC "-//W3C//DTD SVG 1.1//EN" "http://www.w3.org/Graphics/SVG/1.1/DTD/svg11.dtd" >
<svg xmlns="http://www.w3.org/2000/svg">
<metadata></metadata>
<defs>
<font id="soutanebold" horiz-adv-x="1132" >
<font-face units-per-em="2048" ascent="1638" descent="-410" />
<missing-glyph horiz-adv-x="614" />
<glyph horiz-adv-x="2048" />
<glyph horiz-adv-x="2048" />
<glyph unicode="&#xd;" horiz-adv-x="614" />
<glyph unicode=" "  horiz-adv-x="614" />
<glyph unicode="&#x09;" horiz-adv-x="614" />
<glyph unicode="&#xa0;" horiz-adv-x="614" />
<glyph unicode="!" horiz-adv-x="679" d="M164 1315q-8 66 35 115t123 49q84 0 131 -37t39 -107l-109 -874q-6 -49 -14.5 -68.5t-40.5 -19.5q-25 0 -38.5 24.5t-17.5 59.5zM178 125q0 51 47 90t109 39q66 0 112 -36t46 -89q0 -59 -45.5 -98t-112.5 -39q-68 0 -112 34.5t-44 98.5z" />
<glyph unicode="&#x22;" horiz-adv-x="942" d="M129 1366q-10 55 34 109.5t103 54.5q53 0 96.5 -45t43.5 -99q-1 -14 -3 -20l-90 -489h-94zM539 1366q-10 55 33.5 109.5t103.5 54.5q53 0 96 -45t43 -99q0 -14 -2 -20l-90 -489h-94z" />
<glyph unicode="#" horiz-adv-x="1247" d="M12 377l35 160h221l64 272h-232l29 160h244l92 391h90l-90 -391h227l88 391h92l-96 -391h240l-35 -160h-242l-67 -272h252l-35 -160h-252l-92 -381h-92l96 381h-230l-92 -381h-92l92 381h-215zM356 532h228l63 273h-223z" />
<glyph unicode="$" d="M55 303q0 47 38 79t87 28q57 0 137 -165t191 -165v520q-27 0 -105 31q-123 47 -198 125q-106 106 -107 256q0 240 176 348q8 6 226 80v80q0 23 15 40t44 17q53 0 53 -49v-88q147 0 260 -101q100 -88 101 -176q0 -57 -36 -89t-89 -32q-86 0 -125 139.5t-111 161.5v-499 q174 -45 281 -123q143 -105 143 -252q0 -225 -113.5 -363.5t-301.5 -138.5v-172q0 -16 -17.5 -28.5t-38.5 -12.5q-27 0 -42 17.5t-15 38.5v161q-33 -4 -47 -4q-143 0 -274.5 104.5t-131.5 231.5zM336 1110q0 -102 84 -184q27 -27 84 -62v479q-57 -33 -84 -57 q-84 -78 -84 -176zM621 555l2 -494q86 18 141 91t55 159q0 72 -65 142q-47 49 -133 102z" />
<glyph unicode="%" horiz-adv-x="1986" d="M45 1120q0 193 109 320q117 137 307 137q193 0 307 -137q109 -129 109 -326q0 -205 -107 -332q-113 -135 -315 -135q-193 0 -305 144q-104 133 -105 329zM315 1122q0 -147 17 -225q33 -156 127 -156q98 0 131 158q16 78 16 234q0 182 -35.5 266t-109.5 84 q-92 0 -127 -144q-18 -78 -19 -217zM346 20q0 8 16 33q10 16 23 33l991 1356q35 47 39 51q25 25 92 25q31 0 51.5 -3.5t20.5 -21.5t-8 -30.5t-25 -32.5l-993 -1364q-39 -55 -54.5 -66.5t-72.5 -11.5q-45 0 -62.5 7t-17.5 25zM1044 391q0 195 112 326t304 131q193 0 307 -135 q109 -129 109 -326q0 -205 -107 -332q-115 -137 -315 -137q-193 0 -305 143q-104 133 -105 330zM1315 381q0 -193 34.5 -281t108.5 -88q98 0 131 158q17 77 17 233q0 184 -36 268.5t-110 84.5t-109.5 -90.5t-35.5 -284.5z" />
<glyph unicode="&#x26;" horiz-adv-x="1695" d="M74 385q0 139 108 252q92 96 254 160q-59 78 -96 171t-37 187q0 156 128 250t310 94q156 0 264.5 -84t108.5 -219q0 -150 -119 -262q-88 -84 -239 -150q45 -68 136 -192.5t183 -247.5q68 78 99 135q47 84 47 158q0 47 -59.5 75.5t-59.5 67.5q0 20 14 31.5t29 11.5h387 q41 0 41 -51q0 -27 -45 -63.5t-92 -44.5q-131 -219 -281 -400q53 -49 86 -74q102 -74 178 -73q84 0 120 5t63 9q6 0 12 -6q14 -13 14 -25q0 -51 -80 -85.5t-190 -34.5q-115 0 -191 22q-102 31 -190 111q-94 -78 -184.5 -116t-210.5 -38q-213 0 -360.5 120t-147.5 306z M344 418q0 -129 86 -228.5t217 -99.5q63 0 131 27q47 18 125 63q-45 35 -192 223q-156 199 -199 281q-80 -29 -124 -99.5t-44 -166.5zM563 1196q0 -86 58 -176q35 -53 69 -107q100 63 148 123q59 76 59 168q0 61 -43 119q-49 66 -119 66q-88 0 -130 -52.5t-42 -140.5z" />
<glyph unicode="'" horiz-adv-x="532" d="M129 1366q-10 55 34 109.5t103 54.5q53 0 96.5 -45t43.5 -99q-1 -14 -3 -20l-90 -489h-94z" />
<glyph unicode="(" horiz-adv-x="679" d="M102 594q0 307 172 625q154 285 250 284q39 0 39 -22q-92 -145 -160 -369q-76 -248 -75 -524q0 -229 59 -449q41 -147 115 -309q30 -64 61 -127q0 -33 -31 -33q-57 0 -159 133q-109 141 -183 338q-88 233 -88 453z" />
<glyph unicode=")" horiz-adv-x="679" d="M117 -309q92 145 159 368q76 248 76 525q0 229 -59 448q-41 147 -115 309q-31 63 -61 127q0 33 30 33q57 0 163 -137t179 -334q89 -233 89 -452q0 -307 -172 -625q-154 -285 -250 -285q-39 0 -39 23z" />
<glyph unicode="*" horiz-adv-x="1015" d="M102 883q0 96 203 121q115 14 148 45q-49 43 -123 59t-154 16q-16 0 -41.5 35t-25.5 60q0 41 22.5 68.5t69.5 27.5q70 0 170 -125q63 -80 98 -103q12 25 12 52q0 45 -43 127t-43 116q0 35 30 69t69 34q47 0 67.5 -32t20.5 -81q0 -41 -43 -153q-20 -53 -21 -89 q0 -20 6 -43q78 41 183 185q33 45 84 45q37 0 67.5 -23.5t30.5 -62.5q0 -104 -121 -123q-180 -29 -219 -55q27 -39 183.5 -58.5t156.5 -128.5q0 -37 -29 -56t-61 -19q-74 0 -137.5 108.5t-141.5 108.5q-6 -10 -6 -27q0 -41 43 -145.5t43 -120.5q0 -47 -32.5 -73t-80.5 -26 q-49 0 -70.5 28t-21.5 79q0 39 25 88q57 117 57 162q0 23 -2 35q-53 0 -129 -108.5t-145 -108.5q-41 0 -70 26.5t-29 65.5z" />
<glyph unicode="+" horiz-adv-x="1247" d="M127 532v136h420v508h137v-508h408v-136h-412v-516h-133v516h-420z" />
<glyph unicode="," horiz-adv-x="567" d="M94 133q0 53 52.5 94t117.5 41q70 0 119 -51t49 -123q0 -106 -143 -237q-123 -113 -160 -113q-16 0 -27 18q-2 6 -6 19q66 51 106 114.5t40 137.5q-6 -8 -11 -13q-18 -14 -41 -14q-41 0 -68.5 39t-27.5 88z" />
<glyph unicode="-" horiz-adv-x="679" d="M74 473q0 47 31.5 87t70.5 40h324q39 0 67.5 -36t28.5 -83t-33 -77.5t-76 -30.5h-321q-41 0 -66.5 30.5t-25.5 69.5z" />
<glyph unicode="." horiz-adv-x="567" d="M106 127q0 59 46.5 98t109.5 39q61 0 104.5 -41t43.5 -102q0 -59 -46.5 -99t-109.5 -40q-59 0 -103.5 42t-44.5 103z" />
<glyph unicode="/" horiz-adv-x="567" d="M8 -29l457 1465h84l-465 -1465h-76z" />
<glyph unicode="0" d="M49 741q0 303 113 512q135 250 387 250q236 0 377 -254q127 -227 127 -536q0 -276 -115 -486q-139 -252 -385 -252q-250 0 -391 277q-113 221 -113 489zM348 721q0 -244 37 -393q55 -225 184 -226q129 0 172 215q25 123 25 371q0 176 -10 289q-16 178 -58 276 q-51 123 -143 123q-121 0 -172 -233q-35 -162 -35 -422z" />
<glyph unicode="1" d="M156 1233q0 68 250 151q213 72 274 72q10 0 25.5 -17.5t15.5 -31.5v-1206q0 -55 118.5 -82t118.5 -70q0 -14 -15 -31.5t-32 -17.5h-686q-14 0 -28.5 14.5t-14.5 30.5q0 37 117 65.5t117 86.5v925q0 55 -130 63.5t-130 47.5z" />
<glyph unicode="2" d="M57 70q0 61 174 258q244 276 322 385q176 246 176 413q0 84 -49 144.5t-135 60.5q-80 0 -132.5 -58.5t-52.5 -152.5q0 -51 25 -94q12 -23 27 -45q0 -43 -41 -73.5t-86 -30.5q-76 0 -130.5 50t-54.5 126q0 176 141.5 292.5t331.5 116.5q203 0 326 -119q113 -109 113 -270 q0 -150 -140 -344q-96 -133 -276 -310t-197 -204h467q29 0 79 52t63 52q18 0 31.5 -17t13.5 -40q0 -66 -36 -164t-69 -98h-864q-18 0 -22.5 17.5t-4.5 52.5z" />
<glyph unicode="3" d="M45 303q0 47 29.5 83t85.5 36q37 0 75.5 -16.5t61.5 -45.5q0 -109 49 -182q57 -84 154 -84q115 0 174 90q51 78 51 201q0 209 -98 285q-86 66 -308 65q-12 29 -12 39q0 20 17 49q182 20 241 51q131 70 131 261q0 96 -52 170.5t-124 74.5q-59 0 -103 -40t-44 -99 q0 -12 10 -43t10 -43q0 -53 -32.5 -88t-90.5 -35q-68 0 -111.5 42t-43.5 104q0 135 123.5 223t289.5 88q182 0 308 -90q141 -102 141 -283q0 -145 -125 -239q-117 -88 -268 -89q199 0 315 -79q139 -96 139 -291q0 -213 -166 -334q-150 -109 -368 -109q-170 0 -307 86 q-152 94 -152 242z" />
<glyph unicode="4" d="M14 434q0 80 109 324q125 279 268 463q184 236 344 235q39 0 70 -28.5t31 -63.5v-883h186q43 0 43 -59q0 -33 -9 -53.5t-32 -20.5h-188v-205q0 -33 55 -49t55 -47q0 -47 -31 -47h-450q-37 0 -37 47q0 31 69.5 43t69.5 45v209h-483q-70 0 -70 90zM186 479h381v750 q-113 -143 -229 -381q-98 -199 -152 -369z" />
<glyph unicode="5" d="M70 287q0 59 32.5 96t104.5 37q106 0 135 -162t154 -162q119 0 176 119q47 96 47 236q0 139 -57 229q-66 102 -189 102q-72 0 -121 -20q-27 -10 -151 -103q-14 0 -29.5 5.5t-15.5 15.5l32 756l17 20q70 -12 153.5 -18t153.5 -6q111 0 204 9t208 32q18 -27 18 -60 q0 -111 -146.5 -174t-346.5 -63q-70 0 -125 16q-8 2 -21 8q6 -25 11 -58.5t5 -82.5q0 -41 -28 -162q-4 -20 -15 -57q31 33 101 59q86 33 186 33q193 0 322 -131t129 -346q0 -223 -162 -355q-145 -117 -356 -116q-184 0 -305 90t-121 213z" />
<glyph unicode="6" d="M82 586q0 356 201 620q215 285 548 285q33 0 66 -15.5t33 -37.5q0 -43 -109 -68q-150 -33 -235 -113q-147 -137 -221 -448q74 68 130 94.5t132 26.5q205 0 319 -139q103 -124 103 -304q0 -217 -133.5 -360t-342.5 -143q-262 0 -395 227q-96 166 -96 375zM356 471 q0 -158 58.5 -261.5t154.5 -103.5q113 0 168 105q49 92 49 248q0 127 -53 223q-61 109 -164 109q-102 0 -161 -105q-51 -90 -52 -215z" />
<glyph unicode="7" d="M113 1124q0 121 12 210t51 89h832q20 0 41.5 -13.5t15.5 -29.5l-481 -1333q-10 -35 -56.5 -51t-105.5 -16q-70 0 -115 14t-45 49q0 8 6 20l559 1141h-491q-14 0 -98 -82q-41 -41 -78 -41q-18 0 -32.5 12.5t-14.5 30.5z" />
<glyph unicode="8" d="M66 360q0 127 79.5 231.5t214.5 160.5q-111 23 -178 121t-67 217q0 166 136 279.5t310 113.5q166 0 293 -80q145 -92 145 -240q0 -117 -70.5 -211t-180.5 -143q133 -39 214.5 -148.5t81.5 -242.5q0 -186 -140 -312t-363 -126q-205 0 -340 111.5t-135 268.5zM291 340 q0 -102 63 -172q72 -78 195 -78q94 0 170 63.5t76 149.5q0 156 -312 369q-88 -47 -140 -139.5t-52 -192.5zM365 1176q0 -86 69.5 -165t198.5 -143q72 49 115 126t43 145q0 92 -62.5 158.5t-150.5 66.5q-76 0 -144.5 -56.5t-68.5 -131.5z" />
<glyph unicode="9" d="M53 954q0 201 136.5 358.5t342.5 157.5q229 0 371 -196q125 -174 125 -397q0 -408 -256 -680q-227 -242 -498 -242q-51 0 -78.5 16.5t-27.5 44.5q0 20 113 60q147 51 245 145q158 152 242 434q-57 -68 -138 -103.5t-167 -35.5q-180 0 -299 137q-111 129 -111 301z M319 991q0 -147 48 -233q61 -111 196 -111q90 0 134 95.5t44 265.5q0 176 -71 268q-59 76 -146 76q-96 0 -155 -129q-49 -109 -50 -232z" />
<glyph unicode=":" horiz-adv-x="567" d="M115 117q0 61 45 104t110 43q68 0 117 -40t49 -103t-47 -104.5t-113 -41.5t-113.5 40t-47.5 102zM121 811q0 61 45 104t110 43q68 0 117 -40t49 -103t-47 -104t-112 -41q-66 0 -114 40t-48 101z" />
<glyph unicode=";" horiz-adv-x="567" d="M109 805q0 61 45 104t110 43q68 0 117 -40t49 -103t-47 -104t-113 -41t-113.5 39.5t-47.5 101.5zM125 127q0 53 52 94t118 41q70 0 119 -51t49 -123q0 -106 -144 -238q-123 -113 -159 -112q-16 0 -27 18q-2 6 -6 19q66 51 105.5 114.5t39.5 137.5q-6 -8 -10 -13 q-18 -14 -41 -14q-41 0 -68.5 39t-27.5 88z" />
<glyph unicode="&#x3c;" horiz-adv-x="1351" d="M115 494v184l1134 522v-192l-944 -424l944 -418v-191z" />
<glyph unicode="=" horiz-adv-x="1247" d="M195 778q0 27 13 46.5t36 19.5h729q25 0 33 -25t8 -41q0 -27 -10.5 -46t-30.5 -19h-729q-49 0 -49 65zM205 420q0 27 13 46t36 19h729q25 0 33 -24.5t8 -40.5q0 -27 -10 -46.5t-31 -19.5h-729q-49 0 -49 66z" />
<glyph unicode="&#x3e;" horiz-adv-x="1351" d="M115 -25v191l946 418l-946 424v192l1134 -522v-184z" />
<glyph unicode="?" horiz-adv-x="1015" d="M57 1243q0 94 117 163t256 69q182 0 318 -105q149 -117 149 -299q0 -180 -154 -311q-166 -102 -331 -203l-11 -123q0 -20 -21.5 -32.5t-45.5 -12.5q-25 0 -39 12.5t-14 26.5l-17 201q0 66 178.5 176t178.5 301q0 117 -37 184q-49 90 -156 90q-100 0 -104.5 -137 t-128.5 -137q-55 0 -96.5 39t-41.5 98zM195 104q0 68 47 105t114 37q59 0 112.5 -40.5t53.5 -101.5t-47 -95t-113 -34t-116.5 36t-50.5 93z" />
<glyph unicode="@" horiz-adv-x="1673" d="M96 745q0 326 231.5 555.5t551.5 229.5q274 0 471 -172q206 -183 206 -459q0 -221 -154.5 -398t-369.5 -177q-61 0 -96 24q-43 31 -43 88v17q-63 -61 -120.5 -91t-135.5 -30q-109 0 -166 76.5t-57 189.5q0 205 127 387q141 201 333 201q109 0 170 -88l23 55h203 l-201 -539q-18 -49 -26.5 -75.5t-8.5 -42.5q0 -39 53 -39q127 0 236 143t109 301q0 227 -175 373q-162 135 -391 135q-281 0 -467 -205q-178 -195 -178 -461q0 -279 191.5 -464t464.5 -185q172 0 320.5 83t234.5 233h114q-82 -213 -272 -330q-180 -111 -412 -111 q-317 0 -541.5 226.5t-224.5 549.5zM623 545q0 -37 15 -60.5t50 -23.5q98 0 201 231q88 201 88 291q0 29 -15.5 49.5t-41.5 20.5q-106 0 -207 -205q-90 -182 -90 -303z" />
<glyph unicode="A" horiz-adv-x="1476" d="M18 55q0 23 45 64q55 49 68 82l457 1188q14 37 54 64.5t77 27.5q39 0 74.5 -23.5t52.5 -64.5l485 -1233q12 -35 51 -57.5t39 -49.5t-14 -40t-37 -13h-369q-18 0 -33.5 17.5t-15.5 35.5q0 27 42 50.5t42 52.5q0 6 -4 26l-88 297h-567q-29 -78 -41 -121q-41 -129 -41 -168 q0 -45 43 -79.5t43 -61.5q0 -49 -35 -49h-295q-14 0 -23.5 19.5t-9.5 35.5zM418 614h477l-233 625z" />
<glyph unicode="B" horiz-adv-x="1476" d="M47 47q0 29 62.5 67t62.5 101v1028q0 43 -54.5 73t-54.5 60q0 51 54 51h774q139 0 250.5 -89t111.5 -222q0 -141 -112 -233q-90 -74 -256 -115q172 0 307 -90q151 -102 151 -262q0 -209 -141 -318q-127 -98 -338 -98h-751q-27 0 -46.5 13.5t-19.5 33.5zM461 768l223 53 q109 27 184.5 112t75.5 181q0 66 -51 125q-57 66 -135 66h-236q-25 0 -43 -16.5t-18 -35.5v-485zM471 147q0 -10 12.5 -22t28.5 -12h174q145 0 236 65q110 80 110 238q0 113 -89 190.5t-200 77.5q-31 0 -45 -4l-227 -47v-486z" />
<glyph unicode="C" horiz-adv-x="1476" d="M289 1274q225 233 571 233q150 0 323 -74.5t173 -148.5l16 -192q2 -12 -16.5 -36t-32.5 -24q-78 137 -186 238q-118 110 -311 110h-3q-221 0 -342 -209q-100 -174 -100 -419q0 -266 106 -435q124 -198 369 -198h2q150 0 279 76q109 82 219 165q53 0 53 -57 q0 -88 -147 -199q-180 -135 -433 -135q-340 0 -553 230q-202 218 -202 539q0 312 215 536z" />
<glyph unicode="D" horiz-adv-x="1591" d="M47 1370q0 45 203 62q102 8 254 8q473 0 726 -182t253 -508q0 -332 -199 -541t-491 -209h-666q-20 0 -39.5 19.5t-19.5 37.5q0 29 52 55.5t52 69.5v998q0 115 -84 143q-41 14 -41 47zM469 205q0 -63 46 -84t149 -21q217 0 360 146q152 153 152 413q0 295 -148 476 q-156 188 -424 188q-61 0 -98 -16.5t-37 -57.5v-1044z" />
<glyph unicode="E" horiz-adv-x="1359" d="M53 49q0 47 53.5 67.5t53.5 76.5v1058q0 20 -42 54t-42 63q0 72 51 72h993q41 0 75 -48.5t34 -103.5q0 -41 -15.5 -76.5t-46.5 -35.5q-45 0 -94 45q-113 102 -254 102h-270q-41 0 -62.5 -19.5t-21.5 -70.5v-389h364q37 0 111 39q39 20 66 20q29 0 45 -26.5t16 -110.5 q0 -53 -15.5 -87t-43.5 -34q-31 0 -87.5 38t-86.5 38h-377v-520q0 -76 71 -76h332q164 0 252 84t109 84q25 0 42 -15t17 -38q0 -113 -20 -166q-29 -74 -101 -74h-1067q-39 0 -39 49z" />
<glyph unicode="F" horiz-adv-x="1247" d="M47 37q0 39 78 80q39 20 39 49v1094q0 74 -51.5 88t-51.5 45q0 16 16.5 29.5t22.5 13.5h1004q29 0 48 -76t19 -164q0 -55 -43 -55q-59 0 -110 84t-158 84h-350q-29 0 -43 -5.5t-14 -43.5v-461h391q25 0 59.5 45t71.5 45q31 0 42 -22.5t11 -84.5v-32q0 -78 -6 -103 q-12 -47 -47 -47q-23 0 -80 47q-31 25 -55 25h-387v-516q0 -25 68.5 -49.5t68.5 -63.5q0 -43 -49 -43h-465q-29 0 -29 37z" />
<glyph unicode="G" horiz-adv-x="1591" d="M61 762q0 283 215 504q227 233 547 233q221 0 363 -57q190 -78 190 -246v-29q0 -59 -10 -82.5t-51 -23.5q-25 0 -133.5 159.5t-325.5 159.5q-203 0 -351.5 -183t-148.5 -423q0 -283 136.5 -478.5t359.5 -195.5q160 0 248 99q80 88 80 223q0 100 -45 153q-51 59 -156 60 q-88 0 -111.5 10t-23.5 43q0 23 13 41.5t36 18.5h416q61 0 89.5 -15.5t28.5 -56.5l3 -500q-115 -90 -226 -139q-145 -66 -293 -66q-403 0 -637 242q-213 221 -213 549z" />
<glyph unicode="H" horiz-adv-x="1591" d="M66 45q0 33 65 78q33 23 33 45v1071q0 66 -66 88q-32 10 -32 32q0 21 25.5 51t43.5 30h336q25 0 49.5 -24.5t24.5 -49.5t-48 -42t-48 -73v-407h671v416q0 68 -50 78t-50 48q0 33 13.5 43.5t37.5 10.5h365q25 0 42 -13.5t17 -33.5q0 -29 -29 -43q-66 -35 -65 -78v-1120 q0 -18 46 -38t46 -59q0 -55 -41 -55h-369q-51 0 -51 57q0 37 44 59.5t44 43.5v557h-667v-561q0 -25 49 -45.5t49 -65.5t-39 -45h-412q-14 0 -24 14.5t-10 30.5z" />
<glyph unicode="I" horiz-adv-x="679" d="M55 41q0 27 69 55t69 117v1004q0 90 -56.5 118.5t-56.5 61.5q0 16 12 29.5t29 13.5h428q12 0 30.5 -14.5t18.5 -30.5q0 -37 -37 -54q-82 -35 -82 -127v-1013q0 -88 72 -104.5t72 -43.5q0 -33 -16.5 -43t-57.5 -10h-465q-18 0 -23 6q-6 8 -6 35z" />
<glyph unicode="J" horiz-adv-x="1015" d="M-4 246q0 102 65 196q74 106 177 107q57 0 100 -32t43 -83q0 -31 -12 -61q-23 8 -45 8q-47 0 -76 -39t-29 -90q0 -78 48 -130t118 -52q78 0 121 56t43 126v991q0 78 -64.5 86t-64.5 60q0 55 47 55h393q39 0 55.5 -12.5t16.5 -32.5q0 -55 -52.5 -63.5t-52.5 -84.5v-995 q0 -117 -147 -213q-139 -90 -287 -90q-127 0 -254 80q-143 90 -143 213z" />
<glyph unicode="K" horiz-adv-x="1476" d="M59 61q0 33 54.5 62t54.5 121v1011q0 33 -54.5 49.5t-54.5 69.5q0 61 66 62h387q29 0 40 -15.5t11 -42.5q0 -29 -59.5 -61.5t-59.5 -89.5v-563l476 516q14 14 29.5 43.5t15.5 52.5q0 25 -42 52.5t-42 64.5q0 23 19.5 35t51.5 12h312q27 0 46 -15.5t19 -50.5 q0 -43 -63 -76q-88 -43 -107 -65l-328 -373l494 -704q10 -14 51 -39t41 -60q0 -20 -20.5 -38.5t-48.5 -18.5h-357q-27 0 -49 18.5t-22 53.5q0 37 36.5 53t36.5 25q0 18 -12 48.5t-25 47.5l-307 432l-200 -174v-316q0 -35 58 -64.5t58 -70.5q0 -20 -14 -36.5t-43 -16.5h-408 q-12 0 -26.5 20.5t-14.5 40.5z" />
<glyph unicode="L" d="M27 43q0 53 58 67t58 91v1061q0 49 -55 65t-55 64q0 45 47 45h432q8 0 19.5 -13.5t11.5 -23.5q0 -51 -57.5 -55.5t-57.5 -59.5v-1083q0 -33 17.5 -54.5t46.5 -21.5h243q63 0 137 57.5t152 118.5q25 0 45.5 -18.5t20.5 -49.5q0 -45 -41 -143q-12 -33 -43 -90h-926 q-53 0 -53 43z" />
<glyph unicode="M" horiz-adv-x="1820" d="M20 61q0 37 78 66t78 78v1059q0 37 -65.5 53t-65.5 63q0 20 17.5 38t33.5 18h459l342 -861l377 861h418q20 0 36.5 -17.5t16.5 -40.5q0 -35 -90 -67q-43 -16 -43 -39v-1071q0 -51 64.5 -84t64.5 -64q0 -23 -19.5 -38t-44.5 -15h-448q-12 0 -26.5 12.5t-14.5 30.5 q0 41 45 61q98 43 98 89v1079l-438 -1049q-18 -43 -55 -43q-29 0 -47.5 18.5t-34.5 57.5l-412 991v-1038q0 -55 102 -94q49 -18 50 -60q0 -23 -18.5 -39t-43.5 -16h-350q-20 0 -33 6q-31 16 -31 55z" />
<glyph unicode="N" horiz-adv-x="1591" d="M29 1405q0 8 11 19.5t23 11.5h410l752 -992v773q0 63 -92 126q-45 31 -46 58q0 12 13.5 23.5t29.5 11.5h330q18 0 29.5 -13.5t11.5 -33.5q0 -18 -58.5 -52t-58.5 -112v-1170q0 -33 -22.5 -51t-71.5 -18q-23 0 -41 4t-32 22l-881 1188v-964q0 -92 84 -123t84 -66 q0 -16 -17.5 -31.5t-29.5 -15.5h-381q-41 0 -41 43q0 39 68.5 65.5t68.5 100.5v1059q0 31 -45 51q-98 47 -98 86z" />
<glyph unicode="O" horiz-adv-x="1695" d="M78 725q0 299 207 528q217 242 530 242t545.5 -216t232.5 -513q0 -346 -214 -569.5t-519 -223.5q-350 0 -571 226q-211 215 -211 526zM504 287q137 -211 356 -211q176 0 305 196q123 187 123 418q0 272 -88 457q-115 237 -346 237h-2q-231 0 -363 -229 q-108 -188 -108 -437q0 -243 123 -431z" />
<glyph unicode="P" horiz-adv-x="1247" d="M37 1401q0 29 67.5 38t171.5 9h61.5h39.5q358 0 545 -72q254 -96 254 -336q0 -225 -234 -360q-209 -121 -502 -121v-362q0 -57 59.5 -90t59.5 -64q0 -20 -17.5 -31.5t-37.5 -11.5h-412q-16 0 -31.5 11.5t-15.5 27.5q0 35 53.5 69.5t53.5 51.5v1087q0 47 -57.5 76 t-57.5 78zM436 674q178 0 305 84q156 103 156 291q0 117 -102.5 195.5t-241.5 78.5q-55 0 -86 -6t-31 -55v-588z" />
<glyph unicode="Q" horiz-adv-x="1695" d="M78 721q0 328 217 553t532 225q309 0 537.5 -222.5t228.5 -535.5q0 -287 -147 -481q-104 -137 -275 -217q-111 -51 -147 -51q72 -41 144.5 -56.5t179.5 -15.5q57 0 127 -24q94 -33 94 -86q0 -72 -64 -99q-47 -20 -137 -20q-182 0 -307 73q-109 63 -201 203 q-334 0 -558 216t-224 538zM381 741q0 -291 108 -462q78 -123 203 -175q64 -26 108 -26h3q-20 35 -29 57q-31 72 -31 123q0 102 72 102q23 0 45.5 -12t30.5 -41l67 -225q20 0 86 47q100 72 160 182q86 160 86 385q0 266 -104 457q-123 223 -342 223q-223 0 -355 -225 q-109 -186 -108 -410z" />
<glyph unicode="R" horiz-adv-x="1476" d="M49 1397q0 14 14.5 26.5t32.5 12.5h836q145 0 251.5 -94.5t106.5 -217.5q0 -131 -94 -231q-74 -78 -209 -145q47 -43 170 -291q111 -223 152 -336q37 -20 53 -31q33 -22 33 -53q0 -12 -12.5 -24.5t-26.5 -12.5h-436q-37 0 -37 39q0 37 45 67.5t45 45.5q0 43 -90 223 q-96 193 -174 297q-72 -27 -130.5 -39t-121.5 -12v-445q0 -37 63.5 -73.5t63.5 -63.5q0 -10 -14.5 -24.5t-37.5 -14.5h-440q-12 0 -22.5 14.5t-10.5 26.5q0 27 56.5 63.5t56.5 92.5v1046q0 72 -61.5 88.5t-61.5 65.5zM457 743q190 0 334 62q208 89 208 282q0 90 -61 162 t-154 72h-200q-63 0 -95 -53.5t-32 -122.5v-402z" />
<glyph unicode="S" horiz-adv-x="1359" d="M63 324q0 43 31 69.5t78 26.5q12 0 27 -6l12 -6q45 -102 90 -154q135 -154 356 -154q143 0 231.5 62.5t88.5 175.5q0 168 -221 229q-207 53 -412 107q-223 100 -223 356q0 217 157.5 342t413.5 125q141 0 289 -67q47 -23 119 -68q8 -23 12 -37q14 -51 14 -88 q0 -113 -55 -113q-86 100 -170 176q-92 84 -217 84q-154 0 -235 -79q-70 -70 -70 -175q0 -162 217 -223q203 -53 405 -106q220 -96 220 -342q0 -217 -156 -354.5t-414 -137.5q-248 0 -430 131q-158 115 -158 226z" />
<glyph unicode="T" horiz-adv-x="1247" d="M16 1153q0 133 27 208t90 75h1000q47 0 79.5 -72t32.5 -213q0 -33 -49 -33q-80 74 -145 129q-74 61 -148 62q-33 0 -86 -11q-16 -2 -49 -10v-1083q0 -45 60.5 -89t60.5 -65q0 -51 -25 -51h-461q-18 0 -31.5 15.5t-13.5 35.5q0 12 67 56.5t67 107.5v1065q-31 8 -48 12 q-55 12 -90 13q-66 0 -135 -58q-156 -129 -158 -129q-45 0 -45 35z" />
<glyph unicode="U" horiz-adv-x="1591" d="M78 1389q0 18 16.5 32.5t36.5 14.5h381q35 0 59.5 -10.5t24.5 -39.5q0 -45 -60.5 -78.5t-60.5 -68.5q-16 -115 -29.5 -324.5t-13.5 -465.5q0 -127 98 -240q115 -131 283 -131q252 0 347 137t95 479q0 123 -20 346q-12 113 -23 228q0 20 -63.5 53t-63.5 65q0 18 15.5 34 t27.5 16h332q14 0 24.5 -10.5t10.5 -26.5q0 -29 -53 -59.5t-53 -77.5q18 -178 32.5 -339t14.5 -235q0 -420 -189 -596q-156 -145 -469 -145q-291 0 -469 149.5t-178 403.5q0 82 17.5 289.5t35.5 418.5q0 74 -71 121q-35 23 -35 60z" />
<glyph unicode="V" horiz-adv-x="1359" d="M12 1372q0 25 11.5 44.5t31.5 19.5h373q16 0 27.5 -13.5t11.5 -33.5q0 -41 -43 -66t-43 -86q0 -135 112.5 -464t245.5 -560q111 223 222.5 551t111.5 453q0 66 -94 114q-45 23 -45 53q0 20 13.5 36t33.5 16h283q57 -1 57 -60q0 -35 -29.5 -57.5t-31.5 -26.5 q-45 -170 -91 -340q-115 -395 -221 -630q-156 -342 -284 -342q-129 0 -281 339q-109 246 -215 631q-43 170 -84 340q-2 6 -37 31t-35 51z" />
<glyph unicode="W" horiz-adv-x="1927" d="M47 1378q0 20 13.5 41t33.5 21h361q20 0 36.5 -16.5t16.5 -39.5t-31 -41q-70 -41 -69 -96q0 -145 71.5 -450t141.5 -594q92 240 164.5 523.5t72.5 414.5q0 158 -70 194q-32 17 -32 59q0 17 13 31.5t22 14.5h358q20 0 31.5 -20.5t11.5 -47.5q0 -20 -48 -44.5t-48 -113.5 q0 -90 47 -268q33 -127 108 -360q57 -182 117 -363q92 246 173 559.5t81 440.5q0 59 -65.5 89.5t-65.5 76.5q0 16 13.5 33.5t31.5 17.5h281q18 0 30.5 -18.5t12.5 -41.5q0 -25 -39 -53q-25 -16 -31 -37q-31 -170 -59 -340q-76 -381 -164 -633q-119 -342 -236 -342 q-76 0 -157 154q-68 129 -134 348q-49 170 -92 371q-59 -276 -82 -365q-59 -231 -123 -350q-82 -156 -182 -156q-109 0 -219 332q-80 240 -154 619q-29 166 -57 332q-16 49 -50 63t-34 55z" />
<glyph unicode="X" horiz-adv-x="1359" d="M4 1376q0 10 6 21q4 8 33 39h432q23 0 36 -19.5t13 -38.5q0 -18 -13 -31.5t-50 -25.5q-16 -23 -4 -41l4 -8l252 -383l237 317q23 31 23 70q0 33 -34 52.5t-62 35.5q-10 18 -11 35q0 18 15.5 27.5t33.5 9.5h306q4 0 34 -21q8 -10 9 -29q0 -27 -32 -64.5t-61 -70.5 l-362 -467q45 -63 90 -125q145 -201 197 -272q119 -170 180 -270q41 -10 59.5 -21.5t18.5 -40.5q0 -12 -2 -18q-4 -20 -43 -33q-6 -2 -21 -4h-399q-37 31 -37 63q-2 25 35 50.5t37 42.5q-55 90 -179 264q-41 57 -114 160l-246 -312q-35 -45 -35 -94q0 -20 6 -43 q31 -23 47 -37q30 -25 30 -49q0 -4 -1 -8q-2 -12 -20 -25q-10 -6 -17 -12l-354 4q-12 4 -29 29v6q0 28 35 49q59 37 70 51l409 539q-104 137 -221 311q-106 162 -201 324q-55 16 -77.5 31.5t-22.5 31.5z" />
<glyph unicode="Y" horiz-adv-x="1476" d="M6 1391q0 18 19.5 33.5t42.5 15.5h381q37 0 56 -12.5t19 -45.5q0 -39 -48 -57t-48 -39q0 -31 158 -268q100 -150 200 -297q98 137 197 276q137 203 137 275q0 29 -71 71q-33 20 -33 41q0 27 18.5 41.5t44.5 14.5h281q55 0 55 -49q0 -31 -51 -74q-31 -25 -47 -55 q-98 -168 -205.5 -335t-226.5 -327v-428q0 -53 55 -73.5t55 -49.5t-10 -39t-49 -10h-404q-33 0 -44 13.5t-11 37.5q0 16 58.5 48t58.5 98v368q-139 188 -252 353q-133 195 -236 364q-12 23 -56 48.5t-44 60.5z" />
<glyph unicode="Z" horiz-adv-x="1247" d="M33 57q0 43 47 145.5t80 147.5l688 938h-436q-82 0 -142 -45l-106 -98q-23 0 -39 7t-16 24q0 115 8 161q16 98 71 99h856q47 0 78 -23.5t31 -69.5q0 -53 -31 -100l-760 -1100h453q76 0 154 52q74 55 149 112q12 0 21 -4q16 -8 16 -22q0 -158 -22.5 -219.5t-79.5 -61.5 h-949q-27 0 -43 8q-29 14 -28 49z" />
<glyph unicode="[" horiz-adv-x="679" d="M131 -289v1678q0 29 10.5 46t38.5 17h318q18 0 31.5 -21.5t13.5 -41.5q0 -27 -11.5 -51.5t-35.5 -24.5h-177v-1497h183q39 0 39 -56q0 -35 -8.5 -59.5t-30.5 -24.5h-342q-29 0 -29 35z" />
<glyph unicode="\" horiz-adv-x="1247" d="M92 1309h127l873 -1338h-111z" />
<glyph unicode="]" horiz-adv-x="679" d="M113 1389q0 25 12 44t33 19h317q31 0 40 -16.5t9 -46.5v-1678q0 -35 -28 -35h-342q-20 0 -29.5 27t-9.5 57q0 55 39 56h182v1497h-176q-23 0 -35 23.5t-12 52.5z" />
<glyph unicode="^" horiz-adv-x="679" d="M35 1047l217 290q23 31 88 31q55 0 82 -35l231 -295l-8 -18h-125q-43 35 -96 108q-45 59 -88 119q-10 -14 -72 -110q-45 -72 -82 -107h-139z" />
<glyph unicode="_" horiz-adv-x="1247" d="M0 -59h1243v-93h-1243v93z" />
<glyph unicode="`" horiz-adv-x="679" d="M57 1253v21q0 25 16.5 48.5t51.5 37.5q98 -27 243.5 -85t245.5 -114q7 -17 7 -31q0 -23 -13.5 -46t-27.5 -23q-70 0 -233 48t-284 108q-6 12 -6 36z" />
<glyph unicode="a" d="M68 279q0 168 182 272q164 94 389 94h37q25 -4 37 -4q-12 98 -54 150q-51 63 -147 63q-39 0 -168 -80q-63 -39 -119 -39q-37 0 -63.5 20.5t-26.5 47.5q0 84 141 129q109 35 236 35q215 0 340 -88t125 -242v-469q0 -31 52 -60.5t52 -60.5q0 -47 -26 -47h-254 q-23 31 -40.5 57.5t-29.5 59.5q-55 -68 -117.5 -96.5t-175.5 -28.5q-182 0 -276 73.5t-94 213.5zM354 268q0 -76 44 -124t118 -48q72 0 132.5 41t60.5 111v280q-119 0 -213 -47q-123 -61 -140 -182q-2 -10 -2 -31z" />
<glyph unicode="b" d="M41 1356q0 51 117 92q94 33 149 33q41 0 55.5 -25.5t14.5 -66.5v-529q39 39 104.5 70t136.5 31q182 0 300 -126t118 -333q0 -219 -116 -359q-130 -157 -366 -157h-3q-160 0 -281 75q-135 84 -135 224v970q0 41 -47 59.5t-47 41.5zM373 324q0 -90 48 -166t130 -76 q90 0 153.5 65.5t63.5 157.5v309q0 86 -61.5 156t-133.5 70q-68 0 -134 -56.5t-66 -136.5v-323z" />
<glyph unicode="c" horiz-adv-x="1015" d="M61 453q0 205 140 350q152 158 393 158q139 0 245.5 -52.5t106.5 -138.5q0 -47 -31.5 -72.5t-80.5 -25.5q-66 0 -133.5 90t-141.5 90q-96 0 -164 -135q-59 -119 -59 -246q0 -168 78 -266.5t207 -98.5q123 0 205.5 73t101.5 73q10 0 27.5 -10.5t17.5 -18.5 q0 -94 -126 -167.5t-276 -73.5q-211 0 -352 116q-158 131 -158 355z" />
<glyph unicode="d" d="M63 463q0 209 136.5 357.5t339.5 148.5q82 0 147 -41q20 -12 49 -41v350q0 43 -56 77t-56 54q0 35 129 72t188 37q16 0 28.5 -15.5t12.5 -52.5v-1233q0 -47 61 -84q31 -18 31 -43q0 -14 -15.5 -31.5t-29.5 -17.5h-217q-27 0 -38 33t-17 80q-57 -66 -128 -97.5t-153 -31.5 q-172 0 -287 118q-125 131 -125 361zM317 469q0 -135 48 -225q61 -119 194 -119q72 0 126 48.5t54 111.5v323q0 102 -50 168t-140 66q-109 0 -174 -121q-57 -106 -58 -252z" />
<glyph unicode="e" horiz-adv-x="1015" d="M59 451q0 209 129 352q141 158 377 158q150 0 244 -60q115 -72 115 -209q0 -168 -213 -252q-162 -63 -396 -63q0 -106 76 -186t184 -80q88 0 168 43q76 47 154 94q45 0 45 -41q0 -66 -119 -141q-131 -84 -278 -84q-203 0 -338 118q-147 131 -148 351zM311 469 q133 0 248 61q133 73 133 175q0 66 -41 110.5t-108 44.5q-90 0 -161 -115.5t-71 -275.5z" />
<glyph unicode="f" horiz-adv-x="567" d="M0 874q0 27 15.5 44.5t35.5 17.5h105v227q0 135 96 244t233 109q70 0 120 -37.5t50 -100.5q0 -37 -24.5 -63.5t-73.5 -26.5q-37 0 -64.5 21.5t-27.5 62.5q0 8 14.5 25.5t28.5 29.5q-8 2 -17 2q-30 0 -57 -29q-35 -36 -35 -77v-387h148q27 0 42 -13.5t15 -33.5 q0 -78 -76 -78h-129v-614q0 -70 57.5 -96.5t57.5 -51.5q0 -16 -12.5 -32.5t-34.5 -16.5h-377q-18 0 -32.5 12.5t-14.5 30.5q0 27 52 54.5t52 103.5v608h-98q-18 0 -33.5 19.5t-15.5 45.5z" />
<glyph unicode="g" d="M61 498q0 188 143.5 323t330.5 135l491 -24q20 0 36.5 -20.5t16.5 -43.5t-26.5 -41t-40.5 -18l-172 -4q57 -31 86 -60q86 -88 86 -229q0 -193 -103 -299q-33 -35 -102 -67q78 -20 115 -44q115 -70 114 -198q0 -131 -134 -203t-339 -72q-250 0 -361.5 40t-111.5 137 q0 63 61.5 105t122.5 42q39 0 70 -25q-14 -33 -14 -49q0 -57 64.5 -88t146.5 -31q98 0 166 37q86 47 86 133q0 41 -37 83t-84 67q-29 -4 -71 -7t-58 -3q-201 0 -336 110q-145 119 -146 314zM344 483q0 -117 45 -200q55 -102 156 -103q98 0 149 111q41 88 41 205 q0 137 -37 227q-47 117 -149 117q-111 0 -162 -111q-43 -92 -43 -246z" />
<glyph unicode="h" horiz-adv-x="1247" d="M47 1356q0 25 141.5 72t163.5 47q25 0 44.5 -12.5t19.5 -32.5v-596q55 41 94 61q121 63 240 63q221 0 294 -190q45 -119 46 -416v-192q0 -43 44 -57.5t44 -49.5q0 -53 -50 -53h-356q-18 0 -34.5 16.5t-16.5 32.5q0 39 42 57.5t42 34.5q8 49 15 115t7 133q0 223 -24 307 q-39 135 -166 135q-74 0 -139.5 -49t-65.5 -114v-504q0 -47 51 -78q25 -14 25 -35q0 -51 -41 -51h-350q-51 0 -51 33q0 31 40.5 57.5t40.5 61.5v1095q0 18 -67 64q-33 23 -33 45z" />
<glyph unicode="i" horiz-adv-x="567" d="M43 819q0 43 143 86q117 35 160 35q39 0 54.5 -27.5t15.5 -72.5v-676q0 -70 42 -87t42 -42q0 -35 -35 -35h-367q-29 0 -28 37q0 29 47 47t47 104v539q0 45 -60.5 51t-60.5 41zM129 1198q0 59 43 96t104 37q63 0 108.5 -35t45.5 -92t-45 -96t-104 -39q-61 0 -106.5 36 t-45.5 93z" />
<glyph unicode="j" horiz-adv-x="567" d="M-76 -254q0 37 21.5 58.5t66.5 21.5q39 0 63.5 -15.5t24.5 -46.5q0 -20 -11 -34.5t-30 -28.5q55 0 78 20q31 27 31 99v880q0 41 -61.5 66t-61.5 49q0 51 148 96q119 37 167 37q41 0 54 -63q6 -33 6 -60v-876q0 -133 -93.5 -233.5t-224.5 -100.5q-88 0 -133 37t-45 94z M98 1204q0 59 43 96t105 37q63 0 108 -35t45 -92q0 -59 -44 -97t-105 -38t-106.5 36t-45.5 93z" />
<glyph unicode="k" d="M37 1362q0 33 135 82t176 49q25 0 38 -21.5t13 -52.5v-927l281 256q16 16 16 40q0 14 -35.5 26.5t-35.5 53.5q0 47 39 46h323q23 0 28 -15.5t5 -30.5q0 -27 -51 -47q-31 -12 -41 -22l-254 -240l350 -446q4 -6 33.5 -18.5t29.5 -45.5q0 -18 -8 -33.5t-22 -15.5h-373 q-12 0 -22.5 14.5t-10.5 30.5q0 41 37 61q18 10 19 19q0 6 -11 22l-196 285l-101 -94v-197q0 -20 41 -38.5t41 -59.5q0 -14 -10 -28.5t-22 -14.5h-332q-29 0 -49.5 9t-20.5 32q0 49 44 63.5t44 59.5v1108q0 37 -49 53t-49 37z" />
<glyph unicode="l" horiz-adv-x="567" d="M47 39q0 23 52.5 64.5t52.5 97.5v1050q0 37 -51.5 55.5t-51.5 57.5t126 84t165 45q23 0 43 -14.5t20 -30.5v-1268q0 -55 62 -90q31 -16 31 -43q0 -47 -64 -47h-352q-12 0 -22.5 12.5t-10.5 26.5z" />
<glyph unicode="m" horiz-adv-x="1812" d="M43 836q0 31 98.5 70.5t157.5 39.5q49 0 61.5 -19.5t12.5 -64.5q0 -49 -13 -98q51 86 140.5 134t195.5 48q207 0 285 -178q49 86 139 131t197 45q139 0 235 -76q104 -84 105 -227v-481q0 -47 43 -65.5t43 -51.5q0 -43 -43 -43h-383q-14 0 -23 14q-6 10 -6 27q0 27 29 39 q63 29 63 92v483q0 156 -166 156q-57 0 -111 -35t-54 -88v-508q0 -63 48 -87.5t48 -51.5q0 -16 -16.5 -28.5t-28.5 -12.5h-393q-14 0 -24.5 12.5t-10.5 26.5q0 29 48 56.5t48 84.5v457q0 72 -46 124t-120 52q-66 0 -118 -40t-52 -91v-522q0 -59 60 -84q29 -12 28 -39 q0 -12 -12 -24.5t-25 -12.5h-397q-10 0 -18.5 12.5t-8.5 28.5q0 27 46.5 58.5t46.5 93.5v528q0 45 -54.5 68.5t-54.5 46.5z" />
<glyph unicode="n" d="M59 827q0 35 91.5 77t138.5 42q33 0 50 -41t17 -88l-4 -41q127 166 307 166q141 0 236.5 -86t95.5 -227v-467q0 -57 38 -75.5t38 -53.5q0 -33 -33 -33h-348q-10 0 -21.5 13.5t-11.5 25.5q0 18 43 45t43 92v504q0 53 -46 93t-101 40q-63 0 -126 -49t-63 -115v-518 q0 -27 33 -47.5t33 -36.5t-4 -24q-12 -23 -37 -23h-328q-29 0 -28 37q0 16 40 42.5t40 76.5v557q0 35 -62 73q-31 18 -31 41z" />
<glyph unicode="o" d="M61 471q0 190 145.5 340t346.5 150q195 0 347.5 -138.5t152.5 -335.5q0 -207 -142.5 -355t-345.5 -148q-199 0 -344 127q-160 139 -160 360zM324 455q0 -154 57 -260q68 -127 190 -127q119 0 181 129q49 105 49 252q0 164 -49 268q-66 139 -203 139q-113 0 -169 -120 t-56 -281z" />
<glyph unicode="p" d="M29 860q0 27 112.5 62.5t143.5 35.5q35 0 48 -17t13 -54l-6 -94q33 76 115 122t161 46q205 0 324 -148q109 -135 109 -338q0 -207 -109 -342q-127 -158 -362 -158q-59 0 -104.5 19.5t-45.5 56.5q-4 20 13.5 42t43.5 22q18 0 51 -5.5t37 -5.5q102 0 168 111q59 100 60 234 q0 147 -37 243q-53 139 -172 139q-92 0 -146.5 -50t-54.5 -126v-864q0 -51 52.5 -83t52.5 -64q0 -39 -56 -39h-366q-10 0 -19 8q-8 8 -8 20q0 41 46 64.5t46 71.5v948q0 43 -55 80t-55 63z" />
<glyph unicode="q" d="M57 444q0 227 146 371q137 135 329 135q63 0 133 -18.5t144 -50.5q29 33 66.5 53t76.5 20q8 0 17 -10q8 -10 8 -24v-1096q0 -61 53 -98q29 -20 29 -43q0 -47 -43 -48h-350q-12 0 -21.5 13.5t-9.5 29.5q0 31 48 56.5t48 85.5v258q-74 -102 -242 -103q-190 0 -311 131.5 t-121 337.5zM319 465q0 -139 48 -234q61 -122 182 -122h2q61 0 117.5 39t56.5 98v434q0 63 -51 112.5t-117 49.5q-109 0 -173.5 -116t-64.5 -261z" />
<glyph unicode="r" horiz-adv-x="796" d="M35 840q0 39 61.5 74.5t120.5 35.5q84 0 119 -67q24 -47 24 -128v-7q31 94 86 147q63 61 154 61q53 0 100.5 -39t47.5 -88q0 -79 -87 -79h-2q-33 0 -68.5 9t-72.5 19q-27 0 -62.5 -82t-35.5 -141v-367q0 -59 64.5 -85.5t64.5 -59.5q0 -43 -37 -43h-420q-39 0 -39 35 q0 25 55.5 51.5t55.5 101.5v484q0 39 -64.5 72.5t-64.5 95.5z" />
<glyph unicode="s" horiz-adv-x="911" d="M45 205q0 33 22.5 57.5t57.5 24.5q39 0 107.5 -97.5t185.5 -97.5q70 0 123 39t53 88q0 76 -257 149.5t-257 268.5q0 141 115.5 233.5t267.5 92.5q201 0 278 -66q53 -45 54 -131q0 -41 -7.5 -67.5t-23.5 -26.5q-31 0 -108.5 88t-184.5 88q-68 0 -110 -36t-42 -112 q0 -72 134 -108q227 -63 247 -74q134 -68 134 -213q0 -143 -104.5 -236.5t-280.5 -93.5q-164 0 -284 69t-120 161z" />
<glyph unicode="t" horiz-adv-x="679" d="M-29 877q0 18 9.5 36.5t19.5 16.5q8 -2 27 -2q90 0 161 73q84 88 105 254q18 23 47 23q45 0 45 -51v-291h182q57 0 58 -57q0 -55 -50 -56h-184v-610q0 -92 49 -92h144q49 0 49 -72q0 -31 -16.5 -40t-49.5 -9h-370q-25 0 -43.5 18.5t-18.5 44.5v764h-131q-12 0 -22.5 13.5 t-10.5 36.5z" />
<glyph unicode="u" d="M41 864q0 37 114.5 60.5t170.5 23.5q16 0 28 -8q31 -18 31 -45v-631q0 -70 44 -114t106 -44q66 0 124 49.5t58 120.5v463q0 45 -42 70t-42 51q0 29 80 51q109 31 192 31q23 0 44.5 -15.5t21.5 -39.5l-2 -699q0 -53 69 -98q33 -22 33 -49q0 -12 -14.5 -26.5t-24.5 -14.5 h-209q-37 -6 -51 16.5t-14 63.5q0 27 2 47t4 41q-35 -90 -120 -141.5t-189 -51.5q-119 0 -213 62q-106 70 -107 176v504q0 59 -63 96q-31 18 -31 51z" />
<glyph unicode="v" horiz-adv-x="1015" d="M12 885q0 12 11.5 23.5t23.5 11.5h348q18 0 27 -13q8 -10 8 -28q0 -14 -24 -31q-57 -39 -58 -96q0 -139 66 -310q57 -152 143 -270q86 102 156 313q55 170 55 228q0 59 -33 98q-39 31 -76 63q0 14 11.5 30t29.5 16h244q37 -1 37 -48q0 -25 -14 -41q-45 -51 -52 -75 q-80 -346 -182 -551q-113 -225 -225 -225q-96 0 -221 225q-131 238 -203 569q-2 31 -37 51.5t-35 59.5z" />
<glyph unicode="w" horiz-adv-x="1476" d="M16 874q0 16 16.5 33t35.5 17h305q12 0 22.5 -12.5t10.5 -26.5q0 -27 -33 -49.5t-33 -71.5q0 -135 68 -342q47 -141 96 -250q53 68 95 199t42 288q0 113 -23 146q-10 14 -59 59q-6 18 5 39t40 21h289q16 0 29.5 -15.5t9.5 -31.5q-63 -39 -64 -89q0 -154 58 -344 q43 -139 106 -268q68 86 129 277q55 172 56 262q0 76 -46.5 108.5t-46.5 61.5q0 39 35 39h238q39 0 39 -39q0 -29 -30 -58.5t-38 -54.5q-106 -387 -139 -483q-100 -297 -238 -297q-80 0 -141.5 93t-122.5 327q-55 -213 -113 -312q-71 -120 -166 -120h-2q-90 0 -166.5 162.5 t-191.5 609.5q-8 43 -40 64.5t-32 57.5z" />
<glyph unicode="x" horiz-adv-x="1015" d="M20 35q0 45 35 65q57 33 66 43l248 306l-256 339q-23 31 -58 46.5t-35 42.5q0 47 64 47h311q20 0 37 -14.5t17 -32.5q0 -20 -27 -39t-27 -25q0 -23 11 -39l147 -205l111 162q12 16 12 49q0 39 -33 55.5t-33 43.5t12.5 36t39.5 9h231q33 0 33 -39q0 -27 -17 -43 q-31 -23 -59 -45l-229 -305l301 -369q6 -8 35.5 -25.5t29.5 -46.5q0 -51 -26 -51h-336q-61 0 -62 37q0 35 25.5 52t25.5 26q0 20 -8 37q-4 6 -18 26l-156 199l-117 -176q-12 -20 -12 -29q2 -12 2 -25q0 -16 53 -61q29 -25 29 -51q0 -35 -43 -35h-287q-37 0 -37 35z" />
<glyph unicode="y" horiz-adv-x="1015" d="M12 864q0 35 17.5 47.5t46.5 12.5h280q39 0 39 -43q0 -20 -24 -43q-55 -53 -56 -179q0 -152 85 -328.5t153 -176.5q72 0 132 171t60 343q0 78 -14 129q0 27 -50 39t-50 49q0 12 19.5 25.5t41.5 13.5h262q33 0 33 -27q0 -31 -36 -60.5t-36 -58.5q0 -449 -215 -802 t-471 -353q-59 0 -111 26.5t-52 71.5q0 41 30.5 66t83.5 25q27 0 72 -12.5t76 -12.5q61 0 129 82q59 72 98 166q-29 -6 -51.5 -8t-48.5 -2q-141 0 -256 266q-92 217 -127 489q0 20 -39 56q-20 18 -21 28z" />
<glyph unicode="z" horiz-adv-x="911" d="M25 80q0 39 10 63.5t37 57.5l491 604h-250q-57 0 -104 -37q-45 -41 -88 -80q-45 0 -45 51q0 78 23.5 132.5t76.5 54.5h576q35 0 56 -31t21 -70q0 -35 -18 -57l-514 -655h225q80 0 148 49l114 110h2q41 0 41 -36q0 -100 -31.5 -168t-64.5 -68h-651q-25 0 -40 26.5 t-15 53.5z" />
<glyph unicode="{" horiz-adv-x="716" d="M59 659q76 35 101 58q45 41 45 114v654q0 113 135 160q98 35 260 34v-30q-74 0 -140.5 -40t-66.5 -108v-661q0 -66 -57 -121q-47 -45 -109 -64q80 -23 124 -73t44 -138v-630q0 -63 63.5 -100.5t133.5 -37.5l-4 -32q-51 -10 -101 -11q-113 0 -186 37q-88 45 -88 133v637 q0 94 -49 154q-41 49 -105 65z" />
<glyph unicode="|" horiz-adv-x="1351" d="M606 0v1550h142v-1550h-142z" />
<glyph unicode="}" horiz-adv-x="716" d="M68 1649v30q215 0 313 -57q82 -49 82 -137v-654q0 -70 45 -112q28 -27 100 -60q-63 -16 -104 -65q-49 -59 -49 -154v-637q0 -86 -90 -131q-76 -39 -187 -39q-51 0 -98 11l-4 32q72 0 129 33q68 39 67 105v630q0 86 45 137.5t123 73.5q-61 18 -106 62q-59 55 -60 123v661 q0 66 -66.5 107t-139.5 41z" />
<glyph unicode="~" horiz-adv-x="1351" d="M76 498q98 156 186 213q78 49 168 49q86 0 203 -43q268 -98 299 -99q59 0 112 56q20 23 78 104l152 -96q-92 -127 -139 -170q-90 -80 -203 -80q-90 0 -205 43q-260 98 -293 98q-57 0 -98 -32q-33 -27 -109 -144z" />
<glyph unicode="&#xa1;" horiz-adv-x="679" d="M170 -242q0 18 2 29l117 897q4 29 43 29q43 0 49 -37l127 -891q8 -63 -38 -119.5t-126 -56.5q-174 0 -174 149zM170 969q0 59 43 96t104 37q63 0 108.5 -35t45.5 -92t-45 -96t-104 -39q-61 0 -106.5 35.5t-45.5 93.5z" />
<glyph unicode="&#xa2;" d="M119 446q0 176 117.5 333t267.5 157v297q0 55 76 55q35 0 57 -14t22 -43v-291q23 2 35 2q109 0 193 -39q104 -49 104 -137q0 -41 -14 -64q-20 -31 -76 -30q-86 0 -145.5 86t-132.5 86q-98 0 -168 -117q-61 -104 -62 -231q0 -170 74 -275q82 -115 229 -115q133 0 199 74 t80 74q53 0 53 -37q0 -78 -99.5 -153.5t-219.5 -75.5h-25q-16 4 -25 4v-291q0 -53 -69 -53q-41 0 -63.5 15t-22.5 40v301q-193 0 -295 135q-90 119 -90 307z" />
<glyph unicode="&#xa3;" horiz-adv-x="1247" d="M57 727q0 16 11 45q0 4 6 14h227q-31 84 -48 141.5t-17 96.5q0 195 126 324q137 139 359 139q145 0 276 -94q141 -102 142 -234q0 -57 -33 -103t-90 -46q-45 0 -71.5 34.5t-26.5 81.5l4 88q0 47 -60 95q-70 55 -162 55q-117 0 -165 -82q-39 -66 -39 -190q0 -31 34 -156 q18 -68 45 -154h320q12 -18 17.5 -34.5t5.5 -34.5q0 -25 -19 -68h-287q6 -31 10.5 -57.5t4.5 -59.5q0 -88 -70 -184q-27 -37 -129 -147q70 25 113 39q80 27 114 26q2 0 191 -51q98 -27 135 -27q49 0 100.5 32t81.5 32q18 0 25.5 -13t7.5 -40q0 -51 -82 -127 q-102 -96 -233 -97q-47 0 -224.5 56.5t-222.5 56.5q-70 0 -155 -37q-55 -23 -152 -78q-25 -8 -46.5 15.5t-21.5 58.5q0 14 2 20q172 106 238 185q82 96 82 229q0 39 -11.5 83t-31.5 89h-264q-6 20 -8 31q-8 33 -9 47z" />
<glyph unicode="&#xa4;" horiz-adv-x="1392" d="M119 1241q0 27 21.5 46.5t49.5 19.5q31 0 64 -33l96 -98q72 63 156 90.5t182 27.5q184 0 334 -104l94 90q16 14 33 31q16 12 39 12q27 0 50.5 -21.5t23.5 -48.5q0 -14 -9 -26q-4 -6 -22 -25l-105 -106q66 -94 93.5 -171t27.5 -186q0 -178 -106 -305l92 -94l31.5 -31.5 t15.5 -38.5q0 -25 -26.5 -51t-53.5 -26q-18 0 -37 14q-20 23 -33 33l-96 88q-70 -51 -160 -83t-174 -32q-180 0 -333 111l-101 -99q-20 -20 -30 -28q-20 -16 -39 -17q-25 0 -47.5 22.5t-22.5 49.5q0 20 12 37q6 8 31 33l104 102q-63 76 -92.5 165t-29.5 187q0 84 24.5 161 t79.5 144l-94 88q-23 20 -29 29q-14 20 -14 43zM342 750q0 -158 102.5 -252.5t253.5 -94.5q150 0 252.5 98.5t102.5 256.5q0 160 -104.5 255t-260.5 95q-150 0 -248 -100.5t-98 -257.5z" />
<glyph unicode="&#xa5;" horiz-adv-x="1392" d="M0 1432q0 37 25.5 52t62.5 15h397q35 0 56.5 -16.5t21.5 -52.5q0 -35 -43 -59.5t-43 -49.5q0 -59 131 -279q76 -127 178 -278q74 92 181 268q131 215 131 275q0 35 -45 63.5t-45 65.5q0 49 37.5 56t68.5 7h172q57 0 70 -4q37 -12 37 -59q0 -39 -54 -90q-45 -43 -77 -99 l-299 -491h139q35 0 53.5 -14.5t18.5 -51.5q0 -39 -16.5 -52t-55.5 -13h-236v-146h228q43 0 60 -12t17 -53q0 -51 -32 -62q-14 -4 -47 -4h-226v-135q0 -47 50.5 -77t50.5 -64q0 -41 -24.5 -56.5t-63.5 -15.5h-310q-63 0 -82 6q-45 14 -45 68q0 31 51.5 59.5t51.5 87.5v127 h-185q-70 0 -95 14.5t-25 51.5q0 66 120 65h185v119l-19 27h-176q-66 0 -90 13t-24 54t30.5 52.5t106.5 11.5h63l-280 485q-43 76 -111 119q-45 29 -45 72z" />
<glyph unicode="&#xa6;" horiz-adv-x="573" d="M160 1010v327q0 39 31.5 63.5t74.5 24.5q45 0 83 -29.5t38 -74.5v-332q0 -37 -35 -60.5t-73 -23.5q-45 0 -82 29t-37 76zM162 346v328q0 39 34.5 63.5t77.5 24.5q45 0 80 -30t35 -75v-331q0 -37 -33.5 -60.5t-72.5 -23.5q-45 0 -83 28.5t-38 75.5z" />
<glyph unicode="&#xa7;" horiz-adv-x="1015" d="M121 690q0 106 72 172q63 57 167 80q-68 74 -104 139q-47 82 -47 156q0 106 81 183t212 77q109 0 187.5 -62.5t78.5 -142.5q0 -59 -10 -78q-20 -35 -90 -34q-51 0 -85 27.5t-34 66.5q0 20 22 45q51 55 52 76q0 18 -52 47q-35 18 -57 18q-57 0 -117.5 -45t-60.5 -100 q0 -74 139 -193q131 -111 262 -221q142 -143 142 -276q0 -115 -78 -179q-59 -49 -160 -63q74 -84 109.5 -149.5t35.5 -135.5q0 -125 -85 -199.5t-230 -74.5q-121 0 -197 59q-84 66 -84 178q0 35 38 64t81 29q104 0 105 -107q0 -25 -17.5 -52.5t-44.5 -55.5q0 -31 27 -50.5 t94 -19.5q61 0 111 35q57 41 57 108q0 74 -133 189q-250 215 -252 217q-135 141 -135 272zM258 760q0 -102 152 -225q133 -109 194 -109q57 0 94 25q47 31 47 88q0 102 -163 233q-152 121 -228 121q-49 0 -72.5 -40t-23.5 -93z" />
<glyph unicode="&#xa8;" horiz-adv-x="958" d="M82 1405q0 59 43 102t102 43q66 0 112 -42t46 -103q0 -59 -45 -98t-107 -39q-61 0 -106 39t-45 98zM557 1399q0 59 43 102t102 43q66 0 112 -42t46 -103q0 -59 -45 -98t-106 -39t-106.5 38.5t-45.5 98.5z" />
<glyph unicode="&#xa9;" horiz-adv-x="1720" d="M74 750q0 324 228 552t552 228q326 0 554 -228t228 -552q0 -322 -229 -551.5t-553 -229.5t-552 228.5t-228 552.5zM168 750q0 -285 200.5 -486t485.5 -201q283 0 485.5 201t202.5 486t-200.5 485.5t-487.5 200.5q-283 0 -484.5 -202t-201.5 -484zM422 760 q0 199 124 352.5t318 153.5q168 0 255 -56.5t87 -171.5v-37q0 -31 -10 -48t-41 -17q-23 0 -86 108.5t-207 108.5q-143 0 -213 -135q-55 -106 -55 -264q0 -156 70 -260q82 -123 229 -123q102 0 172 55q63 59 129 121q23 0 39 -16.5t16 -41.5q0 -82 -114.5 -160.5 t-257.5 -78.5q-209 0 -336 153q-119 143 -119 357z" />
<glyph unicode="&#xaa;" d="M59 1223q0 82 86 132t197 50q29 0 41 -2q-4 47 -28.5 76.5t-71.5 29.5q-20 0 -84 -39q-33 -20 -62 -20q-18 0 -31.5 11.5t-13.5 23.5q0 41 64.5 61.5t126.5 20.5q109 0 171 -44t62 -122v-234q0 -14 26.5 -30.5t26.5 -30.5q0 -23 -14 -23h-127q-10 14 -14 21 q-12 18 -21 37q-27 -31 -60.5 -46.5t-86.5 -15.5q-186 0 -187 144zM205 1233q-6 -43 16.5 -73t63.5 -30q35 0 65.5 21.5t30.5 54.5v142q-61 0 -107 -23q-61 -31 -69 -92z" />
<glyph unicode="&#xab;" horiz-adv-x="778" d="M43 592q0 20 16.5 43.5t36.5 46.5l176 215q27 33 42.5 45t29.5 12q45 0 45 -39q0 -16 -10 -37.5t-14 -29.5l-99 -203q-8 -16 -10 -24q-8 -20 -8 -27q4 -16 10 -31l104 -219q8 -14 19.5 -41t11.5 -41q0 -39 -43 -39q-18 0 -30.5 9.5t-49.5 54.5l-176 213q-29 35 -40 55 t-11 37zM375 592q0 20 18 47q4 6 35 43l176 215q27 33 42.5 45t29.5 12q45 0 45 -39q0 -12 -10.5 -35.5t-14.5 -31.5l-98 -203q-16 -39 -16 -51q0 -14 10 -31l104 -219q8 -20 19.5 -44t11.5 -38q0 -39 -45 -39q-18 0 -30.5 9.5t-49.5 54.5l-176 213q-29 37 -33 41 q-18 29 -18 51z" />
<glyph unicode="&#xac;" horiz-adv-x="2095" d="M53 123q0 43 25 115q18 53 41 94l53 74l21 26q-41 0 -59.5 16.5t-27.5 59.5q55 -8 109.5 19.5t103.5 74.5q4 0 9 2q8 -10 8 -29q0 -68 -43 -100q-37 -23 -72 -45q-39 -51 -57 -80q-37 -53 -37 -92q0 -27 14.5 -67.5t30.5 -40.5q37 0 147 77q41 29 82 60q23 57 35 90 q25 59 47 86q10 12 24.5 27.5t31.5 15.5q25 0 24 -27q0 -33 -35 -69q-23 -23 -61 -52q-4 -8 -16.5 -56t-12.5 -58q0 -25 35 -76q29 -43 55 -70q33 164 232 342q188 170 348 201q109 23 195 36t174 13q131 0 301 -28q113 -20 182 -105q94 -115 94 -338q0 -125 -71.5 -184.5 t-200.5 -59.5q-41 0 -72 9q-53 14 -53 45q0 18 10 26t27 8q14 0 30.5 -8t22.5 -21.5t18.5 -21.5t34.5 -16q94 0 149.5 63.5t55.5 151.5q0 190 -41 274q-57 119 -207.5 137.5t-223.5 25.5t-114 7q-63 0 -134 -12t-116 -18q-182 -33 -392 -221.5t-226 -340.5q39 -59 39 -116 q0 -29 -2 -33q-6 -12 -19 -12q-23 0 -38 43t-15 73v11q-49 37 -74 61q-49 49 -53 77t-5 46t-1 27q0 14 2 20q-74 -61 -139 -104q-102 -68 -148 -68q-41 0 -45 35zM635 45q6 23 41 23q8 0 20 -5q55 -18 47 -49q-6 -27 -45 -26q-12 0 -20 2q-16 4 -27 14q-23 18 -16 41z M745 106q0 47 30 82t81 50l4 -7q-37 -16 -51 -30q-25 -23 -29 -54q0 -68 86 -96q55 -18 148 -18q133 0 231 73q23 16 35 36t12 44q0 37 -27.5 48.5t-74.5 11.5q-20 0 -69.5 -4t-51.5 -4q-63 0 -104 24q-51 31 -52 94q0 90 81 142.5t177 52.5q33 0 49.5 -3t32.5 -22 q20 8 31 -10q18 -35 23 -39l4 -8q-4 -14 -24.5 -32.5t-26.5 -30.5q-2 -12 -13 -9q-23 20 -41 24.5t-18 16.5q0 10 16.5 30.5t16.5 37.5q0 20 -22.5 25.5t-33.5 5.5q-70 0 -129 -33q-74 -41 -73 -107q0 -37 33.5 -50t72.5 -13l107 4q76 0 106 -10q59 -21 59 -80 q0 -51 -38 -105q-29 -37 -78 -77q-129 -94 -279 -95q-76 0 -131 29q-70 37 -70 106zM1257 49q6 20 37 21q6 0 23 -4q51 -15 45 -48q-4 -25 -41 -24q-12 0 -21 2q-51 16 -43 53zM1421 72q0 25 21 53q8 12 22 25q18 -20 39 -39t49 -19q70 0 127 123q49 104 50 186 q0 45 -26 59.5t-75 14.5q-76 0 -83 -47t-17 -53l-15 31q2 8 3 32q0 63 8 80q20 43 98 43q76 0 130 -11t54 -54q0 -53 -57 -187q-39 -88 -90 -184q-37 -63 -51 -82q-41 -51 -82 -51q-33 0 -69 24.5t-36 55.5z" />
<glyph unicode="&#xad;" horiz-adv-x="1253" d="M123 467q0 23 18.5 52.5t44.5 29.5h873q35 0 59.5 -24.5t24.5 -61.5q0 -35 -26.5 -57.5t-63.5 -22.5h-879q-18 0 -34.5 26.5t-16.5 57.5z" />
<glyph unicode="&#xae;" horiz-adv-x="1720" d="M74 750q0 324 228 552t552 228q326 0 554 -228t228 -552q0 -322 -229 -551.5t-553 -229.5t-552 228.5t-228 552.5zM168 750q0 -285 200.5 -486t485.5 -201q283 0 485.5 201t202.5 486t-200.5 485.5t-487.5 200.5q-283 0 -484.5 -202t-201.5 -484zM446 328q0 31 38 46 t38 60v637q0 55 -38 71.5t-38 43.5q0 39 20.5 46t68.5 7h383q131 0 220 -61.5t89 -169.5q0 -84 -60 -154q-51 -61 -137 -102q59 -66 105 -148q45 -96 90 -190q12 -25 63 -62q19 -14 19 -28q0 -33 -22.5 -41.5t-61.5 -8.5h-142q-51 0 -67.5 10.5t-16.5 39.5q0 31 43 47 q23 8 23 24q0 59 -66 166q-57 92 -112 148l-209 -43v-224q0 -47 43 -67.5t43 -50.5q0 -33 -22.5 -41.5t-61.5 -8.5h-143q-47 0 -60 5q-29 10 -29 49zM674 780q152 23 241 60q154 61 154 161q0 70 -56.5 104t-203.5 34q-90 0 -112.5 -11.5t-22.5 -46.5v-30v-271z" />
<glyph unicode="&#xaf;" horiz-adv-x="880" d="M31 1096v204h809v-204h-809z" />
<glyph unicode="&#xb0;" horiz-adv-x="712" d="M121 1325q0 94 74.5 169t171.5 75q98 0 173.5 -69t75.5 -169q0 -102 -70.5 -177t-172.5 -75q-98 0 -172 64q-80 70 -80 182zM252 1315q0 -78 31.5 -135.5t93.5 -57.5q59 0 90 66q25 51 25 125q0 76 -27 133q-33 70 -90 70q-70 0 -101 -68q-23 -49 -22 -133z" />
<glyph unicode="&#xb1;" horiz-adv-x="1245" d="M127 729v135h420v508h137v-508h408v-135h-412v-416h405l-2 -114h-919l2 114h381v416h-420z" />
<glyph unicode="&#xb2;" horiz-adv-x="647" d="M78 817q129 166 225 293q106 139 107 231q0 43 -24 73t-67 30q-41 0 -66.5 -30t-25.5 -75q0 -23 7.5 -38t17.5 -31q0 -20 -19.5 -35.5t-42.5 -15.5q-37 0 -64.5 25.5t-27.5 60.5q0 88 71 146t165 58q100 0 157.5 -57t57.5 -137q0 -82 -84 -191q-109 -119 -217 -235h229 q14 0 39 26.5t31 26.5q22 0 22 -29q0 -33 -17 -82t-34 -49h-428q-12 0 -12 35z" />
<glyph unicode="&#xb3;" horiz-adv-x="645" d="M96 952q0 25 13.5 41.5t44.5 16.5q43 0 67 -31q0 -53 25.5 -92t75.5 -39q55 0 83.5 42t28.5 101q0 104 -45 139t-156 35l-6 21q0 10 9 24q92 10 118 25q66 35 66 129q0 47 -26.5 85t-61.5 38q-31 0 -52.5 -19.5t-21.5 -50.5q0 -6 5 -22.5t5 -20.5q0 -27 -15 -44t-44 -17 q-33 0 -55.5 20.5t-22.5 52.5q0 66 61.5 110t143.5 44q90 0 151 -43q72 -51 72 -141q0 -74 -59.5 -119t-134.5 -45q98 0 155 -39q70 -47 70 -145q0 -106 -82 -166q-74 -53 -184 -54q-84 0 -152 43q-76 49 -76 121z" />
<glyph unicode="&#xb4;" horiz-adv-x="679" d="M66 1126q0 27 14 54q133 59 233 98q133 51 228 76q20 0 44.5 -36t24.5 -65q0 -37 -12 -59q-61 -27 -221 -70q-125 -33 -264 -67q-47 25 -47 69z" />
<glyph unicode="&#xb5;" horiz-adv-x="1556" d="M63 -389q121 147 189 332q47 131 65 272q6 72 15 143l139 521q4 16 4 20q0 12 -13 19.5t-59 17.5l23 88h313l-180 -664q-14 -51 -14 -84q0 -51 33.5 -80.5t117.5 -29.5q102 0 209 64.5t129 148.5l140 522q4 16 -22 24.5t-52 14.5l22 84h316l-238 -877l-4 -34 q0 -18 70 -19l-27 -94h-305l24 98q-80 -55 -174 -85.5t-186 -30.5q-39 0 -61.5 3t-65.5 17l-96 -391h-312z" />
<glyph unicode="&#xb6;" horiz-adv-x="1597" d="M33 1047q0 213 121 325q135 127 424 127h815h47q47 0 73.5 -13.5t26.5 -58.5q0 -39 -21.5 -58t-93.5 -19h-32h-60v-1596q0 -57 -18 -94q-25 -49 -78 -49q-47 0 -70 24q-29 31 -28 111v1608h-133v-1600q0 -68 -13 -96q-20 -47 -86 -47q-61 0 -78.5 36t-17.5 99v741 q-301 0 -516 125q-262 152 -262 435zM342 1044q0 -186 145 -311q131 -112 324 -139v760h-74q-182 0 -278 -62q-117 -74 -117 -248z" />
<glyph unicode="&#xb7;" horiz-adv-x="567" d="M100 707q0 61 42 107t104 46q61 0 107 -42t46 -103t-41 -106.5t-102 -45.5q-63 0 -109.5 42t-46.5 102z" />
<glyph unicode="&#xb8;" horiz-adv-x="1032" d="M297 -322l65 93q29 -8 44 -13q47 -12 73 -12q41 0 70 16q37 23 37 60q0 31 -41 31q-39 0 -80 -9l-27 27l88 149h133l-34 -55q68 0 106.5 -31t38.5 -84q0 -88 -80 -149t-217 -61q-39 0 -75 6t-101 32z" />
<glyph unicode="&#xb9;" horiz-adv-x="618" d="M117 1356q0 35 125 78q102 35 137 34q8 -6 10 -8q10 -10 10 -16v-604q0 -27 60.5 -41.5t60.5 -34.5q0 -6 -4 -12q-10 -12 -20 -13h-344q-20 0 -21 23q0 18 58.5 32.5t58.5 43.5v462q0 27 -65.5 31t-65.5 25z" />
<glyph unicode="&#xba;" horiz-adv-x="655" d="M86 1331q0 84 75 154.5t169 70.5q98 0 174 -67.5t76 -169.5t-71 -177t-173 -75q-115 0 -182.5 71.5t-67.5 192.5zM215 1303q0 -76 32 -134.5t93 -58.5q57 0 86 60t29 130q0 88 -25 138q-33 66 -102 65q-53 0 -83 -59.5t-30 -140.5z" />
<glyph unicode="&#xbb;" horiz-adv-x="778" d="M49 262q0 12 13.5 43t17.5 39l104 219q10 16 11 31q0 10 -7 27q-2 6 -10 24l-98 203q-12 27 -18.5 42t-6.5 25q0 39 45 39q18 0 41 -20q4 -4 31 -37l176 -215q6 -6 25 -31q28 -36 28 -59q0 -20 -18 -49q-8 -14 -33 -43l-176 -213q-31 -37 -47 -50.5t-33 -13.5 q-45 0 -45 39zM383 262q0 16 13.5 44t17.5 38l84 180q10 20 20 42t10 28q0 12 -8 28.5t-10 22.5l-98 203q-8 18 -16.5 37.5t-8.5 29.5q0 39 45 39q18 0 41 -20q4 -4 31 -37l178 -215q27 -33 33 -41q18 -26 18 -49t-18 -51q-4 -4 -33 -41l-176 -213q-29 -35 -33 -39 q-25 -25 -47 -25q-43 0 -43 39z" />
<glyph unicode="&#xbc;" horiz-adv-x="1265" d="M-8 20l1104 1430h131l-1104 -1430h-131zM51 1350q0 35 125 77q102 35 137 35q8 -6 11 -8q10 -10 10 -16v-604q0 -27 60.5 -41.5t60.5 -34.5q0 -6 -4 -13q-10 -12 -21 -12h-344q-20 0 -20 23q0 18 58 32.5t58 42.5v463q0 27 -65.5 31t-65.5 25zM541 240q0 80 112 276 q131 229 246 229q18 0 33.5 -13t15.5 -32v-438h92q21 0 21 -29q0 -37 -19 -36h-94v-101q0 -18 28 -26.5t28 -22.5q0 -23 -17 -22h-223q-18 0 -19 22q0 16 35 22.5t35 22.5v103h-240q-35 0 -34 45zM627 262h188v371q-59 -76 -115 -189q-47 -94 -73 -182z" />
<glyph unicode="&#xbd;" horiz-adv-x="1269" d="M-10 25l1104 1429h131l-1104 -1429h-131zM86 1356q0 35 125 78q102 35 137 34q8 -6 10 -8q10 -10 11 -16v-604q0 -27 60 -41.5t60 -34.5q0 -6 -4 -12q-10 -12 -20 -13h-344q-20 0 -21 23q0 18 58.5 32.5t58.5 43.5v462q0 27 -65.5 31t-65.5 25zM594 59q129 166 225 293 q106 139 107 232q0 43 -23.5 72.5t-66.5 29.5q-41 0 -67 -29.5t-26 -74.5q0 -23 7.5 -38.5t17.5 -31.5q0 -20 -19.5 -35.5t-41.5 -15.5q-37 0 -65 25.5t-28 60.5q0 88 71 146.5t165 58.5q100 0 157.5 -57.5t57.5 -137.5q0 -82 -84 -190q-109 -119 -217 -236h229 q14 0 39 26.5t31 26.5q22 1 22 -28q0 -33 -17 -82t-34 -49h-428q-12 0 -12 34z" />
<glyph unicode="&#xbe;" horiz-adv-x="1245" d="M-6 12l1104 1430h131l-1104 -1430h-131zM53 950q0 25 13.5 41.5t44.5 16.5q43 0 67 -31q0 -53 25.5 -92t75.5 -39q55 0 83.5 42t28.5 101q0 104 -45 139t-156 35l-6 21q0 10 9 24q92 10 118 25q66 35 66 129q0 47 -26.5 85t-61.5 38q-31 0 -52.5 -19.5t-21.5 -50.5 q0 -6 5 -22.5t5 -20.5q0 -27 -15 -44t-44 -17q-33 0 -55.5 20.5t-22.5 52.5q0 66 61.5 110t143.5 44q90 0 151 -43q72 -51 72 -141q0 -74 -59.5 -119t-134.5 -45q98 0 155 -39q70 -47 70 -145q0 -106 -82 -166q-74 -53 -184 -54q-84 0 -152 43q-76 49 -76 121zM571 240 q0 80 113 276q131 229 246 229q18 0 33.5 -13t15.5 -32v-438h92q21 0 21 -29q0 -37 -19 -36h-94v-101q0 -18 27.5 -26.5t27.5 -22.5q0 -23 -16 -22h-223q-18 0 -19 22q0 16 35 22.5t35 22.5v103h-240q-35 0 -35 45zM657 262h189v371q-59 -76 -115 -189q-47 -94 -74 -182z " />
<glyph unicode="&#xbf;" horiz-adv-x="1015" d="M111 14q0 180 153 312q166 100 332 202l10 123q0 20 21.5 32.5t46.5 12.5t39 -12t14 -27l16 -200q0 -66 -178 -176.5t-178 -300.5q0 -117 37 -185q49 -90 156 -90q100 0 104 137.5t129 137.5q55 0 96 -39.5t41 -98.5q0 -94 -116.5 -162.5t-255.5 -68.5q-182 0 -318 104 q-150 117 -149 299zM485 981q0 61 47.5 95t112.5 34q66 0 117 -36t51 -93q0 -68 -47 -104.5t-115 -36.5q-59 0 -108 37q-57 43 -58 104z" />
<glyph unicode="&#xc0;" horiz-adv-x="1476" d="M18 55q0 23 45 64q55 49 68 82l457 1188q14 37 54 64.5t77 27.5q39 0 74.5 -23.5t52.5 -64.5l485 -1233q12 -35 51 -57.5t39 -49.5t-14 -40t-37 -13h-369q-18 0 -33.5 17.5t-15.5 35.5q0 27 42 50.5t42 52.5q0 6 -4 26l-88 297h-567q-29 -78 -41 -121q-41 -129 -41 -168 q0 -45 43 -79.5t43 -61.5q0 -49 -35 -49h-295q-14 0 -23.5 19.5t-9.5 35.5zM417 1769v21q0 25 16.5 48.5t51.5 37.5q98 -27 243.5 -85t245.5 -114q7 -17 7 -31q0 -23 -13.5 -46t-27.5 -23q-70 0 -233 48t-284 108q-6 12 -6 36zM418 614h477l-233 625z" />
<glyph unicode="&#xc1;" horiz-adv-x="1476" d="M18 55q0 23 45 64q55 49 68 82l457 1188q14 37 54 64.5t77 27.5q39 0 74.5 -23.5t52.5 -64.5l485 -1233q12 -35 51 -57.5t39 -49.5t-14 -40t-37 -13h-369q-18 0 -33.5 17.5t-15.5 35.5q0 27 42 50.5t42 52.5q0 6 -4 26l-88 297h-567q-29 -78 -41 -121q-41 -129 -41 -168 q0 -45 43 -79.5t43 -61.5q0 -49 -35 -49h-295q-14 0 -23.5 19.5t-9.5 35.5zM418 614h477l-233 625zM435 1628q0 27 14 54q133 59 233 98q133 51 228 76q20 0 44.5 -36t24.5 -65q0 -37 -12 -59q-61 -27 -221 -70q-125 -33 -264 -67q-47 25 -47 69z" />
<glyph unicode="&#xc2;" horiz-adv-x="1476" d="M18 55q0 23 45 64q55 49 68 82l457 1188q14 37 54 64.5t77 27.5q39 0 74.5 -23.5t52.5 -64.5l485 -1233q12 -35 51 -57.5t39 -49.5t-14 -40t-37 -13h-369q-18 0 -33.5 17.5t-15.5 35.5q0 27 42 50.5t42 52.5q0 6 -4 26l-88 297h-567q-29 -78 -41 -121q-41 -129 -41 -168 q0 -45 43 -79.5t43 -61.5q0 -49 -35 -49h-295q-14 0 -23.5 19.5t-9.5 35.5zM418 614h477l-233 625zM452 1617l166 224q25 35 80 34q55 0 80 -30l178 -232l-16 -39h-113l-125 156l-110 -147l-123 -2z" />
<glyph unicode="&#xc3;" horiz-adv-x="1476" d="M18 55q0 23 45 64q55 49 68 82l457 1188q14 37 54 64.5t77 27.5q39 0 74.5 -23.5t52.5 -64.5l485 -1233q12 -35 51 -57.5t39 -49.5t-14 -40t-37 -13h-369q-18 0 -33.5 17.5t-15.5 35.5q0 27 42 50.5t42 52.5q0 6 -4 26l-88 297h-567q-29 -78 -41 -121q-41 -129 -41 -168 q0 -45 43 -79.5t43 -61.5q0 -49 -35 -49h-295q-14 0 -23.5 19.5t-9.5 35.5zM297 1654q74 158 135.5 210.5t130.5 52.5q74 0 205 -71t170 -71q45 0 86 56q16 23 57 104l115 -96q-61 -113 -76 -133q-80 -117 -182 -117q-78 0 -207 70.5t-166 70.5q-53 0 -94 -57 q-12 -16 -61 -119zM418 614h477l-233 625z" />
<glyph unicode="&#xc4;" horiz-adv-x="1476" d="M18 55q0 23 45 64q55 49 68 82l457 1188q14 37 54 64.5t77 27.5q39 0 74.5 -23.5t52.5 -64.5l485 -1233q12 -35 51 -57.5t39 -49.5t-14 -40t-37 -13h-369q-18 0 -33.5 17.5t-15.5 35.5q0 27 42 50.5t42 52.5q0 6 -4 26l-88 297h-567q-29 -78 -41 -121q-41 -129 -41 -168 q0 -45 43 -79.5t43 -61.5q0 -49 -35 -49h-295q-14 0 -23.5 19.5t-9.5 35.5zM318 1712q0 59 43 102t102 43q66 0 112 -42t46 -103q0 -59 -45 -98t-107 -39q-61 0 -106 39t-45 98zM418 614h477l-233 625zM793 1706q0 59 43 102t102 43q66 0 112 -42t46 -103q0 -59 -45 -98 t-106 -39t-106.5 38.5t-45.5 98.5z" />
<glyph unicode="&#xc5;" horiz-adv-x="1476" d="M18 55q0 23 45 64q55 49 68 82l457 1188q14 37 54 64.5t77 27.5q39 0 74.5 -23.5t52.5 -64.5l485 -1233q12 -35 51 -57.5t39 -49.5t-14 -40t-37 -13h-369q-18 0 -33.5 17.5t-15.5 35.5q0 27 42 50.5t42 52.5q0 6 -4 26l-88 297h-567q-29 -78 -41 -121q-41 -129 -41 -168 q0 -45 43 -79.5t43 -61.5q0 -49 -35 -49h-295q-14 0 -23.5 19.5t-9.5 35.5zM418 614h477l-233 625zM506 1784q0 84 61.5 145.5t147.5 61.5t146.5 -60.5t60.5 -146.5q0 -84 -60.5 -144.5t-146.5 -60.5t-147.5 59.5t-61.5 145.5zM635 1778q0 -33 22.5 -55.5t57.5 -22.5 q31 0 55.5 22.5t24.5 55.5t-22.5 55.5t-57.5 22.5t-57.5 -22.5t-22.5 -55.5z" />
<glyph unicode="&#xc6;" horiz-adv-x="1822" d="M18 55q0 23 45 64q55 49 68 82l432 1126q-16 20 -16 41q0 72 51 72h993q41 0 75 -48.5t34 -103.5q0 -41 -15.5 -76.5t-46.5 -35.5q-45 0 -94 45q-113 102 -254 102h-270q-41 0 -62.5 -19.5t-21.5 -70.5v-389h364q37 0 111 39q39 20 66 20q29 0 45 -26.5t16 -110.5 q0 -53 -15.5 -87t-43.5 -34q-31 0 -87.5 38t-86.5 38h-377v-520q0 -76 71 -76h361q143 0 220 83t116 83q55 0 55 -51q0 -113 -20 -166q-29 -74 -101 -74h-1067q-39 0 -39 49q0 47 53.5 67.5t53.5 76.5v286h-254q-29 -78 -41 -121q-41 -129 -41 -168q0 -45 43 -79.5t43 -61.5 q0 -49 -35 -49h-295q-14 0 -23.5 19.5t-9.5 35.5zM418 614h213v545z" />
<glyph unicode="&#xc7;" horiz-adv-x="1476" d="M74 741q0 309 215 533q225 233 571 233q150 0 323 -74.5t173 -148.5l16 -192q2 -12 -16.5 -36t-32.5 -24q-78 137 -186 238q-119 111 -314 110q-221 0 -342 -209q-100 -174 -100 -419q0 -266 106 -435q125 -199 371 -198q150 0 279 76q109 82 219 165q53 0 53 -57 q0 -84 -135 -194q-168 -137 -397 -138l-15 -22q68 0 107 -31t39 -84q0 -88 -80 -149.5t-217 -61.5q-39 0 -75 6t-101 33l65 92q29 -8 43 -12q47 -12 74 -12q41 0 69 16q37 23 37 59q0 31 -41 31q-39 0 -80 -8l-26 27l69 118q-305 31 -488 249t-183 519z" />
<glyph unicode="&#xc8;" horiz-adv-x="1359" d="M53 49q0 47 53.5 67.5t53.5 76.5v1058q0 20 -42 54t-42 63q0 72 51 72h993q41 0 75 -48.5t34 -103.5q0 -41 -15.5 -76.5t-46.5 -35.5q-45 0 -94 45q-113 102 -254 102h-270q-41 0 -62.5 -19.5t-21.5 -70.5v-389h364q37 0 111 39q39 20 66 20q29 0 45 -26.5t16 -110.5 q0 -53 -15.5 -87t-43.5 -34q-31 0 -87.5 38t-86.5 38h-377v-520q0 -76 71 -76h332q164 0 252 84t109 84q25 0 42 -15t17 -38q0 -113 -20 -166q-29 -74 -101 -74h-1067q-39 0 -39 49zM444 1745v21q0 25 16.5 48.5t51.5 37.5q98 -27 243.5 -85t245.5 -114q7 -17 7 -31 q0 -23 -13.5 -46t-27.5 -23q-70 0 -233 48t-284 108q-6 12 -6 36z" />
<glyph unicode="&#xc9;" horiz-adv-x="1359" d="M53 49q0 47 53.5 67.5t53.5 76.5v1058q0 20 -42 54t-42 63q0 72 51 72h993q41 0 75 -48.5t34 -103.5q0 -41 -15.5 -76.5t-46.5 -35.5q-45 0 -94 45q-113 102 -254 102h-270q-41 0 -62.5 -19.5t-21.5 -70.5v-389h364q37 0 111 39q39 20 66 20q29 0 45 -26.5t16 -110.5 q0 -53 -15.5 -87t-43.5 -34q-31 0 -87.5 38t-86.5 38h-377v-520q0 -76 71 -76h332q164 0 252 84t109 84q25 0 42 -15t17 -38q0 -113 -20 -166q-29 -74 -101 -74h-1067q-39 0 -39 49zM424 1628q0 27 14 54q133 59 233 98q133 51 228 76q20 0 44.5 -36t24.5 -65q0 -37 -12 -59 q-61 -27 -221 -70q-125 -33 -264 -67q-47 25 -47 69z" />
<glyph unicode="&#xca;" horiz-adv-x="1359" d="M53 49q0 47 53.5 67.5t53.5 76.5v1058q0 20 -42 54t-42 63q0 72 51 72h993q41 0 75 -48.5t34 -103.5q0 -41 -15.5 -76.5t-46.5 -35.5q-45 0 -94 45q-113 102 -254 102h-270q-41 0 -62.5 -19.5t-21.5 -70.5v-389h364q37 0 111 39q39 20 66 20q29 0 45 -26.5t16 -110.5 q0 -53 -15.5 -87t-43.5 -34q-31 0 -87.5 38t-86.5 38h-377v-520q0 -76 71 -76h332q164 0 252 84t109 84q25 0 42 -15t17 -38q0 -113 -20 -166q-29 -74 -101 -74h-1067q-39 0 -39 49zM471 1617l166 224q25 35 80 34q55 0 80 -30l178 -232l-16 -39h-113l-125 156l-110 -147 l-123 -2z" />
<glyph unicode="&#xcb;" horiz-adv-x="1359" d="M53 49q0 47 53.5 67.5t53.5 76.5v1058q0 20 -42 54t-42 63q0 72 51 72h993q41 0 75 -48.5t34 -103.5q0 -41 -15.5 -76.5t-46.5 -35.5q-45 0 -94 45q-113 102 -254 102h-270q-41 0 -62.5 -19.5t-21.5 -70.5v-389h364q37 0 111 39q39 20 66 20q29 0 45 -26.5t16 -110.5 q0 -53 -15.5 -87t-43.5 -34q-31 0 -87.5 38t-86.5 38h-377v-520q0 -76 71 -76h332q164 0 252 84t109 84q25 0 42 -15t17 -38q0 -113 -20 -166q-29 -74 -101 -74h-1067q-39 0 -39 49zM295 1712q0 59 43 102t102 43q66 0 112 -42t46 -103q0 -59 -45 -98t-107 -39 q-61 0 -106 39t-45 98zM770 1706q0 59 43 102t102 43q66 0 112 -42t46 -103q0 -59 -45 -98t-106 -39t-106.5 38.5t-45.5 98.5z" />
<glyph unicode="&#xcc;" horiz-adv-x="679" d="M26 1755v21q0 25 16.5 48.5t51.5 37.5q98 -27 243.5 -85t245.5 -114q7 -17 7 -31q0 -23 -13.5 -46t-27.5 -23q-70 0 -233 48t-284 108q-6 12 -6 36zM55 41q0 27 69 55.5t69 116.5v1004q0 90 -56.5 118.5t-56.5 61.5q0 16 12 29.5t29 13.5h428q12 0 30.5 -14.5t18.5 -30.5 q0 -37 -37 -54q-82 -35 -82 -127v-1013q0 -88 72 -104.5t72 -43.5q0 -33 -16.5 -43t-57.5 -10h-465q-18 0 -23 6q-6 8 -6 35z" />
<glyph unicode="&#xcd;" horiz-adv-x="679" d="M55 41q0 27 69 55.5t69 116.5v1004q0 90 -56.5 118.5t-56.5 61.5q0 16 12 29.5t29 13.5h428q12 0 30.5 -14.5t18.5 -30.5q0 -37 -37 -54q-82 -35 -82 -127v-1013q0 -88 72 -104.5t72 -43.5q0 -33 -16.5 -43t-57.5 -10h-465q-18 0 -23 6q-6 8 -6 35zM66 1628q0 27 14 54 q133 59 233 98q133 51 228 76q20 0 44.5 -36t24.5 -65q0 -37 -12 -59q-61 -27 -221 -70q-125 -33 -264 -67q-47 25 -47 69z" />
<glyph unicode="&#xce;" horiz-adv-x="679" d="M55 41q0 27 69 55.5t69 116.5v1004q0 90 -56.5 118.5t-56.5 61.5q0 16 12 29.5t29 13.5h428q12 0 30.5 -14.5t18.5 -30.5q0 -37 -37 -54q-82 -35 -82 -127v-1013q0 -88 72 -104.5t72 -43.5q0 -33 -16.5 -43t-57.5 -10h-465q-18 0 -23 6q-6 8 -6 35zM77 1607l166 224 q25 35 80 34q55 0 80 -30l178 -232l-16 -39h-113l-125 156l-110 -147l-123 -2z" />
<glyph unicode="&#xcf;" horiz-adv-x="679" d="M-51 1712q0 59 43 102t102 43q66 0 112 -42t46 -103q0 -59 -45 -98t-107 -39q-61 0 -106 39t-45 98zM55 41q0 27 69 55.5t69 116.5v1004q0 90 -56.5 118.5t-56.5 61.5q0 16 12 29.5t29 13.5h428q12 0 30.5 -14.5t18.5 -30.5q0 -37 -37 -54q-82 -35 -82 -127v-1013 q0 -88 72 -104.5t72 -43.5q0 -33 -16.5 -43t-57.5 -10h-465q-18 0 -23 6q-6 8 -6 35zM424 1706q0 59 43 102t102 43q66 0 112 -42t46 -103q0 -59 -45 -98t-106 -39t-106.5 38.5t-45.5 98.5z" />
<glyph unicode="&#xd0;" horiz-adv-x="1591" d="M-51 692q0 23 18.5 52.5t44.5 29.5h160v406q0 115 -84 143q-41 14 -41 47q0 45 203 62q102 8 254 8q455 0 717 -184t262 -506q0 -332 -199 -541t-491 -209h-666q-20 0 -39.5 19.5t-19.5 37.5q0 29 52 55.5t52 69.5v426h-172q-18 0 -34.5 27t-16.5 57zM469 205 q0 -63 46 -84t149 -21q217 0 360 146q152 153 152 413q0 295 -148 476q-156 188 -424 188q-61 0 -98 -16.5t-37 -57.5v-475h416q35 0 59.5 -24.5t24.5 -61.5q0 -35 -27 -57.5t-63 -22.5h-410v-403z" />
<glyph unicode="&#xd1;" horiz-adv-x="1591" d="M29 1405q0 8 11 19.5t23 11.5h410l752 -992v773q0 63 -92 126q-45 31 -46 58q0 12 13.5 23.5t29.5 11.5h330q18 0 29.5 -13.5t11.5 -33.5q0 -18 -58.5 -52t-58.5 -112v-1170q0 -33 -22.5 -51t-71.5 -18q-23 0 -41 4t-32 22l-881 1188v-964q0 -92 84 -123t84 -66 q0 -16 -17.5 -31.5t-29.5 -15.5h-381q-41 0 -41 43q0 39 68.5 65.5t68.5 100.5v1059q0 31 -45 51q-98 47 -98 86zM328 1644q74 158 135.5 210.5t130.5 52.5q74 0 205 -71t170 -71q45 0 86 56q16 23 57 104l115 -96q-61 -113 -76 -133q-80 -117 -182 -117q-78 0 -207 70.5 t-166 70.5q-53 0 -94 -57q-12 -16 -61 -119z" />
<glyph unicode="&#xd2;" horiz-adv-x="1695" d="M78 725q0 299 207 528q217 242 530 242t545.5 -216t232.5 -513q0 -346 -214 -569.5t-519 -223.5q-350 0 -571 226q-211 215 -211 526zM381 713q0 -238 123 -426q137 -211 356 -211q176 0 305 196q123 187 123 418q0 272 -88 457q-115 238 -348 237q-231 0 -363 -229 q-109 -190 -108 -442zM526 1755v21q0 25 16.5 48.5t51.5 37.5q98 -27 243.5 -85t245.5 -114q7 -17 7 -31q0 -23 -13.5 -46t-27.5 -23q-70 0 -233 48t-284 108q-6 12 -6 36z" />
<glyph unicode="&#xd3;" horiz-adv-x="1695" d="M78 725q0 299 207 528q217 242 530 242t545.5 -216t232.5 -513q0 -346 -214 -569.5t-519 -223.5q-350 0 -571 226q-211 215 -211 526zM381 713q0 -238 123 -426q137 -211 356 -211q176 0 305 196q123 187 123 418q0 272 -88 457q-115 238 -348 237q-231 0 -363 -229 q-109 -190 -108 -442zM555 1648q0 27 14 54q133 59 233 98q133 51 228 76q20 0 44.5 -36t24.5 -65q0 -37 -12 -59q-61 -27 -221 -70q-125 -33 -264 -67q-47 25 -47 69z" />
<glyph unicode="&#xd4;" horiz-adv-x="1695" d="M78 725q0 299 207 528q217 242 530 242t545.5 -216t232.5 -513q0 -346 -214 -569.5t-519 -223.5q-350 0 -571 226q-211 215 -211 526zM381 713q0 -238 123 -426q137 -211 356 -211q176 0 305 196q123 187 123 418q0 272 -88 457q-115 238 -348 237q-231 0 -363 -229 q-109 -190 -108 -442zM583 1617l166 224q25 35 80 34q55 0 80 -30l178 -232l-16 -39h-113l-125 156l-110 -147l-123 -2z" />
<glyph unicode="&#xd5;" horiz-adv-x="1695" d="M78 725q0 299 207 528q217 242 530 242t545.5 -216t232.5 -513q0 -346 -214 -569.5t-519 -223.5q-350 0 -571 226q-211 215 -211 526zM356 1665q74 158 135.5 210.5t130.5 52.5q74 0 205 -71t170 -71q45 0 86 56q16 23 57 104l115 -96q-61 -113 -76 -133 q-80 -117 -182 -117q-78 0 -207 70.5t-166 70.5q-53 0 -94 -57q-12 -16 -61 -119zM381 713q0 -238 123 -426q137 -211 356 -211q176 0 305 196q123 187 123 418q0 272 -88 457q-115 238 -348 237q-231 0 -363 -229q-109 -190 -108 -442z" />
<glyph unicode="&#xd6;" horiz-adv-x="1695" d="M78 725q0 299 207 528q217 242 530 242t545.5 -216t232.5 -513q0 -346 -214 -569.5t-519 -223.5q-350 0 -571 226q-211 215 -211 526zM381 713q0 -238 123 -426q137 -211 356 -211q176 0 305 196q123 187 123 418q0 272 -88 457q-115 238 -348 237q-231 0 -363 -229 q-109 -190 -108 -442zM451 1722q0 59 43 102t102 43q66 0 112 -42t46 -103q0 -59 -45 -98t-107 -39q-61 0 -106 39t-45 98zM926 1716q0 59 43 102t102 43q66 0 112 -42t46 -103q0 -59 -45 -98t-106 -39t-106.5 38.5t-45.5 98.5z" />
<glyph unicode="&#xd7;" horiz-adv-x="1277" d="M223 313l295 295l-268 269l100 94l264 -266l291 290l92 -98l-290 -291l292 -291l-92 -96l-295 293l-297 -297z" />
<glyph unicode="&#xd8;" horiz-adv-x="1628" d="M51 748q0 295 185 522q209 258 546 258q123 0 235.5 -35t207.5 -98l84 108h131l-133 -172q113 -102 180 -243t67 -295q0 -315 -194 -543q-209 -244 -533 -244q-264 0 -450 125l-92 -119h-131l141 181q-119 106 -181.5 242t-62.5 313zM348 745q0 -190 90 -366l680 876 q-53 76 -126.5 119t-172.5 43q-231 0 -362 -229q-109 -190 -109 -443zM496 285q63 -84 144 -130t187 -46q176 0 310 204q118 184 118 383q0 150 -17 249t-67 212z" />
<glyph unicode="&#xd9;" horiz-adv-x="1359" d="M78 1389q0 18 16.5 32.5t36.5 14.5h381q35 0 59.5 -10.5t24.5 -39.5q0 -45 -60.5 -78.5t-60.5 -68.5q-16 -115 -29.5 -324.5t-13.5 -465.5q0 -127 98 -240q115 -131 283 -131q252 0 347 137t95 479q0 123 -20 346q-12 113 -23 228q0 20 -63.5 53t-63.5 65q0 18 15.5 34 t27.5 16h332q14 0 24.5 -10.5t10.5 -26.5q0 -29 -53 -59.5t-53 -77.5q18 -178 32.5 -339t14.5 -235q0 -420 -189 -596q-156 -145 -469 -145q-291 0 -469 149.5t-178 403.5q0 82 17.5 289.5t35.5 418.5q0 74 -71 121q-35 23 -35 60zM559 1755v21q0 25 16.5 48.5t51.5 37.5 q98 -27 243.5 -85t245.5 -114q7 -17 7 -31q0 -23 -13.5 -46t-27.5 -23q-70 0 -233 48t-284 108q-6 12 -6 36z" />
<glyph unicode="&#xda;" horiz-adv-x="1591" d="M78 1389q0 18 16.5 32.5t36.5 14.5h381q35 0 59.5 -10.5t24.5 -39.5q0 -45 -60.5 -78.5t-60.5 -68.5q-16 -115 -29.5 -324.5t-13.5 -465.5q0 -127 98 -240q115 -131 283 -131q252 0 347 137t95 479q0 123 -20 346q-12 113 -23 228q0 20 -63.5 53t-63.5 65q0 18 15.5 34 t27.5 16h332q14 0 24.5 -10.5t10.5 -26.5q0 -29 -53 -59.5t-53 -77.5q18 -178 32.5 -339t14.5 -235q0 -420 -189 -596q-156 -145 -469 -145q-291 0 -469 149.5t-178 403.5q0 82 17.5 289.5t35.5 418.5q0 74 -71 121q-35 23 -35 60zM558 1638q0 27 14 54q133 59 233 98 q133 51 228 76q20 0 44.5 -36t24.5 -65q0 -37 -12 -59q-61 -27 -221 -70q-125 -33 -264 -67q-47 25 -47 69z" />
<glyph unicode="&#xdb;" horiz-adv-x="1591" d="M78 1389q0 18 16.5 32.5t36.5 14.5h381q35 0 59.5 -10.5t24.5 -39.5q0 -45 -60.5 -78.5t-60.5 -68.5q-16 -115 -29.5 -324.5t-13.5 -465.5q0 -127 98 -240q115 -131 283 -131q252 0 347 137t95 479q0 123 -20 346q-12 113 -23 228q0 20 -63.5 53t-63.5 65q0 18 15.5 34 t27.5 16h332q14 0 24.5 -10.5t10.5 -26.5q0 -29 -53 -59.5t-53 -77.5q18 -178 32.5 -339t14.5 -235q0 -420 -189 -596q-156 -145 -469 -145q-291 0 -469 149.5t-178 403.5q0 82 17.5 289.5t35.5 418.5q0 74 -71 121q-35 23 -35 60zM585 1617l166 224q25 35 80 34 q55 0 80 -30l178 -232l-16 -39h-113l-125 156l-110 -147l-123 -2z" />
<glyph unicode="&#xdc;" horiz-adv-x="1359" d="M78 1389q0 18 16.5 32.5t36.5 14.5h381q35 0 59.5 -10.5t24.5 -39.5q0 -45 -60.5 -78.5t-60.5 -68.5q-16 -115 -29.5 -324.5t-13.5 -465.5q0 -127 98 -240q115 -131 283 -131q252 0 347 137t95 479q0 123 -20 346q-12 113 -23 228q0 20 -63.5 53t-63.5 65q0 18 15.5 34 t27.5 16h332q14 0 24.5 -10.5t10.5 -26.5q0 -29 -53 -59.5t-53 -77.5q18 -178 32.5 -339t14.5 -235q0 -420 -189 -596q-156 -145 -469 -145q-291 0 -469 149.5t-178 403.5q0 82 17.5 289.5t35.5 418.5q0 74 -71 121q-35 23 -35 60zM471 1712q0 59 43 102t102 43 q66 0 112 -42t46 -103q0 -59 -45 -98t-107 -39q-61 0 -106 39t-45 98zM946 1706q0 59 43 102t102 43q66 0 112 -42t46 -103q0 -59 -45 -98t-106 -39t-106.5 38.5t-45.5 98.5z" />
<glyph unicode="&#xdd;" horiz-adv-x="1476" d="M6 1391q0 18 19.5 33.5t42.5 15.5h381q37 0 56 -12.5t19 -45.5q0 -39 -48 -57t-48 -39q0 -31 158 -268q100 -150 200 -297q98 137 197 276q137 203 137 275q0 29 -71 71q-33 20 -33 41q0 27 18.5 41.5t44.5 14.5h281q55 0 55 -49q0 -31 -51 -74q-31 -25 -47 -55 q-98 -168 -205.5 -335t-226.5 -327v-428q0 -53 55 -73.5t55 -49.5t-10 -39t-49 -10h-404q-33 0 -44 13.5t-11 37.5q0 16 58.5 48t58.5 98v368q-139 188 -252 353q-133 195 -236 364q-12 23 -56 48.5t-44 60.5zM558 1638q0 27 14 54q133 59 233 98q133 51 228 76 q20 0 44.5 -36t24.5 -65q0 -37 -12 -59q-61 -27 -221 -70q-125 -33 -264 -67q-47 25 -47 69z" />
<glyph unicode="&#xde;" horiz-adv-x="1024" d="M78 -20v102q82 0 82 49v1210q-2 18 -17.5 29.5t-64.5 30.5v92h393v-96q-92 -16 -92 -56v-174h184q147 0 253 -122.5t106 -278.5q0 -184 -164 -277q-141 -80 -367 -79v-281q0 -23 17.5 -35t58.5 -12v-102h-389zM387 1020l2 -494q193 0 277 39q112 52 112 193 q0 262 -243 262h-148z" />
<glyph unicode="&#xdf;" horiz-adv-x="1359" d="M4 -152q0 51 67.5 76t67.5 84v1039q0 199 152.5 317.5t386.5 118.5q190 0 328 -103q152 -113 151 -286q0 -164 -123 -234q-92 -51 -258 -51q190 0 330 -96q158 -111 158 -299q0 -193 -135.5 -311.5t-348.5 -118.5q-129 0 -223 67q-104 76 -104 197q0 84 50 160.5 t107 76.5q45 0 63.5 -18t18.5 -55q0 -16 -44 -54.5t-44 -81.5q0 -70 43 -106.5t141 -36.5q102 0 160 92q49 80 49 195q0 197 -143 268q-102 51 -330 51q-20 6 -32.5 20.5t-12.5 49.5q0 10 2 24.5t31 43.5q195 0 279 34q121 51 120 195q0 98 -69.5 163.5t-173.5 65.5 q-102 0 -185.5 -73.5t-83.5 -182.5v-1120v-41q0 -74 -5 -98.5t-27 -24.5h-299q-18 0 -41 15.5t-23 37.5z" />
<glyph unicode="&#xe0;" d="M68 279q0 168 182 272q164 94 389 94h37q25 -4 37 -4q-12 98 -54 150q-51 63 -147 63q-39 0 -168 -80q-63 -39 -119 -39q-37 0 -63.5 20.5t-26.5 47.5q0 84 141 129q109 35 236 35q215 0 340 -88t125 -242v-469q0 -31 52 -60.5t52 -60.5q0 -47 -26 -47h-254 q-23 31 -40.5 57.5t-29.5 59.5q-55 -68 -117.5 -96.5t-175.5 -28.5q-182 0 -276 73.5t-94 213.5zM272 1273v21q0 25 16.5 48.5t51.5 37.5q98 -27 243.5 -85t245.5 -114q7 -17 7 -31q0 -23 -13.5 -46t-27.5 -23q-70 0 -233 48t-284 108q-6 12 -6 36zM354 268q0 -76 44 -124 t118 -48q72 0 132.5 41t60.5 111v280q-119 0 -213 -47q-123 -61 -140 -182q-2 -10 -2 -31z" />
<glyph unicode="&#xe1;" d="M68 279q0 168 182 272q164 94 389 94h37q25 -4 37 -4q-12 98 -54 150q-51 63 -147 63q-39 0 -168 -80q-63 -39 -119 -39q-37 0 -63.5 20.5t-26.5 47.5q0 84 141 129q109 35 236 35q215 0 340 -88t125 -242v-469q0 -31 52 -60.5t52 -60.5q0 -47 -26 -47h-254 q-23 31 -40.5 57.5t-29.5 59.5q-55 -68 -117.5 -96.5t-175.5 -28.5q-182 0 -276 73.5t-94 213.5zM271 1157q0 27 14 54q133 59 233 98q133 51 228 76q20 0 44.5 -36t24.5 -65q0 -37 -12 -59q-61 -27 -221 -70q-125 -33 -264 -67q-47 25 -47 69zM354 268q0 -76 44 -124 t118 -48q72 0 132.5 41t60.5 111v280q-119 0 -213 -47q-123 -61 -140 -182q-2 -10 -2 -31z" />
<glyph unicode="&#xe2;" d="M68 279q0 168 182 272q164 94 389 94h37q25 -4 37 -4q-12 98 -54 150q-51 63 -147 63q-39 0 -168 -80q-63 -39 -119 -39q-37 0 -63.5 20.5t-26.5 47.5q0 84 141 129q109 35 236 35q215 0 340 -88t125 -242v-469q0 -31 52 -60.5t52 -60.5q0 -47 -26 -47h-254 q-23 31 -40.5 57.5t-29.5 59.5q-55 -68 -117.5 -96.5t-175.5 -28.5q-182 0 -276 73.5t-94 213.5zM309 1136l166 224q25 35 80 34q55 0 80 -30l178 -232l-16 -39h-113l-125 156l-110 -147l-123 -2zM354 268q0 -76 44 -124t118 -48q72 0 132.5 41t60.5 111v280 q-119 0 -213 -47q-123 -61 -140 -182q-2 -10 -2 -31z" />
<glyph unicode="&#xe3;" d="M68 279q0 168 182 272q164 94 389 94h37q25 -4 37 -4q-12 98 -54 150q-51 63 -147 63q-39 0 -168 -80q-63 -39 -119 -39q-37 0 -63.5 20.5t-26.5 47.5q0 84 141 129q109 35 236 35q215 0 340 -88t125 -242v-469q0 -31 52 -60.5t52 -60.5q0 -47 -26 -47h-254 q-23 31 -40.5 57.5t-29.5 59.5q-55 -68 -117.5 -96.5t-175.5 -28.5q-182 0 -276 73.5t-94 213.5zM72 1183q74 158 135.5 210.5t130.5 52.5q74 0 205 -71t170 -71q45 0 86 56q16 23 57 104l115 -96q-61 -113 -76 -133q-80 -117 -182 -117q-78 0 -207 70.5t-166 70.5 q-53 0 -94 -57q-12 -16 -61 -119zM354 268q0 -76 44 -124t118 -48q72 0 132.5 41t60.5 111v280q-119 0 -213 -47q-123 -61 -140 -182q-2 -10 -2 -31z" />
<glyph unicode="&#xe4;" d="M68 279q0 168 182 272q164 94 389 94h37q25 -4 37 -4q-12 98 -54 150q-51 63 -147 63q-39 0 -168 -80q-63 -39 -119 -39q-37 0 -63.5 20.5t-26.5 47.5q0 84 141 129q109 35 236 35q215 0 340 -88t125 -242v-469q0 -31 52 -60.5t52 -60.5q0 -47 -26 -47h-254 q-23 31 -40.5 57.5t-29.5 59.5q-55 -68 -117.5 -96.5t-175.5 -28.5q-182 0 -276 73.5t-94 213.5zM143 1241q0 59 43 102t102 43q66 0 112 -42t46 -103q0 -59 -45 -98t-107 -39q-61 0 -106 39t-45 98zM354 268q0 -76 44 -124t118 -48q72 0 132.5 41t60.5 111v280 q-119 0 -213 -47q-123 -61 -140 -182q-2 -10 -2 -31zM618 1235q0 59 43 102t102 43q66 0 112 -42t46 -103q0 -59 -45 -98t-106 -39t-106.5 38.5t-45.5 98.5z" />
<glyph unicode="&#xe5;" d="M68 279q0 168 182 272q164 94 389 94h37q25 -4 37 -4q-12 98 -54 150q-51 63 -147 63q-39 0 -168 -80q-63 -39 -119 -39q-37 0 -63.5 20.5t-26.5 47.5q0 84 141 129q109 35 236 35q215 0 340 -88t125 -242v-469q0 -31 52 -60.5t52 -60.5q0 -47 -26 -47h-254 q-23 31 -40.5 57.5t-29.5 59.5q-55 -68 -117.5 -96.5t-175.5 -28.5q-182 0 -276 73.5t-94 213.5zM354 268q0 -76 44 -124t118 -48q72 0 132.5 41t60.5 111v280q-119 0 -213 -47q-123 -61 -140 -182q-2 -10 -2 -31zM362 1282q0 84 61.5 145.5t147.5 61.5t146.5 -60.5 t60.5 -146.5q0 -84 -60.5 -144.5t-146.5 -60.5t-147.5 59.5t-61.5 145.5zM491 1276q0 -33 22.5 -55.5t57.5 -22.5q31 0 55.5 22.5t24.5 55.5t-22.5 55.5t-57.5 22.5t-57.5 -22.5t-22.5 -55.5z" />
<glyph unicode="&#xe6;" horiz-adv-x="1730" d="M68 279q0 168 182 272q164 94 389 94h37q25 -4 37 -4q-12 98 -54 150q-51 63 -147 63q-39 0 -168 -80q-63 -39 -119 -39q-37 0 -63.5 20.5t-26.5 47.5q0 84 141 129q109 35 236 35q254 0 381 -123q66 59 151.5 93t192.5 34q150 0 244 -60q115 -72 114 -209 q0 -168 -213 -251q-162 -63 -395 -64q0 -106 76 -186t184 -80q88 0 168 43q76 47 154 94q45 0 45 -41q0 -66 -119 -141q-131 -84 -278 -84q-74 0 -146 18q-6 -10 -16 -10h-254q-23 31 -40.5 57.5t-29.5 59.5q-55 -68 -117.5 -96.5t-175.5 -28.5q-182 0 -276 73.5t-94 213.5z M354 268q0 -76 44 -124t118 -48q72 0 132.5 41t60.5 111v280q-119 0 -213 -47q-123 -61 -140 -182q-2 -10 -2 -31zM983 479q133 0 248 62q133 72 133 174q0 66 -41 110.5t-109 44.5q-90 0 -160.5 -115.5t-70.5 -275.5z" />
<glyph unicode="&#xe7;" horiz-adv-x="1015" d="M61 453q0 205 140 350q152 158 393 158q139 0 245.5 -52.5t106.5 -138.5q0 -47 -31.5 -72.5t-80.5 -25.5q-66 0 -133.5 90t-141.5 90q-96 0 -164 -135q-59 -119 -59 -246q0 -168 78 -266.5t207 -98.5q123 0 205.5 73t101.5 73q10 0 27.5 -10.5t17.5 -18.5 q0 -82 -101.5 -150.5t-234.5 -86.5l-12 -21q68 0 106.5 -30.5t38.5 -84.5q0 -88 -80 -149t-217 -61q-39 0 -75 6t-101 32l65 93q29 -8 44 -13q47 -12 73 -12q41 0 70 16q37 23 37 60q0 31 -41 31q-39 0 -80 -9l-27 27l68 115q-190 20 -311 135q-133 127 -134 332z" />
<glyph unicode="&#xe8;" horiz-adv-x="1015" d="M59 451q0 209 129 352q141 158 377 158q150 0 244 -60q115 -72 115 -209q0 -168 -213 -252q-162 -63 -396 -63q0 -106 76 -186t184 -80q88 0 168 43q76 47 154 94q45 0 45 -41q0 -66 -119 -141q-131 -84 -278 -84q-203 0 -338 118q-147 131 -148 351zM252 1263v21 q0 25 16.5 48.5t51.5 37.5q98 -27 243.5 -85t245.5 -114q7 -17 7 -31q0 -23 -13.5 -46t-27.5 -23q-70 0 -233 48t-284 108q-6 12 -6 36zM311 469q133 0 248 61q133 73 133 175q0 66 -41 110.5t-108 44.5q-90 0 -161 -115.5t-71 -275.5z" />
<glyph unicode="&#xe9;" horiz-adv-x="1015" d="M59 451q0 209 129 352q141 158 377 158q150 0 244 -60q115 -72 115 -209q0 -168 -213 -252q-162 -63 -396 -63q0 -106 76 -186t184 -80q88 0 168 43q76 47 154 94q45 0 45 -41q0 -66 -119 -141q-131 -84 -278 -84q-203 0 -338 118q-147 131 -148 351zM311 469 q133 0 248 61q133 73 133 175q0 66 -41 110.5t-108 44.5q-90 0 -161 -115.5t-71 -275.5zM312 1157q0 27 14 54q133 59 233 98q133 51 228 76q20 0 44.5 -36t24.5 -65q0 -37 -12 -59q-61 -27 -221 -70q-125 -33 -264 -67q-47 25 -47 69z" />
<glyph unicode="&#xea;" horiz-adv-x="1015" d="M59 451q0 209 129 352q141 158 377 158q150 0 244 -60q115 -72 115 -209q0 -168 -213 -252q-162 -63 -396 -63q0 -106 76 -186t184 -80q88 0 168 43q76 47 154 94q45 0 45 -41q0 -66 -119 -141q-131 -84 -278 -84q-203 0 -338 118q-147 131 -148 351zM311 469 q133 0 248 61q133 73 133 175q0 66 -41 110.5t-108 44.5q-90 0 -161 -115.5t-71 -275.5zM319 1116l166 224q25 35 80 34q55 0 80 -30l178 -232l-16 -39h-113l-125 156l-110 -147l-123 -2z" />
<glyph unicode="&#xeb;" horiz-adv-x="1015" d="M59 451q0 209 129 352q141 158 377 158q150 0 244 -60q115 -72 115 -209q0 -168 -213 -252q-162 -63 -396 -63q0 -106 76 -186t184 -80q88 0 168 43q76 47 154 94q45 0 45 -41q0 -66 -119 -141q-131 -84 -278 -84q-203 0 -338 118q-147 131 -148 351zM174 1231 q0 59 43 102t102 43q66 0 112 -42t46 -103q0 -59 -45 -98t-107 -39q-61 0 -106 39t-45 98zM311 469q133 0 248 61q133 73 133 175q0 66 -41 110.5t-108 44.5q-90 0 -161 -115.5t-71 -275.5zM649 1225q0 59 43 102t102 43q66 0 112 -42t46 -103q0 -59 -45 -98t-106 -39 t-106.5 38.5t-45.5 98.5z" />
<glyph unicode="&#xec;" horiz-adv-x="563" d="M-97 1263v21q0 25 16.5 48.5t51.5 37.5q98 -27 243.5 -85t245.5 -114q7 -17 7 -31q0 -23 -13.5 -46t-27.5 -23q-70 0 -233 48t-284 108q-6 12 -6 36zM43 823q0 41 124 79t177 38q43 0 57.5 -23.5t14.5 -76.5v-676q0 -68 42 -76t42 -55q0 -33 -35 -33h-365q-31 0 -30 33 q0 31 47 55.5t47 99.5v539q0 27 -10.5 39t-44.5 12q-35 0 -50.5 6.5t-15.5 38.5z" />
<glyph unicode="&#xed;" horiz-adv-x="563" d="M35 1126q0 27 14 54q133 59 233 98q133 51 228 76q20 0 44.5 -36t24.5 -65q0 -37 -12 -59q-61 -27 -221 -70q-125 -33 -264 -67q-47 25 -47 69zM43 823q0 41 124 79t177 38q43 0 57.5 -23.5t14.5 -76.5v-676q0 -68 42 -76t42 -55q0 -33 -35 -33h-365q-31 0 -30 33 q0 31 47 55.5t47 99.5v539q0 27 -10.5 39t-44.5 12q-35 0 -50.5 6.5t-15.5 38.5z" />
<glyph unicode="&#xee;" horiz-adv-x="563" d="M43 823q0 41 124 79t177 38q43 0 57.5 -23.5t14.5 -76.5v-676q0 -68 42 -76t42 -55q0 -33 -35 -33h-365q-31 0 -30 33q0 31 47 55.5t47 99.5v539q0 27 -10.5 39t-44.5 12q-35 0 -50.5 6.5t-15.5 38.5zM43 1116l166 224q25 35 80 34q55 0 80 -30l178 -232l-16 -39h-113 l-125 156l-110 -147l-123 -2z" />
<glyph unicode="&#xef;" horiz-adv-x="563" d="M-113 1231q0 59 43 102t102 43q66 0 112 -42t46 -103q0 -59 -45 -98t-107 -39q-61 0 -106 39t-45 98zM43 823q0 41 124 79t177 38q43 0 57.5 -23.5t14.5 -76.5v-676q0 -68 42 -76t42 -55q0 -33 -35 -33h-365q-31 0 -30 33q0 31 47 55.5t47 99.5v539q0 27 -10.5 39 t-44.5 12q-35 0 -50.5 6.5t-15.5 38.5zM362 1225q0 59 43 102t102 43q66 0 112 -42t46 -103q0 -59 -45 -98t-106 -39t-106.5 38.5t-45.5 98.5z" />
<glyph unicode="&#xf0;" horiz-adv-x="1218" d="M133 1577q0 20 20.5 45t45.5 25q166 0 336 -48q231 -66 372 -198l154 88q12 -2 20 -4q51 -18 72 -62q12 -29 12 -47t-6 -33q-2 -4 -8 -12l-123 -71q94 -137 154.5 -320.5t60.5 -378.5q0 -289 -145 -450q-137 -152 -355 -152q-233 0 -381 158q-137 147 -137 356 q0 178 119 299q129 131 340 131q100 0 190.5 -32.5t153.5 -96.5q-25 109 -65.5 204t-104.5 179l-227 -131q-23 10 -33 16q-35 23 -48 45.5t-13 63.5q0 14 2 29q0 4 2 12l178 104q-47 45 -160 86q-137 51 -395 99q-31 41 -31 96zM440 430q0 -143 85 -247.5t216 -104.5 q135 0 217 115.5t82 279.5q0 141 -84 217t-235 76q-141 0 -215 -104q-66 -92 -66 -232z" />
<glyph unicode="&#xf1;" d="M59 827q0 35 91.5 77t138.5 42q33 0 50 -41t17 -88l-4 -41q127 166 307 166q141 0 236.5 -86t95.5 -227v-467q0 -57 38 -75.5t38 -53.5q0 -33 -33 -33h-348q-10 0 -21.5 13.5t-11.5 25.5q0 18 43 45t43 92v504q0 53 -46 93t-101 40q-63 0 -126 -49t-63 -115v-518 q0 -27 33 -47.5t33 -36.5t-4 -24q-12 -23 -37 -23h-328q-29 0 -28 37q0 16 40 42.5t40 76.5v557q0 35 -62 73q-31 18 -31 41zM133 1163q74 158 135.5 210.5t130.5 52.5q74 0 205 -71t170 -71q45 0 86 56q16 23 57 104l115 -96q-61 -113 -76 -133q-80 -117 -182 -117 q-78 0 -207 70.5t-166 70.5q-53 0 -94 -57q-12 -16 -61 -119z" />
<glyph unicode="&#xf2;" d="M61 471q0 190 145.5 340t346.5 150q195 0 347.5 -138.5t152.5 -335.5q0 -207 -142.5 -355t-345.5 -148q-199 0 -344 127q-160 139 -160 360zM282 1253v21q0 25 16.5 48.5t51.5 37.5q98 -27 243.5 -85t245.5 -114q7 -17 7 -31q0 -23 -13.5 -46t-27.5 -23q-70 0 -233 48 t-284 108q-6 12 -6 36zM324 455q0 -154 57 -260q68 -127 190 -127q119 0 181 129q49 105 49 252q0 164 -49 268q-66 139 -203 139q-113 0 -169 -120t-56 -281z" />
<glyph unicode="&#xf3;" d="M61 471q0 190 145.5 340t346.5 150q195 0 347.5 -138.5t152.5 -335.5q0 -207 -142.5 -355t-345.5 -148q-199 0 -344 127q-160 139 -160 360zM302 1146q0 27 14 54q133 59 233 98q133 51 228 76q20 0 44.5 -36t24.5 -65q0 -37 -12 -59q-61 -27 -221 -70q-125 -33 -264 -67 q-47 25 -47 69zM324 455q0 -154 57 -260q68 -127 190 -127q119 0 181 129q49 105 49 252q0 164 -49 268q-66 139 -203 139q-113 0 -169 -120t-56 -281z" />
<glyph unicode="&#xf4;" d="M61 471q0 190 145.5 340t346.5 150q195 0 347.5 -138.5t152.5 -335.5q0 -207 -142.5 -355t-345.5 -148q-199 0 -344 127q-160 139 -160 360zM319 1126l166 224q25 35 80 34q55 0 80 -30l178 -232l-16 -39h-113l-125 156l-110 -147l-123 -2zM324 455q0 -154 57 -260 q68 -127 190 -127q119 0 181 129q49 105 49 252q0 164 -49 268q-66 139 -203 139q-113 0 -169 -120t-56 -281z" />
<glyph unicode="&#xf5;" d="M61 471q0 190 145.5 340t346.5 150q195 0 347.5 -138.5t152.5 -335.5q0 -207 -142.5 -355t-345.5 -148q-199 0 -344 127q-160 139 -160 360zM113 1173q74 158 135.5 210.5t130.5 52.5q74 0 205 -71t170 -71q45 0 86 56q16 23 57 104l115 -96q-61 -113 -76 -133 q-80 -117 -182 -117q-78 0 -207 70.5t-166 70.5q-53 0 -94 -57q-12 -16 -61 -119zM324 455q0 -154 57 -260q68 -127 190 -127q119 0 181 129q49 105 49 252q0 164 -49 268q-66 139 -203 139q-113 0 -169 -120t-56 -281z" />
<glyph unicode="&#xf6;" d="M61 471q0 190 145.5 340t346.5 150q195 0 347.5 -138.5t152.5 -335.5q0 -207 -142.5 -355t-345.5 -148q-199 0 -344 127q-160 139 -160 360zM195 1221q0 59 43 102t102 43q66 0 112 -42t46 -103q0 -59 -45 -98t-107 -39q-61 0 -106 39t-45 98zM324 455q0 -154 57 -260 q68 -127 190 -127q119 0 181 129q49 105 49 252q0 164 -49 268q-66 139 -203 139q-113 0 -169 -120t-56 -281zM670 1215q0 59 43 102t102 43q66 0 112 -42t46 -103q0 -59 -45 -98t-106 -39t-106.5 38.5t-45.5 98.5z" />
<glyph unicode="&#xf7;" horiz-adv-x="1253" d="M164 383l43 156h889l-43 -156h-889zM489 123q0 49 33 86t82 37t86 -33t37 -82t-31.5 -85t-81.5 -36q-49 0 -87 32t-38 81zM489 799q0 49 33 86t82 37t86 -33t37 -82t-31.5 -85t-81.5 -36q-49 0 -87 32t-38 81z" />
<glyph unicode="&#xf8;" horiz-adv-x="1105" d="M33 0l151 150q-61 68 -89.5 157.5t-28.5 202.5q0 172 147 311.5t340 139.5q92 0 173 -31t155 -90l80 80h141l-150 -152q100 -119 101 -281q0 -209 -141.5 -356t-346.5 -147q-80 0 -155.5 23.5t-141.5 68.5l-84 -76h-151zM324 455q0 -49 2 -76t12 -76l414 410 q-33 70 -83.5 106.5t-119.5 36.5q-121 0 -178 -127q-47 -104 -47 -274zM381 190q35 -57 81 -89.5t109 -32.5q119 0 181 131q49 105 49 250q0 80 -15 151z" />
<glyph unicode="&#xf9;" d="M41 864q0 37 114.5 60.5t170.5 23.5q16 0 28 -8q31 -18 31 -45v-631q0 -70 44 -114t106 -44q66 0 124 49.5t58 120.5v463q0 45 -42 70t-42 51q0 29 80 51q109 31 192 31q23 0 44.5 -15.5t21.5 -39.5l-2 -699q0 -53 69 -98q33 -22 33 -49q0 -12 -14.5 -26.5t-24.5 -14.5 h-209q-37 -6 -51 16.5t-14 63.5q0 27 2 47t4 41q-35 -90 -120 -141.5t-189 -51.5q-119 0 -213 62q-106 70 -107 176v504q0 59 -63 96q-31 18 -31 51zM241 1253v21q0 25 16.5 48.5t51.5 37.5q98 -27 243.5 -85t245.5 -114q7 -17 7 -31q0 -23 -13.5 -46t-27.5 -23 q-70 0 -233 48t-284 108q-6 12 -6 36z" />
<glyph unicode="&#xfa;" d="M41 864q0 37 114.5 60.5t170.5 23.5q16 0 28 -8q31 -18 31 -45v-631q0 -70 44 -114t106 -44q66 0 124 49.5t58 120.5v463q0 45 -42 70t-42 51q0 29 80 51q109 31 192 31q23 0 44.5 -15.5t21.5 -39.5l-2 -699q0 -53 69 -98q33 -22 33 -49q0 -12 -14.5 -26.5t-24.5 -14.5 h-209q-37 -6 -51 16.5t-14 63.5q0 27 2 47t4 41q-35 -90 -120 -141.5t-189 -51.5q-119 0 -213 62q-106 70 -107 176v504q0 59 -63 96q-31 18 -31 51zM271 1136q0 27 14 54q133 59 233 98q133 51 228 76q20 0 44.5 -36t24.5 -65q0 -37 -12 -59q-61 -27 -221 -70 q-125 -33 -264 -67q-47 25 -47 69z" />
<glyph unicode="&#xfb;" d="M41 864q0 37 114.5 60.5t170.5 23.5q16 0 28 -8q31 -18 31 -45v-631q0 -70 44 -114t106 -44q66 0 124 49.5t58 120.5v463q0 45 -42 70t-42 51q0 29 80 51q109 31 192 31q23 0 44.5 -15.5t21.5 -39.5l-2 -699q0 -53 69 -98q33 -22 33 -49q0 -12 -14.5 -26.5t-24.5 -14.5 h-209q-37 -6 -51 16.5t-14 63.5q0 27 2 47t4 41q-35 -90 -120 -141.5t-189 -51.5q-119 0 -213 62q-106 70 -107 176v504q0 59 -63 96q-31 18 -31 51zM278 1105l166 224q25 35 80 34q55 0 80 -30l178 -232l-16 -39h-113l-125 156l-110 -147l-123 -2z" />
<glyph unicode="&#xfc;" d="M41 864q0 37 114.5 60.5t170.5 23.5q16 0 28 -8q31 -18 31 -45v-631q0 -70 44 -114t106 -44q66 0 124 49.5t58 120.5v463q0 45 -42 70t-42 51q0 29 80 51q109 31 192 31q23 0 44.5 -15.5t21.5 -39.5l-2 -699q0 -53 69 -98q33 -22 33 -49q0 -12 -14.5 -26.5t-24.5 -14.5 h-209q-37 -6 -51 16.5t-14 63.5q0 27 2 47t4 41q-35 -90 -120 -141.5t-189 -51.5q-119 0 -213 62q-106 70 -107 176v504q0 59 -63 96q-31 18 -31 51zM164 1210q0 59 43 102t102 43q66 0 112 -42t46 -103q0 -59 -45 -98t-107 -39q-61 0 -106 39t-45 98zM639 1204q0 59 43 102 t102 43q66 0 112 -42t46 -103q0 -59 -45 -98t-106 -39t-106.5 38.5t-45.5 98.5z" />
<glyph unicode="&#xfd;" horiz-adv-x="1015" d="M12 864q0 35 17.5 47.5t46.5 12.5h280q39 0 39 -43q0 -20 -24 -43q-55 -53 -56 -179q0 -152 85 -328.5t153 -176.5q72 0 132 171t60 343q0 78 -14 129q0 27 -50 39t-50 49q0 12 19.5 25.5t41.5 13.5h262q33 0 33 -27q0 -31 -36 -60.5t-36 -58.5q0 -449 -215 -802 t-471 -353q-59 0 -111 26.5t-52 71.5q0 41 30.5 66t83.5 25q27 0 72 -12.5t76 -12.5q61 0 129 82q59 72 98 166q-29 -6 -51.5 -8t-48.5 -2q-141 0 -256 266q-92 217 -127 489q0 20 -39 56q-20 18 -21 28zM302 1136q0 27 14 54q133 59 233 98q133 51 228 76q20 0 44.5 -36 t24.5 -65q0 -37 -12 -59q-61 -27 -221 -70q-125 -33 -264 -67q-47 25 -47 69z" />
<glyph unicode="&#xfe;" horiz-adv-x="1116" d="M53 -307l17 94q55 0 66 9t11 52v1491q0 29 -12 41q-20 18 -78 19v94h312v-510q35 43 108 74q86 37 174 37q143 0 268 -113.5t125 -267.5q0 -186 -137 -314q-127 -119 -293 -118q-137 0 -249 53v-479q0 -41 16 -54.5t72 -17.5v-90h-400zM369 479q49 -29 111.5 -52.5 t101.5 -23.5q78 0 147 62q78 70 86 172q0 113 -76.5 187.5t-160.5 74.5q-53 0 -118 -29.5t-91 -72.5v-318z" />
<glyph unicode="&#xff;" horiz-adv-x="1015" d="M12 864q0 35 17.5 47.5t46.5 12.5h280q39 0 39 -43q0 -20 -24 -43q-55 -53 -56 -179q0 -152 85 -328.5t153 -176.5q72 0 132 171t60 343q0 78 -14 129q0 27 -50 39t-50 49q0 12 19.5 25.5t41.5 13.5h262q33 0 33 -27q0 -31 -36 -60.5t-36 -58.5q0 -449 -215 -802 t-471 -353q-59 0 -111 26.5t-52 71.5q0 41 30.5 66t83.5 25q27 0 72 -12.5t76 -12.5q61 0 129 82q59 72 98 166q-29 -6 -51.5 -8t-48.5 -2q-141 0 -256 266q-92 217 -127 489q0 20 -39 56q-20 18 -21 28zM152 1210q0 59 43 102t102 43q66 0 112 -42t46 -103q0 -59 -45 -98 t-107 -39q-61 0 -106 39t-45 98zM627 1204q0 59 43 102t102 43q66 0 112 -42t46 -103q0 -59 -45 -98t-106 -39t-106.5 38.5t-45.5 98.5z" />
<glyph unicode="&#x152;" horiz-adv-x="2508" d="M78 725q0 299 207 528q217 242 530 242q213 0 399 -106q6 51 50 51h993q41 0 74.5 -48.5t33.5 -103.5q0 -41 -15 -76.5t-46 -35.5q-45 0 -94 45q-113 102 -254 102h-270q-41 0 -62.5 -19.5t-21.5 -70.5v-389h364q37 0 111 39q39 20 65 20q29 0 45.5 -26.5t16.5 -110.5 q0 -53 -15.5 -87t-44.5 -34q-31 0 -87 38t-87 38h-377v-520q0 -76 72 -76h332q164 0 252 84t108 84q25 0 42.5 -15t17.5 -38q0 -113 -21 -166q-29 -74 -100 -74h-1067q-39 0 -39 49q-76 -35 -159 -55.5t-171 -20.5q-350 0 -571 226q-211 215 -211 526zM381 713 q0 -238 123 -426q137 -211 356 -211q176 0 305 196q123 187 123 418q0 272 -88 457q-115 238 -348 237q-231 0 -363 -229q-109 -190 -108 -442z" />
<glyph unicode="&#x153;" horiz-adv-x="1812" d="M61 471q0 190 145.5 340t346.5 150q111 0 210 -45.5t171 -129.5q68 82 165 128.5t224 46.5q150 0 244 -60q115 -72 114 -209q0 -168 -213 -252q-162 -63 -395 -63q0 -106 76 -186t184 -80q88 0 168 43q76 47 154 94q45 0 45 -41q0 -66 -119 -141q-131 -84 -278 -84 q-113 0 -213.5 42t-167.5 121q-66 -74 -160 -117.5t-197 -43.5q-199 0 -344 127q-160 139 -160 360zM324 455q0 -154 57 -260q68 -127 190 -127q119 0 181 129q49 105 49 252q0 164 -49 268q-66 139 -203 139q-113 0 -169 -120t-56 -281zM1069 469q133 0 248 61 q133 73 133 175q0 66 -41 110.5t-109 44.5q-90 0 -160.5 -115.5t-70.5 -275.5z" />
<glyph unicode="&#x178;" horiz-adv-x="1476" d="M6 1391q0 18 19.5 33.5t42.5 15.5h381q37 0 56 -12.5t19 -45.5q0 -39 -48 -57t-48 -39q0 -31 158 -268q100 -150 200 -297q98 137 197 276q137 203 137 275q0 29 -71 71q-33 20 -33 41q0 27 18.5 41.5t44.5 14.5h281q55 0 55 -49q0 -31 -51 -74q-31 -25 -47 -55 q-98 -168 -205.5 -335t-226.5 -327v-428q0 -53 55 -73.5t55 -49.5t-10 -39t-49 -10h-404q-33 0 -44 13.5t-11 37.5q0 16 58.5 48t58.5 98v368q-139 188 -252 353q-133 195 -236 364q-12 23 -56 48.5t-44 60.5zM358 1712q0 59 43 102t102 43q66 0 112 -42t46 -103 q0 -59 -45 -98t-107 -39q-61 0 -106 39t-45 98zM833 1706q0 59 43 102t102 43q66 0 112 -42t46 -103q0 -59 -45 -98t-106 -39t-106.5 38.5t-45.5 98.5z" />
<glyph unicode="&#x2c6;" horiz-adv-x="655" d="M63 1341l166 224q25 35 80 34q55 0 80 -30l178 -232l-16 -39h-113l-125 156l-110 -147l-123 -2z" />
<glyph unicode="&#x2dc;" horiz-adv-x="1064" d="M82 1296q74 158 135.5 210.5t130.5 52.5q74 0 205 -71t170 -71q45 0 86 56q16 23 57 104l115 -96q-61 -113 -76 -133q-80 -117 -182 -117q-78 0 -207 70.5t-166 70.5q-53 0 -94 -57q-12 -16 -61 -119z" />
<glyph unicode="&#x2000;" horiz-adv-x="995" />
<glyph unicode="&#x2001;" horiz-adv-x="1991" />
<glyph unicode="&#x2002;" horiz-adv-x="995" />
<glyph unicode="&#x2003;" horiz-adv-x="1991" />
<glyph unicode="&#x2004;" horiz-adv-x="663" />
<glyph unicode="&#x2005;" horiz-adv-x="497" />
<glyph unicode="&#x2006;" horiz-adv-x="331" />
<glyph unicode="&#x2007;" horiz-adv-x="331" />
<glyph unicode="&#x2008;" horiz-adv-x="248" />
<glyph unicode="&#x2009;" horiz-adv-x="398" />
<glyph unicode="&#x200a;" horiz-adv-x="110" />
<glyph unicode="&#x2010;" horiz-adv-x="679" d="M74 473q0 47 31.5 87t70.5 40h324q39 0 67.5 -36t28.5 -83t-33 -77.5t-76 -30.5h-321q-41 0 -66.5 30.5t-25.5 69.5z" />
<glyph unicode="&#x2011;" horiz-adv-x="679" d="M74 473q0 47 31.5 87t70.5 40h324q39 0 67.5 -36t28.5 -83t-33 -77.5t-76 -30.5h-321q-41 0 -66.5 30.5t-25.5 69.5z" />
<glyph unicode="&#x2012;" horiz-adv-x="679" d="M74 473q0 47 31.5 87t70.5 40h324q39 0 67.5 -36t28.5 -83t-33 -77.5t-76 -30.5h-321q-41 0 -66.5 30.5t-25.5 69.5z" />
<glyph unicode="&#x2013;" horiz-adv-x="1187" d="M0 377v139h1137v-139h-1137z" />
<glyph unicode="&#x2014;" horiz-adv-x="2078" d="M0 377v139h2036v-139h-2036z" />
<glyph unicode="&#x2018;" horiz-adv-x="471" d="M150 1180q0 117 102 237q94 111 160 111q14 0 31.5 -11.5t17.5 -25.5l-70 -86q-70 -86 -69 -148l55 7q57 0 96 -37t39 -92q0 -68 -54.5 -107t-123.5 -39q-82 0 -133 53.5t-51 137.5z" />
<glyph unicode="&#x2019;" horiz-adv-x="471" d="M147 1391q0 68 54.5 106.5t124.5 38.5q82 0 133 -53t51 -137q0 -117 -102 -238q-94 -111 -160 -111q-14 0 -31.5 11.5t-17.5 25.5q35 43 69 86q70 86 70 148l-55 -6q-57 0 -96.5 36.5t-39.5 92.5z" />
<glyph unicode="&#x201a;" horiz-adv-x="471" d="M53 125q0 68 54.5 106.5t123.5 38.5q82 0 133.5 -53t51.5 -137q0 -117 -103 -238q-94 -111 -159 -110q-14 0 -32 11t-18 26l70 86q70 86 70 147l-56 -6q-57 0 -96 37t-39 92z" />
<glyph unicode="&#x201c;" horiz-adv-x="1075" d="M145 1184q0 117 103 237q94 111 160 111q14 0 31.5 -11.5t17.5 -25.5l-70 -86q-70 -86 -70 -147l56 6q57 0 96 -37t39 -92q0 -68 -54.5 -107t-123.5 -39q-82 0 -133.5 53.5t-51.5 137.5zM614 1178q0 117 103 237q94 111 160 111q14 0 31.5 -11.5t17.5 -25.5l-70 -86 q-70 -86 -70 -148l56 7q57 0 96 -37t39 -92q0 -68 -54.5 -107t-123.5 -39q-82 0 -133.5 53.5t-51.5 137.5z" />
<glyph unicode="&#x201d;" horiz-adv-x="1105" d="M145 1389q0 68 54.5 106.5t124.5 38.5q82 0 133 -53.5t51 -137.5q0 -117 -102 -237q-94 -111 -160 -111q-14 0 -31.5 11.5t-17.5 25.5q35 43 69 86q70 86 70 148l-55 -6q-57 0 -96.5 36.5t-39.5 92.5zM616 1389q0 68 54.5 106.5t124.5 38.5q82 0 133 -53.5t51 -137.5 q0 -117 -102 -237q-94 -111 -160 -111q-14 0 -31.5 11.5t-17.5 25.5q35 43 69 86q70 86 70 148l-55 -6q-57 0 -96.5 36.5t-39.5 92.5z" />
<glyph unicode="&#x201e;" horiz-adv-x="950" d="M53 125q0 68 54.5 106.5t123.5 38.5q82 0 133.5 -53t51.5 -137q0 -117 -103 -238q-94 -111 -159 -110q-14 0 -32 11t-18 26l70 86q70 86 70 147l-56 -6q-57 0 -96 37t-39 92zM524 125q0 68 54.5 106.5t123.5 38.5q82 0 133.5 -53t51.5 -137q0 -117 -103 -238 q-94 -111 -159 -110q-14 0 -32 11t-18 26l70 86q70 86 70 147l-56 -6q-57 0 -96 37t-39 92z" />
<glyph unicode="&#x2022;" horiz-adv-x="573" d="M-6 750q0 113 94 184q84 63 203 63q111 0 200 -69t89 -180q0 -106 -89.5 -175t-197.5 -69q-117 0 -203 63q-96 70 -96 183z" />
<glyph unicode="&#x2026;" horiz-adv-x="2048" d="M147 133q0 76 59.5 121t137.5 45q74 0 133.5 -47t59.5 -121t-57.5 -118t-133.5 -44q-78 0 -138.5 45t-60.5 119zM829 133q0 76 59.5 121t137.5 45q74 0 133.5 -47t59.5 -121q0 -72 -58.5 -117t-134.5 -45t-136.5 45t-60.5 119zM1511 133q0 76 59.5 121t137.5 45 q74 0 133.5 -47t59.5 -121t-57.5 -118t-133.5 -44q-78 0 -138.5 45t-60.5 119z" />
<glyph unicode="&#x202f;" horiz-adv-x="398" />
<glyph unicode="&#x2039;" horiz-adv-x="450" d="M43 592q0 23 16 47q4 6 35 43l178 215q27 33 42.5 45t29.5 12q45 0 45 -39q0 -12 -10 -35.5t-14 -31.5l-99 -203q-8 -14 -10 -22q-8 -18 -8 -29q0 -10 12 -31l102 -219q8 -14 19.5 -41t11.5 -41q0 -39 -43 -39q-18 0 -30.5 9.5t-49.5 54.5l-176 213q-29 37 -33 41 q-18 29 -18 51z" />
<glyph unicode="&#x203a;" horiz-adv-x="450" d="M49 262q0 12 13.5 43t17.5 39l104 219q10 20 11 31q0 12 -17 51l-98 203q-12 27 -18.5 42t-6.5 25q0 39 45 39q18 0 41 -20q4 -4 31 -37l176 -215q37 -45 41 -51q12 -21 12 -39q0 -23 -18 -51q-4 -4 -33 -41l-176 -213q-31 -37 -47 -50.5t-33 -13.5q-45 0 -45 39z" />
<glyph unicode="&#x205f;" horiz-adv-x="497" />
<glyph unicode="&#x2122;" horiz-adv-x="1720" d="M104 1323q0 61 15 107q23 70 67 69h547q49 0 63.5 -35t14.5 -135q0 -49 -39 -49q-10 0 -58 64.5t-141 64.5q-49 0 -49 -35v-430q0 -72 36 -81t36 -40t-18.5 -39t-55.5 -8h-125q-39 0 -49 4q-23 10 -22 43q0 27 35.5 41.5t35.5 79.5v426v29q-2 8 -20 8q-119 0 -172 -65.5 t-64 -65.5q-18 0 -27.5 13.5t-9.5 33.5zM827 1454q0 39 22.5 42t49.5 3h88h29q29 0 43 -37l164 -473l149 428q16 49 23 58q18 27 53 26h98q27 0 41.5 -9t14.5 -38q0 -37 -33 -57.5t-33 -61.5l16 -430q0 -27 26 -42t26 -40q0 -29 -17.5 -37t-50.5 -8h-100q-37 0 -56.5 6.5 t-19.5 36.5q0 37 35 45t35 35l-7 352l-151 -407q-12 -33 -19 -41q-16 -23 -39 -23q-14 0 -33.5 19.5t-27.5 40.5l-166 442l-4 -362q0 -37 40 -53.5t40 -47.5q0 -25 -8 -33q-10 -10 -49 -10h-138q-20 0 -28 6q-10 8 -11 39q0 31 28 43.5t28 63.5l12 409q0 57 -35 67.5 t-35 47.5z" />
<glyph unicode="&#xe000;" horiz-adv-x="921" d="M0 0v922h922v-922h-922z" />
</font>
</defs>
</svg>
