<?xml version="1.0" standalone="no"?>
<!DOCTYPE svg PUBLIC "-//W3C//DTD SVG 1.1//EN" "http://www.w3.org/Graphics/SVG/1.1/DTD/svg11.dtd" >
<svg xmlns="http://www.w3.org/2000/svg">
<metadata></metadata>
<defs>
<font id="soutaneblackregular" horiz-adv-x="1343" >
<font-face units-per-em="2048" ascent="1638" descent="-410" />
<missing-glyph horiz-adv-x="1193" />
<glyph horiz-adv-x="2048" />
<glyph horiz-adv-x="2048" />
<glyph unicode="&#xd;" horiz-adv-x="1193" />
<glyph unicode=" "  horiz-adv-x="1193" />
<glyph unicode="&#x09;" horiz-adv-x="1193" />
<glyph unicode="&#xa0;" horiz-adv-x="1193" />
<glyph unicode="!" horiz-adv-x="786" d="M111 1249q0 70 41 121t108 51h221q72 0 112 -59t40 -143q0 -36 -4 -52l-131 -684q-10 -55 -38 -78.5t-79 -23.5q-102 0 -117 88l-149 739q-4 29 -4 41zM129 135q0 76 72.5 130t160.5 54q92 0 163 -50t71 -122q0 -84 -65.5 -131t-174.5 -47q-92 0 -155 41q-72 47 -72 125z " />
<glyph unicode="&#x22;" horiz-adv-x="741" d="M66 1352q-8 53 36.5 88t106.5 35q53 0 102 -37t41 -86l-59 -348q-10 -61 -29.5 -81t-56.5 -20q-47 0 -66 31q-10 16 -18 70zM395 1352q-8 51 38 87t108 36q55 0 102 -36t39 -87l-57 -348q-8 -53 -19 -70q-18 -31 -65 -31t-62.5 25.5t-23.5 75.5z" />
<glyph unicode="#" horiz-adv-x="1230" d="M115 369l39 155h219l61 267h-231l30 155h236l92 381h139l-96 -381h221l86 381h142l-92 -381h184l-35 -155h-190l-66 -267h201l-35 -155h-203l-98 -373h-135l104 373h-223l-96 -373h-127l90 373h-217zM498 520h221l63 266h-217z" />
<glyph unicode="$" d="M68 297q0 61 38.5 93t104.5 32q125 0 181.5 -163t195.5 -163v441q-242 80 -352 180q-129 119 -130 276q0 182 138.5 312.5t343.5 130.5v149q0 23 23.5 33t54.5 10q25 0 48 -13t23 -30v-155q201 0 314.5 -84t113.5 -211q0 -55 -48 -88t-113 -33q-104 0 -130 129t-137 139 v-426q258 -76 359 -154q143 -110 143 -309q0 -186 -162 -311q-150 -115 -342 -115v-153q0 -20 -19.5 -36t-49.5 -16q-33 0 -55.5 13.5t-22.5 36.5v155q-14 -2 -41 -2q-168 0 -318 94q-162 102 -161 238zM477 1092q0 -45 33 -101.5t78 -85.5v361q-57 -23 -84 -69t-27 -105z M735 86q63 31 99 87t36 122q0 45 -24 90q-35 66 -111 102v-401z" />
<glyph unicode="%" horiz-adv-x="1902" d="M111 1063q0 178 131 287q117 96 276 96q82 0 191 -35q250 -80 311 -80q119 0 180.5 26.5t130.5 100.5q12 8 21 10q27 10 49 11q8 0 20 -27q5 -9 13 -27l-818 -1429q-14 -23 -28.5 -34t-48.5 -11q-25 0 -41 16q-4 4 -13 17q84 152 168 305q233 422 328 588 q184 324 227 376q-59 -31 -92 -38t-115 -7q-25 0 -56.5 6.5t-41.5 8.5q18 -66 19 -129q0 -172 -105.5 -273.5t-300.5 -101.5q-166 0 -278 86q-127 96 -127 258zM430 1085q0 -133 23.5 -213.5t64.5 -80.5q55 0 73.5 73.5t18.5 231.5q0 123 -20.5 188.5t-73.5 65.5 q-43 0 -64.5 -71t-21.5 -194zM989 317q0 150 120 263.5t296 113.5q154 0 280.5 -103t126.5 -257q0 -178 -133 -281q-121 -94 -290 -94q-162 0 -281 102.5t-119 255.5zM1315 309q0 -115 23.5 -190.5t74.5 -75.5q39 0 59.5 52.5t20.5 228.5q0 129 -16 190q-23 82 -74 82 q-53 0 -70.5 -81t-17.5 -206z" />
<glyph unicode="&#x26;" horiz-adv-x="1902" d="M98 348q0 147 118 269t265 141q-74 51 -112.5 131t-38.5 170q0 186 155 291q137 92 344 92q195 0 320 -66q154 -80 154 -243q0 -145 -132 -254q-119 -98 -213 -88q51 -55 158 -191q123 -156 144 -201q47 70 65 118t18 85q0 61 -71 98q-35 18 -35 45q0 20 14.5 43t36.5 23 h387q25 0 44.5 -19.5t19.5 -48.5q0 -23 -13.5 -45t-33.5 -22q-39 0 -101 -94q-160 -242 -227 -285q23 -8 104 -70q70 -51 115 -51q25 0 61.5 9.5t51.5 9.5q31 0 51 -18.5t20 -55.5q0 -63 -97 -110.5t-267 -47.5q-100 0 -201 37q-61 23 -147 74q-80 -53 -199 -87t-254 -34 q-190 0 -338 102q-166 115 -166 293zM489 387q0 -104 60 -170q68 -76 196 -76q124 1 220 52q-49 20 -211 203.5t-179 236.5q-41 -51 -63.5 -111.5t-22.5 -134.5zM743 1141q0 -43 25 -88q70 -131 74 -148q0 2 80 103q47 59 47 125q0 49 -35 88t-86 39q-47 0 -76 -39t-29 -80z " />
<glyph unicode="'" horiz-adv-x="411" d="M66 1352q-8 53 36.5 88t106.5 35q53 0 102 -37t41 -86l-59 -348q-10 -57 -21 -74q-18 -27 -65 -27q-43 0 -58.5 23.5t-25.5 77.5z" />
<glyph unicode="(" horiz-adv-x="679" d="M164 549q0 236 96 459q80 184 201 319q106 119 166 119q51 0 71.5 -18.5t20.5 -81.5q-68 -127 -119 -318q-57 -211 -57 -461q0 -272 57 -483q63 -172 129 -344q0 -41 -14 -66q-20 -33 -70 -32q-152 0 -316.5 319.5t-164.5 587.5z" />
<glyph unicode=")" horiz-adv-x="679" d="M131 -266q82 133 146.5 336.5t64.5 457.5q0 256 -61 476q-70 182 -138 364q0 37 17.5 52.5t72.5 15.5q150 0 307.5 -309.5t157.5 -579.5q0 -348 -184 -647q-162 -262 -287 -262q-53 0 -71 14q-25 20 -25 82z" />
<glyph unicode="*" horiz-adv-x="1015" d="M90 967q0 86 138.5 102t183.5 57q-14 45 -166 63.5t-152 104.5q0 63 24.5 86t69.5 23q47 0 99 -57q127 -141 184 -156q0 66 -53 184q-27 59 -27 99q0 41 24.5 69.5t63.5 28.5q61 0 88 -35q18 -25 19 -70q0 -35 -32 -108.5t-32 -120.5q0 -23 6 -47q66 35 136 135 q53 78 114 78q39 0 66.5 -32t27.5 -77q0 -86 -139 -97t-182 -69q47 -39 187.5 -53t140.5 -104q0 -104 -99 -105q-55 0 -88 45q-102 141 -164 170q-14 -16 -14 -47q0 -33 25 -92q53 -129 53 -143q0 -49 -35 -74t-78 -25q-41 0 -69.5 29t-28.5 72q0 2 51 135q25 63 25 111 q0 20 -2 30q-68 -12 -128.5 -112.5t-136.5 -100.5q-45 0 -72.5 25.5t-27.5 77.5z" />
<glyph unicode="+" horiz-adv-x="1230" d="M98 504v125h437v499h129v-499h430v-125h-430v-455h-129v455h-437z" />
<glyph unicode="," horiz-adv-x="671" d="M117 127q0 76 64.5 130t150.5 54q106 0 170.5 -60.5t64.5 -156.5q0 -102 -117.5 -232t-195.5 -130q-47 0 -68 55q119 106 201 233q-63 -41 -125 -40q-59 0 -102 45t-43 102z" />
<glyph unicode="-" horiz-adv-x="671" d="M72 459q0 53 36.5 100t88.5 47h237q68 0 102.5 -43t34.5 -104q0 -55 -30.5 -107.5t-79.5 -52.5h-256q-55 0 -94 51t-39 109z" />
<glyph unicode="." horiz-adv-x="671" d="M119 145q0 86 64.5 140.5t156.5 54.5q86 0 140.5 -52t54.5 -130t-58.5 -127t-169.5 -49q-82 0 -135 44t-53 119z" />
<glyph unicode="/" horiz-adv-x="561" d="M0 -33l422 1428h125l-424 -1428h-123z" />
<glyph unicode="0" d="M59 702q0 297 146 504q168 240 467 240q254 0 420 -236q151 -214 151 -501q0 -344 -192 -553q-170 -184 -400 -185q-256 0 -424 213t-168 518zM545 688q0 -242 12 -338q25 -193 98 -192q76 0 95 211q8 98 8 227v102q0 311 -22.5 433t-76.5 122q-80 0 -104 -301 q-10 -125 -10 -264z" />
<glyph unicode="1" d="M184 1208q0 70 262 152q236 74 332 74q55 0 94 -39t39 -99v-1046q0 -43 112 -72t112 -92q0 -86 -80 -86h-779q-37 0 -57 20.5t-20 55.5q0 76 115.5 96.5t115.5 85.5v780q0 86 -123 98.5t-123 71.5z" />
<glyph unicode="2" d="M45 94q0 133 172 309l324 316q174 199 174 385q0 72 -25 113q-31 53 -100 53q-72 0 -119 -51.5t-47 -118.5q0 -20 16.5 -51t16.5 -58q0 -63 -52.5 -96t-130.5 -33q-98 0 -148 54.5t-50 148.5q0 174 186 281q168 96 414 96q209 0 352 -111q158 -121 158 -319 q0 -147 -174 -338q-201 -178 -400 -355h332q45 0 107.5 42t95.5 42q29 0 48 -11t19 -44q0 -49 -32 -178q-43 -170 -97 -170h-968q-33 0 -52.5 28.5t-19.5 65.5z" />
<glyph unicode="3" d="M35 274q0 78 51 118t137 40q49 0 99 -24q16 -8 38 -25q43 -178 43 -180q35 -90 111 -90q94 0 137 71q37 61 37 164q0 172 -63 246q-55 66 -170 65l-82 -6q-39 0 -66.5 26t-27.5 54q0 49 50 70.5t117 21.5q100 0 154 80q47 72 47 189q0 80 -20 125q-27 57 -82 57 q-39 0 -69 -34t-30 -75q0 -14 10.5 -42.5t10.5 -43.5q0 -121 -178 -120q-74 0 -125 32q-59 39 -60 107q0 156 152 246q137 82 326 81q221 0 370 -81q176 -96 176 -269q0 -199 -192 -276q-63 -25 -195 -39q49 0 115 -14q135 -31 215 -97q117 -96 117 -258q0 -199 -182 -317 q-168 -109 -412 -109q-215 0 -367 64q-193 82 -192 243z" />
<glyph unicode="4" d="M53 422q0 106 124 348t274 434q166 213 258 213h241q39 0 74 -34.5t35 -86.5v-794h125q78 0 78 -76q0 -33 -18.5 -55.5t-59.5 -22.5h-133v-145q0 -29 50 -55.5t50 -75.5q0 -39 -21.5 -55.5t-52.5 -16.5h-542q-29 0 -50.5 23.5t-21.5 52.5q0 47 67.5 71.5t67.5 63.5v137 h-471q-29 0 -47 14q-27 20 -27 60zM283 502h317v598q-106 -141 -202.5 -321.5t-114.5 -276.5z" />
<glyph unicode="5" d="M33 262q0 72 54 118t134 46q162 0 176.5 -151.5t104.5 -151.5q92 0 145 96q45 82 45 182q0 127 -45 211q-57 106 -168 107q-92 0 -154.5 -31t-125.5 -63q-37 0 -52.5 26.5t-15.5 89.5l51 584q6 63 23 78q8 6 41 6h821q29 0 50.5 -15.5t21.5 -35.5q0 -137 -156 -209 q-137 -63 -362 -64q-115 0 -164 10.5t-84 34.5l-35 -317q72 84 272 84q240 0 406 -113q178 -120 178 -325q0 -219 -173 -354.5t-460 -135.5q-207 0 -356 72q-172 82 -172 221z" />
<glyph unicode="6" d="M68 614q0 317 239 566q264 272 670 272q94 0 149 -18q80 -27 80 -88q0 -68 -161.5 -83.5t-239.5 -58.5q-160 -90 -215 -342q49 23 103.5 33t111.5 10q209 0 334 -129q118 -123 118 -311q0 -213 -152.5 -351.5t-414.5 -138.5q-293 0 -457.5 173.5t-164.5 465.5zM553 453 q0 -152 25 -215q33 -86 118 -86q61 0 90 102t29 229q0 129 -18 185q-27 80 -103 80q-70 0 -105.5 -94.5t-35.5 -200.5z" />
<glyph unicode="7" d="M104 1114q0 143 34 221t104 78h882q104 0 105 -65q0 -21 -10 -56l-349 -1147q-27 -88 -41 -110q-23 -35 -73 -35h-408q-51 0 -74.5 15.5t-23.5 43.5q0 20 16 47l553 990h-368q-117 0 -181 -64q-31 -31 -71 -31q-94 0 -95 113z" />
<glyph unicode="8" d="M43 373q0 137 88 219q66 61 252 108q-131 39 -213 127t-82 189q0 211 186 325q164 100 404 101q168 0 323 -86q184 -102 185 -256q0 -147 -103 -215q-6 -4 -161 -66q125 -37 220 -147.5t95 -227.5q0 -242 -178 -362q-156 -106 -418 -107q-238 0 -405 97 q-193 111 -193 301zM422 311q0 -68 65.5 -121t139.5 -53t125 35t51 111q0 90 -111 194l-180 160q-45 -43 -67.5 -139.5t-22.5 -186.5zM543 1126q0 -78 82 -145q72 -57 143 -113q37 57 56.5 115.5t19.5 126.5q0 70 -52.5 116t-129.5 46q-51 0 -85 -40t-34 -106z" />
<glyph unicode="9" d="M43 958q0 221 164 354.5t420 133.5q285 0 443.5 -165t158.5 -452q0 -420 -291 -665q-248 -209 -561 -209q-98 0 -166 16q-98 25 -98 80q0 76 143 86t233 64q182 106 308 411q-98 -59 -138 -73q-70 -27 -129 -27q-236 0 -361.5 113.5t-125.5 332.5zM498 958 q0 -133 22 -206q31 -98 101 -99q61 0 94 84t33 246q0 125 -25 188q-33 82 -113 82q-59 0 -85.5 -85t-26.5 -210z" />
<glyph unicode=":" horiz-adv-x="671" d="M100 752q0 74 69 130t165 56q90 0 152.5 -58.5t62.5 -134.5q0 -78 -60.5 -130t-173.5 -52q-94 0 -154.5 56.5t-60.5 132.5zM117 162q0 74 68.5 130t164.5 56q90 0 152.5 -58t62.5 -134q0 -78 -60.5 -130.5t-172.5 -52.5q-94 0 -154.5 56.5t-60.5 132.5z" />
<glyph unicode=";" horiz-adv-x="671" d="M129 147q0 76 67.5 129.5t153.5 53.5q106 0 169 -62.5t63 -158.5q0 -102 -122 -236.5t-202 -134.5q-51 0 -72 57q49 43 88 109.5t76 130.5q-43 -41 -92 -41q-57 0 -93 46t-36 107zM129 758q0 68 66.5 124t156.5 56q88 0 155.5 -62.5t67.5 -132.5q0 -63 -75.5 -125.5 t-161.5 -62.5q-82 0 -145.5 67.5t-63.5 135.5z" />
<glyph unicode="&#x3c;" horiz-adv-x="952" d="M106 381v106l738 365v-109l-615 -317l615 -320v-106z" />
<glyph unicode="=" horiz-adv-x="1087" d="M123 244v106h858v-106h-858zM123 502v106h858v-106h-858z" />
<glyph unicode="&#x3e;" horiz-adv-x="952" d="M129 0v106l614 320l-614 317v109l737 -365v-106z" />
<glyph unicode="?" horiz-adv-x="1118" d="M18 1155q0 139 162 221q139 70 336 70q184 0 336 -105q168 -116 168 -290t-162 -301q-86 -68 -270 -146l-27 -129q-18 -86 -117 -86q-53 0 -86.5 32t-33.5 62v209q0 53 118.5 147.5t118.5 274.5q0 72 -18 117q-27 68 -88 67q-68 0 -92.5 -144t-161.5 -144 q-80 0 -131.5 37.5t-51.5 107.5zM221 150q0 78 58.5 123.5t158.5 45.5q102 0 174 -48t72 -126q0 -74 -66.5 -119.5t-171.5 -45.5q-98 0 -161.5 49t-63.5 121z" />
<glyph unicode="@" horiz-adv-x="1673" d="M96 745q0 330 221.5 557.5t561.5 227.5q274 0 471 -172q206 -183 206 -459q0 -221 -154.5 -398t-369.5 -177q-61 0 -96 24q-43 31 -43 88v17q-63 -61 -120.5 -91t-135.5 -30q-109 0 -166 76.5t-57 189.5q0 205 127 387q141 201 333 201q109 0 170 -88l23 55h203 l-201 -539q-20 -49 -22 -57q-14 -41 -15 -61q0 -16 17.5 -27.5t37.5 -11.5q135 0 240 142t105 302q0 227 -175 373q-162 135 -391 135q-254 0 -449.5 -199.5t-195.5 -466.5q0 -279 191.5 -464t464.5 -185q172 0 320.5 83t234.5 233h114q-82 -213 -272 -330 q-180 -111 -412 -111q-317 0 -541.5 226.5t-224.5 549.5zM623 545q0 -37 15 -60.5t50 -23.5q82 0 185.5 199.5t103.5 322.5q0 29 -15.5 49.5t-41.5 20.5q-106 0 -207 -205q-90 -182 -90 -303z" />
<glyph unicode="A" horiz-adv-x="1570" d="M4 74q0 39 25 61q78 70 86 90l422 1121q10 29 22 45q29 39 78 39h213q51 0 67.5 -12.5t38.5 -67.5l457 -1112q23 -51 68 -86q32 -25 32 -66q0 -31 -17 -58.5t-44 -27.5h-528q-20 0 -37 22.5t-17 47.5q0 57 36 76.5t30 46.5l-76 253h-440l-82 -217q-2 -7 -2 -14 q0 -37 46 -67q54 -36 54 -72q0 -31 -18.5 -53.5t-50.5 -22.5h-299q-27 0 -45.5 22.5t-18.5 51.5zM487 629h322l-150 465z" />
<glyph unicode="B" horiz-adv-x="1570" d="M31 90q0 16 71 92q35 37 35 80v901q0 74 -48 96.5t-48 59.5t26.5 59.5t65.5 30.5h842q156 0 274 -82q131 -90 131 -233q0 -109 -100 -207q-92 -90 -203 -117q174 0 275 -80q114 -92 114 -272q0 -184 -153 -307q-137 -111 -297 -111h-912q-31 0 -52 27.5t-21 62.5z M598 242q0 -27 38 -50.5t77 -23.5q125 0 195.5 75t70.5 177q-1 92 -57 167q-49 65 -86 65q-5 0 -11 -1l-227 -61v-348zM608 786q98 47 146 82q147 111 147 242q0 57 -51 97t-135 40q-39 0 -73 -18.5t-34 -48.5v-394z" />
<glyph unicode="C" horiz-adv-x="1570" d="M61 688q0 340 277 559q246 195 563 195q201 0 379 -92q59 -31 137 -93q12 -55 17 -86q16 -96 16 -139q0 -53 -18.5 -71.5t-79.5 -18.5q-68 0 -158 162t-260 162q-381 0 -381 -602q0 -221 113 -355q106 -125 268 -125q168 0 286.5 111t176.5 111q43 0 63.5 -22.5 t20.5 -59.5q0 -141 -199 -256q-188 -109 -395 -109q-371 0 -598.5 208t-227.5 521z" />
<glyph unicode="D" horiz-adv-x="1789" d="M37 1319q0 35 37 62.5t96 27.5h809q276 0 471 -178q213 -195 213 -514q0 -334 -211 -531q-199 -186 -512 -186h-831q-16 0 -36 23.5t-20 50.5q0 43 48.5 72.5t48.5 70.5v967q0 31 -56.5 62.5t-56.5 72.5zM659 254q0 -41 33 -64.5t78 -23.5q180 0 293 184q98 162 98 367 q0 215 -124 371.5t-302 156.5q-27 0 -51.5 -12t-24.5 -39v-940z" />
<glyph unicode="E" d="M47 74q0 47 51.5 79.5t51.5 92.5v962q0 31 -43.5 66t-43.5 69q0 31 19.5 52.5t50.5 21.5h952q72 0 103 -47t31 -156q0 -68 -20.5 -99.5t-72.5 -31.5q-41 0 -117.5 79t-150.5 79h-158q-35 0 -63.5 -14.5t-28.5 -42.5v-320h262q29 0 68 35t76 35q27 0 53 -27q18 -18 18 -35 v-188q0 -37 -23.5 -60.5t-49.5 -23.5q-39 0 -87 42t-87 42h-222v-422q0 -18 23 -42.5t49 -24.5h248q51 0 117.5 80.5t122.5 80.5q55 0 72.5 -31.5t17.5 -115.5q0 -78 -21 -135q-27 -74 -76 -74h-1060q-20 0 -41 24.5t-21 49.5z" />
<glyph unicode="F" horiz-adv-x="1230" d="M39 82q0 37 49 71.5t49 84.5v950q0 49 -45 82t-45 73q0 23 25.5 48.5t54.5 25.5h856q123 0 158 -61q26 -46 26 -189q0 -61 -21.5 -86.5t-64.5 -25.5q-31 0 -101.5 89t-113.5 89h-223q-20 0 -35.5 -23.5t-15.5 -46.5v-336h250q18 0 48 32t71 32q35 0 57 -17.5t22 -54.5 v-182q0 -41 -26.5 -63.5t-63.5 -22.5q-35 0 -55 20q-53 51 -70 52h-233v-406q0 -29 37 -51q80 -49 80 -100q0 -66 -62 -66h-538q-25 0 -47.5 26.5t-22.5 55.5z" />
<glyph unicode="G" horiz-adv-x="1675" d="M68 670q0 377 264 579q246 188 659 189q170 0 334 -73t164 -171v-154q0 -41 -32 -66.5t-75 -25.5q-63 0 -143 153.5t-274 153.5q-178 0 -291 -178q-100 -160 -101 -370q0 -213 76 -361q90 -174 254 -174q100 0 146 74q38 59 38 166v6q0 90 -26.5 122.5t-95.5 32.5h-111 q-23 0 -40 24t-17 56q0 47 26.5 76t69.5 29h565q92 0 92 -84v-502q-137 -98 -314 -153.5t-351 -55.5q-373 0 -595 198.5t-222 508.5z" />
<glyph unicode="H" horiz-adv-x="1675" d="M43 1341q0 31 16.5 53.5t42.5 22.5h531q88 0 88 -71q0 -57 -72 -99q-33 -18 -33 -45v-342h400v357q0 16 -25 34q-57 43 -57 78q0 37 29.5 62.5t76.5 25.5h449q45 0 73.5 -22.5t28.5 -57.5t-47 -73.5t-47 -79.5v-934q0 -57 47 -92t47 -76t-15 -61.5t-36 -20.5h-536 q-37 0 -60.5 21.5t-23.5 54.5q0 43 50 81t50 72v451h-408v-422q0 -61 49.5 -102t49.5 -86q0 -31 -19.5 -50.5t-40.5 -19.5h-528q-25 0 -49.5 26.5t-24.5 57.5q0 41 42 72.5t42 68.5v959q0 51 -45 86t-45 71z" />
<glyph unicode="I" horiz-adv-x="786" d="M39 80q0 33 49 65.5t49 71.5v975q0 55 -48 77.5t-48 61.5q0 25 18.5 50.5t38.5 25.5h537q37 0 63.5 -26.5t26.5 -63.5q0 -39 -50 -61.5t-50 -73.5v-965q0 -45 50 -71.5t50 -71.5q0 -25 -13.5 -49.5t-35.5 -24.5h-553q-35 0 -59.5 24.5t-24.5 55.5z" />
<glyph unicode="J" horiz-adv-x="1230" d="M-8 307q0 137 94 221t223 84q199 0 199 -137q0 -51 -74 -100t-74 -111q0 -47 29 -79.5t78 -32.5q66 0 98 65q27 53 27 135v785q0 70 -64.5 110.5t-64.5 81.5q0 37 30.5 58.5t65.5 21.5h514q35 0 62.5 -31.5t27.5 -62.5q0 -47 -49 -71.5t-49 -80.5v-815q0 -203 -168 -303 q-141 -84 -387 -84q-207 0 -342 70q-176 90 -176 276z" />
<glyph unicode="K" horiz-adv-x="1570" d="M37 1325q0 31 20.5 56.5t40.5 25.5h518q31 0 51.5 -24.5t20.5 -57.5q0 -59 -46 -82.5t-46 -64.5v-379q145 104 217 164q217 180 217 264q0 8 -34.5 30.5t-34.5 69.5q0 20 19 46t40 26h319q33 0 64 -24.5t31 -61.5q0 -49 -50 -78q-35 -20 -69 -39l-301 -340l401 -645 q16 -27 72 -64q35 -22 35 -75q0 -27 -18.5 -49.5t-41.5 -22.5h-522q-33 0 -54.5 21.5t-21.5 56.5q0 41 25.5 60.5t25.5 43.5q0 61 -118 258q-39 66 -121 187q-20 -16 -48 -32.5t-40 -16.5v-340q0 -33 63 -93q33 -31 33 -65q0 -31 -22.5 -55.5t-61.5 -24.5h-467 q-41 0 -67.5 24.5t-26.5 59.5q0 41 47 78t47 80v909q0 51 -48 84t-48 90z" />
<glyph unicode="L" d="M43 1339q0 27 23.5 48.5t48.5 21.5h594q27 0 48 -23.5t21 -54.5q0 -47 -53 -77.5t-53 -73.5v-934q0 -41 12 -55.5t55 -14.5h176q82 0 191 150q52 71 105 71h1q35 0 67 -27.5t32 -68.5q0 -90 -47 -195.5t-95 -105.5h-1052q-27 0 -44.5 23.5t-17.5 50.5q0 49 49.5 77.5 t49.5 73.5v942q0 55 -55.5 94t-55.5 78z" />
<glyph unicode="M" horiz-adv-x="1902" d="M16 1327q0 31 16.5 53.5t47.5 22.5h571q33 0 54.5 -26.5t31.5 -63.5l203 -633l221 641q16 49 36 65.5t46 16.5h506q20 0 44 -30t24 -56q0 -55 -56.5 -77.5t-56.5 -51.5v-914q0 -37 39 -75q88 -86 88 -113q0 -29 -37 -57.5t-72 -28.5h-544q-25 0 -38.5 22.5t-13.5 49.5 q0 29 52.5 79t52.5 91v733l-248 -713q-16 -49 -58 -70.5t-106 -21.5q-61 0 -98 12q-53 18 -70 64l-260 733v-754q0 -37 94 -92q47 -29 47 -59q-6 -29 -20 -47q-20 -27 -47 -27h-389q-27 0 -42.5 26.5t-15.5 55.5q2 18 67 60t65 83v955q0 38 -71 74q-64 32 -64 66q0 3 1 7z " />
<glyph unicode="N" horiz-adv-x="1570" d="M2 1333q0 29 23.5 52.5t54.5 23.5h479q63 0 96 -53l490 -754v586q0 23 -59.5 70t-59.5 79q0 27 17.5 49.5t50.5 22.5h327q43 0 64 -41q10 -20 10 -43q0 -35 -59.5 -65.5t-59.5 -75.5v-1065q0 -37 -23.5 -78t-49.5 -41h-224l-686 942l-2 -668q0 -82 73 -125t73 -83 q0 -18 -14.5 -42t-33.5 -24h-391q-29 0 -53.5 22.5t-24.5 47.5q0 51 67 89t67 91v926q0 37 -76 69.5t-76 87.5z" />
<glyph unicode="O" horiz-adv-x="1789" d="M59 692q0 303 220 522q236 236 593 236q360 0 594 -215q226 -207 226 -510q0 -332 -219 -545q-231 -225 -617 -225q-330 0 -563.5 217t-233.5 520zM586 688q0 -258 84 -404.5t223 -146.5q150 0 233 180q72 156 72 363q0 309 -98 457q-79 120 -221 120h-2 q-156 0 -232 -188q-59 -150 -59 -381z" />
<glyph unicode="P" horiz-adv-x="1458" d="M25 1335q0 31 26.5 52.5t65.5 21.5h807q184 0 320 -116t136 -298q0 -244 -282 -370q-215 -96 -498 -97v-295q0 -39 61.5 -77.5t61.5 -81.5q0 -27 -19.5 -50.5t-56.5 -23.5h-555q-27 0 -43 27.5t-16 60.5q0 39 50 66.5t50 107.5v922q0 47 -54 75.5t-54 75.5zM608 709 q131 37 208 120.5t77 200.5q0 86 -62.5 150.5t-138.5 64.5q-33 0 -58.5 -19.5t-25.5 -49.5v-467z" />
<glyph unicode="Q" horiz-adv-x="1789" d="M59 711q0 332 267 544q242 195 559 195q328 0 557 -199q239 -208 239 -532q0 -291 -168 -479q-154 -172 -372 -195q47 -25 87 -39t81 -14q10 0 66.5 7t94.5 7q86 0 137.5 -25.5t51.5 -91.5t-43 -104q-61 -55 -207 -55q-170 0 -301 66.5t-197 170.5q-20 -8 -57 -9t-61 -1 q-264 0 -474 170q-260 211 -260 584zM561 700q0 -193 55 -333q70 -176 209 -224q-53 82 -53 189q0 59 28.5 103t84.5 44q29 0 59.5 -21.5t30.5 -43.5q0 -119 7 -173.5t44 -84.5q88 100 111 155q49 127 49 420q0 211 -64 348q-84 180 -256 181q-156 0 -230.5 -152t-74.5 -408 z" />
<glyph unicode="R" horiz-adv-x="1570" d="M29 1329q0 29 22 49q35 31 94 31h877q201 0 307 -98q98 -90 98 -240q0 -119 -73.5 -218t-188.5 -157q88 -72 174 -260q68 -145 93 -254q14 -31 50 -51.5t36 -73.5q0 -39 -39 -51q-18 -6 -62 -6h-450q-80 0 -103.5 14.5t-23.5 71.5q0 33 33.5 47t33.5 31q0 39 -71 198 q-33 72 -109 228l-117 -17v-331q0 -55 78 -103q39 -25 39 -57q0 -43 -31.5 -62.5t-79.5 -19.5h-479q-51 0 -76.5 16.5t-25.5 59.5q0 20 67 90q33 33 33 67v975q0 39 -72 76q-35 18 -34 45zM610 778q190 31 221 45q115 58 115 234q0 70 -34.5 128t-90.5 58h-139 q-27 0 -49.5 -20.5t-22.5 -44.5v-400z" />
<glyph unicode="S" horiz-adv-x="1458" d="M74 383q41 33 108 33q45 0 162 -131t309 -131q82 0 160 39q88 45 88 106q0 125 -213 180q-365 96 -399 113q-215 106 -215 350q0 229 198 369q188 131 473 131q211 0 342 -53q160 -66 160 -199q0 -12 2 -42t2 -46q0 -59 -18 -84q-27 -37 -96 -37q-45 0 -119 146.5 t-262 146.5q-78 0 -147.5 -41t-69.5 -105q0 -119 213 -174q354 -92 395 -112q215 -104 215 -340q0 -231 -192.5 -387t-503.5 -156q-254 0 -439 92q-194 98 -194 243q0 56 41 89z" />
<glyph unicode="T" d="M-2 1151q0 25 4 37l33 131q10 41 40.5 64.5t82.5 23.5h1003q61 0 88 -25.5t33 -70.5l21 -115q2 -8 2 -14v-15q0 -61 -54 -80q-29 -10 -67 -10q-14 0 -86 80t-207 80v-1008q0 -55 56.5 -76.5t56.5 -72.5q0 -41 -31 -60.5t-82 -19.5h-471q-49 0 -79 18.5t-30 63.5 q0 51 50.5 72.5t50.5 83.5v1001q-106 0 -192.5 -94t-127.5 -94q-43 0 -68.5 27.5t-25.5 72.5z" />
<glyph unicode="U" horiz-adv-x="1458" d="M59 1333q0 39 11 56q17 26 64 26q2 0 3 1h416q63 0 109.5 -31t46.5 -80q0 -27 -45.5 -50.5t-71.5 -107.5q-43 -139 -43 -434q0 -250 53 -383q68 -172 229 -172q145 0 201 98q33 57 33 147q0 680 -45 785q-20 47 -68.5 61.5t-48.5 67.5q0 39 18.5 68.5t59.5 30.5h328 q37 0 60.5 -22t23.5 -59q0 -35 -53.5 -63.5t-53.5 -73.5q0 -102 2 -419.5t2 -444.5q0 -147 -153 -268q-137 -106 -355 -107q-426 0 -565 191q-106 145 -106 544q0 135 13 259t28 243q0 29 -62 82q-31 27 -31 55z" />
<glyph unicode="V" horiz-adv-x="1458" d="M0 1313q0 39 28.5 69.5t63.5 30.5h404q41 0 92 -22.5t51 -53.5q0 -39 -49 -90t-49 -78q0 -47 55 -206.5t129 -348.5q43 -106 131 -317q96 293 158 518q73 264 73 357q0 39 -74.5 75.5t-74.5 75.5q0 33 39 61.5t76 28.5h270q45 0 73.5 -18.5t28.5 -59.5q0 -27 -32.5 -63.5 t-46.5 -50.5q-152 -483 -248 -760q-115 -330 -153 -386.5t-94 -78t-134 -21.5q-86 0 -119 11q-55 16 -88 73q-23 43 -84 205q-72 195 -143 391q-92 248 -224 574q-23 14 -45 28q-14 12 -14 56z" />
<glyph unicode="W" horiz-adv-x="2015" d="M33 1325q0 39 19.5 65.5t51.5 26.5h431q39 0 79.5 -22.5t40.5 -61.5q0 -20 -25.5 -45.5t-64.5 -46.5q20 -244 74 -500q41 -188 82 -374q72 170 106 419q27 186 27 357q0 53 -57.5 102t-57.5 96q0 29 31 52.5t57 23.5h435q35 0 65.5 -24.5t30.5 -57.5q0 -45 -44 -72.5 t-44 -50.5q0 -96 73.5 -398t129.5 -447q72 246 113.5 451.5t41.5 357.5q0 33 -64.5 76.5t-64.5 78.5t43 66q29 20 53 20h306q31 0 44 -25.5t13 -58.5q0 -29 -23.5 -58.5t-60.5 -49.5q-117 -537 -150 -674q-74 -299 -141 -428q-78 -150 -182 -150q-176 0 -252 123 q-82 135 -174 598q-25 -139 -47 -276q-39 -203 -97 -303q-84 -143 -225 -144q-152 0 -225 129q-61 106 -125 408q-125 592 -154 711q-8 14 -45 53q-25 27 -24 53z" />
<glyph unicode="X" horiz-adv-x="1458" d="M4 72q0 49 57 90q78 57 80 59l322 479l-330 498q-8 14 -70 59q-40 30 -40 86q0 44 17 55t62 11h35h410q66 0 97.5 -19.5t31.5 -78.5q0 -25 -18.5 -39.5t-36.5 -28.5q0 -10 100 -160q33 -49 100 -149q51 78 76 119q78 129 78 172q0 10 -43 40.5t-43 67.5t19.5 56.5 t72.5 19.5h287q41 0 59.5 -23.5t18.5 -50.5q0 -66 -46 -100q-35 -27 -69 -51l-289 -410l297 -442q47 -70 133 -150q45 -41 45 -102q0 -80 -110 -80h-416q-66 0 -96.5 14.5t-30.5 57.5q0 29 27.5 50t27.5 42q0 6 -112 192q-37 61 -113 185q-55 -102 -82 -156 q-84 -162 -84 -176q0 -37 42 -67.5t42 -73.5q0 -68 -92 -68h-328q-88 0 -88 72z" />
<glyph unicode="Y" horiz-adv-x="1458" d="M-8 1331q0 45 41 64.5t104 19.5h404q76 0 110.5 -15.5t34.5 -64.5t-51 -88q-27 -20 -27 -33q0 -20 90 -192q98 -184 156 -262q59 78 143 236.5t84 203.5q0 25 -37.5 56.5t-37.5 66.5q0 29 25.5 60.5t49.5 31.5h242q39 0 62.5 -18.5t23.5 -63.5q0 -53 -33 -86 q-49 -49 -63 -82q-78 -133 -174 -291q-70 -115 -183 -294v-342q0 -59 57.5 -88t57.5 -66q0 -45 -30.5 -64.5t-79.5 -19.5h-465q-59 0 -80 12q-31 18 -31 68q0 39 51 73.5t51 88.5v311q-86 137 -176 301q-133 240 -166 297q-12 20 -90 82q-63 49 -63 98z" />
<glyph unicode="Z" d="M23 143q0 37 22 78q8 16 53 78l641 932h-237q-121 0 -204 -87t-118 -87q-45 0 -72.5 38t-27.5 87q0 127 32.5 178t116.5 51h893q86 0 122 -22.5t36 -92.5q0 -27 -26.5 -86t-41.5 -77l-645 -930h293q102 0 183 78.5t122 78.5q45 0 63.5 -30.5t18.5 -100.5 q0 -92 -23.5 -160.5t-64.5 -68.5h-1022q-74 0 -98 47q-16 31 -16 96z" />
<glyph unicode="[" horiz-adv-x="786" d="M207 -262v1626q0 20 16.5 32.5t40.5 12.5h420q53 0 53 -88q0 -29 -15 -54.5t-38 -25.5h-166v-1380h141q61 0 62 -94q0 -43 -12.5 -64.5t-44.5 -21.5h-402q-55 0 -55 57z" />
<glyph unicode="\" horiz-adv-x="1230" d="M86 1278h147l844 -1294h-133z" />
<glyph unicode="]" horiz-adv-x="786" d="M119 1321q0 47 11 67.5t42 20.5h420q20 0 31 -4q27 -12 26 -41v-1626q0 -57 -55 -57h-401q-31 0 -44.5 22.5t-13.5 63.5q0 94 62 94h141v1380h-166q-25 0 -39 24.5t-14 55.5z" />
<glyph unicode="^" horiz-adv-x="679" d="M20 1030q0 39 23 64l188 211q14 14 43 23t62 9q31 0 53.5 -7t42.5 -32l172 -188q14 -16 24.5 -39t12.5 -41h-156q-39 10 -82 66q-47 74 -67 102q-39 -66 -74 -104q-43 -49 -88 -64h-154z" />
<glyph unicode="_" horiz-adv-x="1230" d="M0 -430h1229v-86h-1229v86z" />
<glyph unicode="`" horiz-adv-x="679" d="M39 1192q0 53 29.5 98t72.5 33l396 -123q23 -6 43 -31t20 -43q0 -41 -20.5 -67.5t-57.5 -26.5q-14 0 -20 2l-430 115q-33 8 -33 43z" />
<glyph unicode="a" horiz-adv-x="1230" d="M59 287q0 231 342 293q31 6 271 28q0 61 -31 117.5t-80 56.5q-47 0 -168 -90q-57 -43 -106 -43q-147 0 -148 113q0 86 142 133q119 39 280 39q199 0 336 -66q170 -80 170 -235v-410q0 -61 53 -114q27 -27 27 -56q0 -35 -21.5 -45t-60.5 -10h-285q-41 0 -60.5 31.5 t-25.5 74.5q-76 -51 -151 -100q-55 -29 -107 -29q-174 0 -275.5 80t-101.5 232zM479 268q0 -100 68 -100q31 0 80 37.5t49 70.5v207q-82 -39 -123 -73q-74 -63 -74 -142z" />
<glyph unicode="b" d="M33 1272q0 35 172 91t211 56q76 0 106 -51q23 -39 23 -111l-2 -385q104 39 108 41q82 27 144 27q178 0 305 -123q137 -133 137 -344q0 -244 -172 -375q-164 -125 -436 -125q-231 0 -361 78q-143 86 -143 258v813q0 53 -62 101q-31 25 -30 49zM543 313q0 -78 30.5 -132 t85.5 -54q70 0 106 70t36 256q0 135 -27 204q-37 94 -119 95q-41 0 -76.5 -42t-35.5 -98v-299z" />
<glyph unicode="c" horiz-adv-x="1118" d="M59 438q0 223 150.5 359.5t374.5 136.5q207 0 331 -76q113 -70 113 -166q0 -49 -40 -83t-91 -34q-86 0 -149.5 88.5t-116.5 88.5q-74 0 -111 -123q-26 -85 -26 -191v-8q0 -117 49 -187.5t149 -70.5q117 0 201 84q41 41 70 41q41 0 65.5 -20.5t24.5 -49.5q0 -84 -129 -166 q-141 -90 -310 -90q-256 0 -405.5 129t-149.5 338z" />
<glyph unicode="d" d="M63 467q0 184 138 319q145 143 372 144q43 0 125 -23q35 -10 72 -20l-2 256q0 49 -49 69.5t-49 73.5q0 63 190 107q139 32 220 32h5q57 0 82 -45q18 -35 19 -92v-1079q0 -27 24 -51q54 -54 54 -72q0 -90 -86 -90h-281q-51 0 -62.5 43t-19.5 84q-41 -61 -94 -98 q-74 -51 -170 -52q-225 0 -356.5 133.5t-131.5 360.5zM498 430q0 -115 28 -182q41 -96 131 -96q33 0 74 55t41 96v356q0 35 -40 69t-77 34q-90 0 -129 -119q-28 -83 -28 -205v-8z" />
<glyph unicode="e" horiz-adv-x="1208" d="M61 455q0 197 178.5 336t426.5 139q172 0 311 -68q164 -80 164 -203q0 -190 -228 -268q-117 -41 -401 -65q0 -49 79 -111.5t136 -62.5q106 0 208.5 68.5t141.5 68.5q41 0 58 -25q10 -16 10 -47q0 -98 -152.5 -170t-347.5 -72q-246 0 -403 113q-180 129 -181 367zM502 475 q102 18 157 49q89 52 89 142q0 39 -25 67.5t-70 28.5q-49 0 -80.5 -50t-70.5 -237z" />
<glyph unicode="f" horiz-adv-x="786" d="M27 821q0 57 39 82q25 16 63 17h27v65q0 193 67 295q92 141 318 141q115 0 192 -32q98 -41 98 -127q0 -129 -131 -129q-68 0 -94 30q-6 6 -26 58q-4 -16 -5.5 -69.5t-1.5 -78.5v-91t2 -67h66q55 0 86 -26.5t31 -67.5q0 -96 -117 -96h-66v-492q0 -59 53.5 -87.5 t53.5 -65.5t-25.5 -58.5t-87.5 -21.5h-370q-72 0 -106 15.5t-34 60.5t47.5 73.5t47.5 81.5v492h-29q-27 0 -57 22q-41 31 -41 76z" />
<glyph unicode="g" d="M57 -160q0 72 70 110t182 38q70 0 119 -8.5t49 -40.5q0 -4 -8 -16.5t-8 -26.5q0 -25 37 -42.5t98 -17.5q78 0 121 36t43 81q0 80 -86 106l-154 -6q-221 0 -346 127q-117 119 -117 299q0 209 126 329t331 120q27 0 252 -13q113 -6 217 -6h33.5t36.5 2q57 0 85.5 -16.5 t28.5 -73.5q0 -43 -16 -61q-25 -27 -96 -27q-29 0 -45.5 3t-26.5 7q43 -14 64 -36q65 -69 65 -211q0 -139 -59 -228q-47 -70 -138 -116q94 -18 150 -70q68 -63 68 -162q0 -147 -175 -225q-150 -68 -376 -68q-227 0 -365 49q-160 57 -160 164zM473 473q0 -117 27.5 -188.5 t77.5 -71.5q53 0 84.5 88t31.5 205q0 113 -24 186q-31 90 -88 90q-51 0 -80 -98t-29 -211z" />
<glyph unicode="h" d="M51 1274q0 53 211 104q170 41 240 41q25 0 42 -26.5t17 -94.5v-444q31 27 57 39q82 41 193 41q158 0 260 -105q94 -96 94 -233v-420q0 -18 23 -37q51 -41 51 -76q0 -23 -22.5 -43t-42.5 -20h-424q-23 0 -40.5 19.5t-17.5 43.5q0 39 29 68t29 57v453q0 37 -31 67.5 t-66 30.5q-47 0 -69.5 -47t-22.5 -123v-360q0 -49 27.5 -68.5t27.5 -60.5q0 -27 -17 -53.5t-44 -26.5h-422q-18 0 -39.5 27.5t-21.5 48.5q0 39 34.5 57.5t34.5 93.5v908q0 41 -45 73.5t-45 65.5z" />
<glyph unicode="i" horiz-adv-x="671" d="M49 61q0 41 33 61.5t33 51.5v465q0 41 -30 68.5t-30 54.5q0 57 137.5 110.5t235.5 53.5q47 0 74.5 -43t27.5 -97v-583q0 -49 37 -84t37 -62q0 -20 -18.5 -38.5t-57.5 -18.5h-401q-27 0 -52.5 17.5t-25.5 43.5zM88 1176q0 82 67.5 139t166.5 57q96 0 154.5 -56t58.5 -138 q0 -72 -55.5 -119t-155.5 -47q-113 0 -174.5 46t-61.5 118z" />
<glyph unicode="j" horiz-adv-x="671" d="M-143 -182q0 51 31.5 82.5t76.5 31.5q61 0 111.5 -52t50.5 -111v858q0 55 -47 73.5t-47 69.5q0 68 186 113q141 35 215 35q55 0 75.5 -34t20.5 -100v-833q0 -115 -86 -207q-109 -115 -297 -115q-119 0 -204.5 52.5t-85.5 136.5zM88 1202q0 72 64.5 124t166.5 52 q98 0 162 -53t64 -125q0 -76 -51 -125q-59 -57 -177 -57q-113 0 -171 52t-58 132z" />
<glyph unicode="k" horiz-adv-x="1230" d="M41 1266q0 63 119 108q147 55 286 56q51 0 72 -52q12 -31 12 -90v-756q61 37 148.5 115t87.5 101q0 2 -38 28.5t-38 67.5q0 27 21.5 42t40.5 15h278q29 0 54.5 -18.5t25.5 -48.5q0 -45 -45 -76q-35 -20 -68 -41l-151 -146q70 -49 158 -180q80 -117 124 -219 q39 -25 48 -33q26 -24 26 -57q0 -82 -102 -82h-389q-27 0 -47.5 15.5t-20.5 50.5q0 45 12 65q6 10 15 23q0 14 -56 116q-61 113 -92 148v-189q0 -29 37 -84q18 -29 19 -61q0 -41 -19.5 -62.5t-46.5 -21.5h-381q-37 0 -61.5 15.5t-24.5 52.5q0 33 23 55q51 53 51 90v932 q0 47 -39 69.5t-39 51.5z" />
<glyph unicode="l" horiz-adv-x="671" d="M25 76q0 35 28 61q66 61 66 78v905q0 55 -39 76t-39 59q0 74 184 129q145 43 234 43q51 0 65.5 -28.5t14.5 -98.5v-1079q0 -63 38.5 -83.5t38.5 -57.5q0 -33 -19 -56.5t-65 -23.5h-428q-35 0 -57 22.5t-22 53.5z" />
<glyph unicode="m" horiz-adv-x="1886" d="M47 756q0 59 119 104q158 59 283 60q27 0 37 -23t10 -63q-2 -43 -2 -62q51 72 122 115q82 49 179 49q98 0 166.5 -40t99.5 -108q72 72 129 105q78 45 160 45q174 0 275 -83t101 -226v-418q0 -55 40 -80.5t40 -54.5q0 -33 -29.5 -54.5t-70.5 -21.5h-401q-18 0 -36 23.5 t-18 44.5q0 47 20.5 69.5t20.5 63.5v452q0 35 -19.5 56.5t-53.5 21.5q-27 0 -52.5 -27.5t-25.5 -58.5v-467q0 -18 24.5 -42.5t24.5 -63.5q0 -25 -18.5 -48.5t-41.5 -23.5h-399q-25 0 -48.5 16.5t-23.5 44.5q0 33 39 84q20 27 21 78v395q0 43 -14.5 70t-57.5 27 q-35 0 -60.5 -33t-25.5 -66v-385q0 -70 24.5 -94t24.5 -59q0 -37 -20.5 -57.5t-48.5 -20.5h-377q-47 0 -74 15.5t-27 47.5q0 39 35 72t35 90v398q0 57 -43 83.5t-43 49.5z" />
<glyph unicode="n" d="M39 786q0 49 145.5 97.5t225.5 48.5q51 0 69.5 -23.5t18.5 -64.5q0 -23 -2 -37t-7 -23q16 29 33 45q102 104 309 105q135 0 245 -105.5t110 -230.5v-389q0 -51 34.5 -77.5t34.5 -65.5q0 -23 -14 -39q-23 -27 -76 -27h-399q-29 0 -50.5 17.5t-21.5 45.5q0 20 39 76 q20 29 21 68v461q0 18 -26 41.5t-56 23.5q-43 0 -75 -35.5t-32 -79.5v-415q0 -49 24.5 -74t24.5 -59q0 -33 -16 -51.5t-43 -18.5h-410q-41 0 -65.5 13.5t-24.5 41.5q0 33 37 66t37 86v424q0 55 -45 77.5t-45 77.5z" />
<glyph unicode="o" d="M57 451q0 209 180.5 348t428.5 139q242 0 412.5 -144t170.5 -343q0 -221 -182 -355q-172 -125 -426 -125q-250 0 -412 123q-172 131 -172 357zM500 459q0 -150 30 -228q39 -100 129 -100q86 0 122 87t36 259q0 129 -39 208t-114 79q-86 0 -125 -85t-39 -220z" />
<glyph unicode="p" d="M33 782q0 59 131 107.5t233 48.5q57 0 80 -35q14 -23 15 -72v-34q45 72 135 106q70 27 151 27q221 0 346 -164q103 -135 103 -307q0 -199 -111 -334q-123 -152 -338 -152q-88 0 -136 29t-48 82t63 78q141 53 142 276q0 127 -34 214t-99 87q-104 0 -105 -135v-696 q0 -74 43 -104.5t43 -55.5q0 -41 -26.5 -64.5t-63.5 -23.5h-383q-43 0 -72 14q-41 20 -41 54q0 35 48 92q25 31 24 61v758q0 49 -50 82t-50 61z" />
<glyph unicode="q" d="M55 422q0 236 143.5 373t403.5 137q76 0 141 -33q51 -25 115 -82q63 41 115.5 72t103.5 31t71.5 -19.5t20.5 -89.5v-915q0 -37 39 -76t39 -78q0 -37 -29.5 -55.5t-60.5 -18.5h-399q-35 0 -64.5 20.5t-29.5 59.5q0 37 57 82q29 23 29 53v158q-29 -33 -98.5 -54.5 t-141.5 -21.5q-205 0 -330 132t-125 325zM492 455q0 -147 36.5 -232.5t110.5 -85.5q45 0 71.5 28.5t26.5 67.5v412q0 37 -31.5 77t-62.5 40q-74 0 -112.5 -88t-38.5 -219z" />
<glyph unicode="r" horiz-adv-x="901" d="M6 791q0 57 154 104q125 39 205 39q59 0 75 -90q6 -66 13 -129q45 94 92 143q70 74 160 74q61 0 107 -50t46 -120q0 -72 -39 -113t-106 -41q-39 0 -69 7.5t-44 7.5q-33 0 -49 -55.5t-16 -102.5v-238q0 -43 56 -78.5t56 -76.5q0 -25 -21.5 -48.5t-50.5 -23.5h-483 q-29 0 -48 21.5t-19 54.5q0 37 47 61.5t47 50.5v412q0 66 -56.5 97.5t-56.5 93.5z" />
<glyph unicode="s" horiz-adv-x="1118" d="M35 190q0 49 32.5 70t82.5 22q57 0 126.5 -70.5t159.5 -70.5q45 0 84 19.5t39 50.5q0 70 -249 127t-249 244q0 178 170 272q143 80 353 80q184 0 280 -39q133 -53 133 -188q0 -27 -22.5 -53.5t-52.5 -26.5q-66 0 -109 47q-94 104 -184 104q-37 0 -74 -17.5t-37 -60.5 q0 -45 250 -118.5t250 -270.5q0 -147 -142.5 -242.5t-353.5 -95.5q-207 0 -347 58.5t-140 158.5z" />
<glyph unicode="t" horiz-adv-x="786" d="M6 813q0 49 37 76q27 18 78 29q100 0 139 88q2 6 45 133q16 35 46 53t73 18q117 0 117 -94v-201h98q39 0 70 -18q45 -27 45 -76q0 -43 -32 -70.5t-87 -27.5h-92v-483q0 -59 101 -71.5t101 -82.5q0 -23 -12 -45q-23 -41 -55 -41h-430q-51 0 -77 36t-26 97v594h-39 q-37 0 -68.5 25.5t-31.5 60.5z" />
<glyph unicode="u" d="M53 825q0 45 113 74q135 35 291 35q61 0 90 -60q18 -39 18 -81v-504q0 -49 18.5 -81t53.5 -32q57 0 84 41q20 33 20 90v357q0 51 -37.5 71.5t-37.5 55.5q0 82 149 120q100 27 205 27q94 0 127 -41q27 -33 27 -106v-566q0 -35 57 -81.5t57 -77.5q0 -29 -26.5 -47.5 t-61.5 -18.5h-358q-16 0 -27.5 29.5t-11.5 68.5q0 20 2 31q-55 -45 -109 -90q-92 -59 -215 -59q-348 0 -348 296v396q0 49 -40 71.5t-40 81.5z" />
<glyph unicode="v" horiz-adv-x="1118" d="M4 825q0 39 24.5 57.5t61.5 18.5h391q43 0 68.5 -19.5t25.5 -45.5q0 -31 -22 -54q-51 -51 -51 -75q0 -35 53 -192t102 -261q41 111 78 246t37 176q0 63 -47 98t-47 60q0 29 17.5 48t39.5 19h277q23 0 41 -20t18 -47q0 -33 -23.5 -55.5t-43.5 -41.5q-80 -229 -158 -456 q-63 -182 -113 -238q-61 -70 -182 -70q-119 0 -189 74q-57 61 -126 242q-84 223 -166 448q-31 12 -45 27q-20 23 -21 61z" />
<glyph unicode="w" horiz-adv-x="1675" d="M18 825q0 76 111 76h365q47 0 67 -24q14 -18 14 -52q0 -31 -36 -59q-18 -14 -19 -31q0 -72 47 -248q41 -152 82 -266q33 76 55.5 156t22.5 155q0 96 -27 162q-33 68 -63 135q0 33 27.5 52.5t60.5 19.5h358q39 0 58.5 -19.5t19.5 -52.5q0 -39 -28.5 -61.5t-28.5 -42.5 q0 -86 45 -246q37 -129 82 -239q33 74 77 237.5t44 202.5q0 41 -48.5 79t-48.5 75q0 33 31 50t64 17h196q39 0 64.5 -23.5t25.5 -58.5q0 -25 -24 -51q-39 -41 -43 -47q-119 -393 -123 -406q-63 -182 -129 -258q-80 -90 -205 -90q-158 0 -229 131q-51 152 -72 191 q-57 -170 -63 -183q-78 -139 -228 -139q-129 0 -209 99q-63 78 -123 270q-16 55 -106 393q-33 18 -48.5 44t-15.5 52z" />
<glyph unicode="x" horiz-adv-x="1118" d="M20 831q0 43 15.5 56.5t64.5 13.5h416q80 0 80 -57q0 -45 -11.5 -61.5t-11.5 -24.5q0 -6 37 -60l62 -90q18 18 41.5 63.5t23.5 71.5q0 8 -28.5 35t-28.5 62q0 61 70 61h215q20 0 39.5 -16.5t19.5 -48.5q0 -29 -23 -54q-12 -14 -59 -49l-188 -237q55 -49 133 -158 q59 -86 119 -170q35 -12 56 -35.5t21 -56.5q0 -27 -24.5 -51.5t-44.5 -24.5h-461q-18 0 -36.5 20.5t-18.5 49.5q0 18 22 47q12 16 12 24t-6 19l-104 157q-27 -20 -47 -55q-27 -45 -27 -88q0 -18 42 -45t42 -63q0 -25 -16.5 -45.5t-34.5 -20.5h-289q-27 0 -46 17.5t-19 48.5 q0 25 16 49t49 37q43 57 115 139q55 63 112 129q-47 51 -112 153q-88 137 -105 160q-29 20 -55.5 41t-26.5 57z" />
<glyph unicode="y" horiz-adv-x="1118" d="M6 825q0 33 23.5 54.5t42.5 21.5h362q51 0 74.5 -23.5t23.5 -56.5q0 -25 -38 -78q-20 -29 -21 -49q0 -199 49 -362.5t105 -163.5q39 0 94 244q49 219 49 280q0 45 -44 75t-44 64q0 29 18.5 49.5t32.5 20.5h268q33 0 50.5 -17.5t17.5 -64.5q0 -33 -20 -59q-10 -12 -41 -39 q-41 -406 -205 -715q-194 -368 -473 -368h-2q-84 0 -145.5 47t-61.5 102q0 51 36 85t101 34q66 0 113 -25.5t57 -25.5q39 0 119 71q27 23 74 74l-123 -8q-170 0 -265 114q-76 92 -116 279q-29 172 -56 346q-23 23 -30 33q-25 31 -25 61z" />
<glyph unicode="z" horiz-adv-x="1003" d="M10 94q0 66 96 205q74 109 203 256q88 100 176 193h-170q-47 0 -114 -82q-33 -41 -68 -41q-47 0 -64.5 29.5t-17.5 78.5q0 57 22.5 112.5t59.5 55.5h723q39 0 63.5 -21.5t24.5 -66.5q0 -109 -235 -403q-94 -117 -205 -240h182q49 0 90 39q94 88 103 88q45 0 57 -17.5 t12 -70.5q0 -78 -22 -133q-31 -76 -86 -76h-762q-23 0 -45.5 28.5t-22.5 65.5z" />
<glyph unicode="{" horiz-adv-x="1118" d="M68 627q76 55 100 88q37 49 37 116v611q0 119 123 164q90 33 276 32v-30q-82 0 -137 -31q-72 -39 -72 -119v-547q0 -125 -57 -196q-41 -51 -107 -72q72 -29 119 -94.5t47 -132.5v-623q0 -59 66 -86q47 -18 125 -18l-4 -33q-49 -12 -113 -12q-109 0 -174 37 q-84 47 -84 143v616q0 70 -25 105q-8 12 -120 82z" />
<glyph unicode="|" horiz-adv-x="1230" d="M522 -25v1665h166v-1665h-166z" />
<glyph unicode="}" horiz-adv-x="1118" d="M66 1571v55q190 0 253 -16q131 -35 132 -148v-631q0 -63 36.5 -117t102.5 -79q-68 -45 -109 -99.5t-41 -111.5v-600q0 -106 -94 -154q-76 -39 -199 -39h-34q-25 4 -35 4l-4 50q90 0 127 12q68 23 67 96v580q0 90 54.5 163.5t128.5 94.5q-109 63 -132 88q-59 66 -59 192 v568q0 57 -41 74.5t-113 17.5h-40z" />
<glyph unicode="~" horiz-adv-x="679" d="M-55 1055q14 88 79.5 158.5t137.5 70.5q25 0 207 -45q92 -23 137 -22q57 0 78 22q23 33 39 55q16 4 28 4q38 1 58 -22q0 -74 -81 -144.5t-171 -70.5q-51 0 -166 34.5t-154 34.5q-43 0 -69 -20q-16 -12 -48 -63q-12 -6 -24 -7q-27 0 -51 15z" />
<glyph unicode="&#xa1;" horiz-adv-x="786" d="M129 -156q0 35 4 52l131 684q10 55 38 78.5t79 23.5q102 0 117 -88l149 -739q4 -29 4 -41q0 -70 -41 -121t-108 -51h-221q-72 0 -112 59t-40 143zM166 915q0 84 65.5 131.5t174.5 47.5q92 0 159.5 -44t67.5 -122q0 -76 -73 -130.5t-161 -54.5q-92 0 -162.5 50.5 t-70.5 121.5z" />
<glyph unicode="&#xa2;" horiz-adv-x="1132" d="M166 424q0 188 113.5 331.5t300.5 170.5v219q0 25 31.5 52.5t74.5 27.5q49 0 85 -29t36 -55v-201q129 -14 213 -57q125 -63 125 -168q0 -55 -38 -87t-99 -32q-90 0 -170 92t-107 92q-74 0 -110 -133q-29 -100 -29 -227q0 -109 59.5 -194t141.5 -85q80 0 198 92 q57 45 99 46q71 0 71 -82t-117.5 -154t-252.5 -84v-152q0 -68 -28 -88t-83 -20q-109 0 -109 106v156q-190 16 -303 160q-102 131 -102 303z" />
<glyph unicode="&#xa3;" horiz-adv-x="1458" d="M12 698q0 41 39 90.5t80 49.5l148 2q-14 27 -21.5 72.5t-7.5 88.5q0 164 153 295q166 141 410 142q213 0 355.5 -81t142.5 -222q0 -59 -51.5 -92t-120.5 -33q-68 0 -109 43q-53 57 -53 149q0 23 -46 48.5t-85 25.5q-72 0 -125 -59.5t-53 -129.5q0 -20 -4.5 -75.5 t-4.5 -85.5q0 -51 13 -82h342q53 0 53 -33q0 -57 -33 -104.5t-76 -47.5h-264q8 -20 19.5 -79.5t11.5 -77.5q0 -70 -7 -110t-26 -70q45 14 92 28q47 10 88 10q12 0 112.5 -26.5t156.5 -26.5q49 0 102 59.5t86 59.5q31 0 53.5 -20.5t22.5 -45.5q0 -84 -121 -227 q-143 -170 -305 -170q-78 0 -280.5 52.5t-239.5 52.5q-66 0 -152 -33q-59 -23 -147 -68q-29 0 -60.5 45t-31.5 94q84 55 168 111q80 70 79 221q0 27 -9 98.5t-17 127.5h-221q-18 0 -37 9t-19 25z" />
<glyph unicode="&#xa4;" horiz-adv-x="1392" d="M98 1225q0 31 28 56.5t64 25.5q41 0 78 -37l82 -82q72 55 158 80.5t180 25.5q88 0 171 -22.5t161 -71.5l82 76q37 31 39 33q23 14 47 14q33 0 63.5 -26.5t30.5 -59.5q0 -16 -9 -31.5t-28 -31.5l-92 -93q63 -88 89 -160.5t26 -181.5q0 -172 -101 -293l80 -77 q18 -18 35.5 -37.5t17.5 -44.5q0 -29 -34.5 -61.5t-65.5 -32.5q-18 0 -31.5 7t-52.5 44l-84 73q-76 -47 -162 -76.5t-170 -29.5t-170 26.5t-161 75.5l-88 -84q-18 -16 -42 -32.5t-42 -16.5q-35 0 -63 28t-28 60q0 23 15 43q8 12 35 39l92 88q-57 70 -87 158t-30 180 q0 74 23.5 152t72.5 139l-80 74q-25 20 -32 33q-16 25 -17 51zM362 750q0 -141 96.5 -227.5t239.5 -86.5q141 0 237.5 88.5t96.5 233.5q0 141 -100.5 229t-243.5 88q-139 0 -232.5 -91t-93.5 -234z" />
<glyph unicode="&#xa5;" horiz-adv-x="1476" d="M12 1356q0 33 19.5 58.5t52.5 25.5h403q27 0 45.5 -22.5t18.5 -51.5q0 -47 -35 -69.5t-35 -34.5q0 -16 82 -148q59 -92 156 -240q82 -125 84 -124q94 135 141 208q141 221 141 287q0 27 -50 62.5t-50 74.5q0 14 27.5 36t40.5 22h278q29 0 49.5 -22.5t20.5 -49.5 q0 -72 -78 -100q-164 -303 -379 -619h221v-106h-262v-152h262v-106h-262v-88q0 -29 57.5 -53.5t57.5 -73.5q0 -29 -13.5 -49.5t-35.5 -20.5h-465q-23 0 -40.5 21.5t-17.5 44.5q0 33 35 55q78 51 78 80v84h-252v106h252v152h-252v106h182q-109 150 -202.5 294t-177.5 300 q-4 4 -60 55q-37 33 -37 58z" />
<glyph unicode="&#xa6;" horiz-adv-x="573" d="M139 1022v303q0 41 38 70.5t83 29.5q53 6 100.5 -30.5t47.5 -83.5v-310q0 -41 -41 -68.5t-88 -27.5q-55 0 -97.5 31t-42.5 86zM141 358v304q0 45 41 72.5t92 27.5t93.5 -34t42.5 -83v-307q0 -41 -40 -68.5t-87 -27.5q-53 0 -97.5 30.5t-44.5 85.5z" />
<glyph unicode="&#xa7;" horiz-adv-x="1118" d="M113 684q0 113 72.5 173.5t181.5 60.5q-61 53 -111.5 138t-50.5 142q0 121 100.5 193.5t249.5 72.5q147 0 235.5 -60.5t88.5 -154.5q0 -45 -37 -73.5t-90 -28.5q-70 0 -95.5 28.5t-25.5 73.5q0 47 20 70q29 20 39 29q0 27 -37 41t-86 14q-66 0 -118 -33t-52 -86 q0 -78 150 -199q139 -111 280 -219q152 -137 152 -258q0 -137 -92 -192q-61 -37 -152 -37q53 -45 100.5 -125t47.5 -141q0 -131 -121 -209q-106 -70 -260 -70q-133 0 -229.5 60.5t-96.5 152.5q0 53 42 86t89 33q53 0 87 -30t34 -79q0 -57 -57 -114q16 -16 32 -33 q25 -16 84 -16q70 0 119 32q57 39 58 107q0 72 -142 174q-242 174 -266 199q-143 135 -143 278zM315 758q0 -86 158 -217q143 -119 191 -119q45 0 73 20q39 29 39 84q0 86 -147.5 208t-216.5 122q-47 0 -72 -34t-25 -64z" />
<glyph unicode="&#xa8;" horiz-adv-x="679" d="M-14 1171q0 61 34.5 94t90.5 33q45 0 81.5 -39t36.5 -90q0 -53 -33.5 -84.5t-80.5 -31.5q-43 0 -86 34.5t-43 83.5zM424 1163q0 53 32.5 90t86.5 37q53 0 91 -34t38 -87t-36 -89t-91 -36q-49 0 -85 34t-36 85z" />
<glyph unicode="&#xa9;" horiz-adv-x="1720" d="M33 750q0 342 239.5 581.5t581.5 239.5q344 0 583.5 -239.5t239.5 -581.5t-239.5 -582t-583.5 -240q-342 0 -581.5 240t-239.5 582zM209 750q0 -266 189.5 -456t455.5 -190t456.5 189t190.5 457t-188.5 456.5t-458.5 188.5q-266 0 -455.5 -189.5t-189.5 -455.5zM393 743 q0 199 139.5 338.5t350.5 139.5q94 0 183 -31t155 -90l14 -129q0 -57 -41 -58q-23 0 -89.5 103.5t-207.5 103.5q-125 0 -199.5 -101t-74.5 -259t65 -260q76 -119 225 -119q109 0 195 69.5t100 69.5q10 0 25.5 -9t15.5 -34q0 -74 -114.5 -142.5t-255.5 -68.5 q-213 0 -349.5 138.5t-136.5 338.5z" />
<glyph unicode="&#xaa;" horiz-adv-x="669" d="M10 1239q0 123 185 158q113 14 145 16q0 33 -17.5 63.5t-43.5 30.5q-27 0 -91 -47q-33 -25 -57 -24q-78 0 -78 59q0 47 68.5 70.5t157.5 23.5q109 0 180 -35q92 -45 92 -129v-221q0 -33 21.5 -54.5t21.5 -37.5q0 -31 -43 -31h-154q-16 0 -28.5 14.5t-18.5 45.5 q-33 -23 -67.5 -46.5t-69.5 -23.5q-94 0 -148.5 42t-54.5 126zM236 1229q0 -55 36 -55q14 0 42 15t28 21v136q-45 -20 -68 -41q-39 -33 -38 -76z" />
<glyph unicode="&#xab;" horiz-adv-x="901" d="M86 440q0 18 16 45q10 16 33 43l174 211q14 16 52 35t63 19q33 0 55.5 -10.5t22.5 -34.5q0 -14 -13 -35q-4 -6 -26 -35l-154 -186q-16 -14 -22 -21q-14 -14 -15 -22q12 -14 27 -27l162 -180q12 -14 26.5 -38t14.5 -40q0 -27 -25.5 -37t-62.5 -10q-76 0 -119 51l-168 211 q-18 23 -27 33q-14 18 -14 28zM395 449q0 18 17 45q10 16 32 43l164 200q18 20 58.5 42t66.5 22q25 0 46.5 -15.5t21.5 -40.5q0 -14 -13 -34q-4 -6 -26 -35l-144 -176q-16 -14 -22 -21q-14 -14 -14 -22t16 -25l162 -180q12 -14 26.5 -38t14.5 -40q0 -27 -25.5 -37t-62.5 -10 q-76 0 -119 51l-168 211q-31 37 -31 60z" />
<glyph unicode="&#xac;" horiz-adv-x="2351" d="M55 137q0 51 23.5 123t46.5 105l65 84l21 26q-84 0 -98 86q8 -2 26 -2q55 0 110.5 29.5t102.5 77.5q4 0 8 2q8 -12 9 -31q0 -74 -50 -111q-41 -27 -79 -53q-4 -8 -60 -88q-41 -59 -41 -100q0 -35 14.5 -77t36.5 -42q31 0 125 63q61 43 125 86q29 66 43 103q29 68 54 96 l26.5 26.5t30.5 14.5q29 0 29 -25q0 -39 -37 -77q-25 -27 -70 -56q-10 -18 -27 -82q-8 -35 -8 -49q0 -20 43 -80q23 -31 60 -77q39 182 260 378q209 184 389 222q121 25 214 38t195 13q82 0 157 -6t190.5 -24.5t193.5 -115.5q105 -128 105 -372q0 -141 -78 -205t-223 -64 q-39 0 -78 11q-59 16 -60 47q0 39 39 39t60 -35q8 -16 21 -23.5t40 -15.5q223 0 223 235q4 37 4 64q0 143 -59 242q-78 131 -232.5 150.5t-230.5 27.5t-131 8q-57 0 -117 -8q-94 -16 -163 -27q-207 -35 -440.5 -241.5t-254.5 -378.5q45 -61 45 -127q0 -51 -22 -52 q-27 0 -42.5 49.5t-15.5 81.5v11q-59 47 -84 69q-59 57 -65 97q0 23 -1 40t-1 29q0 16 2 25q-68 -61 -154 -117q-115 -74 -170 -74q-45 0 -45 37zM705 47q6 27 43 27q8 0 29.5 -6.5t36.5 -22t9 -31.5q-4 -27 -47 -26q-8 0 -27.5 4t-34 20.5t-9.5 34.5zM827 119q0 47 37 87 t86 54l2 -10q-39 -14 -60.5 -32.5t-21.5 -55.5q0 -76 95 -107q61 -20 161 -20q145 0 260 84q25 18 39.5 39.5t14.5 50.5q0 39 -32 49t-83 10q-25 0 -70 -4t-65 -4q-74 0 -119 29q-55 35 -55 104q0 98 96 160q84 53 193 53q39 0 55 -3t35 -23q25 10 35 -11q20 -37 24 -41 l6 -8q-4 -14 -29.5 -37.5t-29.5 -29.5q-4 -18 -18.5 -8t-26.5 20q-14 2 -21 4q-12 4 -12 14q0 12 17.5 36t17.5 36q0 18 -19.5 27.5t-40.5 9.5q-80 0 -145 -35q-82 -43 -82 -119q0 -43 35 -57t84 -14l115 6q90 0 122 -11q66 -20 66 -86q0 -57 -43 -116q-29 -39 -86 -86 q-139 -102 -311 -103q-90 0 -150 31q-76 39 -76 117zM1401 51q6 25 43 25q14 0 22 -2q58 -17 52 -54q-8 -27 -48 -26q-16 0 -24 2q-55 20 -45 55zM1581 78q0 25 14.5 46t38.5 42q27 -35 37 -43q25 -20 53 -21q82 0 146 136q55 117 55 206q0 51 -27.5 66.5t-82.5 15.5 q-86 0 -94.5 -53t-18.5 -59l-14 35q2 8 2 28v35q0 53 16 74q27 35 102 35q88 0 127 -9q78 -16 78 -63q0 -59 -63 -205q-47 -109 -101 -205q-41 -68 -59 -90q-45 -57 -90 -57q-39 0 -79 24.5t-40 61.5z" />
<glyph unicode="&#xad;" horiz-adv-x="1253" d="M123 467q0 29 23.5 65.5t56.5 36.5h839q41 0 71 -31.5t30 -74.5t-31 -72t-76 -29h-843q-27 0 -48.5 32t-21.5 73z" />
<glyph unicode="&#xae;" horiz-adv-x="1720" d="M33 750q0 342 239.5 581.5t581.5 239.5q344 0 583.5 -239.5t239.5 -581.5t-239.5 -582t-583.5 -240q-342 0 -581.5 240t-239.5 582zM209 750q0 -266 189.5 -456t455.5 -190t456.5 189t190.5 457t-188.5 456.5t-458.5 188.5q-266 0 -455.5 -189.5t-189.5 -455.5zM479 1149 q0 31 33 31h514q74 0 137.5 -59.5t63.5 -137.5q0 -76 -44 -129t-118 -84q23 -31 86 -166q37 -82 76 -164q8 -16 30.5 -30t22.5 -43q0 -8 -4 -17q-8 -14 -19 -14h-264q-39 0 -39 35q0 23 25 41q12 8 25 18q0 35 -52.5 141.5t-83.5 143.5l-120 -21v-239q0 -25 34.5 -43.5 t34.5 -42.5q0 -12 -10 -22.5t-19 -10.5h-280q-8 0 -16.5 13t-8.5 22q0 18 30 39.5t30 38.5v622q0 18 -32 37.5t-32 40.5zM748 795q145 25 170 34q100 42 100 146q0 43 -31 80t-80 37h-106q-18 0 -35.5 -15.5t-17.5 -32.5v-249z" />
<glyph unicode="&#xaf;" horiz-adv-x="880" d="M31 1075v246h809v-246h-809z" />
<glyph unicode="&#xb0;" horiz-adv-x="712" d="M100 1325q0 102 81 183t186 81q106 0 188 -74.5t82 -183.5t-78 -190.5t-186 -81.5q-104 0 -185 69q-88 78 -88 197zM272 1315q0 -70 26 -121t79 -51q51 0 76 57q18 45 18 113t-20 119q-27 63 -76 63q-47 0 -72 -37q-31 -45 -31 -143z" />
<glyph unicode="&#xb1;" horiz-adv-x="1245" d="M86 688v217h420v508h219v-508h408v-217h-412v-334h405l-2 -196h-1001l2 196h381v334h-420z" />
<glyph unicode="&#xb2;" horiz-adv-x="696" d="M20 831q0 78 173.5 241t173.5 282q0 37 -13.5 61.5t-50.5 24.5t-61.5 -27t-24.5 -61q0 -10 8 -26.5t8 -29.5q0 -33 -27.5 -50t-66.5 -17q-102 0 -102 106q0 88 93 141.5t218 53.5q109 0 185.5 -59.5t76.5 -163.5q0 -78 -88 -177q-104 -92 -207 -182h170q23 0 68 29 q23 14 39 14q8 0 14 -2q21 -6 21 -26q-4 -35 -9 -56q-25 -125 -59 -125h-502q-37 0 -37 49z" />
<glyph unicode="&#xb3;" horiz-adv-x="696" d="M35 926q0 80 96 80q27 0 57 -17q4 -2 13 -8q10 -47 22 -92q18 -47 58 -47q47 0 67.5 33.5t20.5 87.5q0 86 -31 122.5t-88 36.5l-43 -2q-20 0 -33.5 13.5t-13.5 27.5q0 25 26.5 36t59.5 11q51 0 76.5 39t25.5 99q0 41 -11 67.5t-40 26.5q-20 0 -35.5 -17.5t-15.5 -38.5 q0 -10 5 -25.5t5 -19.5q0 -61 -92 -61q-37 0 -65.5 17.5t-28.5 54.5q0 78 74.5 123t170.5 45q113 0 197 -46.5t84 -134.5q0 -100 -98 -141q-33 -12 -101 -20q78 -10 115 -25q115 -47 115 -164q0 -102 -95 -164q-86 -55 -210 -55q-109 0 -187 33q-100 43 -100 125z" />
<glyph unicode="&#xb4;" horiz-adv-x="679" d="M68 1124q0 18 18 39t41 27l395 131q41 12 70 -32t29 -99q0 -41 -29 -49l-430 -99q-16 -4 -25 -4q-31 0 -50 23.5t-19 62.5z" />
<glyph unicode="&#xb5;" horiz-adv-x="1556" d="M-23 -389q147 170 224 352q55 133 75 268q6 68 15 136l139 491q2 8 -17.5 8t-58.5 8l39 150h404l-197 -678q-10 -35 -10 -59q0 -35 23.5 -54.5t82.5 -19.5q90 0 184.5 52t112.5 122l140 494q-2 -10 -37 -11q-18 0 -45 9l39 145h405l-256 -879l-2 -20q2 4 26.5 12t59.5 8 l-51 -165h-391l12 49q-141 -68 -295 -68q-47 0 -98 10l-92 -360h-431z" />
<glyph unicode="&#xb6;" horiz-adv-x="1751" d="M-8 1038q0 225 129 346q147 137 457 138h876q88 0 123 -13q65 -22 65 -98q0 -78 -61 -102q-35 -14 -127 -15h-18v-1523q0 -74 -29 -121q-37 -59 -109 -60q-82 0 -114 56q-25 41 -25 116v1536h-112v-1527q0 -84 -21 -123q-31 -57 -119 -58q-84 0 -114 56q-23 39 -23 116 v691q-301 0 -520 137q-258 162 -258 448zM383 1036q0 -158 117 -264q106 -96 270 -129v655h-33q-166 0 -248 -49q-106 -63 -106 -213z" />
<glyph unicode="&#xb7;" horiz-adv-x="671" d="M170 578q0 70 42 117.5t112 47.5q61 0 108 -47t47 -106q0 -66 -41 -113t-119 -47q-59 0 -104 39t-45 109z" />
<glyph unicode="&#xb8;" horiz-adv-x="679" d="M129 -305q0 49 43 49q35 0 106.5 -26.5t108.5 -26.5t60.5 17.5t23.5 55.5q0 29 -28.5 43.5t-88.5 14.5q-33 0 -63 -12v98t6 98h104l-8 -110q20 2 36.5 3t29.5 1q86 0 137 -29q66 -37 66 -121q0 -76 -72 -112.5t-182 -36.5q-117 0 -187 18q-92 25 -92 76z" />
<glyph unicode="&#xb9;" horiz-adv-x="696" d="M90 1350q0 35 125 74.5t176 39.5q27 0 47.5 -20.5t20.5 -48.5v-529q0 -23 56 -37t56 -47q0 -43 -41 -43h-393q-39 0 -39 39q0 37 58.5 47.5t58.5 44.5v394q0 45 -62.5 51t-62.5 35z" />
<glyph unicode="&#xba;" horiz-adv-x="696" d="M12 1307q0 113 94.5 186.5t229.5 73.5q131 0 220 -77t89 -183q0 -119 -93 -186.5t-230 -67.5q-131 0 -220.5 67.5t-89.5 186.5zM248 1311q0 -84 17.5 -129t66.5 -45q45 0 64.5 46t19.5 138q0 70 -20.5 112t-61.5 42q-47 0 -66.5 -44.5t-19.5 -119.5z" />
<glyph unicode="&#xbb;" horiz-adv-x="819" d="M55 168q0 14 13 35q4 6 26 35l144 176q16 14 22 20q14 14 14 23q0 8 -16 24l-162 181q-12 14 -26.5 37.5t-14.5 39.5q0 27 25.5 37t62.5 10q76 0 119 -51l168 -211q31 -36 31 -59q0 -18 -13.5 -40t-35.5 -48l-164 -201q-18 -20 -58 -41.5t-67 -21.5q-25 0 -46.5 15 t-21.5 40zM354 166q0 14 13 35q4 6 26 35l154 186q16 14 22 20q14 14 15 23q0 4 -11 12q-10 8 -16 15l-162 180q-12 14 -26.5 37.5t-14.5 40.5q0 27 26 37t62 10q76 0 119 -52l168 -210q18 -23 29.5 -37.5t11.5 -24.5q0 -18 -13.5 -39.5t-35.5 -48.5l-174 -211 q-14 -16 -52 -34.5t-63 -18.5q-33 0 -55.5 10t-22.5 35z" />
<glyph unicode="&#xbc;" horiz-adv-x="1331" d="M90 1350q0 35 125 74.5t176 39.5q27 0 47.5 -20.5t20.5 -48.5v-529q0 -23 56 -37t56 -47q0 -43 -41 -43h-393q-39 0 -39 39q0 37 58.5 47.5t58.5 44.5v394q0 45 -62.5 51t-62.5 35zM199 -35l845 1467h142l-850 -1467h-137zM645 213q0 86 133 298t203 212h125 q16 0 35.5 -17.5t19.5 -43.5v-408h64q41 0 41 -39q0 -41 -41 -41h-68v-74q0 -14 25.5 -28.5t25.5 -38.5q0 -37 -39 -37h-276q-16 0 -26.5 12t-10.5 27q0 23 47 43q23 10 23 26v70h-242q-39 0 -39 39zM764 254h162v307q-51 -68 -102.5 -164t-59.5 -143z" />
<glyph unicode="&#xbd;" horiz-adv-x="1331" d="M90 1350q0 35 125 74.5t176 39.5q27 0 47.5 -20.5t20.5 -48.5v-529q0 -23 56 -37t56 -47q0 -43 -41 -43h-393q-39 0 -39 39q0 37 58.5 47.5t58.5 44.5v394q0 45 -62.5 51t-62.5 35zM150 -25l845 1467h142l-850 -1467h-137zM717 53q0 78 173 241t173 281q0 37 -13.5 62 t-50.5 25t-61.5 -27t-24.5 -62q0 -10 8.5 -26.5t8.5 -28.5q0 -33 -28 -50t-66 -17q-102 0 -103 106q0 88 93.5 141.5t217.5 53.5q109 0 186 -59.5t77 -164.5q0 -78 -88 -176q-104 -92 -207 -182h170q23 0 67 29q23 14 39 14q8 0 15 -2q20 -7 20 -27q-4 -35 -8 -55 q-25 -125 -60 -125h-501q-37 0 -37 49z" />
<glyph unicode="&#xbe;" horiz-adv-x="1331" d="M35 926q0 80 96 80q27 0 57 -17q4 -2 13 -8q10 -47 22 -92q18 -47 58 -47q47 0 67.5 33.5t20.5 87.5q0 86 -31 122.5t-88 36.5l-43 -2q-20 0 -33.5 13.5t-13.5 27.5q0 25 26.5 36t59.5 11q51 0 76.5 39t25.5 99q0 41 -11 67.5t-40 26.5q-20 0 -35.5 -17.5t-15.5 -38.5 q0 -10 5 -25.5t5 -19.5q0 -61 -92 -61q-37 0 -65.5 17.5t-28.5 54.5q0 78 74.5 123t170.5 45q113 0 197 -46.5t84 -134.5q0 -100 -98 -141q-33 -12 -101 -20q78 -10 115 -25q115 -47 115 -164q0 -102 -95 -164q-86 -55 -210 -55q-109 0 -187 33q-100 43 -100 125zM139 -35 l846 1467h141l-850 -1467h-137zM645 213q0 86 133 298t203 212h125q16 0 35.5 -17.5t19.5 -43.5v-408h64q41 0 41 -39q0 -41 -41 -41h-68v-74q0 -14 25.5 -28.5t25.5 -38.5q0 -37 -39 -37h-276q-16 0 -26.5 12t-10.5 27q0 23 47 43q23 10 23 26v70h-242q-39 0 -39 39z M764 254h162v307q-51 -68 -102.5 -164t-59.5 -143z" />
<glyph unicode="&#xbf;" horiz-adv-x="1118" d="M78 25q0 174 162 301q86 68 270 145l27 129q18 86 116 86q53 0 90 -35q31 -29 31 -59v-209q0 -53 -118.5 -147.5t-118.5 -274.5q0 -72 18 -117q27 -68 88 -67q68 0 92.5 144.5t161.5 144.5q80 0 131 -38t51 -108q0 -139 -161 -221q-139 -70 -336 -70q-184 0 -336 105 q-168 117 -168 291zM414 930q0 74 66.5 120t170.5 46q98 0 162 -49t64 -121q0 -78 -58.5 -124t-159.5 -46q-102 0 -173.5 48t-71.5 126z" />
<glyph unicode="&#xc0;" horiz-adv-x="1570" d="M4 74q0 39 25 61q78 70 86 90l422 1121q10 29 22 45q29 39 78 39h213q51 0 67.5 -12.5t38.5 -67.5l457 -1112q23 -51 68 -86q32 -25 32 -66q0 -31 -17 -58.5t-44 -27.5h-528q-20 0 -37 22.5t-17 47.5q0 57 36 76.5t30 46.5l-76 253h-440l-82 -217q-10 -45 44 -81.5 t54 -71.5q0 -31 -18.5 -53.5t-50.5 -22.5h-299q-27 0 -45.5 22.5t-18.5 51.5zM469 1688q0 53 29.5 98t72.5 33l396 -123q23 -6 43 -31t20 -43q0 -41 -20.5 -67.5t-57.5 -26.5q-14 0 -20 2l-430 115q-33 8 -33 43zM487 629h322l-150 465z" />
<glyph unicode="&#xc1;" horiz-adv-x="1570" d="M4 74q0 39 25 61q78 70 86 90l422 1121q10 29 22 45q29 39 78 39h213q51 0 67.5 -12.5t38.5 -67.5l457 -1112q23 -51 68 -86q32 -25 32 -66q0 -31 -17 -58.5t-44 -27.5h-528q-20 0 -37 22.5t-17 47.5q0 57 36 76.5t30 46.5l-76 253h-440l-82 -217q-10 -45 44 -81.5 t54 -71.5q0 -31 -18.5 -53.5t-50.5 -22.5h-299q-27 0 -45.5 22.5t-18.5 51.5zM487 629h322l-150 465zM494 1607q0 18 18 39t41 27l395 131q41 12 70 -32t29 -99q0 -41 -29 -49l-430 -99q-16 -4 -25 -4q-31 0 -50 23.5t-19 62.5z" />
<glyph unicode="&#xc2;" horiz-adv-x="1570" d="M4 74q0 39 25 61q78 70 86 90l422 1121q10 29 22 45q29 39 78 39h213q51 0 67.5 -12.5t38.5 -67.5l457 -1112q23 -51 68 -86q32 -25 32 -66q0 -31 -17 -58.5t-44 -27.5h-528q-20 0 -37 22.5t-17 47.5q0 57 36 76.5t30 46.5l-76 253h-440l-82 -217q-10 -45 44 -81.5 t54 -71.5q0 -31 -18.5 -53.5t-50.5 -22.5h-299q-27 0 -45.5 22.5t-18.5 51.5zM428 1515q0 39 23 64l188 211q14 14 43 23t62 9q31 0 53.5 -7t42.5 -32l172 -188q14 -16 24.5 -39t12.5 -41h-156q-39 10 -82 66q-47 74 -67 102q-39 -66 -74 -104q-43 -49 -88 -64h-154z M487 629h322l-150 465z" />
<glyph unicode="&#xc3;" horiz-adv-x="1570" d="M4 74q0 39 25 61q78 70 86 90l422 1121q10 29 22 45q29 39 78 39h213q51 0 67.5 -12.5t38.5 -67.5l457 -1112q23 -51 68 -86q32 -25 32 -66q0 -31 -17 -58.5t-44 -27.5h-528q-20 0 -37 22.5t-17 47.5q0 57 36 76.5t30 46.5l-76 253h-440l-82 -217q-10 -45 44 -81.5 t54 -71.5q0 -31 -18.5 -53.5t-50.5 -22.5h-299q-27 0 -45.5 22.5t-18.5 51.5zM367 1534q14 92 77.5 159.5t145.5 67.5q35 0 168 -34t170 -34q53 0 89 42t73 42q41 1 41 -28q0 -47 -60 -117q-78 -92 -186 -92q-55 0 -178 34.5t-146 34.5q-68 0 -119 -83q-25 -8 -34 -9 q-25 0 -41 17zM487 629h322l-150 465z" />
<glyph unicode="&#xc4;" horiz-adv-x="1570" d="M4 74q0 39 25 61q78 70 86 90l422 1121q10 29 22 45q29 39 78 39h213q51 0 67.5 -12.5t38.5 -67.5l457 -1112q23 -51 68 -86q32 -25 32 -66q0 -31 -17 -58.5t-44 -27.5h-528q-20 0 -37 22.5t-17 47.5q0 57 36 76.5t30 46.5l-76 253h-440l-82 -217q-10 -45 44 -81.5 t54 -71.5q0 -31 -18.5 -53.5t-50.5 -22.5h-299q-27 0 -45.5 22.5t-18.5 51.5zM404 1652q0 61 34.5 94t90.5 33q45 0 81.5 -39t36.5 -90q0 -53 -33.5 -84.5t-80.5 -31.5q-43 0 -86 34.5t-43 83.5zM487 629h322l-150 465zM842 1644q0 53 32.5 90t86.5 37q53 0 91 -34t38 -87 t-36 -89t-91 -36q-49 0 -85 34t-36 85z" />
<glyph unicode="&#xc5;" horiz-adv-x="1570" d="M4 74q0 39 25 61q78 70 86 90l422 1121q10 29 22 45q29 39 78 39h213q51 0 67.5 -12.5t38.5 -67.5l457 -1112q23 -51 68 -86q32 -25 32 -66q0 -31 -17 -58.5t-44 -27.5h-528q-20 0 -37 22.5t-17 47.5q0 57 36 76.5t30 46.5l-76 253h-440l-82 -217q-10 -45 44 -81.5 t54 -71.5q0 -31 -18.5 -53.5t-50.5 -22.5h-299q-27 0 -45.5 22.5t-18.5 51.5zM487 629h322l-150 465zM575 1655q0 76 50.5 130t128.5 54q76 0 125 -53t49 -125q0 -74 -46 -122t-132 -48q-68 0 -121.5 45t-53.5 119zM649 1651q0 -35 33 -66t72 -31q102 0 102 113 q0 35 -30.5 63.5t-71.5 28.5q-45 0 -75 -33.5t-30 -74.5z" />
<glyph unicode="&#xc6;" horiz-adv-x="2027" d="M-8 66q0 57 51 87.5t51 59.5q0 68 137 369q154 338 322 577q211 301 362 301q76 0 125 -45h680q106 0 137 -33.5t31 -167.5q0 -76 -22.5 -102.5t-71.5 -26.5q-45 0 -88 48q-96 104 -139 104h-146q-43 0 -63.5 -30.5t-20.5 -86.5v-284h217q27 0 50 24q49 53 82 53 q51 0 63 -37.5t12 -140.5q0 -80 -10 -108q-16 -49 -74 -49q-39 0 -67.5 34.5t-71.5 34.5h-213v-315q0 -63 23.5 -102.5t64.5 -39.5h195q45 0 123.5 85t128.5 85q94 1 94 -108q0 -68 -32 -160t-67 -92h-1030q-29 0 -51 17.5t-22 52.5q0 43 67.5 86t67.5 86v397h-391 q-72 -176 -115 -281.5t-43 -132.5q0 -39 66.5 -73.5t66.5 -79.5q0 -27 -15.5 -49.5t-41.5 -22.5h-359q-23 0 -43 18.5t-20 47.5zM575 825h318l-2 428q-96 -90 -156 -166q-100 -125 -160 -262z" />
<glyph unicode="&#xc7;" horiz-adv-x="1570" d="M61 688q0 340 277 559q246 195 563 195q201 0 379 -92q59 -31 137 -93q12 -55 17 -86q16 -96 16 -139q0 -53 -18.5 -71.5t-79.5 -18.5q-68 0 -158 162t-260 162q-381 0 -381 -602q0 -221 113 -355q106 -125 268 -125q168 0 286.5 111t176.5 111q43 0 63.5 -22.5 t20.5 -59.5q0 -137 -182.5 -251t-378.5 -114v-53q20 2 35.5 3t27.5 1q84 0 135 -29q66 -37 66 -121q0 -76 -72 -112.5t-182 -36.5q-117 0 -187 18q-92 25 -92 76q0 49 43 49q35 0 106.5 -26.5t108.5 -26.5t60.5 17.5t23.5 56.5q0 29 -28.5 43t-87.5 14q-33 0 -64 -12v69.5 t2 71.5q-338 0 -551 217q-203 207 -203 510z" />
<glyph unicode="&#xc8;" d="M47 74q0 47 51.5 79.5t51.5 92.5v962q0 31 -43.5 66t-43.5 69q0 31 19.5 52.5t50.5 21.5h952q72 0 103 -47t31 -156q0 -68 -20.5 -99.5t-72.5 -31.5q-41 0 -117.5 79t-150.5 79h-158q-35 0 -63.5 -14.5t-28.5 -42.5v-320h262q29 0 68 35t76 35q27 0 53 -27q18 -18 18 -35 v-188q0 -37 -23.5 -60.5t-49.5 -23.5q-39 0 -87 42t-87 42h-222v-422q0 -18 23 -42.5t49 -24.5h248q51 0 117.5 80.5t122.5 80.5q55 0 72.5 -31.5t17.5 -115.5q0 -78 -21 -135q-27 -74 -76 -74h-1060q-20 0 -41 24.5t-21 49.5zM356 1673q0 53 29.5 98t72.5 33l396 -123 q23 -6 43 -31t20 -43q0 -41 -20.5 -67.5t-57.5 -26.5q-14 0 -20 2l-430 115q-33 8 -33 43z" />
<glyph unicode="&#xc9;" d="M47 74q0 47 51.5 79.5t51.5 92.5v962q0 31 -43.5 66t-43.5 69q0 31 19.5 52.5t50.5 21.5h952q72 0 103 -47t31 -156q0 -68 -20.5 -99.5t-72.5 -31.5q-41 0 -117.5 79t-150.5 79h-158q-35 0 -63.5 -14.5t-28.5 -42.5v-320h262q29 0 68 35t76 35q27 0 53 -27q18 -18 18 -35 v-188q0 -37 -23.5 -60.5t-49.5 -23.5q-39 0 -87 42t-87 42h-222v-422q0 -18 23 -42.5t49 -24.5h248q51 0 117.5 80.5t122.5 80.5q55 0 72.5 -31.5t17.5 -115.5q0 -78 -21 -135q-27 -74 -76 -74h-1060q-20 0 -41 24.5t-21 49.5zM416 1585q0 18 18 39t41 27l395 131 q41 12 70 -32t29 -99q0 -41 -29 -49l-430 -99q-16 -4 -25 -4q-31 0 -50 23.5t-19 62.5z" />
<glyph unicode="&#xca;" d="M47 74q0 47 51.5 79.5t51.5 92.5v962q0 31 -43.5 66t-43.5 69q0 31 19.5 52.5t50.5 21.5h952q72 0 103 -47t31 -156q0 -68 -20.5 -99.5t-72.5 -31.5q-41 0 -117.5 79t-150.5 79h-158q-35 0 -63.5 -14.5t-28.5 -42.5v-320h262q29 0 68 35t76 35q27 0 53 -27q18 -18 18 -35 v-188q0 -37 -23.5 -60.5t-49.5 -23.5q-39 0 -87 42t-87 42h-222v-422q0 -18 23 -42.5t49 -24.5h248q51 0 117.5 80.5t122.5 80.5q55 0 72.5 -31.5t17.5 -115.5q0 -78 -21 -135q-27 -74 -76 -74h-1060q-20 0 -41 24.5t-21 49.5zM362 1505q0 39 23 64l188 211q14 14 43 23 t62 9q31 0 53.5 -7t42.5 -32l172 -188q14 -16 24.5 -39t12.5 -41h-156q-39 10 -82 66q-47 74 -67 102q-39 -66 -74 -104q-43 -49 -88 -64h-154z" />
<glyph unicode="&#xcb;" d="M47 74q0 47 51.5 79.5t51.5 92.5v962q0 31 -43.5 66t-43.5 69q0 31 19.5 52.5t50.5 21.5h952q72 0 103 -47t31 -156q0 -68 -20.5 -99.5t-72.5 -31.5q-41 0 -117.5 79t-150.5 79h-158q-35 0 -63.5 -14.5t-28.5 -42.5v-320h262q29 0 68 35t76 35q27 0 53 -27q18 -18 18 -35 v-188q0 -37 -23.5 -60.5t-49.5 -23.5q-39 0 -87 42t-87 42h-222v-422q0 -18 23 -42.5t49 -24.5h248q51 0 117.5 80.5t122.5 80.5q55 0 72.5 -31.5t17.5 -115.5q0 -78 -21 -135q-27 -74 -76 -74h-1060q-20 0 -41 24.5t-21 49.5zM338 1646q0 61 34.5 94t90.5 33q45 0 81.5 -39 t36.5 -90q0 -53 -33.5 -84.5t-80.5 -31.5q-43 0 -86 34.5t-43 83.5zM776 1638q0 53 32.5 90t86.5 37q53 0 91 -34t38 -87t-36 -89t-91 -36q-49 0 -85 34t-36 85z" />
<glyph unicode="&#xcc;" horiz-adv-x="786" d="M39 80q0 33 49 65.5t49 71.5v975q0 55 -48 77.5t-48 61.5q0 25 18.5 50.5t38.5 25.5h537q37 0 63.5 -26.5t26.5 -63.5q0 -39 -50 -61.5t-50 -73.5v-965q0 -45 50 -71.5t50 -71.5q0 -25 -13.5 -49.5t-35.5 -24.5h-553q-35 0 -59.5 24.5t-24.5 55.5zM90 1673q0 53 29.5 98 t72.5 33l396 -123q23 -6 43 -31t20 -43q0 -41 -20.5 -67.5t-57.5 -26.5q-14 0 -20 2l-430 115q-33 8 -33 43z" />
<glyph unicode="&#xcd;" horiz-adv-x="786" d="M39 80q0 33 49 65.5t49 71.5v975q0 55 -48 77.5t-48 61.5q0 25 18.5 50.5t38.5 25.5h537q37 0 63.5 -26.5t26.5 -63.5q0 -39 -50 -61.5t-50 -73.5v-965q0 -45 50 -71.5t50 -71.5q0 -25 -13.5 -49.5t-35.5 -24.5h-553q-35 0 -59.5 24.5t-24.5 55.5zM109 1585q0 18 18 39 t41 27l395 131q41 12 70 -32t29 -99q0 -41 -29 -49l-430 -99q-16 -4 -25 -4q-31 0 -50 23.5t-19 62.5z" />
<glyph unicode="&#xce;" horiz-adv-x="786" d="M39 80q0 33 49 65.5t49 71.5v975q0 55 -48 77.5t-48 61.5q0 25 18.5 50.5t38.5 25.5h537q37 0 63.5 -26.5t26.5 -63.5q0 -39 -50 -61.5t-50 -73.5v-965q0 -45 50 -71.5t50 -71.5q0 -25 -13.5 -49.5t-35.5 -24.5h-553q-35 0 -59.5 24.5t-24.5 55.5zM86 1505q0 39 23 64 l188 211q14 14 43 23t62 9q31 0 53.5 -7t42.5 -32l172 -188q14 -16 24.5 -39t12.5 -41h-156q-39 10 -82 66q-47 74 -67 102q-39 -66 -74 -104q-43 -49 -88 -64h-154z" />
<glyph unicode="&#xcf;" horiz-adv-x="786" d="M39 80q0 33 49 65.5t49 71.5v975q0 55 -48 77.5t-48 61.5q0 25 18.5 50.5t38.5 25.5h537q37 0 63.5 -26.5t26.5 -63.5q0 -39 -50 -61.5t-50 -73.5v-965q0 -45 50 -71.5t50 -71.5q0 -25 -13.5 -49.5t-35.5 -24.5h-553q-35 0 -59.5 24.5t-24.5 55.5zM68 1642q0 61 34.5 94 t90.5 33q45 0 81.5 -39t36.5 -90q0 -53 -33.5 -84.5t-80.5 -31.5q-43 0 -86 34.5t-43 83.5zM506 1634q0 53 32.5 90t86.5 37q53 0 91 -34t38 -87t-36 -89t-91 -36q-49 0 -85 34t-36 85z" />
<glyph unicode="&#xd0;" horiz-adv-x="1789" d="M0 733q0 29 23.5 66t56.5 37h70v348q0 31 -56.5 62.5t-56.5 72.5q0 35 37 62.5t96 27.5h809q276 0 471 -178q213 -195 213 -514q0 -334 -211 -531q-199 -186 -512 -186h-831q-16 0 -36 23.5t-20 50.5q0 43 48.5 72.5t48.5 70.5v412h-80q-27 0 -48.5 31.5t-21.5 72.5z M659 254q0 -41 33 -64.5t78 -23.5q180 0 293 184q98 162 98 367q0 215 -124 371.5t-302 156.5q-27 0 -51.5 -12t-24.5 -39v-358h261q41 0 70.5 -32t29.5 -75t-31 -71.5t-76 -28.5h-254v-375z" />
<glyph unicode="&#xd1;" horiz-adv-x="1570" d="M2 1333q0 29 23.5 52.5t54.5 23.5h479q63 0 96 -53l490 -754v586q0 23 -59.5 70t-59.5 79q0 27 17.5 49.5t50.5 22.5h327q43 0 64 -41q10 -20 10 -43q0 -35 -59.5 -65.5t-59.5 -75.5v-1065q0 -37 -23.5 -78t-49.5 -41h-224l-686 942l-2 -668q0 -82 73 -125t73 -83 q0 -18 -14.5 -42t-33.5 -24h-391q-29 0 -53.5 22.5t-24.5 47.5q0 51 67 89t67 91v926q0 37 -76 69.5t-76 87.5zM410 1528q14 92 77.5 159.5t145.5 67.5q35 0 168 -34t170 -34q53 0 89 42t73 42q41 1 41 -28q0 -47 -60 -117q-78 -92 -186 -92q-55 0 -178 34.5t-146 34.5 q-68 0 -119 -83q-25 -8 -34 -9q-25 0 -41 17z" />
<glyph unicode="&#xd2;" horiz-adv-x="1789" d="M59 692q0 303 220 522q236 236 593 236q360 0 594 -215q226 -207 226 -510q0 -332 -219 -545q-231 -225 -617 -225q-330 0 -563.5 217t-233.5 520zM586 688q0 -258 84 -404.5t223 -146.5q150 0 233 180q72 156 72 363q0 309 -98 457q-80 121 -223 120q-156 0 -232 -188 q-59 -150 -59 -381zM592 1669q0 53 29.5 98t72.5 33l396 -123q23 -6 43 -31t20 -43q0 -41 -20.5 -67.5t-57.5 -26.5q-14 0 -20 2l-430 115q-33 8 -33 43z" />
<glyph unicode="&#xd3;" horiz-adv-x="1789" d="M59 692q0 303 220 522q236 236 593 236q360 0 594 -215q226 -207 226 -510q0 -332 -219 -545q-231 -225 -617 -225q-330 0 -563.5 217t-233.5 520zM586 688q0 -258 84 -404.5t223 -146.5q150 0 233 180q72 156 72 363q0 309 -98 457q-80 121 -223 120q-156 0 -232 -188 q-59 -150 -59 -381zM625 1603q0 18 18 39t41 27l395 131q41 12 70 -32t29 -99q0 -41 -29 -49l-430 -99q-16 -4 -25 -4q-31 0 -50 23.5t-19 62.5z" />
<glyph unicode="&#xd4;" horiz-adv-x="1789" d="M59 692q0 303 220 522q236 236 593 236q360 0 594 -215q226 -207 226 -510q0 -332 -219 -545q-231 -225 -617 -225q-330 0 -563.5 217t-233.5 520zM586 688q0 -258 84 -404.5t223 -146.5q150 0 233 180q72 156 72 363q0 309 -98 457q-80 121 -223 120q-156 0 -232 -188 q-59 -150 -59 -381zM602 1526q0 39 23 64l188 211q14 14 43 23t62 9q31 0 53.5 -7t42.5 -32l172 -188q14 -16 24.5 -39t12.5 -41h-156q-39 10 -82 66q-47 74 -67 102q-39 -66 -74 -104q-43 -49 -88 -64h-154z" />
<glyph unicode="&#xd5;" horiz-adv-x="1789" d="M59 692q0 303 220 522q236 236 593 236q360 0 594 -215q226 -207 226 -510q0 -332 -219 -545q-231 -225 -617 -225q-330 0 -563.5 217t-233.5 520zM525 1547q14 92 77.5 159.5t145.5 67.5q35 0 168 -34t170 -34q53 0 89 42t73 42q41 1 41 -28q0 -47 -60 -117 q-78 -92 -186 -92q-55 0 -178 34.5t-146 34.5q-68 0 -119 -83q-25 -8 -34 -9q-25 0 -41 17zM586 688q0 -258 84 -404.5t223 -146.5q150 0 233 180q72 156 72 363q0 309 -98 457q-80 121 -223 120q-156 0 -232 -188q-59 -150 -59 -381z" />
<glyph unicode="&#xd6;" horiz-adv-x="1789" d="M59 692q0 303 220 522q236 236 593 236q360 0 594 -215q226 -207 226 -510q0 -332 -219 -545q-231 -225 -617 -225q-330 0 -563.5 217t-233.5 520zM555 1650q0 61 34.5 94t90.5 33q45 0 81.5 -39t36.5 -90q0 -53 -33.5 -84.5t-80.5 -31.5q-43 0 -86 34.5t-43 83.5z M586 688q0 -258 84 -404.5t223 -146.5q150 0 233 180q72 156 72 363q0 309 -98 457q-80 121 -223 120q-156 0 -232 -188q-59 -150 -59 -381zM993 1642q0 53 32.5 90t86.5 37q53 0 91 -34t38 -87t-36 -89t-91 -36q-49 0 -85 34t-36 85z" />
<glyph unicode="&#xd7;" horiz-adv-x="1277" d="M223 313l295 295l-268 269l100 94l264 -266l291 290l92 -98l-290 -291l292 -291l-92 -96l-295 293l-297 -297z" />
<glyph unicode="&#xd8;" horiz-adv-x="1789" d="M59 692q0 377 279 580q238 174 584 174q78 0 152.5 -16.5t137.5 -45.5l88 156q10 16 35 24.5t33 8.5q55 0 55 -33q0 -20 -20 -51l-96 -148q381 -196 381 -651q0 -297 -224.5 -513t-541.5 -216q-170 0 -261.5 17.5t-132.5 46.5l-110 -158q-20 -31 -70 -31q-25 0 -42 10.5 t-17 26.5q0 10 6 23l127 190q-104 37 -217 186q-145 193 -146 420zM573 719q0 -102 5.5 -173t27.5 -194l475 826q-37 29 -73 57q-43 25 -121 25q-150 0 -232 -147.5t-82 -393.5zM670 252q10 -39 57 -78q59 -47 131 -47q170 0 256 156t86 428q0 106 -6 157.5t-37 208.5z" />
<glyph unicode="&#xd9;" horiz-adv-x="1458" d="M59 1333q0 39 11 56q18 27 67 26h416q63 0 109.5 -30.5t46.5 -79.5q0 -27 -45.5 -50.5t-71.5 -107.5q-43 -139 -43 -434q0 -250 53 -383q68 -172 229 -172q145 0 201 98q33 57 33 147q0 680 -45 785q-20 47 -68.5 61.5t-48.5 67.5q0 39 18.5 68.5t59.5 29.5h328 q37 0 60.5 -21.5t23.5 -58.5q0 -35 -53.5 -63.5t-53.5 -73.5q0 -102 2 -419.5t2 -444.5q0 -147 -153 -268q-137 -106 -355 -107q-426 0 -565 191q-106 145 -106 544q0 135 13 259t28 243q0 29 -62 82q-31 27 -31 55zM479 1684q0 53 29.5 98t72.5 33l396 -123q23 -6 43 -31 t20 -43q0 -41 -20.5 -67.5t-57.5 -26.5q-14 0 -20 2l-430 115q-33 8 -33 43z" />
<glyph unicode="&#xda;" horiz-adv-x="1458" d="M59 1333q0 39 11 56q18 27 67 26h416q63 0 109.5 -30.5t46.5 -79.5q0 -27 -45.5 -50.5t-71.5 -107.5q-43 -139 -43 -434q0 -250 53 -383q68 -172 229 -172q145 0 201 98q33 57 33 147q0 680 -45 785q-20 47 -68.5 61.5t-48.5 67.5q0 39 18.5 68.5t59.5 29.5h328 q37 0 60.5 -21.5t23.5 -58.5q0 -35 -53.5 -63.5t-53.5 -73.5q0 -102 2 -419.5t2 -444.5q0 -147 -153 -268q-137 -106 -355 -107q-426 0 -565 191q-106 145 -106 544q0 135 13 259t28 243q0 29 -62 82q-31 27 -31 55zM529 1595q0 18 18 39t41 27l395 131q41 12 70 -32t29 -99 q0 -41 -29 -49l-430 -99q-16 -4 -25 -4q-31 0 -50 23.5t-19 62.5z" />
<glyph unicode="&#xdb;" horiz-adv-x="1458" d="M59 1333q0 39 11 56q18 27 67 26h416q63 0 109.5 -30.5t46.5 -79.5q0 -27 -45.5 -50.5t-71.5 -107.5q-43 -139 -43 -434q0 -250 53 -383q68 -172 229 -172q145 0 201 98q33 57 33 147q0 680 -45 785q-20 47 -68.5 61.5t-48.5 67.5q0 39 18.5 68.5t59.5 29.5h328 q37 0 60.5 -21.5t23.5 -58.5q0 -35 -53.5 -63.5t-53.5 -73.5q0 -102 2 -419.5t2 -444.5q0 -147 -153 -268q-137 -106 -355 -107q-426 0 -565 191q-106 145 -106 544q0 135 13 259t28 243q0 29 -62 82q-31 27 -31 55zM499 1499q0 39 23 64l188 211q14 14 43 23t62 9 q31 0 53.5 -7t42.5 -32l172 -188q14 -16 24.5 -39t12.5 -41h-156q-39 10 -82 66q-47 74 -67 102q-39 -66 -74 -104q-43 -49 -88 -64h-154z" />
<glyph unicode="&#xdc;" horiz-adv-x="1458" d="M59 1333q0 39 11 56q18 27 67 26h416q63 0 109.5 -30.5t46.5 -79.5q0 -27 -45.5 -50.5t-71.5 -107.5q-43 -139 -43 -434q0 -250 53 -383q68 -172 229 -172q145 0 201 98q33 57 33 147q0 680 -45 785q-20 47 -68.5 61.5t-48.5 67.5q0 39 18.5 68.5t59.5 29.5h328 q37 0 60.5 -21.5t23.5 -58.5q0 -35 -53.5 -63.5t-53.5 -73.5q0 -102 2 -419.5t2 -444.5q0 -147 -153 -268q-137 -106 -355 -107q-426 0 -565 191q-106 145 -106 544q0 135 13 259t28 243q0 29 -62 82q-31 27 -31 55zM437 1642q0 61 34.5 94t90.5 33q45 0 81.5 -39t36.5 -90 q0 -53 -33.5 -84.5t-80.5 -31.5q-43 0 -86 34.5t-43 83.5zM875 1634q0 53 32.5 90t86.5 37q53 0 91 -34t38 -87t-36 -89t-91 -36q-49 0 -85 34t-36 85z" />
<glyph unicode="&#xdd;" horiz-adv-x="1458" d="M-8 1331q0 45 41 64.5t104 19.5h404q76 0 110.5 -15.5t34.5 -64.5t-51 -88q-27 -20 -27 -33q0 -20 90 -192q98 -184 156 -262q59 78 143 236.5t84 203.5q0 25 -37.5 56.5t-37.5 66.5q0 29 25.5 60.5t49.5 31.5h242q39 0 62.5 -18.5t23.5 -63.5q0 -53 -33 -86 q-49 -49 -63 -82q-78 -133 -174 -291q-70 -115 -183 -294v-342q0 -59 57.5 -88t57.5 -66q0 -45 -30.5 -64.5t-79.5 -19.5h-465q-59 0 -80 12q-31 18 -31 68q0 39 51 73.5t51 88.5v311q-86 137 -176 301q-133 240 -166 297q-12 20 -90 82q-63 49 -63 98zM600 1595q0 18 18 39 t41 27l395 131q41 12 70 -32t29 -99q0 -41 -29 -49l-430 -99q-16 -4 -25 -4q-31 0 -50 23.5t-19 62.5z" />
<glyph unicode="&#xde;" horiz-adv-x="1081" d="M31 0v119q55 0 73 22q8 10 9 31v1079q0 8 -7 19q-20 35 -75 53v109h577v-127q-55 -6 -78 -23q-14 -10 -14 -22v-80h102q209 0 312 -82q129 -103 129 -355q0 -207 -158 -309q-139 -90 -373 -90v-174v-20q8 -31 76 -31v-119h-573zM526 616q106 0 150 21q57 28 57 108 q0 78 -32.5 115t-110.5 37h-64v-281z" />
<glyph unicode="&#xdf;" horiz-adv-x="1464" d="M-14 98q0 55 66.5 89t66.5 73v741q0 190 170 314.5t418 124.5q195 0 358 -94q197 -113 197 -297q0 -160 -140 -238q-45 -25 -139 -45q125 -16 186 -45q187 -88 187 -297q0 -207 -121 -320q-113 -104 -301 -104q-150 0 -236 51q-106 63 -106 207q0 100 47 160.5t106 60.5 q43 0 62.5 -17.5t19.5 -60.5q0 -29 -36 -73q-18 -23 -19 -47q0 -27 27.5 -43.5t62.5 -16.5q61 0 92 56.5t31 136.5q0 139 -73.5 210.5t-198.5 71.5q-61 0 -84 17.5t-23 72.5q0 33 28 53.5t97 20.5q53 0 94 49t41 129q0 92 -43 144.5t-106 52.5q-72 0 -120 -50t-48 -124v-922 q0 -70 -32 -104.5t-81 -34.5h-352q-45 0 -71.5 28.5t-26.5 69.5z" />
<glyph unicode="&#xe0;" horiz-adv-x="1230" d="M59 287q0 231 342 293q31 6 271 28q0 61 -31 117.5t-80 56.5q-47 0 -168 -90q-57 -43 -106 -43q-147 0 -148 113q0 86 142 133q119 39 280 39q199 0 336 -66q170 -80 170 -235v-410q0 -61 53 -114q27 -27 27 -56q0 -35 -21.5 -45t-60.5 -10h-285q-41 0 -60.5 31.5 t-25.5 74.5q-76 -51 -151 -100q-55 -29 -107 -29q-174 0 -275.5 80t-101.5 232zM268 1186q0 53 29.5 98t72.5 33l396 -123q23 -6 43 -31t20 -43q0 -41 -20.5 -67.5t-57.5 -26.5q-14 0 -20 2l-430 115q-33 8 -33 43zM479 268q0 -100 68 -100q31 0 80 37.5t49 70.5v207 q-82 -39 -123 -73q-74 -63 -74 -142z" />
<glyph unicode="&#xe1;" horiz-adv-x="1230" d="M59 287q0 231 342 293q31 6 271 28q0 61 -31 117.5t-80 56.5q-47 0 -168 -90q-57 -43 -106 -43q-147 0 -148 113q0 86 142 133q119 39 280 39q199 0 336 -66q170 -80 170 -235v-410q0 -61 53 -114q27 -27 27 -56q0 -35 -21.5 -45t-60.5 -10h-285q-41 0 -60.5 31.5 t-25.5 74.5q-76 -51 -151 -100q-55 -29 -107 -29q-174 0 -275.5 80t-101.5 232zM314 1085q0 18 18 39t41 27l395 131q41 12 70 -32t29 -99q0 -41 -29 -49l-430 -99q-16 -4 -25 -4q-31 0 -50 23.5t-19 62.5zM479 268q0 -100 68 -100q31 0 80 37.5t49 70.5v207 q-82 -39 -123 -73q-74 -63 -74 -142z" />
<glyph unicode="&#xe2;" horiz-adv-x="1230" d="M59 287q0 231 342 293q31 6 271 28q0 61 -31 117.5t-80 56.5q-47 0 -168 -90q-57 -43 -106 -43q-147 0 -148 113q0 86 142 133q119 39 280 39q199 0 336 -66q170 -80 170 -235v-410q0 -61 53 -114q27 -27 27 -56q0 -35 -21.5 -45t-60.5 -10h-285q-41 0 -60.5 31.5 t-25.5 74.5q-76 -51 -151 -100q-55 -29 -107 -29q-174 0 -275.5 80t-101.5 232zM278 1012q0 39 23 64l188 211q14 14 43 23t62 9q31 0 53.5 -7t42.5 -32l172 -188q14 -16 24.5 -39t12.5 -41h-156q-39 10 -82 66q-47 74 -67 102q-39 -66 -74 -104q-43 -49 -88 -64h-154z M479 268q0 -100 68 -100q31 0 80 37.5t49 70.5v207q-82 -39 -123 -73q-74 -63 -74 -142z" />
<glyph unicode="&#xe3;" horiz-adv-x="1230" d="M59 287q0 231 342 293q31 6 271 28q0 61 -31 117.5t-80 56.5q-47 0 -168 -90q-57 -43 -106 -43q-147 0 -148 113q0 86 142 133q119 39 280 39q199 0 336 -66q170 -80 170 -235v-410q0 -61 53 -114q27 -27 27 -56q0 -35 -21.5 -45t-60.5 -10h-285q-41 0 -60.5 31.5 t-25.5 74.5q-76 -51 -151 -100q-55 -29 -107 -29q-174 0 -275.5 80t-101.5 232zM246 1049q14 92 77.5 159.5t145.5 67.5q35 0 168 -34t170 -34q53 0 89 42t73 42q41 1 41 -28q0 -47 -60 -117q-78 -92 -186 -92q-55 0 -178 34.5t-146 34.5q-68 0 -119 -83q-25 -8 -34 -9 q-25 0 -41 17zM479 268q0 -100 68 -100q31 0 80 37.5t49 70.5v207q-82 -39 -123 -73q-74 -63 -74 -142z" />
<glyph unicode="&#xe4;" horiz-adv-x="1230" d="M59 287q0 231 342 293q31 6 271 28q0 61 -31 117.5t-80 56.5q-47 0 -168 -90q-57 -43 -106 -43q-147 0 -148 113q0 86 142 133q119 39 280 39q199 0 336 -66q170 -80 170 -235v-410q0 -61 53 -114q27 -27 27 -56q0 -35 -21.5 -45t-60.5 -10h-285q-41 0 -60.5 31.5 t-25.5 74.5q-76 -51 -151 -100q-55 -29 -107 -29q-174 0 -275.5 80t-101.5 232zM269 1151q0 61 34.5 94t90.5 33q45 0 81.5 -39t36.5 -90q0 -53 -33.5 -84.5t-80.5 -31.5q-43 0 -86 34.5t-43 83.5zM479 268q0 -100 68 -100q31 0 80 37.5t49 70.5v207q-82 -39 -123 -73 q-74 -63 -74 -142zM707 1143q0 53 32.5 90t86.5 37q53 0 91 -34t38 -87t-36 -89t-91 -36q-49 0 -85 34t-36 85z" />
<glyph unicode="&#xe5;" horiz-adv-x="1230" d="M59 287q0 231 342 293q31 6 271 28q0 61 -31 117.5t-80 56.5q-47 0 -168 -90q-57 -43 -106 -43q-147 0 -148 113q0 86 142 133q119 39 280 39q199 0 336 -66q170 -80 170 -235v-410q0 -61 53 -114q27 -27 27 -56q0 -35 -21.5 -45t-60.5 -10h-285q-41 0 -60.5 31.5 t-25.5 74.5q-76 -51 -151 -100q-55 -29 -107 -29q-174 0 -275.5 80t-101.5 232zM416 1167q0 76 50 130.5t128 54.5q76 0 125 -53t49 -125q0 -74 -46 -122t-132 -48q-68 0 -121 45t-53 118zM479 268q0 -100 68 -100q31 0 80 37.5t49 70.5v207q-82 -39 -123 -73 q-74 -63 -74 -142zM489 1163q0 -35 33 -65.5t72 -30.5q102 0 102 113q0 35 -30.5 63.5t-71.5 28.5q-45 0 -75 -34t-30 -75z" />
<glyph unicode="&#xe6;" horiz-adv-x="1902" d="M68 254q0 203 272 281q160 45 420 45q0 104 -31 153t-102 49q-39 0 -197 -106q-76 -51 -135 -51q-61 0 -109.5 31.5t-48.5 76.5q0 100 142.5 154.5t347.5 54.5q145 0 233 -51t119 -148q39 100 143.5 149.5t259.5 49.5q158 0 273 -68q129 -76 129 -200 q0 -137 -144.5 -198.5t-474.5 -61.5q0 -90 54 -162q61 -82 155 -82q129 0 220.5 62.5t117.5 62.5q74 0 74 -78q0 -86 -143.5 -159.5t-313.5 -73.5q-172 0 -262 51q-68 39 -119 131q-78 -109 -211 -158q-98 -37 -209 -37q-180 0 -309 66q-152 78 -151 217zM500 260 q0 -51 24.5 -69.5t69.5 -18.5q166 0 197 227q-145 -16 -179 -26q-113 -33 -112 -113zM1159 549q154 27 178 37q80 32 80 114q0 39 -23.5 54.5t-64.5 15.5q-55 0 -100 -49q-55 -61 -70 -172z" />
<glyph unicode="&#xe7;" horiz-adv-x="1118" d="M59 438q0 223 150.5 359.5t374.5 136.5q207 0 331 -76q113 -70 113 -166q0 -49 -40 -83t-91 -34q-86 0 -149.5 88.5t-116.5 88.5q-74 0 -111 -123q-27 -88 -26 -199q0 -117 49 -187.5t149 -70.5q117 0 201 84q41 41 70 41q41 0 65.5 -20.5t24.5 -49.5q0 -80 -122 -167 t-276 -87l-6 -77q20 2 36.5 3t29.5 1q86 0 137 -29q66 -37 66 -121q0 -76 -72 -112.5t-182 -36.5q-117 0 -187 18q-92 25 -92 76q0 49 43 49q35 0 106.5 -26.5t108.5 -26.5t60.5 17.5t23.5 55.5q0 29 -28.5 43.5t-88.5 14.5q-33 0 -63 -12q0 25 2 81t2 82 q-223 0 -357.5 132.5t-134.5 332.5z" />
<glyph unicode="&#xe8;" horiz-adv-x="1208" d="M61 455q0 197 178.5 336t426.5 139q172 0 311 -68q164 -80 164 -203q0 -190 -228 -268q-117 -41 -401 -65q0 -49 79 -111.5t136 -62.5q106 0 208.5 68.5t141.5 68.5q41 0 58 -25q10 -16 10 -47q0 -98 -152.5 -170t-347.5 -72q-246 0 -403 113q-180 129 -181 367z M361 1180q0 53 29.5 98t72.5 33l396 -123q23 -6 43 -31t20 -43q0 -41 -20.5 -67.5t-57.5 -26.5q-14 0 -20 2l-430 115q-33 8 -33 43zM502 475q102 18 157 49q89 52 89 142q0 39 -25 67.5t-70 28.5q-49 0 -80.5 -50t-70.5 -237z" />
<glyph unicode="&#xe9;" horiz-adv-x="1208" d="M61 455q0 197 178.5 336t426.5 139q172 0 311 -68q164 -80 164 -203q0 -190 -228 -268q-117 -41 -401 -65q0 -49 79 -111.5t136 -62.5q106 0 208.5 68.5t141.5 68.5q41 0 58 -25q10 -16 10 -47q0 -98 -152.5 -170t-347.5 -72q-246 0 -403 113q-180 129 -181 367z M375 1093q0 18 18 39t41 27l395 131q41 12 70 -32t29 -99q0 -41 -29 -49l-430 -99q-16 -4 -25 -4q-31 0 -50 23.5t-19 62.5zM502 475q102 18 157 49q89 52 89 142q0 39 -25 67.5t-70 28.5q-49 0 -80.5 -50t-70.5 -237z" />
<glyph unicode="&#xea;" horiz-adv-x="1208" d="M61 455q0 197 178.5 336t426.5 139q172 0 311 -68q164 -80 164 -203q0 -190 -228 -268q-117 -41 -401 -65q0 -49 79 -111.5t136 -62.5q106 0 208.5 68.5t141.5 68.5q41 0 58 -25q10 -16 10 -47q0 -98 -152.5 -170t-347.5 -72q-246 0 -403 113q-180 129 -181 367zM354 997 q0 39 23 64l188 211q14 14 43 23t62 9q31 0 53.5 -7t42.5 -32l172 -188q14 -16 24.5 -39t12.5 -41h-156q-39 10 -82 66q-47 74 -67 102q-39 -66 -74 -104q-43 -49 -88 -64h-154zM502 475q102 18 157 49q89 52 89 142q0 39 -25 67.5t-70 28.5q-49 0 -80.5 -50t-70.5 -237z " />
<glyph unicode="&#xeb;" horiz-adv-x="1208" d="M61 455q0 197 178.5 336t426.5 139q172 0 311 -68q164 -80 164 -203q0 -190 -228 -268q-117 -41 -401 -65q0 -49 79 -111.5t136 -62.5q106 0 208.5 68.5t141.5 68.5q41 0 58 -25q10 -16 10 -47q0 -98 -152.5 -170t-347.5 -72q-246 0 -403 113q-180 129 -181 367z M320 1163q0 61 34.5 94t90.5 33q45 0 81.5 -39t36.5 -90q0 -53 -33.5 -84.5t-80.5 -31.5q-43 0 -86 34.5t-43 83.5zM502 475q102 18 157 49q89 52 89 142q0 39 -25 67.5t-70 28.5q-49 0 -80.5 -50t-70.5 -237zM758 1155q0 53 32.5 90t86.5 37q53 0 91 -34t38 -87t-36 -89 t-91 -36q-49 0 -85 34t-36 85z" />
<glyph unicode="&#xec;" horiz-adv-x="671" d="M-6 1186q0 53 29.5 98t72.5 33l396 -123q23 -6 43 -31t20 -43q0 -41 -20.5 -67.5t-57.5 -26.5q-14 0 -20 2l-430 115q-33 8 -33 43zM49 61q0 41 33 61.5t33 51.5v465q0 39 -29 67.5t-29 55.5q0 55 136.5 109.5t234.5 54.5q47 0 74.5 -43t27.5 -97v-583q0 -49 37 -84 t37 -62q0 -20 -18.5 -38.5t-57.5 -18.5h-401q-27 0 -52.5 17.5t-25.5 43.5z" />
<glyph unicode="&#xed;" horiz-adv-x="671" d="M49 61q0 41 33 61.5t33 51.5v465q0 39 -29 67.5t-29 55.5q0 55 136.5 109.5t234.5 54.5q47 0 74.5 -43t27.5 -97v-583q0 -49 37 -84t37 -62q0 -20 -18.5 -38.5t-57.5 -18.5h-401q-27 0 -52.5 17.5t-25.5 43.5zM56 1108q0 18 18 39t41 27l395 131q41 12 70 -32t29 -99 q0 -41 -29 -49l-430 -99q-16 -4 -25 -4q-31 0 -50 23.5t-19 62.5z" />
<glyph unicode="&#xee;" horiz-adv-x="671" d="M8 1003q0 39 23 64l188 211q14 14 43 23t62 9q31 0 53.5 -7t42.5 -32l172 -188q14 -16 24.5 -39t12.5 -41h-156q-39 10 -82 66q-47 74 -67 102q-39 -66 -74 -104q-43 -49 -88 -64h-154zM49 61q0 41 33 61.5t33 51.5v465q0 39 -29 67.5t-29 55.5q0 55 136.5 109.5 t234.5 54.5q47 0 74.5 -43t27.5 -97v-583q0 -49 37 -84t37 -62q0 -20 -18.5 -38.5t-57.5 -18.5h-401q-27 0 -52.5 17.5t-25.5 43.5z" />
<glyph unicode="&#xef;" horiz-adv-x="671" d="M-10 1159q0 61 34.5 94t90.5 33q45 0 81.5 -39t36.5 -90q0 -53 -33.5 -84.5t-80.5 -31.5q-43 0 -86 34.5t-43 83.5zM49 61q0 41 33 61.5t33 51.5v465q0 39 -29 67.5t-29 55.5q0 55 136.5 109.5t234.5 54.5q47 0 74.5 -43t27.5 -97v-583q0 -49 37 -84t37 -62 q0 -20 -18.5 -38.5t-57.5 -18.5h-401q-27 0 -52.5 17.5t-25.5 43.5zM428 1151q0 53 32.5 90t86.5 37q53 0 91 -34t38 -87t-36 -89t-91 -36q-49 0 -85 34t-36 85z" />
<glyph unicode="&#xf0;" horiz-adv-x="1277" d="M57 1526q0 43 42 89t100 46q182 0 282 -21q184 -37 332 -151l133 72q27 14 58 14q74 0 126 -86q12 -23 13 -59q0 -37 -14.5 -69t-47.5 -50l-65 -37q88 -137 151 -322q72 -206 72 -374q0 -307 -170 -478q-158 -158 -407 -157q-268 0 -437 170q-158 160 -157 383 q0 195 139 327q150 143 395 144q61 0 108.5 -7.5t100.5 -25.5q-8 39 -33 90q-31 59 -61 82l-176 -98q-20 -10 -39 -11q-33 0 -67 25t-54 57q-27 45 -27 101q0 29 11.5 53t33.5 37l72 39q-109 43 -141 51q-70 16 -209 16q-37 45 -50.5 76t-13.5 74zM477 455q0 -123 43 -234 q53 -135 139 -135t129 145q33 113 33 265q0 121 -33 188q-45 92 -149 92q-90 0 -131 -114q-31 -86 -31 -207z" />
<glyph unicode="&#xf1;" d="M39 786q0 49 145.5 97.5t225.5 48.5q51 0 69.5 -23.5t18.5 -64.5q0 -23 -2 -37t-7 -23q16 29 33 45q102 104 309 105q135 0 245 -105.5t110 -230.5v-389q0 -51 34.5 -77.5t34.5 -65.5q0 -23 -14 -39q-23 -27 -76 -27h-399q-29 0 -50.5 17.5t-21.5 45.5q0 20 39 76 q20 29 21 68v461q0 18 -26 41.5t-56 23.5q-43 0 -75 -35.5t-32 -79.5v-415q0 -49 24.5 -74t24.5 -59q0 -33 -16 -51.5t-43 -18.5h-410q-41 0 -65.5 13.5t-24.5 41.5q0 33 37 66t37 86v424q0 55 -45 77.5t-45 77.5zM328 1051q14 92 77.5 159.5t145.5 67.5q35 0 168 -34 t170 -34q53 0 89 42t73 42q41 1 41 -28q0 -47 -60 -117q-78 -92 -186 -92q-55 0 -178 34.5t-146 34.5q-68 0 -119 -83q-25 -8 -34 -9q-25 0 -41 17z" />
<glyph unicode="&#xf2;" d="M57 451q0 209 180.5 348t428.5 139q242 0 412.5 -144t170.5 -343q0 -221 -182 -355q-172 -125 -426 -125q-250 0 -412 123q-172 131 -172 357zM365 1186q0 53 29.5 98t72.5 33l396 -123q23 -6 43 -31t20 -43q0 -41 -20.5 -67.5t-57.5 -26.5q-14 0 -20 2l-430 115 q-33 8 -33 43zM500 459q0 -150 30 -228q39 -100 129 -100q86 0 122 87t36 259q0 129 -39 208t-114 79q-86 0 -125 -85t-39 -220z" />
<glyph unicode="&#xf3;" d="M57 451q0 209 180.5 348t428.5 139q242 0 412.5 -144t170.5 -343q0 -221 -182 -355q-172 -125 -426 -125q-250 0 -412 123q-172 131 -172 357zM414 1110q0 18 18 39t41 27l395 131q41 12 70 -32t29 -99q0 -41 -29 -49l-430 -99q-16 -4 -25 -4q-31 0 -50 23.5t-19 62.5z M500 459q0 -150 30 -228q39 -100 129 -100q86 0 122 87t36 259q0 129 -39 208t-114 79q-86 0 -125 -85t-39 -220z" />
<glyph unicode="&#xf4;" d="M57 451q0 209 180.5 348t428.5 139q242 0 412.5 -144t170.5 -343q0 -221 -182 -355q-172 -125 -426 -125q-250 0 -412 123q-172 131 -172 357zM333 1030q0 39 23 64l188 211q14 14 43 23t62 9q31 0 53.5 -7t42.5 -32l172 -188q14 -16 24.5 -39t12.5 -41h-156 q-39 10 -82 66q-47 74 -67 102q-39 -66 -74 -104q-43 -49 -88 -64h-154zM500 459q0 -150 30 -228q39 -100 129 -100q86 0 122 87t36 259q0 129 -39 208t-114 79q-86 0 -125 -85t-39 -220z" />
<glyph unicode="&#xf5;" d="M57 451q0 209 180.5 348t428.5 139q242 0 412.5 -144t170.5 -343q0 -221 -182 -355q-172 -125 -426 -125q-250 0 -412 123q-172 131 -172 357zM287 1041q14 92 77.5 159.5t145.5 67.5q35 0 168 -34t170 -34q53 0 89 42t73 42q41 1 41 -28q0 -47 -60 -117 q-78 -92 -186 -92q-55 0 -178 34.5t-146 34.5q-68 0 -119 -83q-25 -8 -34 -9q-25 0 -41 17zM500 459q0 -150 30 -228q39 -100 129 -100q86 0 122 87t36 259q0 129 -39 208t-114 79q-86 0 -125 -85t-39 -220z" />
<glyph unicode="&#xf6;" d="M57 451q0 209 180.5 348t428.5 139q242 0 412.5 -144t170.5 -343q0 -221 -182 -355q-172 -125 -426 -125q-250 0 -412 123q-172 131 -172 357zM314 1167q0 61 34.5 94t90.5 33q45 0 81.5 -39t36.5 -90q0 -53 -33.5 -84.5t-80.5 -31.5q-43 0 -86 34.5t-43 83.5zM500 459 q0 -150 30 -228q39 -100 129 -100q86 0 122 87t36 259q0 129 -39 208t-114 79q-86 0 -125 -85t-39 -220zM752 1159q0 53 32.5 90t86.5 37q53 0 91 -34t38 -87t-36 -89t-91 -36q-49 0 -85 34t-36 85z" />
<glyph unicode="&#xf7;" horiz-adv-x="1253" d="M164 383l43 156h889l-43 -156h-889zM489 123q0 49 33 86t82 37t86 -33t37 -82t-31.5 -85t-81.5 -36q-49 0 -87 32t-38 81zM489 799q0 49 33 86t82 37t86 -33t37 -82t-31.5 -85t-81.5 -36q-49 0 -87 32t-38 81z" />
<glyph unicode="&#xf8;" d="M68 459q0 217 182 356q172 131 409 131q55 0 113.5 -8t104.5 -27l69 131q12 25 64 25q16 0 26 -6q12 -8 4 -23l-90 -145q104 -43 187 -139q110 -129 110 -293q0 -219 -182 -359q-164 -125 -373 -125q-51 0 -132 6.5t-122 16.5l-65 -125q-14 -27 -49 -27q-16 0 -27.5 13.5 t-3.5 27.5l80 142q-111 37 -183 106q-123 121 -122 322zM506 345q0 -77 4 -103l248 479q-18 23 -44 38t-52 15q-90 0 -127 -84q-29 -66 -29 -194v-151zM557 188q16 -25 42 -42t58 -17q84 0 122 75t38 255q0 12 2 60t2 75v24v21q-4 12 -4 16z" />
<glyph unicode="&#xf9;" d="M53 825q0 45 113 74q135 35 291 35q61 0 90 -60q18 -39 18 -81v-504q0 -49 18.5 -81t53.5 -32q57 0 84 41q20 33 20 90v357q0 51 -37.5 71.5t-37.5 55.5q0 82 149 120q100 27 205 27q94 0 127 -41q27 -33 27 -106v-566q0 -35 57 -81.5t57 -77.5q0 -29 -26.5 -47.5 t-61.5 -18.5h-358q-16 0 -27.5 29.5t-11.5 68.5q0 20 2 31q-55 -45 -109 -90q-92 -59 -215 -59q-348 0 -348 296v396q0 49 -40 71.5t-40 81.5zM334 1188q0 53 29.5 98t72.5 33l396 -123q23 -6 43 -31t20 -43q0 -41 -20.5 -67.5t-57.5 -26.5q-14 0 -20 2l-430 115 q-33 8 -33 43z" />
<glyph unicode="&#xfa;" d="M53 825q0 45 113 74q135 35 291 35q61 0 90 -60q18 -39 18 -81v-504q0 -49 18.5 -81t53.5 -32q57 0 84 41q20 33 20 90v357q0 51 -37.5 71.5t-37.5 55.5q0 82 149 120q100 27 205 27q94 0 127 -41q27 -33 27 -106v-566q0 -35 57 -81.5t57 -77.5q0 -29 -26.5 -47.5 t-61.5 -18.5h-358q-16 0 -27.5 29.5t-11.5 68.5q0 20 2 31q-55 -45 -109 -90q-92 -59 -215 -59q-348 0 -348 296v396q0 49 -40 71.5t-40 81.5zM387 1104q0 18 18 39t41 27l395 131q41 12 70 -32t29 -99q0 -41 -29 -49l-430 -99q-16 -4 -25 -4q-31 0 -50 23.5t-19 62.5z" />
<glyph unicode="&#xfb;" d="M53 825q0 45 113 74q135 35 291 35q61 0 90 -60q18 -39 18 -81v-504q0 -49 18.5 -81t53.5 -32q57 0 84 41q20 33 20 90v357q0 51 -37.5 71.5t-37.5 55.5q0 82 149 120q100 27 205 27q94 0 127 -41q27 -33 27 -106v-566q0 -35 57 -81.5t57 -77.5q0 -29 -26.5 -47.5 t-61.5 -18.5h-358q-16 0 -27.5 29.5t-11.5 68.5q0 20 2 31q-55 -45 -109 -90q-92 -59 -215 -59q-348 0 -348 296v396q0 49 -40 71.5t-40 81.5zM350 1016q0 39 23 64l188 211q14 14 43 23t62 9q31 0 53.5 -7t42.5 -32l172 -188q14 -16 24.5 -39t12.5 -41h-156q-39 10 -82 66 q-47 74 -67 102q-39 -66 -74 -104q-43 -49 -88 -64h-154z" />
<glyph unicode="&#xfc;" d="M53 825q0 45 113 74q135 35 291 35q61 0 90 -60q18 -39 18 -81v-504q0 -49 18.5 -81t53.5 -32q57 0 84 41q20 33 20 90v357q0 51 -37.5 71.5t-37.5 55.5q0 82 149 120q100 27 205 27q94 0 127 -41q27 -33 27 -106v-566q0 -35 57 -81.5t57 -77.5q0 -29 -26.5 -47.5 t-61.5 -18.5h-358q-16 0 -27.5 29.5t-11.5 68.5q0 20 2 31q-55 -45 -109 -90q-92 -59 -215 -59q-348 0 -348 296v396q0 49 -40 71.5t-40 81.5zM305 1169q0 61 34.5 94t90.5 33q45 0 81.5 -39t36.5 -90q0 -53 -33.5 -84.5t-80.5 -31.5q-43 0 -86 34.5t-43 83.5zM743 1161 q0 53 32.5 90t86.5 37q53 0 91 -34t38 -87t-36 -89t-91 -36q-49 0 -85 34t-36 85z" />
<glyph unicode="&#xfd;" horiz-adv-x="1118" d="M6 825q0 33 23.5 54.5t42.5 21.5h362q51 0 74.5 -23.5t23.5 -56.5q0 -25 -38 -78q-20 -29 -21 -49q0 -199 49 -362.5t105 -163.5q39 0 94 244q49 219 49 280q0 45 -44 75t-44 64q0 29 18.5 49.5t32.5 20.5h268q33 0 50.5 -17.5t17.5 -64.5q0 -33 -20 -59q-10 -12 -41 -39 q-41 -406 -205 -715q-195 -369 -475 -368q-84 0 -145.5 47t-61.5 102q0 51 36 85t101 34q66 0 113 -25.5t57 -25.5q39 0 119 71q27 23 74 74l-123 -8q-170 0 -265 114q-76 92 -116 279q-29 172 -56 346q-23 23 -30 33q-25 31 -25 61zM385 1108q0 18 18 39t41 27l395 131 q41 12 70 -32t29 -99q0 -41 -29 -49l-430 -99q-16 -4 -25 -4q-31 0 -50 23.5t-19 62.5z" />
<glyph unicode="&#xfe;" horiz-adv-x="1306" d="M12 -307l56 153q37 0 51 7q12 4 12 14q-4 14 -4 18v1336v8q-8 10 -90 10v172h516v-346q47 14 91 21.5t89 7.5q180 0 338 -130.5t158 -304.5q0 -207 -168 -348q-160 -133 -365 -133q-78 0 -147 15v-302q0 -23 10 -34q20 -25 78 -25v-139h-625zM553 442q0 -96 131 -96 q63 0 90 78q21 59 21 168q0 174 -29 227t-86 53q-53 0 -90 -32.5t-37 -83.5v-314z" />
<glyph unicode="&#xff;" horiz-adv-x="1118" d="M6 825q0 33 23.5 54.5t42.5 21.5h362q51 0 74.5 -23.5t23.5 -56.5q0 -25 -38 -78q-20 -29 -21 -49q0 -199 49 -362.5t105 -163.5q39 0 94 244q49 219 49 280q0 45 -44 75t-44 64q0 29 18.5 49.5t32.5 20.5h268q33 0 50.5 -17.5t17.5 -64.5q0 -33 -20 -59q-10 -12 -41 -39 q-41 -406 -205 -715q-195 -369 -475 -368q-84 0 -145.5 47t-61.5 102q0 51 36 85t101 34q66 0 113 -25.5t57 -25.5q39 0 119 71q27 23 74 74l-123 -8q-170 0 -265 114q-76 92 -116 279q-29 172 -56 346q-23 23 -30 33q-25 31 -25 61zM260 1157q0 61 34.5 94t90.5 33 q45 0 81.5 -39t36.5 -90q0 -53 -33.5 -84.5t-80.5 -31.5q-43 0 -86 34.5t-43 83.5zM698 1149q0 53 32.5 90t86.5 37q53 0 91 -34t38 -87t-36 -89t-91 -36q-49 0 -85 34t-36 85z" />
<glyph unicode="&#x152;" horiz-adv-x="2015" d="M16 725q0 338 209 539q193 184 477 184q49 0 117 -1t125 -28h836q86 0 122.5 -46t36.5 -124q0 -90 -30 -131q-23 -31 -60 -31q-41 0 -118.5 80t-171.5 80h-121q-53 0 -54 -78v-321h191q25 0 49 20q59 47 96 47q39 0 63.5 -40.5t24.5 -108.5q0 -76 -22.5 -129t-69.5 -53 q-41 0 -70.5 35.5t-86.5 35.5h-187v-397q0 -29 12.5 -46t32.5 -17h211q68 0 135.5 81.5t106.5 81.5q51 0 80.5 -27.5t29.5 -70.5q0 -102 -18 -166q-27 -94 -90 -94h-926q-49 -25 -106.5 -35t-126.5 -10q-313 0 -502 201q-195 207 -195 569zM467 723q0 -256 49 -383 q61 -160 207 -160q137 0 201 154q55 135 55 387q0 256 -49 371q-61 143 -221 143q-127 0 -189 -152q-53 -131 -53 -360z" />
<glyph unicode="&#x153;" horiz-adv-x="2015" d="M63 446q0 219 178.5 357.5t422.5 138.5q152 0 247 -49q55 -29 148 -115q76 94 166 126t211 32q182 0 309 -68q145 -78 145 -217q0 -150 -156.5 -232.5t-433.5 -82.5h-24h-8q0 -61 73.5 -117.5t167.5 -56.5q98 0 194.5 70.5t133.5 70.5q27 0 50.5 -16t23.5 -45 q0 -94 -167 -181.5t-333 -87.5q-143 0 -231 27q-123 37 -144 121q-35 -80 -166 -117q-102 -29 -239 -29q-221 0 -383 117q-184 133 -185 354zM494 438q0 -125 44 -216t126 -91q84 0 129 105q38 90 38 215t-44 216t-119 91q-92 0 -138 -109q-37 -88 -36 -211zM1241 485 q100 0 180 52q92 59 92 149q0 31 -34 64q-25 23 -49 22q-74 0 -124.5 -87t-64.5 -200z" />
<glyph unicode="&#x178;" horiz-adv-x="1458" d="M-8 1331q0 45 41 64.5t104 19.5h404q76 0 110.5 -15.5t34.5 -64.5t-51 -88q-27 -20 -27 -33q0 -20 90 -192q98 -184 156 -262q59 78 143 236.5t84 203.5q0 25 -37.5 56.5t-37.5 66.5q0 29 25.5 60.5t49.5 31.5h242q39 0 62.5 -18.5t23.5 -63.5q0 -53 -33 -86 q-49 -49 -63 -82q-78 -133 -174 -291q-70 -115 -183 -294v-342q0 -59 57.5 -88t57.5 -66q0 -45 -30.5 -64.5t-79.5 -19.5h-465q-59 0 -80 12q-31 18 -31 68q0 39 51 73.5t51 88.5v311q-86 137 -176 301q-133 240 -166 297q-12 20 -90 82q-63 49 -63 98zM526 1649 q0 57 33 87.5t86 30.5q43 0 78 -36.5t35 -83.5q0 -49 -33 -80t-78 -31q-43 0 -82 33t-39 80zM942 1640q0 49 32 85t81 36t86 -32.5t37 -81.5t-35 -84t-86 -35q-47 0 -81 31.5t-34 80.5z" />
<glyph unicode="&#x2c6;" horiz-adv-x="679" d="M18 1028q0 39 23 64l188 211q14 14 43 23t62 9q31 0 53.5 -7t42.5 -32l172 -188q14 -16 24.5 -39t12.5 -41h-156q-39 10 -82 66q-47 74 -67 102q-39 -66 -74 -104q-43 -49 -88 -64h-154z" />
<glyph unicode="&#x2dc;" horiz-adv-x="671" d="M-55 1055q14 92 77.5 159.5t145.5 67.5q35 0 168 -34t170 -34q53 0 89 42t73 42q41 1 41 -28q0 -47 -60 -117q-78 -92 -186 -92q-55 0 -178 34.5t-146 34.5q-68 0 -119 -83q-25 -8 -34 -9q-25 0 -41 17z" />
<glyph unicode="&#x2000;" horiz-adv-x="919" />
<glyph unicode="&#x2001;" horiz-adv-x="1839" />
<glyph unicode="&#x2002;" horiz-adv-x="919" />
<glyph unicode="&#x2003;" horiz-adv-x="1839" />
<glyph unicode="&#x2004;" horiz-adv-x="613" />
<glyph unicode="&#x2005;" horiz-adv-x="459" />
<glyph unicode="&#x2006;" horiz-adv-x="306" />
<glyph unicode="&#x2007;" horiz-adv-x="306" />
<glyph unicode="&#x2008;" horiz-adv-x="229" />
<glyph unicode="&#x2009;" horiz-adv-x="367" />
<glyph unicode="&#x200a;" horiz-adv-x="102" />
<glyph unicode="&#x2010;" horiz-adv-x="671" d="M72 459q0 53 36.5 100t88.5 47h237q68 0 102.5 -43t34.5 -104q0 -55 -30.5 -107.5t-79.5 -52.5h-256q-55 0 -94 51t-39 109z" />
<glyph unicode="&#x2011;" horiz-adv-x="671" d="M72 459q0 53 36.5 100t88.5 47h237q68 0 102.5 -43t34.5 -104q0 -55 -30.5 -107.5t-79.5 -52.5h-256q-55 0 -94 51t-39 109z" />
<glyph unicode="&#x2012;" horiz-adv-x="671" d="M72 459q0 53 36.5 100t88.5 47h237q68 0 102.5 -43t34.5 -104q0 -55 -30.5 -107.5t-79.5 -52.5h-256q-55 0 -94 51t-39 109z" />
<glyph unicode="&#x2013;" d="M-16 293v280h1364v-280h-1364z" />
<glyph unicode="&#x2014;" horiz-adv-x="2015" d="M-25 293v280h2028v-280h-2028z" />
<glyph unicode="&#x2018;" horiz-adv-x="671" d="M176 1057q0 102 95.5 240.5t170.5 138.5q27 0 44.5 -17.5t17.5 -44.5q0 -12 -2 -18q-84 -68 -121 -172q16 4 27 4q49 0 84.5 -50.5t35.5 -109.5q0 -66 -36 -113q-47 -59 -140 -59q-76 0 -126 60.5t-50 140.5z" />
<glyph unicode="&#x2019;" horiz-adv-x="671" d="M115 1274q0 66 52 116t122 50q86 0 133 -57.5t47 -149.5q0 -119 -98.5 -244t-173.5 -125q-61 0 -62 56q0 12 31 45q80 86 115 168q-31 -25 -54 -25q-53 0 -82.5 49t-29.5 117z" />
<glyph unicode="&#x201a;" horiz-adv-x="671" d="M115 188q0 66 52 116t122 50q86 0 133 -57.5t47 -149.5q0 -119 -98.5 -243.5t-173.5 -124.5q-61 0 -62 55q0 12 31 45q80 86 115 168q-31 -25 -54 -24q-53 0 -82.5 49t-29.5 116z" />
<glyph unicode="&#x201c;" horiz-adv-x="1118" d="M158 1083q0 104 97 239.5t175 135.5q27 0 43 -18.5t16 -44.5q0 -12 -6 -29q-84 -68 -114 -156q16 4 26 4q51 0 85 -49t34 -110q0 -57 -41 -109q-53 -66 -143 -65q-76 0 -124 61.5t-48 140.5zM633 1071q0 102 97 240.5t173 138.5q27 0 44.5 -17.5t17.5 -43.5q0 -12 -2 -19 q-84 -68 -121 -172q16 6 30 6q49 0 85 -50.5t36 -109.5t-52 -115.5t-128 -56.5q-88 0 -134 58.5t-46 140.5z" />
<glyph unicode="&#x201d;" horiz-adv-x="1118" d="M104 1274q0 63 57.5 114.5t117.5 51.5q180 0 180 -207q0 -123 -111 -256q-98 -119 -151 -119q-29 0 -46.5 22.5t-17.5 41.5q0 6 68 92q43 55 69 119q-31 -25 -53 -25q-53 0 -83 49t-30 117zM584 1266q0 63 57 116.5t115 53.5q88 0 133 -58.5t45 -152.5q0 -113 -107 -246 q-98 -123 -159 -123q-20 0 -41 22.5t-21 45.5q43 45 83 94t56 106q-31 -25 -53 -24q-43 0 -75.5 51t-32.5 115z" />
<glyph unicode="&#x201e;" horiz-adv-x="1048" d="M104 188q0 63 57.5 114.5t117.5 51.5q180 0 180 -207q0 -123 -111 -256q-98 -119 -151 -118q-29 0 -46.5 22.5t-17.5 40.5q0 6 68 92q43 55 69 119q-31 -25 -53 -24q-53 0 -83 49t-30 116zM584 180q0 63 57 116.5t115 53.5q88 0 133 -58.5t45 -152.5q0 -113 -107 -245 q-98 -123 -159 -123q-20 0 -41 22.5t-21 44.5q43 45 83 94.5t56 106.5q-31 -25 -53 -25q-43 0 -75.5 51.5t-32.5 114.5z" />
<glyph unicode="&#x2022;" horiz-adv-x="663" d="M137 647q0 80 57.5 137.5t137.5 57.5t137 -57.5t57 -137.5q0 -78 -57 -135t-137 -57t-137.5 55t-57.5 137z" />
<glyph unicode="&#x2026;" horiz-adv-x="1671" d="M113 117q0 63 47 108t112 45q68 0 119 -44.5t51 -112.5q0 -61 -53 -99.5t-123 -38.5q-61 0 -107 38t-46 104zM686 117q0 63 47 108t113 45q68 0 119 -44.5t51 -112.5q0 -61 -53.5 -99.5t-122.5 -38.5q-61 0 -107.5 38t-46.5 104zM1229 117q0 63 47 108t113 45 q68 0 119 -44.5t51 -112.5q0 -61 -53.5 -99.5t-123.5 -38.5q-61 0 -107 38t-46 104z" />
<glyph unicode="&#x202f;" horiz-adv-x="367" />
<glyph unicode="&#x2039;" horiz-adv-x="604" d="M86 440q0 18 16 45q10 16 33 43l174 211q14 16 52 35t63 19q33 0 55.5 -10.5t22.5 -34.5q0 -14 -13 -35q-4 -6 -26 -35l-154 -186q-16 -14 -22 -21q-14 -14 -15 -22q12 -14 27 -27l162 -180q12 -14 26.5 -38t14.5 -40q0 -27 -25.5 -37t-62.5 -10q-76 0 -119 51l-168 211 q-18 23 -27 33q-14 18 -14 28z" />
<glyph unicode="&#x203a;" horiz-adv-x="819" d="M68 166q0 14 12 35q4 6 26 35l154 186q16 14 23 20q14 14 14 23q0 4 -10 12t-17 15l-161 180q-12 14 -26.5 37.5t-14.5 40.5q0 27 25.5 37t62.5 10q76 0 118 -52l168 -210q18 -23 29.5 -37.5t11.5 -24.5q0 -18 -13 -39.5t-36 -48.5l-174 -211q-14 -16 -52 -34.5 t-63 -18.5q-33 0 -55 10t-22 35z" />
<glyph unicode="&#x205f;" horiz-adv-x="459" />
<glyph unicode="&#x2122;" horiz-adv-x="1601" d="M41 1307l22 90q12 43 64 43h461q43 0 57 -47l21 -82q6 -27 -14.5 -47.5t-47.5 -20.5q-2 0 -69 47q-33 23 -64 23v-441q0 -14 26.5 -26t26.5 -35q0 -16 -16 -34.5t-39 -18.5h-215q-18 0 -37.5 17.5t-19.5 37.5q0 18 25.5 31.5t25.5 32.5v438q-49 0 -93 -42t-63 -42 q-27 0 -42 24.5t-9 51.5zM721 813q0 18 31.5 34.5t31.5 55.5v418q0 12 -31.5 22.5t-31.5 32.5q0 23 20.5 43.5t49.5 20.5h196q20 0 38.5 -10.5t27.5 -26.5l100 -240l94 223q18 51 70 52h184q25 0 43.5 -18.5t18.5 -43.5q0 -20 -29 -30.5t-29 -22.5v-451q0 -12 27 -26.5 t27 -32.5q0 -23 -18.5 -41t-55.5 -18h-207q-25 0 -39 18.5t-14 38.5q0 16 30.5 34.5t30.5 35.5v237q-61 -147 -65 -153q-33 -59 -44.5 -82t-17.5 -29q-20 -23 -51 -23q-25 0 -53 31q-4 4 -11 15q-63 100 -106 208v-206q0 -18 36 -30.5t36 -35.5t-16.5 -41t-43.5 -18h-170 q-23 0 -41 20.5t-18 38.5z" />
<glyph unicode="&#xe000;" horiz-adv-x="901" d="M0 0v901h901v-901h-901z" />
</font>
</defs>
</svg>
