<?xml version="1.0" standalone="no"?>
<!DOCTYPE svg PUBLIC "-//W3C//DTD SVG 1.1//EN" "http://www.w3.org/Graphics/SVG/1.1/DTD/svg11.dtd" >
<svg xmlns="http://www.w3.org/2000/svg" xmlns:xlink="http://www.w3.org/1999/xlink" version="1.1">
<metadata></metadata>
<defs>
<font id="tex_gyre_adventoritalic" horiz-adv-x="1134" >
<font-face units-per-em="2048" ascent="1655" descent="-393" />
<missing-glyph horiz-adv-x="567" />
<glyph unicode="&#xfb01;" horiz-adv-x="997" d="M829 1376h-30q-131 0 -200.5 -60.5t-94.5 -195.5h276l-24 -137h-277l-182 -983h-152l183 983h-174l24 137h174q41 202 165.5 297.5t301.5 95.5h35zM807 0h-152l207 1120h152zM1038 1243h-151l47 258h151z" />
<glyph unicode="&#xfb02;" horiz-adv-x="993" d="M829 1376h-30q-131 0 -200.5 -60.5t-94.5 -195.5h276l-24 -137h-277l-182 -983h-152l183 983h-174l24 137h174q41 202 165.5 297.5t301.5 95.5h35zM1083 1513l-280 -1513h-152l281 1513h151z" />
<glyph unicode="&#xfb03;" horiz-adv-x="1499" d="M1335 1376h-30q-131 0 -200.5 -60.5t-94.5 -195.5h276l-24 -137h-277l-182 -983h-152l183 983h-355l-182 -983h-152l183 983h-174l24 137h174q41 202 165.5 297.5t301.5 95.5h35l-25 -137h-30q-131 0 -200.5 -60.5t-94.5 -195.5h354q41 202 165.5 297.5t301.5 95.5h35z M1309 0h-152l207 1120h152zM1538 1243h-152l48 258h151z" />
<glyph unicode="&#xfb04;" horiz-adv-x="1499" d="M1335 1376h-30q-131 0 -200.5 -60.5t-94.5 -195.5h276l-24 -137h-277l-182 -983h-152l183 983h-355l-182 -983h-152l183 983h-174l24 137h174q41 202 165.5 297.5t301.5 95.5h35l-25 -137h-30q-131 0 -200.5 -60.5t-94.5 -195.5h354q41 202 165.5 297.5t301.5 95.5h35z M1589 1513l-280 -1513h-152l281 1513h151z" />
<glyph horiz-adv-x="0" />
<glyph horiz-adv-x="682" />
<glyph unicode=" "  horiz-adv-x="567" />
<glyph unicode="&#x09;" horiz-adv-x="567" />
<glyph unicode="&#xa0;" horiz-adv-x="567" />
<glyph unicode="!" horiz-adv-x="604" d="M317 0h-151l47 258h152zM393 403h-151l204 1110h152z" />
<glyph unicode="&#x22;" horiz-adv-x="632" d="M473 1513l-86 -462h-102l86 462h102zM705 1513l-87 -462h-102l86 462h103z" />
<glyph unicode="#" d="M1227 928h-250l-117 -320h236l-23 -123h-258l-178 -485h-135l178 485h-264l-180 -485h-136l183 485h-240l23 123h262l121 320h-248l22 123h271l174 462h131l-172 -462h260l170 462h135l-170 -462h227zM842 928h-260l-119 -320h262z" />
<glyph unicode="$" d="M1012 541q0 -81 -28.5 -159t-81 -144t-134.5 -113.5t-182 -65.5l-33 -174h-135l33 174q-116 16 -199.5 96.5t-83.5 209.5q0 36 12 102h139q-4 -49 -4 -66q0 -97 61 -157t159 -60q132 0 225.5 97t93.5 235q0 83 -46.5 134t-182.5 93q-160 50 -221.5 123t-61.5 185 q0 161 106 285t269 155l31 168h135l-31 -168q140 -31 202 -105t62 -212q0 -8 -4 -54h-143q4 47 4 66q0 77 -55.5 126.5t-141.5 49.5q-122 0 -204.5 -87.5t-82.5 -217.5q0 -60 46.5 -99.5t166.5 -80.5q96 -33 157.5 -68t95 -77t45.5 -85.5t12 -105.5z" />
<glyph unicode="%" horiz-adv-x="1587" d="M1425 1513l-964 -1513h-148l959 1513h153zM1546 399q0 -108 -60.5 -207t-160.5 -159t-209 -60q-131 0 -216 84t-85 213q0 107 61 205t162 157.5t211 59.5q128 0 212.5 -83.5t84.5 -209.5zM1407 379q0 72 -52.5 123t-127.5 51q-107 0 -190 -79.5t-83 -182.5 q0 -75 52.5 -126.5t128.5 -51.5q109 0 190.5 80t81.5 186zM909 1241q0 -108 -60.5 -207.5t-160 -160t-207.5 -60.5q-132 0 -217.5 84t-85.5 213q0 77 35.5 154t94 136.5t139 96.5t165.5 37q127 0 212 -84t85 -209zM770 1219q0 73 -52.5 124.5t-127.5 51.5q-109 0 -191 -79.5 t-82 -185.5q0 -76 52 -127t129 -51q109 0 190.5 80.5t81.5 186.5z" />
<glyph unicode="&#x26;" horiz-adv-x="1550" d="M1460 78l-123 -105l-288 340q-219 -340 -525 -340q-180 0 -287.5 104t-107.5 277q0 126 69.5 244.5t190.5 194.5l146 75q6 3 34 19q-63 86 -87.5 143t-24.5 117q0 77 35 149.5t93.5 125.5t137.5 85.5t162 32.5q135 0 220 -76.5t85 -199.5q0 -140 -81 -235t-288 -187 l236 -283l299 426h168l-377 -534zM956 422l-299 356q-209 -95 -295 -189t-86 -227q0 -109 76 -179t193 -70q104 0 212 80t199 229zM1042 1235q0 77 -48 121.5t-132 44.5q-95 0 -171.5 -70t-76.5 -160q0 -46 24.5 -91.5t92.5 -129.5q187 77 249 134.5t62 150.5z" />
<glyph unicode="'" horiz-adv-x="405" d="M473 1513l-86 -462h-102l86 462h102z" />
<glyph unicode="(" horiz-adv-x="755" d="M578 -256q-134 54 -231 166t-144 251.5t-47 291.5q0 148 54.5 311.5t149.5 311t238 266.5t307 171l-24 -129q-185 -111 -316 -266.5t-191.5 -318t-60.5 -324.5q0 -193 74.5 -347t214.5 -251z" />
<glyph unicode=")" horiz-adv-x="755" d="M711 803q0 -205 -92 -417t-266.5 -387.5t-393.5 -254.5l25 131q160 85 290.5 233.5t204.5 326.5t74 347q0 183 -66 331t-225 267l25 133q128 -47 226 -158.5t148 -255t50 -296.5z" />
<glyph unicode="*" horiz-adv-x="870" d="M897 1120l-209 43l80 -205l-109 -38l-71 206l-144 -163l-90 73l154 162l-217 35l20 106l215 -45l-82 209l113 37l70 -205l143 168l84 -78l-149 -165l210 -33z" />
<glyph unicode="+" horiz-adv-x="1241" d="M1159 436h-416v-416h-151v416h-416v152h416v416h151v-416h416v-152z" />
<glyph unicode="," horiz-adv-x="567" d="M504 258l-254 -395h-150l254 395h150z" />
<glyph unicode="-" horiz-adv-x="679" d="M684 606l-25 -129h-557l25 129h557z" />
<glyph unicode="." horiz-adv-x="567" d="M297 0h-152l48 258h151z" />
<glyph unicode="/" horiz-adv-x="894" d="M1032 1513l-923 -1775h-138l920 1775h141z" />
<glyph unicode="0" d="M1192 981l-80 -430q-109 -578 -606 -578q-195 0 -308.5 103.5t-113.5 281.5q0 96 16 174l4 19l80 430q51 278 210.5 418.5t400.5 140.5q183 0 299 -102.5t116 -259.5q0 -96 -18 -197zM967 575l67 371q19 114 19 180q0 128 -81 201.5t-206 73.5q-180 0 -289.5 -112.5 t-150.5 -342.5l-68 -371q-4 -21 -10 -92t-6 -96q0 -123 80 -198.5t210 -75.5q176 0 283 109.5t152 352.5z" />
<glyph unicode="1" d="M944 1513l-280 -1513h-150l256 1376h-258l25 137h407z" />
<glyph unicode="2" d="M967 0h-961l25 137l626 512q219 179 293 279.5t74 218.5q0 116 -73.5 185t-196.5 69q-155 0 -261 -101t-135 -276h-149q35 230 193 373t378 143q181 0 291.5 -101.5t110.5 -267.5q0 -152 -80.5 -274.5t-292.5 -294.5l-573 -465h755z" />
<glyph unicode="3" d="M1061 553q0 -151 -79 -285t-210.5 -214.5t-279.5 -80.5q-179 0 -293.5 106t-114.5 271q0 45 6 123h150l-2 -31q0 -177 68.5 -253t199.5 -76q158 0 277.5 121t119.5 282q0 151 -94 215t-277 64l25 135l80 -4q125 0 212 82t87 206q0 81 -52 134t-139 53 q-109 0 -188.5 -74.5t-91.5 -189.5h-150q38 190 166.5 296.5t294.5 106.5q142 0 230 -84t88 -219q0 -230 -222 -371q189 -101 189 -313z" />
<glyph unicode="4" d="M1071 276h-139l-51 -276h-150l51 276h-768l25 138l944 1099h178l-205 -1099h140zM973 1305l-758 -891h592z" />
<glyph unicode="5" d="M1120 608q0 -123 -52.5 -240.5t-137.5 -203.5t-198 -138.5t-228 -52.5t-212 51t-156.5 147.5t-59.5 217.5v86h147q0 -183 81 -272.5t214 -89.5q118 0 221 65t163.5 174t60.5 234q0 135 -82 220t-213 85q-176 0 -344 -168l-109 45l272 745h687l-25 -137h-565l-152 -418 q154 72 279 72q182 0 295.5 -117.5t113.5 -304.5z" />
<glyph unicode="6" d="M1124 612q0 -169 -84 -316.5t-227 -235t-307 -87.5q-190 0 -311 116t-121 298q0 75 8.5 128t37.5 119t83 141t145 181l477 557h174l-452 -526q103 43 186 43q172 0 281.5 -117t109.5 -301zM967 586q0 137 -79.5 221t-209.5 84q-115 0 -218 -63.5t-166 -173.5t-63 -236 q0 -138 83 -221.5t221 -83.5q113 0 213.5 67t159.5 176.5t59 229.5z" />
<glyph unicode="7" d="M1198 1376l-879 -1376h-159l882 1376h-716l24 137h873z" />
<glyph unicode="8" d="M1077 547q0 -156 -76 -288t-206.5 -209t-284.5 -77q-189 0 -300.5 105t-111.5 282q0 152 91.5 284t246.5 202q-76 57 -101.5 106t-25.5 127q0 123 71 230.5t182.5 169t230.5 61.5q149 0 241 -85t92 -220q0 -127 -59.5 -231t-183.5 -158q100 -53 147 -125t47 -174z M924 512q0 115 -74.5 185.5t-196.5 70.5q-163 0 -280 -115.5t-117 -281.5q0 -112 77.5 -185t196.5 -73q163 0 278.5 117.5t115.5 281.5zM969 1202q0 91 -55.5 145t-149.5 54q-122 0 -209.5 -86.5t-87.5 -206.5q0 -85 61 -142t152 -57q117 0 203 90.5t86 202.5z" />
<glyph unicode="9" d="M1219 1126q0 -145 -66 -280q-30 -62 -68 -113t-143 -176l-477 -557h-174l454 526q-103 -43 -186 -43q-169 0 -280 115.5t-111 292.5q0 129 49.5 249t132.5 207.5t196.5 140t235.5 52.5q194 0 315.5 -115t121.5 -299zM1061 1090q0 139 -84 225t-219 86q-89 0 -170 -41.5 t-138 -108t-90.5 -150.5t-33.5 -169q0 -140 78 -224.5t208 -84.5q119 0 222.5 63.5t165 171.5t61.5 232z" />
<glyph unicode=":" horiz-adv-x="567" d="M444 780h-151l47 258h152zM297 0h-152l48 258h151z" />
<glyph unicode=";" horiz-adv-x="567" d="M401 258l-254 -395h-149l256 395h147zM502 780h-152l47 258h152z" />
<glyph unicode="&#x3c;" horiz-adv-x="1241" d="M1030 -195l-774 650v114l774 650v-197l-606 -510l606 -510v-197z" />
<glyph unicode="=" horiz-adv-x="1241" d="M1159 625h-983v151h983v-151zM1159 248h-983v151h983v-151z" />
<glyph unicode="&#x3e;" horiz-adv-x="1241" d="M1030 455l-774 -650v197l606 510l-606 510v197l774 -650v-114z" />
<glyph unicode="?" horiz-adv-x="1210" d="M625 0h-152l47 258h152zM1223 1182q0 -131 -51.5 -221.5t-206.5 -212.5q-134 -106 -195 -186t-76 -167h-143q18 209 285 418q85 67 117.5 98t56.5 68q55 79 55 182q0 107 -71.5 173.5t-186.5 66.5q-302 0 -399 -361h-144q54 241 207 370.5t365 129.5q175 0 281 -98 t106 -260z" />
<glyph unicode="@" horiz-adv-x="1775" d="M1747 1001q0 -96 -35.5 -200.5t-97 -194.5t-137 -163.5t-161.5 -115.5t-165 -42q-74 0 -111.5 26.5t-50.5 89.5q-73 -58 -132.5 -82t-131.5 -24q-106 0 -168.5 62.5t-62.5 168.5q0 147 98 309.5t244.5 270.5t277.5 108q89 0 138 -33.5t71 -107.5l53 103h125l-297 -570 q-51 -106 -60 -128.5t-9 -45.5q0 -17 18.5 -29t44.5 -12q61 0 138 53.5t143.5 136t112.5 193t46 213.5q0 197 -142 322t-366 125q-153 0 -302.5 -68t-260.5 -178t-179.5 -258t-68.5 -301q0 -239 159 -394t405 -155q278 0 516 203l69 -68q-266 -242 -622 -242 q-181 0 -326.5 82t-227 227.5t-81.5 327.5q0 181 78.5 352.5t208 297.5t305 203t360.5 77q252 0 418 -153t166 -386zM1225 987q0 54 -32.5 86t-92.5 35h-10q-67 0 -148 -56t-146.5 -137.5t-110 -180.5t-44.5 -179q0 -65 35.5 -103t95.5 -38q82 0 156 58.5t162 191.5 q135 207 135 323z" />
<glyph unicode="A" horiz-adv-x="1515" d="M1432 0h-166l-125 510h-705l-315 -510h-160l930 1513h170zM1108 647l-164 694l-424 -694h588z" />
<glyph unicode="B" horiz-adv-x="1175" d="M1143 532q0 -116 -47 -224t-127 -177q-83 -72 -196 -101.5t-304 -29.5h-375l281 1513h354q232 0 342.5 -71.5t110.5 -222.5q0 -65 -14 -125.5t-42.5 -116t-77 -100t-112.5 -70.5q115 -55 161 -116.5t46 -158.5zM985 496q0 132 -102 188q-75 41 -322 41h-186l-105 -588 h207q118 0 207 18t145.5 48.5t92 77t49.5 98.5t14 117zM1024 1184q0 109 -72.5 150.5t-265.5 41.5h-184l-96 -514h184q138 0 214.5 19t127.5 65q41 38 66.5 103.5t25.5 134.5z" />
<glyph unicode="C" horiz-adv-x="1665" d="M1591 397q-137 -201 -338.5 -312.5t-429.5 -111.5q-296 0 -481.5 173t-185.5 448q0 126 35 247.5t97 225.5t150.5 192t192 150t225.5 96.5t248 34.5q234 0 404 -116.5t210 -303.5h-168q-66 149 -183 215t-284 66q-148 0 -289 -63t-246.5 -166.5t-170 -245t-64.5 -291.5 q0 -227 151.5 -374.5t383.5 -147.5q316 0 575 284h168z" />
<glyph unicode="D" horiz-adv-x="1523" d="M1524 918q0 -210 -88 -394.5t-250 -314.5q-138 -111 -298.5 -160t-385.5 -49h-408l281 1513h356q204 0 332 -27.5t219 -90.5q119 -82 180.5 -203.5t61.5 -273.5zM1366 891q0 116 -34 202.5t-108.5 151.5t-202.5 98t-308 33h-211l-232 -1239h211q237 0 384.5 46t264.5 155 q109 101 172.5 250.5t63.5 302.5z" />
<glyph unicode="E" horiz-adv-x="1097" d="M1178 1376h-676l-103 -542h654l-25 -138h-653l-105 -559h676l-24 -137h-828l281 1513h827z" />
<glyph unicode="F" horiz-adv-x="993" d="M1118 1376h-616l-103 -547h594l-24 -137h-594l-129 -692h-152l281 1513h768z" />
<glyph unicode="G" horiz-adv-x="1785" d="M1769 698q-37 -148 -127 -281.5t-211 -231t-273 -155t-306 -57.5q-202 0 -360 81t-246 227.5t-88 332.5q0 180 79 350.5t209 296.5t306.5 202.5t363.5 76.5q247 0 421.5 -117.5t217.5 -312.5h-172q-47 134 -175 212.5t-298 78.5q-157 0 -304 -62t-254.5 -165t-172 -243.5 t-64.5 -291.5q0 -237 157 -381.5t398 -144.5q215 0 405 122.5t288 325.5h-848l24 137h1030z" />
<glyph unicode="H" horiz-adv-x="1398" d="M1462 1513l-280 -1513h-152l131 711h-784l-131 -711h-152l281 1513h151l-123 -665h785l123 665h151z" />
<glyph unicode="I" horiz-adv-x="462" d="M526 1513l-280 -1513h-152l281 1513h151z" />
<glyph unicode="J" horiz-adv-x="987" d="M1051 1513l-195 -1040q-46 -247 -171.5 -374.5t-322.5 -127.5q-157 0 -248 84t-91 244q0 36 4 59h149q13 -132 57 -189.5t152 -57.5q127 0 205 88t115 274l194 1040h152z" />
<glyph unicode="K" horiz-adv-x="1210" d="M1417 1513l-735 -737l455 -776h-191l-383 655l-241 -241l-76 -414h-152l281 1513h151l-161 -870l862 870h190z" />
<glyph unicode="L" horiz-adv-x="946" d="M872 0h-778l281 1513h151l-256 -1376h627z" />
<glyph unicode="M" horiz-adv-x="1882" d="M1946 1513l-281 -1513h-152l250 1348l-819 -1348h-131l-317 1348l-250 -1348h-152l281 1513h235l312 -1288l788 1288h236z" />
<glyph unicode="N" horiz-adv-x="1515" d="M1579 1513l-281 -1513h-151l-655 1331l-246 -1331h-152l281 1513h205l614 -1255l233 1255h152z" />
<glyph unicode="O" horiz-adv-x="1779" d="M1782 893q0 -175 -81 -344.5t-213.5 -295t-310.5 -203t-362 -77.5q-182 0 -332.5 82.5t-238.5 231t-88 331.5q0 176 81 345.5t213 295.5t310 203.5t362 77.5q132 0 252.5 -48t210.5 -132t143.5 -206t53.5 -261zM1624 864q0 233 -152 385t-387 152q-143 0 -285 -64.5 t-248.5 -168.5t-172.5 -242.5t-66 -278.5q0 -224 153 -379t374 -155q149 0 293.5 63t251.5 166t173 241t66 281z" />
<glyph unicode="P" horiz-adv-x="1212" d="M1300 1171q0 -117 -42 -226.5t-117 -184.5q-80 -80 -193 -114t-299 -34h-291l-112 -612h-152l281 1513h420q267 0 386 -80.5t119 -261.5zM1143 1143q0 130 -96 188q-72 45 -330 45h-215l-117 -626h281q147 0 231.5 24.5t140.5 83.5q47 51 76 129t29 156z" />
<glyph unicode="Q" horiz-adv-x="1783" d="M1808 915q0 -211 -99 -406.5t-269 -318.5q89 -77 180 -77q19 0 33 2l-27 -142q-110 1 -173 28.5t-134 102.5q-98 -62 -224.5 -96.5t-252.5 -34.5q-146 0 -274 48.5t-218.5 133t-143 203t-52.5 254.5q0 148 53 290t147 256t215.5 200.5t266.5 134t292 47.5 q304 0 492 -172.5t188 -452.5zM1214 205q-135 149 -278 214.5t-334 65.5q-141 0 -252 -43q33 -122 180 -225.5t332 -103.5q99 0 179 20.5t173 71.5zM1651 874q0 236 -150.5 381.5t-394.5 145.5q-212 0 -393.5 -103.5t-291.5 -292.5t-110 -421l-2 -13q181 54 346 54 q210 0 359.5 -74t335.5 -260q161 143 231 280.5t70 302.5z" />
<glyph unicode="R" horiz-adv-x="1243" d="M1317 1133q0 -233 -149.5 -390.5t-389.5 -177.5l320 -565h-189l-383 686q167 0 254.5 10.5t155.5 38.5q98 41 160.5 145.5t62.5 227.5q0 145 -102.5 206.5t-341.5 61.5h-213l-256 -1376h-152l281 1513h375q308 0 437.5 -90.5t129.5 -289.5z" />
<glyph unicode="S" horiz-adv-x="1019" d="M999 504q0 -102 -45 -199.5t-119.5 -170t-176.5 -117t-209 -44.5q-175 0 -285.5 102t-110.5 263q0 20 4 86h162q0 -163 64.5 -237t195.5 -74q148 0 255.5 107t107.5 255q0 94 -61 148.5t-224 105.5q-104 32 -169 66.5t-98 77t-43.5 85t-10.5 107.5q0 88 39.5 174.5 t105.5 152.5t160.5 107t197.5 41q160 0 257.5 -91t97.5 -241q0 -13 -7 -78h-157q0 149 -58 210t-159 61q-133 0 -226.5 -97.5t-93.5 -216.5q0 -31 13.5 -69.5t31.5 -56.5q22 -24 60 -41.5t147 -53.5q127 -42 191 -76.5t98 -78.5q65 -83 65 -207z" />
<glyph unicode="T" horiz-adv-x="872" d="M1053 1376h-346l-256 -1376h-152l256 1376h-346l24 137h844z" />
<glyph unicode="U" horiz-adv-x="1341" d="M1231 569q-55 -297 -220 -446.5t-405 -149.5q-188 0 -306 106t-118 275q0 84 23 215l174 944h151l-174 -944q-18 -99 -18 -184q0 -122 81.5 -197t213.5 -75q172 0 287.5 112.5t158.5 343.5l174 944h152z" />
<glyph unicode="V" horiz-adv-x="1437" d="M1636 1513l-907 -1513h-147l-342 1513h166l286 -1325l781 1325h163z" />
<glyph unicode="W" horiz-adv-x="1966" d="M2165 1513l-715 -1513h-195l-106 1241l-561 -1241h-197l-151 1513h155l129 -1316l606 1316h144l119 -1316l616 1316h156z" />
<glyph unicode="X" horiz-adv-x="1247" d="M1169 0h-180l-305 647l-551 -647h-178l657 774l-348 739h178l289 -606l512 606h176l-622 -739z" />
<glyph unicode="Y" horiz-adv-x="1212" d="M1427 1513l-714 -1007l-95 -506h-151l94 506l-338 1007h168l273 -847l598 847h165z" />
<glyph unicode="Z" horiz-adv-x="983" d="M909 0h-936l25 137l975 1239h-721l24 137h891l-24 -137l-973 -1239h764z" />
<glyph unicode="[" horiz-adv-x="718" d="M561 -102l-29 -154q-163 50 -243 160.5t-80 271.5q0 52 20 160l113 610q32 207 172.5 361t345.5 206l-29 -153q-157 -60 -236 -159.5t-116 -282.5l-102 -556q-21 -111 -21 -180q0 -194 205 -284z" />
<glyph unicode="\" horiz-adv-x="1239" d="M889 0h-146l-352 1513h148z" />
<glyph unicode="]" horiz-adv-x="718" d="M487 313q-40 -217 -174.5 -364.5t-345.5 -204.5l29 154q154 55 236.5 160t115.5 282l103 557q20 106 20 180q0 95 -52.5 168t-152.5 115l29 153q149 -44 236 -153t87 -252q0 -87 -18 -186z" />
<glyph unicode="^" horiz-adv-x="1241" d="M1210 369h-166l-233 977l-598 -977h-170l711 1144h172z" />
<glyph unicode="_" horiz-adv-x="1024" d="M938 -137l-23 -119h-1024l23 119h1024z" />
<glyph unicode="`" horiz-adv-x="768" d="M725 1331l-92 -114l-352 233l94 119z" />
<glyph unicode="a" horiz-adv-x="1398" d="M1208 0h-151l37 197q-125 -126 -228 -175t-245 -49q-226 0 -364 129t-138 340q0 186 97 349t260.5 259.5t350.5 96.5q142 0 240 -52t160 -173l37 198h151zM1169 653q0 154 -101 254.5t-255 100.5q-105 0 -204 -43.5t-172 -115t-117 -168.5t-44 -200q0 -164 104 -266 t271 -102q133 0 253.5 75.5t192.5 200.5t72 264z" />
<glyph unicode="b" horiz-adv-x="1396" d="M1364 676q0 -139 -58 -269t-154.5 -225t-228 -152t-272.5 -57q-136 0 -239.5 57.5t-157.5 162.5l-35 -193h-151l280 1513h152l-109 -585q88 104 213.5 161.5t265.5 57.5q215 0 354.5 -133t139.5 -338zM1206 651q0 160 -100 258.5t-264 98.5q-139 0 -264.5 -75.5 t-200 -196.5t-74.5 -251q0 -161 104.5 -266.5t266.5 -105.5q139 0 262 74t196.5 198.5t73.5 265.5z" />
<glyph unicode="c" horiz-adv-x="1325" d="M1247 330q-144 -195 -290.5 -276t-323.5 -81q-229 0 -371.5 133t-142.5 349q0 134 59.5 261.5t157 221.5t230 151.5t270.5 57.5q192 0 324 -98.5t169 -268.5h-170q-41 108 -132.5 168t-215.5 60q-104 0 -202.5 -44t-171.5 -116t-117 -170t-44 -201q0 -160 105.5 -262 t269.5 -102q125 0 210.5 43.5t215.5 173.5h170z" />
<glyph unicode="d" horiz-adv-x="1402" d="M1493 1513l-281 -1513h-151l37 203q-109 -123 -218.5 -176.5t-254.5 -53.5q-220 0 -363 133.5t-143 337.5q0 138 58.5 267.5t155.5 225t229.5 153t273.5 57.5q260 0 399 -205l106 571h152zM1180 651q0 154 -107.5 255.5t-269.5 101.5q-134 0 -256.5 -73.5t-196.5 -195.5 t-74 -256q0 -166 105 -268t274 -102q132 0 254 75.5t196.5 200.5t74.5 262z" />
<glyph unicode="e" horiz-adv-x="1331" d="M1282 510h-1014q-4 -50 -4 -57q0 -142 106.5 -241t260.5 -99q126 0 249 72t189 184h158q-98 -181 -267.5 -288.5t-355.5 -107.5q-209 0 -347 136t-138 342q0 181 96.5 342t257.5 257.5t342 96.5q214 0 349.5 -130.5t135.5 -336.5q0 -65 -18 -170zM1157 647 q-8 166 -107 263.5t-262 97.5q-160 0 -296.5 -101.5t-192.5 -259.5h858z" />
<glyph unicode="f" horiz-adv-x="643" d="M829 1376h-30q-131 0 -200.5 -60.5t-94.5 -195.5h276l-24 -137h-277l-182 -983h-152l183 983h-174l24 137h174q41 202 165.5 297.5t301.5 95.5h35z" />
<glyph unicode="g" horiz-adv-x="1378" d="M1395 1120l-172 -919q-34 -179 -72 -270.5t-113 -170.5q-91 -97 -218.5 -148.5t-276.5 -51.5q-203 0 -324.5 95.5t-157.5 309.5h148q68 -159 143 -212.5t219 -53.5q198 0 324.5 115t167.5 338l14 75q-167 -254 -473 -254q-214 0 -350.5 133.5t-136.5 342.5q0 135 58 264 t153 224t222.5 152.5t260.5 57.5q137 0 224 -46t171 -179l37 198h152zM1151 666q0 148 -103 245t-260 97q-127 0 -245.5 -70t-193.5 -192.5t-75 -262.5q0 -160 92.5 -265t262.5 -105q133 0 253.5 74.5t194.5 203t74 275.5z" />
<glyph unicode="h" horiz-adv-x="1249" d="M1055 0h-152l111 602q14 91 14 148q0 114 -80 186t-205 72q-156 0 -264.5 -101.5t-144.5 -292.5l-115 -614h-151l280 1513h152l-101 -538q75 83 172.5 127.5t206.5 44.5q193 0 300.5 -99t107.5 -278q0 -49 -21 -168z" />
<glyph unicode="i" horiz-adv-x="409" d="M219 0h-151l206 1120h152zM451 1243h-152l47 258h152z" />
<glyph unicode="j" horiz-adv-x="415" d="M242 78q-71 -450 -469 -471l26 145q130 7 193.5 79t97.5 247l193 1042h151zM459 1243h-152l47 258h152z" />
<glyph unicode="k" horiz-adv-x="1028" d="M956 0h-188l-289 449l-217 -218l-43 -231h-151l280 1513h152l-199 -1073l647 680h187l-541 -563z" />
<glyph unicode="l" horiz-adv-x="409" d="M500 1513l-281 -1513h-151l280 1513h152z" />
<glyph unicode="m" horiz-adv-x="1921" d="M1726 0h-151l121 649q12 74 12 127q0 107 -65 169.5t-177 62.5q-141 0 -239.5 -89t-132.5 -270l-121 -649h-152l121 653q12 64 12 109q0 122 -69 184t-178 62q-139 0 -237.5 -95.5t-129.5 -259.5l-121 -653h-151l206 1120h152l-23 -129q95 95 165.5 125.5t174.5 30.5 q127 0 211 -55.5t115 -159.5q100 116 199 165.5t229 49.5q166 0 267.5 -89t101.5 -235q0 -57 -17 -157z" />
<glyph unicode="n" horiz-adv-x="1249" d="M1055 0h-152l109 588q16 91 16 151q0 123 -77.5 196t-207.5 73q-157 0 -264.5 -96.5t-144.5 -295.5l-115 -616h-151l206 1120h152l-27 -145q178 172 385 172q184 0 293 -101t109 -270q0 -65 -23 -188z" />
<glyph unicode="o" horiz-adv-x="1341" d="M1309 680q0 -141 -58 -273t-153 -226.5t-220.5 -151t-256.5 -56.5q-223 0 -363.5 130t-140.5 337q0 142 59 274t156.5 226t228 150.5t268.5 56.5q214 0 347 -129t133 -338zM1151 666q0 149 -98.5 245.5t-249.5 96.5q-141 0 -263 -73.5t-194 -198.5t-72 -269 q0 -158 101.5 -256t265.5 -98q140 0 257.5 73.5t185 200.5t67.5 279z" />
<glyph unicode="p" horiz-adv-x="1396" d="M1362 666q0 -133 -59 -260.5t-155 -222t-226.5 -152.5t-266.5 -58q-286 0 -401 220l-109 -586h-151l280 1513h152l-35 -192q76 101 205 160t274 59q221 0 356.5 -132.5t135.5 -348.5zM1204 649q0 157 -103 258t-263 101q-96 0 -192 -40.5t-172.5 -110.5t-124.5 -173.5 t-48 -218.5q0 -151 104 -251.5t261 -100.5q99 0 196 41t172.5 111t122.5 171t47 213z" />
<glyph unicode="q" horiz-adv-x="1396" d="M1413 1120l-280 -1513h-152l109 586q-91 -106 -216.5 -163t-269.5 -57q-212 0 -349.5 133t-137.5 338q0 138 58 267.5t153.5 225t225.5 153t269 57.5q146 0 248.5 -56t155.5 -163l35 192h151zM1178 651q0 154 -106 255.5t-267 101.5q-139 0 -262 -74.5t-196 -199 t-73 -265.5q0 -155 102 -255.5t259 -100.5q105 0 204.5 43t174 115t119.5 172t45 208z" />
<glyph unicode="r" horiz-adv-x="616" d="M750 1147l-29 -150q-323 -35 -381 -344l-121 -653h-151l206 1120h152l-29 -159q62 93 143 136t210 50z" />
<glyph unicode="s" horiz-adv-x="794" d="M741 387q0 -113 -58.5 -209t-153.5 -150.5t-203 -54.5q-134 0 -216.5 78t-82.5 189q0 41 6 90h149q0 -126 41.5 -171.5t128.5 -45.5q94 0 163 68.5t69 160.5q0 64 -33.5 97t-147.5 83q-92 40 -127.5 60.5t-58.5 48.5q-23 26 -38 67.5t-15 79.5q0 97 54.5 183t143.5 136 t187 50q112 0 186 -69t74 -173q0 -38 -2 -61h-154q0 85 -32 124.5t-101 39.5q-76 0 -137 -58.5t-61 -130.5q0 -79 77 -121q47 -24 195 -90q77 -35 112 -88.5t35 -132.5z" />
<glyph unicode="t" horiz-adv-x="694" d="M791 983h-265l-182 -983h-151l182 983h-230l25 137h229l74 393h152l-74 -393h264z" />
<glyph unicode="u" horiz-adv-x="1245" d="M1262 1120l-209 -1120h-152l33 174q-82 -107 -175.5 -154t-226.5 -47q-178 0 -284.5 93.5t-106.5 250.5q0 91 19 199l112 604h152l-113 -604q-12 -54 -12 -137q0 -127 69 -196.5t205 -69.5q158 0 272 103.5t156 328.5l109 575h152z" />
<glyph unicode="v" d="M1264 1120l-678 -1120h-160l-264 1120h153l220 -942l575 942h154z" />
<glyph unicode="w" horiz-adv-x="1701" d="M1833 1120l-641 -1120h-162l-106 743l-379 -743h-164l-221 1120h151l183 -938l413 801h125l115 -801l539 938h147z" />
<glyph unicode="x" horiz-adv-x="983" d="M905 0h-174l-217 449l-387 -449h-172l496 571l-289 549h172l223 -432l381 432h174l-491 -549z" />
<glyph unicode="y" horiz-adv-x="1097" d="M1225 1120l-928 -1513h-160l260 430l-233 1083h166l188 -893l545 893h162z" />
<glyph unicode="z" horiz-adv-x="870" d="M788 0h-829l25 137l776 846h-598l24 137h770l-22 -129l-772 -854h651z" />
<glyph unicode="{" horiz-adv-x="718" d="M774 1513l-26 -137q-101 -7 -130 -30.5t-51 -114.5l-65 -348q-25 -119 -70 -169t-160 -87q83 -28 113.5 -64.5t30.5 -109.5l-6 -78l-66 -348q-6 -30 -6 -64q0 -43 23 -59.5t90 -22.5l20 -2l-27 -137q-92 3 -128 8.5t-62 20.5q-76 46 -76 145q0 65 8 111l66 348l6 65 q0 58 -23.5 80t-103.5 37l27 141q95 15 133 52.5t53 132.5l66 348q17 65 33 108t38.5 75.5t45.5 50t62.5 28.5t79 14.5t105.5 5.5z" />
<glyph unicode="|" horiz-adv-x="1376" d="M811 -256h-152v1769h152v-1769z" />
<glyph unicode="}" horiz-adv-x="718" d="M606 698l-26 -141q-55 -10 -81 -18t-48 -29t-32.5 -49t-25.5 -86l-63 -348q-30 -165 -108 -225t-255 -60l25 137q101 7 128.5 29.5t53.5 118.5l64 348q17 106 68.5 163t158.5 89q-92 40 -117.5 70t-25.5 91q0 47 10 95l65 348q2 8 2 63q0 43 -20 58.5t-86 21.5l-23 2 l25 137q95 -3 129.5 -8t60.5 -20q43 -26 60.5 -62t17.5 -96q0 -31 -10 -96l-66 -348l-8 -84q0 -44 28 -65.5t99 -35.5z" />
<glyph unicode="~" horiz-adv-x="1241" d="M1206 702q-72 -104 -162.5 -166.5t-169.5 -62.5q-58 0 -178 53l-102 45q-96 41 -141 41q-63 0 -109 -34t-135 -148l-68 96q98 133 176 189.5t164 56.5q61 0 150 -39l123 -55q101 -48 153 -45q51 0 105 39t123 127z" />
<glyph unicode="&#xa1;" horiz-adv-x="604" d="M475 862h-151l47 258h151zM242 -393h-152l205 1110h151z" />
<glyph unicode="&#xa2;" d="M1157 948h-168q-3 4 -5.5 9.5t-4 10t-2.5 5.5q-70 147 -252 147q-158 0 -277.5 -119.5t-119.5 -277.5q0 -125 75.5 -202t198.5 -77q169 0 313 150h164q-58 -110 -172 -188t-243 -97l-33 -182h-137l32 182q-158 13 -257 119.5t-99 263.5q0 133 65.5 254.5t188.5 206 t278 104.5l35 191h137l-34 -191q131 -22 213 -102t104 -207z" />
<glyph unicode="&#xa3;" d="M1235 549q0 -257 -162 -403t-432 -146h-584l25 137h283q62 57 98.5 142t36.5 172q0 62 -32.5 121t-109.5 139h-254l27 137h156q-25 85 -25 137q0 113 51 217.5t133.5 177.5t188.5 116.5t213 43.5q190 0 311 -110t121 -265q0 -7 -4 -57h-143q0 132 -84.5 212.5 t-225.5 80.5q-109 0 -202 -57.5t-147 -155.5t-54 -213q0 -50 31 -127h579l-26 -137h-443q53 -71 74.5 -130t21.5 -132q0 -76 -26 -148t-88 -164h116q210 0 319 111t109 301h148z" />
<glyph unicode="&#xa4;" d="M1147 721q0 -114 -44 -225t-118 -183l70 -86l-131 -108l-68 86q-101 -57 -174 -80t-160 -23q-86 0 -149 23t-135 80l-105 -86l-90 108l104 86q-47 79 -47 199q0 119 37.5 216.5t122.5 197.5l-72 88l131 110l72 -86q111 57 177 77t147 20q177 0 291 -97l104 86l88 -110 l-100 -88q28 -63 38.5 -107t10.5 -98zM999 696q0 138 -86 213.5t-215 75.5q-91 0 -174.5 -36.5t-143.5 -96.5t-96 -138.5t-36 -160.5q0 -137 84 -219t225 -82q117 0 219 60.5t162.5 163t60.5 220.5z" />
<glyph unicode="&#xa5;" d="M1425 1513l-399 -565h209l-27 -137h-282l-135 -188h368l-24 -138h-420l-90 -485h-152l90 485h-426l25 138h373l-66 188h-287l27 137h213l-199 565h156l297 -843l594 843h155z" />
<glyph unicode="&#xa6;" horiz-adv-x="1376" d="M811 805h-152v708h152v-708zM811 -256h-152v709h152v-709z" />
<glyph unicode="&#xa7;" horiz-adv-x="1259" d="M1133 645q0 -93 -48.5 -177t-164.5 -169q63 -78 63 -156q0 -95 -40.5 -177.5t-106 -137.5t-147.5 -86t-165 -31q-156 0 -254 97.5t-98 236.5q0 33 6 86h139q-2 -18 -2 -51q0 -102 66.5 -166t173.5 -64q113 0 201 78.5t88 177.5q0 43 -41.5 88.5t-118.5 86.5l-266 143 q-97 53 -138.5 101.5t-41.5 109.5q0 108 64.5 208t176.5 163q-49 57 -49 143q0 77 34.5 149t92 125t135 85t160.5 32q127 0 217 -72.5t90 -175.5q0 -5 -4 -51h-145q-5 160 -191 160q-100 0 -173 -66t-73 -157q0 -95 93 -144l292 -151q175 -90 175 -238zM985 614 q0 86 -92 134l-350 182q-67 -43 -112.5 -114t-45.5 -134q0 -29 23.5 -61t60.5 -52l371 -196q68 44 106.5 108t38.5 133z" />
<glyph unicode="&#xa8;" horiz-adv-x="755" d="M469 1243h-152l48 258h151zM770 1243h-152l48 258h151z" />
<glyph unicode="&#xa9;" horiz-adv-x="1529" d="M1538 698q0 -196 -97.5 -362.5t-264.5 -263.5t-363 -97t-362.5 97t-263.5 263.5t-97 362.5t97 363t263.5 264.5t362.5 97.5t363 -97.5t264.5 -264.5t97.5 -363zM1462 698q0 132 -51.5 252.5t-138.5 207.5t-207 138.5t-252 51.5t-252 -51.5t-206.5 -139t-137.5 -207.5 t-51 -252q0 -176 86.5 -325t235.5 -235.5t325 -86.5t325.5 86.5t236.5 235.5t87 325zM1290 881h-125q-40 81 -108 116t-168 35q-113 0 -214 -54t-161.5 -146t-58.5 -195q1 -119 90 -195.5t223 -76.5q186 0 336 153h127q-79 -123 -206 -191.5t-275 -68.5q-182 0 -297.5 97 t-118.5 251q-2 141 75 264t210 196t288 73q151 0 258.5 -72t124.5 -186z" />
<glyph unicode="&#xaa;" horiz-adv-x="755" d="M915 1513l-110 -595h-98l16 92q-101 -107 -234 -107q-107 0 -180 76t-73 186q0 140 117.5 250.5t267.5 110.5q109 0 180 -105l16 92h98zM758 1249q0 74 -46.5 125t-115.5 51q-97 0 -174.5 -76t-77.5 -171q0 -71 49.5 -122.5t118.5 -51.5q90 0 168 77.5t78 167.5zM776 653 h-651l18 107h652z" />
<glyph unicode="&#xab;" horiz-adv-x="870" d="M422 270l-133 -67l-154 411l305 408l109 -66l-254 -342zM778 270l-133 -67l-153 411l305 408l108 -66l-254 -342z" />
<glyph unicode="&#xac;" horiz-adv-x="1241" d="M1159 776v-452h-151v301h-832v151h983z" />
<glyph unicode="&#xad;" horiz-adv-x="679" d="M684 606l-25 -129h-557l25 129h557z" />
<glyph unicode="&#xae;" horiz-adv-x="1529" d="M1538 698q0 -196 -97.5 -362.5t-264.5 -263.5t-363 -97t-362.5 97t-263.5 263.5t-97 362.5t97 363t263.5 264.5t362.5 97.5t363 -97.5t264.5 -264.5t97.5 -363zM1462 698q0 132 -51.5 252.5t-138.5 207.5t-207 138.5t-252 51.5t-252 -51.5t-206.5 -139t-137.5 -207.5 t-51 -252q0 -176 86.5 -325t235.5 -235.5t325 -86.5t325.5 86.5t236.5 235.5t87 325zM1188 905q2 -126 -81.5 -215t-221.5 -108l198 -310h-149l-254 404q117 -2 172.5 3.5t97.5 22.5q53 20 85.5 71.5t31.5 111.5q-1 74 -60 103.5t-198 29.5h-115l-137 -746h-117l158 852h238 q189 0 269 -53t83 -166z" />
<glyph unicode="&#xaf;" horiz-adv-x="993" d="M1047 1436l-25 -127h-690l24 127h691z" />
<glyph unicode="&#xb0;" horiz-adv-x="819" d="M885 1087q0 -128 -92 -217.5t-222 -89.5q-129 0 -220 90.5t-91 219.5q0 127 93 216t225 89q126 0 216.5 -91t90.5 -217zM768 1087q0 77 -57.5 134t-135.5 57q-83 0 -140.5 -55t-57.5 -133q0 -79 57 -136t137 -57q82 0 139.5 56t57.5 134z" />
<glyph unicode="&#xb1;" horiz-adv-x="1241" d="M1159 588h-416v-299h-151v299h-416v151h416v416h151v-416h416v-151zM1159 0h-983v152h983v-152z" />
<glyph unicode="&#xb2;" horiz-adv-x="679" d="M702 608h-626l18 101l391 299q110 85 154.5 127t58 72t13.5 81q0 60 -46 97.5t-120 37.5q-193 0 -234 -219h-116q23 151 123.5 238.5t250.5 87.5q117 0 188.5 -64t71.5 -168q0 -88 -51.5 -161.5t-183.5 -173.5l-330 -248h457z" />
<glyph unicode="&#xb3;" horiz-adv-x="679" d="M764 934q0 -134 -112.5 -238t-258.5 -104q-120 0 -194 65t-74 166q0 37 6 84h117l-2 -71q-2 -56 47.5 -97t116.5 -41q92 0 163.5 64t71.5 147q0 84 -57 123t-170 39h-19l21 103h49q85 0 139 40.5t54 104.5q0 49 -30.5 76.5t-84.5 27.5q-69 0 -112.5 -39t-55.5 -114h-117 q17 114 102 187t199 73q99 0 158 -52.5t59 -140.5q0 -66 -35.5 -123t-95.5 -88q115 -59 115 -192z" />
<glyph unicode="&#xb4;" horiz-adv-x="768" d="M901 1450l-438 -233l-49 114l438 238z" />
<glyph unicode="&#xb5;" horiz-adv-x="1245" d="M1262 1120l-209 -1120h-152l33 174q-69 -108 -148 -154.5t-194 -46.5q-118 0 -200 53.5t-138 166.5l-109 -586h-151l280 1513h152l-107 -575q-14 -79 -14 -139q0 -293 305 -293q73 0 130.5 20.5t109.5 68t90 133.5t61 210l109 575h152z" />
<glyph unicode="&#xb6;" horiz-adv-x="1155" d="M895 -272h-152l306 1648h-238l-305 -1648h-152l185 999q-154 15 -239 98t-85 219q0 95 36 179t102.5 149t169.5 103t229 38h473z" />
<glyph unicode="&#xb7;" horiz-adv-x="567" d="M461 512q0 -54 -38 -91.5t-91 -37.5q-54 0 -91.5 37.5t-37.5 91.5t37.5 91.5t91.5 37.5q53 0 91 -37.5t38 -91.5z" />
<glyph unicode="&#xb8;" horiz-adv-x="663" d="M475 -281q-18 -98 -93.5 -165.5t-178.5 -67.5q-74 0 -116 46.5t-48 127.5l111 12q5 -37 22 -52t55 -15q50 0 84.5 38t34.5 93q1 38 -21 60t-61 22q-59 0 -104 -39l-58 39l113 192h80l-55 -108q44 10 69 10q75 0 122.5 -42t47.5 -112q0 -15 -4 -39z" />
<glyph unicode="&#xb9;" horiz-adv-x="679" d="M530 608h-118l147 799h-156l19 106h274z" />
<glyph unicode="&#xba;" horiz-adv-x="755" d="M860 1268q0 -141 -116 -252t-265 -111q-107 0 -179.5 73.5t-72.5 182.5q0 143 115 254t264 111q109 0 181.5 -74t72.5 -184zM752 1264q0 66 -48.5 113.5t-115.5 47.5q-103 0 -177.5 -75.5t-74.5 -178.5q0 -72 48 -118.5t120 -46.5q100 0 174 77t74 181zM752 653h-625 l18 107h625z" />
<glyph unicode="&#xbb;" horiz-adv-x="870" d="M485 614l-305 -411l-108 67l254 344l-127 342l133 66zM842 614l-305 -411l-109 67l254 344l-127 342l133 66z" />
<glyph unicode="&#xbc;" horiz-adv-x="1701" d="M1610 162h-86l-31 -162h-119l31 162h-475l18 98l584 645h129l-119 -637h86zM1511 733l-417 -465h329zM1475 1513l-981 -1513h-111l981 1513h111zM545 608h-119l147 799h-155l18 106h275z" />
<glyph unicode="&#xbd;" horiz-adv-x="1701" d="M1454 1513l-981 -1513h-111l981 1513h111zM524 608h-118l147 799h-156l19 106h274zM1602 0h-627l18 100l391 299q110 84 154.5 126.5t58 73t13.5 81.5q0 60 -46 97.5t-120 37.5q-193 0 -234 -219h-116q23 151 123.5 238.5t250.5 87.5q117 0 189 -64t72 -168 q0 -88 -52 -162t-184 -174l-330 -248h457z" />
<glyph unicode="&#xbe;" horiz-adv-x="1701" d="M1610 162h-86l-31 -162h-119l31 162h-475l18 98l584 645h129l-119 -637h86zM1511 733l-417 -465h329zM1495 1513l-981 -1513h-111l981 1513h111zM764 934q0 -134 -112.5 -238t-258.5 -104q-120 0 -194 65t-74 166q0 37 6 84h117l-2 -71q-2 -56 47.5 -97t116.5 -41 q92 0 163.5 64t71.5 147q0 84 -57 123t-170 39h-19l21 103h49q85 0 139 40.5t54 104.5q0 49 -30.5 76.5t-84.5 27.5q-69 0 -112.5 -39t-55.5 -114h-117q17 114 102 187t199 73q99 0 158 -52.5t59 -140.5q0 -66 -35.5 -123t-95.5 -88q115 -59 115 -192z" />
<glyph unicode="&#xbf;" horiz-adv-x="1210" d="M774 862h-151l47 258h151zM1030 80q-54 -241 -206.5 -370.5t-364.5 -129.5q-175 0 -281 98t-106 261q0 131 51.5 221.5t206.5 212.5q134 106 194.5 185.5t75.5 166.5h143q-18 -210 -284 -418q-85 -67 -117.5 -98t-56.5 -68q-56 -80 -56 -182q0 -107 71.5 -173.5 t186.5 -66.5q303 0 400 361h143z" />
<glyph unicode="&#xc0;" horiz-adv-x="1515" d="M1432 0h-166l-125 510h-705l-315 -510h-160l930 1513h170zM1108 647l-164 694l-424 -694h588zM1167 1704l-92 -115l-352 234l94 119z" />
<glyph unicode="&#xc1;" horiz-adv-x="1515" d="M1432 0h-166l-125 510h-705l-315 -510h-160l930 1513h170zM1108 647l-164 694l-424 -694h588zM1341 1823l-438 -234l-49 115l438 238z" />
<glyph unicode="&#xc2;" horiz-adv-x="1515" d="M1432 0h-166l-125 510h-705l-315 -510h-160l930 1513h170zM1108 647l-164 694l-424 -694h588zM1358 1616h-182l-148 151l-209 -151h-186l344 258h135z" />
<glyph unicode="&#xc3;" horiz-adv-x="1515" d="M1432 0h-166l-125 510h-705l-315 -510h-160l930 1513h170zM1108 647l-164 694l-424 -694h588zM1307 1755q-81 -113 -189 -113q-54 0 -196 68q-13 8 -35 8q-18 0 -37 -10.5t-82 -56.5l-47 92q47 49 95 76.5t87 27.5q28 0 112.5 -37.5t102.5 -37.5q75 0 146 77z" />
<glyph unicode="&#xc4;" horiz-adv-x="1515" d="M1432 0h-166l-125 510h-705l-315 -510h-160l930 1513h170zM1108 647l-164 694l-424 -694h588zM918 1616h-152l47 258h152zM1219 1616h-152l47 258h152z" />
<glyph unicode="&#xc5;" horiz-adv-x="1515" d="M1432 0h-166l-125 510h-705l-315 -510h-160l930 1513h170zM1108 647l-164 694l-424 -694h588zM1233 1800q0 -89 -77.5 -162t-172.5 -73q-74 0 -123 45.5t-49 115.5q0 101 73 176.5t173 75.5q79 0 127.5 -49t48.5 -129zM1147 1790q0 40 -31 69t-74 29q-56 0 -100.5 -42.5 t-44.5 -96.5q0 -40 29 -67t73 -27q54 0 101 43t47 92z" />
<glyph unicode="&#xc6;" horiz-adv-x="2031" d="M2111 1376h-653l-102 -542h631l-25 -138h-631l-104 -559h653l-25 -137h-804l94 512h-555l-449 -512h-180l1327 1513h848zM1171 649l123 670l-581 -670h458z" />
<glyph unicode="&#xc7;" horiz-adv-x="1665" d="M1591 397q-135 -200 -335 -311.5t-427 -112.5l-36 -71q44 10 69 10q75 0 122.5 -42t47.5 -112q0 -15 -4 -39q-18 -98 -93.5 -165.5t-178.5 -67.5q-74 0 -116 46.5t-48 127.5l110 12q4 -37 22 -52t56 -15q50 0 84.5 38t34.5 93q1 38 -21 60t-61 22q-59 0 -104 -39l-58 39 l93 159q-266 22 -429 191.5t-163 425.5q0 126 35 247.5t97 225.5t150.5 192t192 150t225.5 96.5t248 34.5q234 0 404 -116.5t210 -303.5h-168q-66 149 -183 215t-284 66q-148 0 -289 -63t-246.5 -166.5t-170 -245t-64.5 -291.5q0 -227 151.5 -374.5t383.5 -147.5 q316 0 575 284h168z" />
<glyph unicode="&#xc8;" horiz-adv-x="1097" d="M1178 1376h-676l-103 -542h654l-25 -138h-653l-105 -559h676l-24 -137h-828l281 1513h827zM979 1704l-92 -115l-352 234l94 119z" />
<glyph unicode="&#xc9;" horiz-adv-x="1097" d="M1178 1376h-676l-103 -542h654l-25 -138h-653l-105 -559h676l-24 -137h-828l281 1513h827zM1155 1823l-438 -234l-49 115l438 238z" />
<glyph unicode="&#xca;" horiz-adv-x="1097" d="M1178 1376h-676l-103 -542h654l-25 -138h-653l-105 -559h676l-24 -137h-828l281 1513h827zM1171 1616h-182l-147 151l-209 -151h-187l345 258h135z" />
<glyph unicode="&#xcb;" horiz-adv-x="1097" d="M1178 1376h-676l-103 -542h654l-25 -138h-653l-105 -559h676l-24 -137h-828l281 1513h827zM729 1616h-151l47 258h151zM1030 1616h-151l47 258h151z" />
<glyph unicode="&#xcc;" horiz-adv-x="462" d="M526 1513l-280 -1513h-152l281 1513h151zM633 1704l-92 -115l-353 234l95 119z" />
<glyph unicode="&#xcd;" horiz-adv-x="462" d="M526 1513l-280 -1513h-152l281 1513h151zM825 1823l-438 -234l-49 115l438 238z" />
<glyph unicode="&#xce;" horiz-adv-x="462" d="M526 1513l-280 -1513h-152l281 1513h151zM834 1616h-183l-147 151l-209 -151h-186l344 258h135z" />
<glyph unicode="&#xcf;" horiz-adv-x="462" d="M526 1513l-280 -1513h-152l281 1513h151zM391 1616h-151l47 258h151zM692 1616h-151l47 258h151z" />
<glyph unicode="&#xd0;" horiz-adv-x="1617" d="M1618 924q0 -215 -87 -399t-251 -316q-138 -111 -298.5 -160t-385.5 -49h-408l131 711h-190l25 137h190l125 665h356q205 0 332 -27t219 -91q242 -169 242 -471zM1460 891q0 116 -34 202.5t-108.5 151.5t-202.5 98t-308 33h-211l-100 -528h422l-25 -137h-422l-104 -574 h211q234 0 382 46t265 155q108 101 171.5 250.5t63.5 302.5z" />
<glyph unicode="&#xd1;" horiz-adv-x="1515" d="M1579 1513l-281 -1513h-151l-655 1331l-246 -1331h-152l281 1513h205l614 -1255l233 1255h152zM1307 1755q-81 -113 -189 -113q-54 0 -196 68q-13 8 -35 8q-18 0 -37 -10.5t-82 -56.5l-47 92q47 49 95 76.5t87 27.5q28 0 112.5 -37.5t102.5 -37.5q75 0 146 77z" />
<glyph unicode="&#xd2;" horiz-adv-x="1779" d="M1782 893q0 -175 -81 -344.5t-213.5 -295t-310.5 -203t-362 -77.5q-182 0 -332.5 82.5t-238.5 231t-88 331.5q0 176 81 345.5t213 295.5t310 203.5t362 77.5q132 0 252.5 -48t210.5 -132t143.5 -206t53.5 -261zM1624 864q0 233 -152 385t-387 152q-143 0 -285 -64.5 t-248.5 -168.5t-172.5 -242.5t-66 -278.5q0 -224 153 -379t374 -155q149 0 293.5 63t251.5 166t173 241t66 281zM1309 1704l-92 -115l-353 234l94 119z" />
<glyph unicode="&#xd3;" horiz-adv-x="1779" d="M1782 893q0 -175 -81 -344.5t-213.5 -295t-310.5 -203t-362 -77.5q-182 0 -332.5 82.5t-238.5 231t-88 331.5q0 176 81 345.5t213 295.5t310 203.5t362 77.5q132 0 252.5 -48t210.5 -132t143.5 -206t53.5 -261zM1624 864q0 233 -152 385t-387 152q-143 0 -285 -64.5 t-248.5 -168.5t-172.5 -242.5t-66 -278.5q0 -224 153 -379t374 -155q149 0 293.5 63t251.5 166t173 241t66 281zM1483 1823l-439 -234l-49 115l439 238z" />
<glyph unicode="&#xd4;" horiz-adv-x="1779" d="M1782 893q0 -175 -81 -344.5t-213.5 -295t-310.5 -203t-362 -77.5q-182 0 -332.5 82.5t-238.5 231t-88 331.5q0 176 81 345.5t213 295.5t310 203.5t362 77.5q132 0 252.5 -48t210.5 -132t143.5 -206t53.5 -261zM1624 864q0 233 -152 385t-387 152q-143 0 -285 -64.5 t-248.5 -168.5t-172.5 -242.5t-66 -278.5q0 -224 153 -379t374 -155q149 0 293.5 63t251.5 166t173 241t66 281zM1499 1616h-182l-148 151l-208 -151h-187l344 258h135z" />
<glyph unicode="&#xd5;" horiz-adv-x="1779" d="M1782 893q0 -175 -81 -344.5t-213.5 -295t-310.5 -203t-362 -77.5q-182 0 -332.5 82.5t-238.5 231t-88 331.5q0 176 81 345.5t213 295.5t310 203.5t362 77.5q132 0 252.5 -48t210.5 -132t143.5 -206t53.5 -261zM1624 864q0 233 -152 385t-387 152q-143 0 -285 -64.5 t-248.5 -168.5t-172.5 -242.5t-66 -278.5q0 -224 153 -379t374 -155q149 0 293.5 63t251.5 166t173 241t66 281zM1448 1755q-81 -113 -188 -113q-55 0 -197 68q-13 8 -35 8q-18 0 -37 -10.5t-82 -56.5l-47 92q47 49 95 76.5t87 27.5q28 0 113 -37.5t103 -37.5q74 0 145 77z " />
<glyph unicode="&#xd6;" horiz-adv-x="1779" d="M1782 893q0 -175 -81 -344.5t-213.5 -295t-310.5 -203t-362 -77.5q-182 0 -332.5 82.5t-238.5 231t-88 331.5q0 176 81 345.5t213 295.5t310 203.5t362 77.5q132 0 252.5 -48t210.5 -132t143.5 -206t53.5 -261zM1624 864q0 233 -152 385t-387 152q-143 0 -285 -64.5 t-248.5 -168.5t-172.5 -242.5t-66 -278.5q0 -224 153 -379t374 -155q149 0 293.5 63t251.5 166t173 241t66 281zM1059 1616h-152l47 258h152zM1360 1616h-152l47 258h152z" />
<glyph unicode="&#xd7;" horiz-adv-x="1241" d="M1069 217l-106 -106l-295 295l-295 -295l-107 106l295 295l-295 295l107 106l295 -295l295 295l106 -106l-295 -295z" />
<glyph unicode="&#xd8;" horiz-adv-x="1777" d="M1776 905q0 -177 -81 -348.5t-212.5 -299t-307 -206t-354.5 -78.5q-104 0 -213 31t-182 82l-242 -256l-98 84l240 254q-176 173 -176 434q0 123 36.5 243t100.5 222.5t153.5 190.5t193 150t222.5 97t238 35q238 0 407 -115l240 256l92 -88l-234 -250q177 -174 177 -438z M1397 1313q-60 41 -146 64.5t-178 23.5q-149 0 -291.5 -67t-245.5 -174.5t-166 -247t-63 -279.5q0 -114 25 -183.5t100 -166.5zM1618 872q0 108 -22.5 175.5t-88.5 160.5l-14 21l-963 -1030q87 -49 154 -67.5t156 -18.5q144 0 286 61.5t250 163t175 243t67 291.5z" />
<glyph unicode="&#xd9;" horiz-adv-x="1341" d="M1231 569q-55 -297 -220 -446.5t-405 -149.5q-188 0 -306 106t-118 275q0 84 23 215l174 944h151l-174 -944q-18 -99 -18 -184q0 -122 81.5 -197t213.5 -75q172 0 287.5 112.5t158.5 343.5l174 944h152zM1083 1704l-92 -115l-352 234l94 119z" />
<glyph unicode="&#xda;" horiz-adv-x="1341" d="M1231 569q-55 -297 -220 -446.5t-405 -149.5q-188 0 -306 106t-118 275q0 84 23 215l174 944h151l-174 -944q-18 -99 -18 -184q0 -122 81.5 -197t213.5 -75q172 0 287.5 112.5t158.5 343.5l174 944h152zM1257 1823l-438 -234l-49 115l438 238z" />
<glyph unicode="&#xdb;" horiz-adv-x="1341" d="M1231 569q-55 -297 -220 -446.5t-405 -149.5q-188 0 -306 106t-118 275q0 84 23 215l174 944h151l-174 -944q-18 -99 -18 -184q0 -122 81.5 -197t213.5 -75q172 0 287.5 112.5t158.5 343.5l174 944h152zM1274 1616h-182l-148 151l-209 -151h-186l344 258h135z" />
<glyph unicode="&#xdc;" horiz-adv-x="1341" d="M1231 569q-55 -297 -220 -446.5t-405 -149.5q-188 0 -306 106t-118 275q0 84 23 215l174 944h151l-174 -944q-18 -99 -18 -184q0 -122 81.5 -197t213.5 -75q172 0 287.5 112.5t158.5 343.5l174 944h152zM834 1616h-152l47 258h152zM1135 1616h-152l47 258h152z" />
<glyph unicode="&#xdd;" horiz-adv-x="1212" d="M1427 1513l-714 -1007l-95 -506h-151l94 506l-338 1007h168l273 -847l598 847h165zM1190 1823l-438 -234l-50 115l439 238z" />
<glyph unicode="&#xde;" horiz-adv-x="1212" d="M1243 870q0 -117 -42.5 -226.5t-117.5 -184.5q-80 -80 -192.5 -114t-298.5 -34h-289l-57 -311h-152l281 1513h151l-55 -301h266q267 0 386.5 -80.5t119.5 -261.5zM1085 842q0 130 -96 188q-72 45 -330 45h-215l-116 -626h280q147 0 232 24.5t141 83.5q47 51 75.5 129 t28.5 156z" />
<glyph unicode="&#xdf;" d="M1096 502q0 -141 -69 -263t-185.5 -194t-251.5 -72q-133 0 -216 60t-122 190l-41 -223h-152l183 985q55 286 184 420.5t338 134.5q157 0 255.5 -93.5t98.5 -242.5q0 -271 -235 -407q213 -74 213 -295zM938 471q0 109 -85.5 170t-238.5 61q-43 0 -88 -4l27 138h31 q162 0 269.5 100t107.5 240q0 101 -61.5 163t-162.5 62q-139 0 -221.5 -99.5t-122.5 -316.5l-104 -569h104q-8 -41 -8 -64q0 -106 62.5 -172.5t162.5 -66.5q131 0 229.5 108t98.5 250z" />
<glyph unicode="&#xe0;" horiz-adv-x="1398" d="M1208 0h-151l37 197q-125 -126 -228 -175t-245 -49q-226 0 -364 129t-138 340q0 186 97 349t260.5 259.5t350.5 96.5q142 0 240 -52t160 -173l37 198h151zM1169 653q0 154 -101 254.5t-255 100.5q-105 0 -204 -43.5t-172 -115t-117 -168.5t-44 -200q0 -164 104 -266 t271 -102q133 0 253.5 75.5t192.5 200.5t72 264zM1018 1331l-92 -114l-353 233l95 119z" />
<glyph unicode="&#xe1;" horiz-adv-x="1398" d="M1208 0h-151l37 197q-125 -126 -228 -175t-245 -49q-226 0 -364 129t-138 340q0 186 97 349t260.5 259.5t350.5 96.5q142 0 240 -52t160 -173l37 198h151zM1169 653q0 154 -101 254.5t-255 100.5q-105 0 -204 -43.5t-172 -115t-117 -168.5t-44 -200q0 -164 104 -266 t271 -102q133 0 253.5 75.5t192.5 200.5t72 264zM1192 1450l-438 -233l-49 114l438 238z" />
<glyph unicode="&#xe2;" horiz-adv-x="1398" d="M1208 0h-151l37 197q-125 -126 -228 -175t-245 -49q-226 0 -364 129t-138 340q0 186 97 349t260.5 259.5t350.5 96.5q142 0 240 -52t160 -173l37 198h151zM1169 653q0 154 -101 254.5t-255 100.5q-105 0 -204 -43.5t-172 -115t-117 -168.5t-44 -200q0 -164 104 -266 t271 -102q133 0 253.5 75.5t192.5 200.5t72 264zM1206 1243h-182l-147 152l-209 -152h-187l344 258h136z" />
<glyph unicode="&#xe3;" horiz-adv-x="1398" d="M1208 0h-151l37 197q-125 -126 -228 -175t-245 -49q-226 0 -364 129t-138 340q0 186 97 349t260.5 259.5t350.5 96.5q142 0 240 -52t160 -173l37 198h151zM1169 653q0 154 -101 254.5t-255 100.5q-105 0 -204 -43.5t-172 -115t-117 -168.5t-44 -200q0 -164 104 -266 t271 -102q133 0 253.5 75.5t192.5 200.5t72 264zM1153 1382q-80 -112 -188 -112q-57 0 -197 67q-15 9 -35 9q-18 0 -36 -10.5t-83 -57.5l-47 92q47 49 96 77t87 28q28 0 112.5 -38t102.5 -38q73 0 145 78z" />
<glyph unicode="&#xe4;" horiz-adv-x="1398" d="M1208 0h-151l37 197q-125 -126 -228 -175t-245 -49q-226 0 -364 129t-138 340q0 186 97 349t260.5 259.5t350.5 96.5q142 0 240 -52t160 -173l37 198h151zM1169 653q0 154 -101 254.5t-255 100.5q-105 0 -204 -43.5t-172 -115t-117 -168.5t-44 -200q0 -164 104 -266 t271 -102q133 0 253.5 75.5t192.5 200.5t72 264zM766 1243h-152l48 258h151zM1067 1243h-152l48 258h151z" />
<glyph unicode="&#xe5;" horiz-adv-x="1398" d="M1208 0h-151l37 197q-125 -126 -228 -175t-245 -49q-226 0 -364 129t-138 340q0 186 97 349t260.5 259.5t350.5 96.5q142 0 240 -52t160 -173l37 198h151zM1169 653q0 154 -101 254.5t-255 100.5q-105 0 -204 -43.5t-172 -115t-117 -168.5t-44 -200q0 -164 104 -266 t271 -102q133 0 253.5 75.5t192.5 200.5t72 264zM1081 1421q0 -89 -77.5 -162t-172.5 -73q-74 0 -121.5 46t-47.5 116q0 101 72.5 176t172.5 75q78 0 126 -49t48 -129zM997 1411q0 40 -31 69t-75 29q-54 0 -98.5 -42.5t-44.5 -96.5q0 -40 28 -67t72 -27q54 0 101.5 43 t47.5 92z" />
<glyph unicode="&#xe6;" horiz-adv-x="2369" d="M2318 506h-1013q-2 -20 -2 -45q0 -148 107 -248t265 -100q128 0 248.5 70t183.5 182h158q-74 -161 -255.5 -276.5t-362.5 -115.5q-263 0 -410 215l-35 -188h-145l35 188q-209 -215 -478 -215q-223 0 -359 131t-136 345q0 129 56.5 256t150.5 224.5t225.5 157.5t271.5 60 q295 0 406 -221l37 194h145l-37 -194q215 221 481 221q214 0 349 -130t135 -335q0 -76 -21 -176zM2198 643q-3 167 -101.5 266t-261.5 99q-165 0 -306.5 -104t-191.5 -261h861zM1176 653q0 158 -101 256.5t-264 98.5q-144 0 -268 -75t-195.5 -198.5t-71.5 -261.5 q0 -158 102 -259t261 -101q105 0 204 44.5t172 117.5t117 173t44 205z" />
<glyph unicode="&#xe7;" horiz-adv-x="1325" d="M1247 330q-140 -192 -284.5 -273t-317.5 -84l-37 -71q45 10 70 10q75 0 122.5 -42t47.5 -112q0 -15 -4 -39q-18 -98 -94 -165.5t-179 -67.5q-74 0 -115.5 46.5t-47.5 127.5l110 12q4 -37 22 -52t56 -15q50 0 84.5 38t34.5 93q1 38 -21 60t-61 22q-60 0 -105 -39l-57 39 l92 159q-201 20 -322.5 150t-121.5 328q0 134 59.5 261.5t157 221.5t230 151.5t270.5 57.5q192 0 324 -98.5t169 -268.5h-170q-41 108 -132.5 168t-215.5 60q-104 0 -202.5 -44t-171.5 -116t-117 -170t-44 -201q0 -160 105.5 -262t269.5 -102q125 0 210.5 43.5t215.5 173.5 h170z" />
<glyph unicode="&#xe8;" horiz-adv-x="1331" d="M1282 510h-1014q-4 -50 -4 -57q0 -142 106.5 -241t260.5 -99q126 0 249 72t189 184h158q-98 -181 -267.5 -288.5t-355.5 -107.5q-209 0 -347 136t-138 342q0 181 96.5 342t257.5 257.5t342 96.5q214 0 349.5 -130.5t135.5 -336.5q0 -65 -18 -170zM1157 647 q-8 166 -107 263.5t-262 97.5q-160 0 -296.5 -101.5t-192.5 -259.5h858zM1006 1331l-93 -114l-352 233l94 119z" />
<glyph unicode="&#xe9;" horiz-adv-x="1331" d="M1282 510h-1014q-4 -50 -4 -57q0 -142 106.5 -241t260.5 -99q126 0 249 72t189 184h158q-98 -181 -267.5 -288.5t-355.5 -107.5q-209 0 -347 136t-138 342q0 181 96.5 342t257.5 257.5t342 96.5q214 0 349.5 -130.5t135.5 -336.5q0 -65 -18 -170zM1157 647 q-8 166 -107 263.5t-262 97.5q-160 0 -296.5 -101.5t-192.5 -259.5h858zM1180 1450l-439 -233l-49 114l438 238z" />
<glyph unicode="&#xea;" horiz-adv-x="1331" d="M1282 510h-1014q-4 -50 -4 -57q0 -142 106.5 -241t260.5 -99q126 0 249 72t189 184h158q-98 -181 -267.5 -288.5t-355.5 -107.5q-209 0 -347 136t-138 342q0 181 96.5 342t257.5 257.5t342 96.5q214 0 349.5 -130.5t135.5 -336.5q0 -65 -18 -170zM1157 647 q-8 166 -107 263.5t-262 97.5q-160 0 -296.5 -101.5t-192.5 -259.5h858zM1194 1243h-182l-148 152l-209 -152h-186l344 258h135z" />
<glyph unicode="&#xeb;" horiz-adv-x="1331" d="M1282 510h-1014q-4 -50 -4 -57q0 -142 106.5 -241t260.5 -99q126 0 249 72t189 184h158q-98 -181 -267.5 -288.5t-355.5 -107.5q-209 0 -347 136t-138 342q0 181 96.5 342t257.5 257.5t342 96.5q214 0 349.5 -130.5t135.5 -336.5q0 -65 -18 -170zM1157 647 q-8 166 -107 263.5t-262 97.5q-160 0 -296.5 -101.5t-192.5 -259.5h858zM754 1243h-152l47 258h152zM1055 1243h-152l47 258h152z" />
<glyph unicode="&#xec;" horiz-adv-x="409" d="M219 0h-151l206 1120h152zM537 1331l-93 -114l-352 233l94 119z" />
<glyph unicode="&#xed;" horiz-adv-x="409" d="M219 0h-151l206 1120h152zM729 1450l-438 -233l-49 114l438 238z" />
<glyph unicode="&#xee;" horiz-adv-x="409" d="M219 0h-151l206 1120h152zM735 1243h-182l-147 152l-209 -152h-187l344 258h135z" />
<glyph unicode="&#xef;" horiz-adv-x="409" d="M219 0h-151l206 1120h152zM295 1243h-152l47 258h152zM596 1243h-152l48 258h151z" />
<glyph unicode="&#xf0;" horiz-adv-x="1341" d="M1317 709q0 -150 -55 -286.5t-148.5 -235t-223 -156.5t-272.5 -58q-227 0 -364 130.5t-137 347.5q0 135 56.5 262.5t149.5 221t219.5 150t260.5 56.5q52 0 89.5 -7t96.5 -28l-151 188l-195 -82l-57 93l176 75l-94 93l112 75q17 -14 25.5 -21.5t14.5 -13t30.5 -29.5 t48.5 -48l205 82l59 -93l-190 -75q344 -354 344 -641zM1159 653q0 157 -97.5 256t-252.5 99q-143 0 -266.5 -73t-196 -197.5t-72.5 -268.5q0 -161 101 -258.5t270 -97.5q139 0 257.5 72.5t187.5 197t69 270.5z" />
<glyph unicode="&#xf1;" horiz-adv-x="1249" d="M1055 0h-152l109 588q16 91 16 151q0 123 -77.5 196t-207.5 73q-157 0 -264.5 -96.5t-144.5 -295.5l-115 -616h-151l206 1120h152l-27 -145q178 172 385 172q184 0 293 -101t109 -270q0 -65 -23 -188zM1100 1382q-80 -112 -189 -112q-56 0 -196 67q-15 9 -35 9 q-18 0 -36 -10.5t-83 -57.5l-47 92q47 49 95.5 77t86.5 28q28 0 112.5 -38t102.5 -38q74 0 146 78z" />
<glyph unicode="&#xf2;" horiz-adv-x="1341" d="M1309 680q0 -141 -58 -273t-153 -226.5t-220.5 -151t-256.5 -56.5q-223 0 -363.5 130t-140.5 337q0 142 59 274t156.5 226t228 150.5t268.5 56.5q214 0 347 -129t133 -338zM1151 666q0 149 -98.5 245.5t-249.5 96.5q-141 0 -263 -73.5t-194 -198.5t-72 -269 q0 -158 101.5 -256t265.5 -98q140 0 257.5 73.5t185 200.5t67.5 279zM1020 1331l-92 -114l-353 233l95 119z" />
<glyph unicode="&#xf3;" horiz-adv-x="1341" d="M1309 680q0 -141 -58 -273t-153 -226.5t-220.5 -151t-256.5 -56.5q-223 0 -363.5 130t-140.5 337q0 142 59 274t156.5 226t228 150.5t268.5 56.5q214 0 347 -129t133 -338zM1151 666q0 149 -98.5 245.5t-249.5 96.5q-141 0 -263 -73.5t-194 -198.5t-72 -269 q0 -158 101.5 -256t265.5 -98q140 0 257.5 73.5t185 200.5t67.5 279zM1194 1450l-438 -233l-49 114l438 238z" />
<glyph unicode="&#xf4;" horiz-adv-x="1341" d="M1309 680q0 -141 -58 -273t-153 -226.5t-220.5 -151t-256.5 -56.5q-223 0 -363.5 130t-140.5 337q0 142 59 274t156.5 226t228 150.5t268.5 56.5q214 0 347 -129t133 -338zM1151 666q0 149 -98.5 245.5t-249.5 96.5q-141 0 -263 -73.5t-194 -198.5t-72 -269 q0 -158 101.5 -256t265.5 -98q140 0 257.5 73.5t185 200.5t67.5 279zM1208 1243h-182l-147 152l-209 -152h-187l344 258h136z" />
<glyph unicode="&#xf5;" horiz-adv-x="1341" d="M1309 680q0 -141 -58 -273t-153 -226.5t-220.5 -151t-256.5 -56.5q-223 0 -363.5 130t-140.5 337q0 142 59 274t156.5 226t228 150.5t268.5 56.5q214 0 347 -129t133 -338zM1151 666q0 149 -98.5 245.5t-249.5 96.5q-141 0 -263 -73.5t-194 -198.5t-72 -269 q0 -158 101.5 -256t265.5 -98q140 0 257.5 73.5t185 200.5t67.5 279zM1155 1382q-80 -112 -188 -112q-57 0 -197 67q-15 9 -35 9q-18 0 -36 -10.5t-83 -57.5l-47 92q47 49 96 77t87 28q28 0 112.5 -38t102.5 -38q73 0 145 78z" />
<glyph unicode="&#xf6;" horiz-adv-x="1341" d="M1309 680q0 -141 -58 -273t-153 -226.5t-220.5 -151t-256.5 -56.5q-223 0 -363.5 130t-140.5 337q0 142 59 274t156.5 226t228 150.5t268.5 56.5q214 0 347 -129t133 -338zM1151 666q0 149 -98.5 245.5t-249.5 96.5q-141 0 -263 -73.5t-194 -198.5t-72 -269 q0 -158 101.5 -256t265.5 -98q140 0 257.5 73.5t185 200.5t67.5 279zM768 1243h-152l48 258h151zM1069 1243h-151l47 258h151z" />
<glyph unicode="&#xf7;" horiz-adv-x="1241" d="M1159 436h-983v152h983v-152zM797 891q0 -54 -37.5 -91.5t-91.5 -37.5t-91.5 37.5t-37.5 91.5t37.5 91.5t91.5 37.5t91.5 -37.5t37.5 -91.5zM797 133q0 -54 -37.5 -91.5t-91.5 -37.5t-91.5 37.5t-37.5 91.5t37.5 91.5t91.5 37.5t91.5 -37.5t37.5 -91.5z" />
<glyph unicode="&#xf8;" horiz-adv-x="1337" d="M1309 696q0 -145 -56 -278.5t-150 -231t-223 -155.5t-268 -58q-167 0 -297 84l-129 -135l-92 82l127 135q-57 85 -78.5 149.5t-21.5 149.5q0 143 62 276t161 226.5t224.5 150t250.5 56.5q170 0 289 -84l143 151l95 -86l-144 -149q57 -60 82 -126.5t25 -156.5zM1006 958 q-94 50 -197 50q-100 0 -198 -46.5t-170.5 -121.5t-117 -175.5t-44.5 -203.5q0 -114 47 -213zM1151 688q0 54 -11 92.5t-40 91.5l-684 -710q81 -33 111 -41t85 -8q230 0 384.5 164.5t154.5 410.5z" />
<glyph unicode="&#xf9;" horiz-adv-x="1245" d="M1262 1120l-209 -1120h-152l33 174q-82 -107 -175.5 -154t-226.5 -47q-178 0 -284.5 93.5t-106.5 250.5q0 91 19 199l112 604h152l-113 -604q-12 -54 -12 -137q0 -127 69 -196.5t205 -69.5q158 0 272 103.5t156 328.5l109 575h152zM963 1331l-93 -114l-352 233l94 119z " />
<glyph unicode="&#xfa;" horiz-adv-x="1245" d="M1262 1120l-209 -1120h-152l33 174q-82 -107 -175.5 -154t-226.5 -47q-178 0 -284.5 93.5t-106.5 250.5q0 91 19 199l112 604h152l-113 -604q-12 -54 -12 -137q0 -127 69 -196.5t205 -69.5q158 0 272 103.5t156 328.5l109 575h152zM1137 1450l-439 -233l-49 114l438 238z " />
<glyph unicode="&#xfb;" horiz-adv-x="1245" d="M1262 1120l-209 -1120h-152l33 174q-82 -107 -175.5 -154t-226.5 -47q-178 0 -284.5 93.5t-106.5 250.5q0 91 19 199l112 604h152l-113 -604q-12 -54 -12 -137q0 -127 69 -196.5t205 -69.5q158 0 272 103.5t156 328.5l109 575h152zM1151 1243h-182l-148 152l-209 -152 h-186l344 258h135z" />
<glyph unicode="&#xfc;" horiz-adv-x="1245" d="M1262 1120l-209 -1120h-152l33 174q-82 -107 -175.5 -154t-226.5 -47q-178 0 -284.5 93.5t-106.5 250.5q0 91 19 199l112 604h152l-113 -604q-12 -54 -12 -137q0 -127 69 -196.5t205 -69.5q158 0 272 103.5t156 328.5l109 575h152zM711 1243h-152l47 258h152zM1012 1243 h-152l47 258h152z" />
<glyph unicode="&#xfd;" horiz-adv-x="1097" d="M1225 1120l-928 -1513h-160l260 430l-233 1083h166l188 -893l545 893h162zM1067 1450l-438 -233l-49 114l438 238z" />
<glyph unicode="&#xfe;" horiz-adv-x="1396" d="M1362 666q0 -133 -59 -260.5t-155 -222t-226.5 -152.5t-266.5 -58q-286 0 -401 220l-109 -586h-151l354 1906h152l-109 -585q76 101 205 160t274 59q221 0 356.5 -132.5t135.5 -348.5zM1204 649q0 157 -103.5 258t-264.5 101q-95 0 -190.5 -40.5t-172 -110.5 t-124.5 -173.5t-48 -218.5q0 -151 104 -251.5t261 -100.5q99 0 196 41t172.5 111t122.5 171t47 213z" />
<glyph unicode="&#xff;" horiz-adv-x="1097" d="M1225 1120l-928 -1513h-160l260 430l-233 1083h166l188 -893l545 893h162zM641 1243h-152l48 258h151zM942 1243h-151l47 258h151z" />
<glyph unicode="&#x152;" horiz-adv-x="2445" d="M2550 1513l-27 -137h-653l-101 -542h631l-24 -138h-631l-105 -559h654l-25 -137h-807l58 309q-263 -336 -676 -336q-312 0 -500 175.5t-188 465.5q0 183 77.5 354t206 296t305 200.5t365.5 75.5q211 0 359.5 -85t216.5 -243l57 301h807zM1620 893q0 227 -149 367.5 t-390 140.5q-152 0 -294 -63.5t-245.5 -167.5t-166 -243.5t-62.5 -285.5q0 -147 64.5 -266.5t189.5 -190.5t291 -71q146 0 285.5 62.5t244 166.5t168.5 249t64 302z" />
<glyph unicode="&#x153;" horiz-adv-x="2328" d="M2273 508h-999q-4 -54 -4 -66q0 -133 108.5 -231t268.5 -98q130 0 240 65t188 189h153q-73 -160 -243 -277t-363 -117q-107 0 -197 31t-162 102t-104 177q-87 -104 -125.5 -141.5t-91.5 -69.5q-162 -99 -324 -99q-220 0 -359.5 131t-139.5 340q0 145 61 277.5 t159.5 224.5t223.5 146.5t252 54.5q161 0 262 -65t187 -234q70 115 226 207t331 92q208 0 343.5 -127t135.5 -326q0 -62 -27 -186zM2159 645v6v19q0 145 -103.5 241.5t-257.5 96.5q-163 0 -291.5 -94t-206.5 -269h859zM1147 655q0 157 -98 255t-256 98q-136 0 -255.5 -73.5 t-190.5 -197.5t-71 -266q0 -157 100 -257.5t255 -100.5q133 0 253 75.5t191.5 201t71.5 265.5z" />
<glyph unicode="&#x178;" horiz-adv-x="1212" d="M1427 1513l-714 -1007l-95 -506h-151l94 506l-338 1007h168l273 -847l598 847h165zM764 1616h-152l47 258h152zM1065 1616h-152l48 258h151z" />
<glyph unicode="&#x2c6;" horiz-adv-x="1028" d="M1044 1243h-182l-147 152l-209 -152h-187l345 258h135z" />
<glyph unicode="&#x2dc;" horiz-adv-x="899" d="M928 1382q-80 -112 -189 -112q-56 0 -196 67q-15 9 -35 9q-18 0 -36 -10.5t-83 -57.5l-47 92q47 49 95.5 77t86.5 28q28 0 112.5 -38t102.5 -38q74 0 146 78z" />
<glyph unicode="&#x2000;" horiz-adv-x="989" />
<glyph unicode="&#x2001;" horiz-adv-x="1978" />
<glyph unicode="&#x2002;" horiz-adv-x="989" />
<glyph unicode="&#x2003;" horiz-adv-x="1978" />
<glyph unicode="&#x2004;" horiz-adv-x="659" />
<glyph unicode="&#x2005;" horiz-adv-x="494" />
<glyph unicode="&#x2006;" horiz-adv-x="329" />
<glyph unicode="&#x2007;" horiz-adv-x="329" />
<glyph unicode="&#x2008;" horiz-adv-x="247" />
<glyph unicode="&#x2009;" horiz-adv-x="395" />
<glyph unicode="&#x200a;" horiz-adv-x="109" />
<glyph unicode="&#x2010;" horiz-adv-x="679" d="M684 606l-25 -129h-557l25 129h557z" />
<glyph unicode="&#x2011;" horiz-adv-x="679" d="M684 606l-25 -129h-557l25 129h557z" />
<glyph unicode="&#x2012;" horiz-adv-x="679" d="M684 606l-25 -129h-557l25 129h557z" />
<glyph unicode="&#x2013;" horiz-adv-x="1024" d="M1090 606l-25 -129h-1026l24 129h1027z" />
<glyph unicode="&#x2014;" horiz-adv-x="2048" d="M2114 606l-25 -129h-2050l24 129h2051z" />
<glyph unicode="&#x2018;" horiz-adv-x="718" d="M678 1120h-152l-106 393h151z" />
<glyph unicode="&#x2019;" horiz-adv-x="718" d="M737 1513l-254 -393h-151l254 393h151z" />
<glyph unicode="&#x201a;" horiz-adv-x="724" d="M500 258l-254 -395h-150l254 395h150z" />
<glyph unicode="&#x201c;" horiz-adv-x="1028" d="M674 1120h-152l-106 393h151zM977 1120h-152l-106 393h151z" />
<glyph unicode="&#x201d;" horiz-adv-x="991" d="M729 1513l-254 -393h-151l254 393h151zM1024 1513l-254 -393h-152l254 393h152z" />
<glyph unicode="&#x201e;" horiz-adv-x="1028" d="M502 258l-254 -393h-152l254 393h152zM801 258l-254 -393h-152l254 393h152z" />
<glyph unicode="&#x2022;" horiz-adv-x="1241" d="M1059 616q0 -161 -113 -273t-276 -112q-157 0 -269 115t-112 275q0 157 113.5 268.5t271.5 111.5q161 0 273 -112t112 -273z" />
<glyph unicode="&#x2026;" horiz-adv-x="2048" d="M356 0h-151l47 258h151zM1038 0h-151l47 258h151zM1720 0h-151l47 258h151z" />
<glyph unicode="&#x202f;" horiz-adv-x="395" />
<glyph unicode="&#x2039;" horiz-adv-x="514" d="M422 270l-133 -67l-154 411l305 408l109 -66l-254 -342z" />
<glyph unicode="&#x203a;" horiz-adv-x="514" d="M485 614l-305 -411l-108 67l254 344l-127 342l133 66z" />
<glyph unicode="&#x205f;" horiz-adv-x="494" />
<glyph unicode="&#x20ac;" d="M1245 1286l-88 -137q-69 145 -143 200.5t-197 55.5q-182 0 -298.5 -101.5t-221.5 -363.5h719l-72 -121h-682q-18 -69 -26 -141h620l-72 -121h-561v-55q0 -191 87.5 -293.5t250.5 -102.5q117 0 194 37.5t228 159.5l-29 -176q-177 -154 -405 -154q-250 0 -364.5 139.5 t-114.5 444.5h-197l72 121h139q8 62 29 141h-193l72 121h153q62 165 114.5 256.5t125.5 161.5q188 182 446 182q143 0 236 -52.5t178 -201.5z" />
<glyph unicode="&#x2122;" horiz-adv-x="2095" d="M1001 1407h-221l-141 -756h-123l141 756h-219l19 106h563zM2185 1513l-160 -862h-122l129 697l-471 -697h-99l-211 697l-129 -697h-123l160 862h170l215 -692l469 692h172z" />
<glyph unicode="&#x25fc;" horiz-adv-x="1116" d="M0 1116h1116v-1116h-1116v1116z" />
</font>
</defs>
</svg>
