<?xml version="1.0" standalone="no"?>
<!DOCTYPE svg PUBLIC "-//W3C//DTD SVG 1.1//EN" "http://www.w3.org/Graphics/SVG/1.1/DTD/svg11.dtd" >
<svg xmlns="http://www.w3.org/2000/svg" xmlns:xlink="http://www.w3.org/1999/xlink" version="1.1">
<metadata></metadata>
<defs>
<font id="tex_gyre_adventorregular" horiz-adv-x="1134" >
<font-face units-per-em="2048" ascent="1655" descent="-393" />
<missing-glyph horiz-adv-x="567" />
<glyph unicode="&#xfb01;" horiz-adv-x="997" d="M637 983h-279v-983h-151v983h-174v137h174q-3 195 105 294t325 99v-137q-155 0 -218 -58t-61 -198h279v-137zM868 0h-151v1120h151v-1120zM868 1243h-151v258h151v-258z" />
<glyph unicode="&#xfb02;" horiz-adv-x="993" d="M637 983h-279v-983h-151v983h-174v137h174q-3 195 105 294t325 99v-137q-155 0 -218 -58t-61 -198h279v-137zM864 0h-151v1513h151v-1513z" />
<glyph unicode="&#xfb03;" horiz-adv-x="1499" d="M1143 983h-279v-983h-151v983h-355v-983h-151v983h-174v137h174q-3 195 105 294t325 99v-137q-155 0 -218 -58t-61 -198h355q-3 195 105 294t325 99v-137q-155 0 -218 -58t-61 -198h279v-137zM1370 0h-151v1120h151v-1120zM1370 1243h-151v258h151v-258z" />
<glyph unicode="&#xfb04;" horiz-adv-x="1499" d="M1143 983h-279v-983h-151v983h-355v-983h-151v983h-174v137h174q-3 195 105 294t325 99v-137q-155 0 -218 -58t-61 -198h355q-3 195 105 294t325 99v-137q-155 0 -218 -58t-61 -198h279v-137zM1370 0h-151v1513h151v-1513z" />
<glyph horiz-adv-x="0" />
<glyph horiz-adv-x="682" />
<glyph unicode=" "  horiz-adv-x="567" />
<glyph unicode="&#x09;" horiz-adv-x="567" />
<glyph unicode="&#xa0;" horiz-adv-x="567" />
<glyph unicode="!" horiz-adv-x="604" d="M379 0h-152v258h152v-258zM379 403h-152v1110h152v-1110z" />
<glyph unicode="&#x22;" horiz-adv-x="632" d="M485 1051h-102v462h102v-462zM254 1051h-102v462h102v-462z" />
<glyph unicode="#" d="M1124 928h-225l-57 -318h252v-125h-277l-88 -485h-135l88 485h-336l-92 -485h-133l92 485h-203v125h228l59 318h-254v125h276l87 460h131l-84 -460h333l82 460h138l-84 -460h202v-125zM764 928h-334l-59 -318h334z" />
<glyph unicode="$" d="M981 463q0 -161 -96 -274t-248 -130v-174h-135v174q-173 32 -260.5 136.5t-87.5 271.5h141q0 -131 74.5 -207t197.5 -76q114 0 188 77.5t74 197.5q0 125 -86 198q-56 45 -190 86q-115 35 -171.5 67t-96.5 83q-80 96 -80 237q0 138 80.5 235.5t216.5 125.5v168h135v-168 q153 -24 242.5 -122t89.5 -249h-144q0 113 -65 177.5t-172 64.5q-106 0 -169 -66t-63 -178q0 -95 52 -145t198 -96q108 -35 164.5 -64t97.5 -70q113 -107 113 -280z" />
<glyph unicode="%" horiz-adv-x="1587" d="M1204 1513l-684 -1513h-147l680 1513h151zM1540 334q0 -149 -105.5 -255t-254.5 -106q-148 0 -253.5 105.5t-105.5 253.5q0 151 105.5 255.5t257.5 104.5q146 0 251 -106t105 -252zM1401 332q0 92 -64 158.5t-155 66.5q-94 0 -159 -65t-65 -160q0 -92 65.5 -157.5 t156.5 -65.5t156 65.5t65 157.5zM745 1174q0 -149 -105.5 -255t-254.5 -106q-148 0 -253 106t-105 255q0 151 105 255.5t257 104.5q146 0 251 -106t105 -254zM606 1174q0 92 -64 158.5t-155 66.5q-94 0 -159.5 -65.5t-65.5 -159.5q0 -93 65.5 -159.5t157.5 -66.5 q91 0 156 66t65 160z" />
<glyph unicode="&#x26;" horiz-adv-x="1550" d="M1505 78l-104 -105l-350 340q-89 -179 -197.5 -259.5t-259.5 -80.5q-205 0 -341 134.5t-136 328.5q0 149 82.5 252.5t265.5 198.5q-95 99 -131.5 168.5t-36.5 148.5q0 141 104.5 238.5t253.5 97.5q157 0 261 -98.5t104 -247.5q0 -121 -61 -192t-234 -160l287 -283 l221 426h168l-279 -534zM938 422l-365 356q-168 -82 -237.5 -163t-69.5 -195q0 -129 93 -219t225 -90q109 0 190 71t164 240zM877 1206q0 83 -63 140t-155 57q-89 0 -149.5 -56.5t-60.5 -138.5q0 -58 37.5 -117t127.5 -141q136 52 199.5 114t63.5 142z" />
<glyph unicode="'" horiz-adv-x="405" d="M254 1051h-102v462h102v-462z" />
<glyph unicode="(" horiz-adv-x="755" d="M686 -256q-161 59 -292 198.5t-204 321.5t-73 369q0 136 40 273.5t112 256.5t180.5 212.5t236.5 137.5v-129q-133 -80 -229 -207t-142.5 -266t-46.5 -278q0 -224 107.5 -427.5t310.5 -328.5v-133z" />
<glyph unicode=")" horiz-adv-x="755" d="M639 625q0 -182 -67.5 -360t-199.5 -320.5t-302 -200.5v131q134 78 230.5 206.5t141.5 268t45 277.5q0 144 -45.5 283.5t-141.5 264t-230 205.5v133q160 -57 291 -196.5t204.5 -322.5t73.5 -369z" />
<glyph unicode="*" horiz-adv-x="870" d="M737 1194h-209l113 -180l-96 -56l-109 187l-108 -187l-99 58l117 178h-215v100h215l-115 189l101 57l108 -184l107 184l96 -57l-117 -189h211v-100z" />
<glyph unicode="+" horiz-adv-x="1241" d="M1112 436h-416v-416h-151v416h-416v152h416v416h151v-416h416v-152z" />
<glyph unicode="," horiz-adv-x="567" d="M518 258l-180 -395h-152l181 395h151z" />
<glyph unicode="-" horiz-adv-x="679" d="M618 477h-555v129h555v-129z" />
<glyph unicode="." horiz-adv-x="567" d="M358 0h-151v258h151v-258z" />
<glyph unicode="/" horiz-adv-x="894" d="M813 1513l-594 -1775h-137l588 1775h143z" />
<glyph unicode="0" d="M1075 551q0 -578 -495 -578q-246 0 -382.5 143t-136.5 435v430q0 277 134 418t372 141q113 0 205 -33.5t160 -100.5t105.5 -175t37.5 -250v-430zM926 575v371q0 84 -10.5 151.5t-36 125.5t-65.5 97t-102 61t-143 22q-177 0 -267.5 -106.5t-90.5 -350.5v-371 q0 -130 25 -221.5t74.5 -144t113 -75.5t149.5 -23q183 0 268 108t85 356z" />
<glyph unicode="1" d="M725 0h-150v1376h-258v137h408v-1513z" />
<glyph unicode="2" d="M1036 1079q0 -122 -59 -223.5t-219 -253.5l-486 -465h756v-137h-960v137l530 512q57 54 80 76.5t66 67.5t61 72t40.5 66.5t31 77t8.5 78.5q0 137 -93 226.5t-235 89.5q-152 0 -240 -98t-88 -281h-149q0 240 129.5 378t349.5 138q207 0 342 -130.5t135 -330.5z" />
<glyph unicode="3" d="M1032 459q0 -204 -138 -345t-337 -141q-137 0 -247.5 59.5t-176 174.5t-65.5 266h149q0 -92 27 -163t74.5 -113.5t106.5 -64t128 -21.5q138 0 233 98t95 242q0 119 -71.5 212t-184.5 119q-54 11 -176 13v135l34 -2q18 -2 39 -2q118 0 188 64.5t70 172.5q0 106 -64 173 t-165 67q-110 0 -172 -70t-62 -196h-149q0 184 105.5 293.5t277.5 109.5q167 0 274 -107t107 -276q0 -182 -156 -291q256 -130 256 -407z" />
<glyph unicode="4" d="M1079 276h-139v-276h-149v276h-766v138l737 1099h178v-1099h139v-138zM791 414v891l-592 -891h592z" />
<glyph unicode="5" d="M1081 504q0 -146 -67 -268t-184 -192.5t-257 -70.5q-207 0 -346.5 133.5t-173.5 368.5h148q20 -161 122 -262.5t244 -101.5q152 0 257.5 113.5t105.5 279.5t-104.5 277.5t-258.5 111.5q-177 0 -313 -170l-117 45l135 745h682v-137h-561l-74 -418q130 72 261 72 q139 0 254.5 -69.5t181 -190.5t65.5 -266z" />
<glyph unicode="6" d="M1083 510q0 -232 -144.5 -384.5t-365.5 -152.5q-224 0 -373 150.5t-149 376.5q0 111 36 203.5t144 252.5l375 557h174l-356 -526q94 43 178 43q201 0 341 -151t140 -369zM932 504q0 169 -102.5 279t-260.5 110q-155 0 -260.5 -111t-105.5 -274q0 -172 105 -284.5 t265 -112.5q155 0 257 111.5t102 281.5z" />
<glyph unicode="7" d="M1004 1376l-619 -1376h-160l623 1376h-717v137h873v-137z" />
<glyph unicode="8" d="M1049 446q0 -206 -134.5 -339.5t-341.5 -133.5q-209 0 -348 133.5t-139 333.5q0 137 66 241.5t190 164.5q-92 55 -134 128t-42 175q0 167 115.5 279t287.5 112q173 0 286.5 -110.5t113.5 -280.5q0 -112 -44.5 -186t-136.5 -117q126 -56 193.5 -158.5t67.5 -241.5z M897 442q0 142 -92.5 234t-235.5 92q-146 0 -238.5 -91.5t-92.5 -234.5q0 -146 92.5 -238.5t240.5 -92.5q143 0 234.5 93t91.5 238zM817 1157q0 107 -70.5 176.5t-179.5 69.5t-179.5 -68t-70.5 -174q0 -109 73 -180.5t185 -71.5q103 0 172.5 71t69.5 177z" />
<glyph unicode="9" d="M1083 1014q0 -113 -36.5 -205t-143.5 -252l-375 -557h-174l357 526q-94 -43 -179 -43q-132 0 -242.5 69t-174.5 189t-64 263q0 232 144.5 384t365.5 152q224 0 373 -150t149 -376zM932 1006q0 172 -105.5 284.5t-265.5 112.5q-156 0 -257 -111t-101 -282q0 -169 102 -279 t260 -110q155 0 261 111t106 274z" />
<glyph unicode=":" horiz-adv-x="567" d="M358 0h-151v258h151v-258zM358 780h-151v258h151v-258z" />
<glyph unicode=";" horiz-adv-x="567" d="M416 258l-180 -395h-152l180 395h152zM408 780h-152v258h152v-258z" />
<glyph unicode="&#x3c;" horiz-adv-x="1241" d="M983 -195l-774 650v114l774 650v-197l-606 -510l606 -510v-197z" />
<glyph unicode="=" horiz-adv-x="1241" d="M1112 625h-983v151h983v-151zM1112 248h-983v151h983v-151z" />
<glyph unicode="&#x3e;" horiz-adv-x="1241" d="M983 455l-774 -650v197l606 510l-606 510v197l774 -650v-114z" />
<glyph unicode="?" horiz-adv-x="1210" d="M686 0h-151v258h151v-258zM1075 1096q0 -99 -41.5 -178.5t-142.5 -169.5q-115 -103 -161.5 -179.5t-47.5 -173.5h-143q1 125 48 217t165 201q103 96 137.5 153.5t34.5 133.5q0 132 -88.5 217.5t-223.5 85.5q-154 0 -245 -91.5t-91 -271.5h-143q0 239 134 369.5t345 130.5 q201 0 332 -125.5t131 -318.5z" />
<glyph unicode="@" horiz-adv-x="1775" d="M1632 887q0 -143 -65.5 -282.5t-177 -229.5t-234.5 -90q-72 0 -113.5 26.5t-66.5 89.5q-57 -57 -114 -81.5t-130 -24.5q-124 0 -203 84.5t-79 218.5q0 153 71 296.5t187.5 231.5t240.5 88q85 0 143 -31.5t93 -109.5l35 103h124l-190 -570q-30 -93 -35.5 -113.5 t-5.5 -43.5q0 -25 19.5 -41.5t50.5 -16.5q81 0 163 78t133.5 194.5t51.5 225.5q0 152 -78.5 277.5t-217.5 197.5t-308 72q-137 0 -261.5 -54t-215 -145.5t-144 -218t-53.5 -264.5q0 -139 53 -264.5t143 -216t215.5 -144t264.5 -53.5q281 0 479 207l82 -68 q-95 -112 -247 -177t-318 -65q-160 0 -304.5 61t-248.5 165t-165 248.5t-61 304.5q0 215 104.5 396t285 286.5t393.5 105.5q142 0 272 -50.5t225 -137t151 -208t56 -257.5zM1106 940q0 75 -41.5 119.5t-110.5 44.5q-88 0 -171.5 -72.5t-135 -189.5t-51.5 -240 q0 -85 45 -136.5t119 -51.5q69 0 125 43.5t110 138.5q44 80 77.5 183t33.5 161z" />
<glyph unicode="A" horiz-adv-x="1515" d="M1493 0h-166l-219 510h-705l-221 -510h-159l649 1513h170zM1049 647l-291 694l-297 -694h588z" />
<glyph unicode="B" horiz-adv-x="1175" d="M1114 434q0 -227 -136 -330.5t-448 -103.5h-374v1513h354q272 0 395 -97t123 -296q0 -113 -40.5 -188.5t-127.5 -124.5q132 -54 193 -144.5t61 -228.5zM961 426q0 59 -13 105.5t-33.5 77.5t-56.5 53t-71 34.5t-89.5 19t-99 8t-111.5 1.5h-180v-588h207q238 0 342.5 64 t104.5 225zM874 1118q0 96 -32.5 150t-116.5 81t-236 27h-182v-514h185q213 0 297.5 56.5t84.5 199.5z" />
<glyph unicode="C" horiz-adv-x="1665" d="M1577 397q-229 -424 -692 -424q-167 0 -315 60t-253 163.5t-166 248t-61 307.5q0 223 101.5 403.5t281 282.5t401.5 102q235 0 422 -112.5t275 -307.5h-170q-179 281 -520 281q-133 0 -251 -49.5t-202.5 -134.5t-134 -204.5t-49.5 -254.5q0 -130 51 -249.5t137 -206 t204 -138t247 -51.5q164 0 284.5 66t241.5 218h168z" />
<glyph unicode="D" horiz-adv-x="1523" d="M1434 752q0 -166 -53.5 -302t-159 -237t-273.5 -157t-385 -56h-407v1513h356q206 0 338.5 -27t239.5 -91q168 -100 256 -264.5t88 -378.5zM1280 758q0 169 -72 305.5t-202 214.5q-86 52 -200.5 75t-287.5 23h-211v-1239h211q201 0 327.5 31.5t217.5 103.5 q104 85 160.5 211t56.5 275z" />
<glyph unicode="E" horiz-adv-x="1097" d="M983 0h-827v1513h827v-137h-676v-542h654v-138h-654v-559h676v-137z" />
<glyph unicode="F" horiz-adv-x="993" d="M924 1376h-617v-547h594v-137h-594v-692h-151v1513h768v-137z" />
<glyph unicode="G" horiz-adv-x="1785" d="M1702 698q-9 -142 -71.5 -274t-164.5 -231.5t-246.5 -159.5t-306.5 -60q-228 0 -417 104t-297.5 284.5t-108.5 398.5q0 162 62.5 306.5t169.5 248.5t256 164.5t315 60.5q248 0 445 -118.5t272 -311.5h-170q-78 138 -219 214.5t-316 76.5q-184 0 -335.5 -84.5 t-238.5 -232.5t-87 -328q0 -133 52 -252t140 -205t211 -136t260 -50q220 0 395.5 132t217.5 316h-846v137h1028z" />
<glyph unicode="H" horiz-adv-x="1398" d="M1243 0h-151v711h-785v-711h-151v1513h151v-665h785v665h151v-1513z" />
<glyph unicode="I" horiz-adv-x="462" d="M307 0h-151v1513h151v-1513z" />
<glyph unicode="J" horiz-adv-x="987" d="M831 473q0 -249 -103.5 -375.5t-299.5 -126.5q-181 0 -288.5 102.5t-116.5 284.5h149q7 -115 76 -181t182 -66q123 0 186.5 91t63.5 271v1040h151v-1040z" />
<glyph unicode="K" horiz-adv-x="1210" d="M1198 0h-190l-504 655l-197 -241v-414h-151v1513h151v-870l701 870h190l-598 -737z" />
<glyph unicode="L" horiz-adv-x="946" d="M934 0h-778v1513h151v-1376h627v-137z" />
<glyph unicode="M" horiz-adv-x="1882" d="M1726 0h-151v1348l-569 -1348h-132l-567 1348v-1348h-151v1513h235l551 -1288l549 1288h235v-1513z" />
<glyph unicode="N" horiz-adv-x="1515" d="M1360 0h-152l-901 1331v-1331h-151v1513h204l848 -1255v1255h152v-1513z" />
<glyph unicode="O" horiz-adv-x="1779" d="M1690 756q0 -158 -64 -302.5t-171 -250t-255 -168t-309 -62.5q-164 0 -312 62.5t-255.5 168.5t-170.5 253t-63 309q0 155 64.5 298t172.5 247t256 166.5t308 62.5q161 0 309 -62t255.5 -167.5t171 -250.5t63.5 -304zM1536 754q0 130 -51.5 250t-138.5 207t-206 138.5 t-249 51.5q-129 0 -248.5 -51.5t-206.5 -137.5t-139.5 -204.5t-52.5 -245.5q0 -176 87 -325.5t236 -236.5t324 -87q130 0 249 51.5t206 137.5t138.5 204.5t51.5 247.5z" />
<glyph unicode="P" horiz-adv-x="1212" d="M1157 1055q0 -223 -129.5 -333t-429.5 -110h-291v-612h-151v1513h417q310 0 447 -109t137 -349zM1004 1055q0 51 -7.5 92t-19.5 72.5t-34 55.5t-44 40.5t-57.5 28t-65.5 17.5t-77 9.5t-84 4.5t-93 1h-215v-626h281q225 0 320.5 70t95.5 235z" />
<glyph unicode="Q" horiz-adv-x="1783" d="M1718 760q0 -173 -64.5 -319.5t-187.5 -250.5q60 -42 101.5 -59.5t87.5 -17.5q27 0 39 2v-142q-106 2 -180 30.5t-152 100.5q-193 -131 -455 -131q-168 0 -319.5 62t-260.5 166.5t-173 249.5t-64 305q0 166 62.5 311.5t171 249t260.5 163.5t325 60q171 0 321 -59 t257.5 -162t169 -248t61.5 -311zM1239 205q-164 149 -321 214.5t-351 65.5q-130 0 -237 -43q74 -140 234.5 -234.5t342.5 -94.5q183 0 332 92zM1565 760q0 134 -51 252.5t-138.5 204t-210 135t-260.5 49.5t-261 -50.5t-210.5 -138t-138.5 -209.5t-51 -260q0 -70 22 -172 q162 54 324 54q219 0 394.5 -80t373.5 -254q207 198 207 469z" />
<glyph unicode="R" horiz-adv-x="1243" d="M1182 1026q0 -201 -114.5 -319.5t-332.5 -141.5l424 -565h-188l-510 686q164 0 268 15.5t173.5 55.5t97.5 106t28 169q0 186 -120 265t-388 79h-213v-1376h-151v1513h374q176 0 302 -31.5t202.5 -94.5t112 -151.5t35.5 -209.5z" />
<glyph unicode="S" horiz-adv-x="1019" d="M975 422q0 -193 -130 -321t-327 -128q-204 0 -333 123.5t-140 327.5h162q17 -150 101 -230.5t214 -80.5q129 0 214 85.5t85 215.5q0 124 -71 190.5t-267 126.5q-131 39 -184 64.5t-98 68.5q-51 47 -79 118.5t-28 150.5q0 177 118.5 292t301.5 115q187 0 305.5 -113.5 t118.5 -296.5h-158q0 121 -76.5 196t-193.5 75q-114 0 -188 -75t-74 -189q0 -52 19.5 -100t51.5 -76q29 -26 74 -45t150 -50q114 -34 173.5 -60t106.5 -61q72 -54 112 -138.5t40 -184.5z" />
<glyph unicode="T" horiz-adv-x="872" d="M858 1376h-346v-1376h-152v1376h-346v137h844v-137z" />
<glyph unicode="U" horiz-adv-x="1341" d="M1186 569q0 -299 -138 -447.5t-378 -148.5q-238 0 -376 148.5t-138 447.5v944h151v-944q0 -456 365 -456q177 0 269.5 113.5t92.5 342.5v944h152v-944z" />
<glyph unicode="V" horiz-adv-x="1437" d="M1417 1513l-626 -1513h-148l-623 1513h166l533 -1325l534 1325h164z" />
<glyph unicode="W" horiz-adv-x="1966" d="M1946 1513l-435 -1513h-194l-336 1241l-332 -1241h-196l-433 1513h156l373 -1316l362 1316h144l362 -1316l373 1316h156z" />
<glyph unicode="X" horiz-adv-x="1247" d="M1231 0h-178l-428 647l-430 -647h-179l514 774l-485 739h178l402 -606l399 606h176l-485 -739z" />
<glyph unicode="Y" horiz-adv-x="1212" d="M1208 1513l-528 -1007v-506h-152v506l-524 1007h168l430 -847l440 847h166z" />
<glyph unicode="Z" horiz-adv-x="983" d="M971 0h-936v137l743 1239h-721v137h891v-137l-741 -1239h764v-137z" />
<glyph unicode="[" horiz-adv-x="718" d="M641 -256q-412 121 -412 592v610q0 219 111 367t301 200v-153q-151 -66 -209.5 -163t-58.5 -279v-556q0 -133 25 -218t82.5 -142.5t160.5 -103.5v-154z" />
<glyph unicode="\" horiz-adv-x="1239" d="M950 0h-143l-635 1513h143z" />
<glyph unicode="]" horiz-adv-x="718" d="M489 313q0 -221 -111 -369.5t-300 -199.5v154q151 68 209.5 164.5t58.5 277.5v557q0 195 -58 295.5t-210 167.5v153q411 -119 411 -591v-609z" />
<glyph unicode="^" horiz-adv-x="1241" d="M1204 369h-166l-415 983l-420 -983h-166l498 1144h174z" />
<glyph unicode="_" horiz-adv-x="1024" d="M1024 -256h-1024v119h1024v-119z" />
<glyph unicode="`" horiz-adv-x="768" d="M539 1331l-70 -114l-395 233l69 119z" />
<glyph unicode="a" horiz-adv-x="1398" d="M1270 0h-152v197q-89 -120 -189.5 -172t-242.5 -52q-170 0 -307.5 76t-215 209.5t-77.5 298.5q0 166 77 301t212 212t301 77q146 0 252.5 -54t189.5 -171v198h152v-1120zM1118 565q0 187 -126.5 315t-311.5 128q-183 0 -311.5 -129t-128.5 -312q0 -192 129 -323t319 -131 q181 0 305.5 130.5t124.5 321.5z" />
<glyph unicode="b" horiz-adv-x="1396" d="M1311 561q0 -166 -77 -300.5t-212.5 -211t-302.5 -76.5q-138 0 -252.5 58t-185.5 162v-193h-152v1513h152v-585q72 106 185.5 162.5t254.5 56.5q122 0 231.5 -45.5t188 -123.5t124.5 -186.5t46 -230.5zM1157 565q0 189 -125.5 316t-314.5 127q-188 0 -317.5 -128.5 t-129.5 -314.5t130.5 -319t314.5 -133q189 0 315.5 129.5t126.5 322.5z" />
<glyph unicode="c" horiz-adv-x="1325" d="M1245 330q-99 -187 -234.5 -272t-314.5 -85q-170 0 -310 77.5t-220 213t-80 299.5q0 161 79.5 295t217.5 211.5t303 77.5q189 0 339 -99t218 -268h-170q-65 110 -165 169t-224 59q-187 0 -315.5 -130t-128.5 -319q0 -186 130.5 -316t319.5 -130q119 0 207 50t176 167h172 z" />
<glyph unicode="d" horiz-adv-x="1402" d="M1274 0h-152v203q-85 -121 -185.5 -175.5t-240.5 -54.5q-170 0 -310 76.5t-220 211t-80 298.5q0 165 78 299.5t214.5 211.5t303.5 77q269 0 440 -205v571h152v-1513zM1128 563q0 184 -132 314.5t-318 130.5q-183 0 -310.5 -129t-127.5 -314q0 -192 130 -322t322 -130 q118 0 218.5 61t159 164.5t58.5 224.5z" />
<glyph unicode="e" horiz-adv-x="1331" d="M1251 510h-1013q9 -165 136.5 -281t299.5 -116q128 0 236 70.5t155 185.5h158q-56 -165 -208 -280.5t-337 -115.5q-122 0 -232 46t-189 125t-125 189t-46 232q0 161 77 294.5t210.5 210.5t294.5 77q124 0 231 -44t185 -125t122.5 -201.5t44.5 -266.5zM1100 647 q-38 167 -154.5 264t-279.5 97q-159 0 -276 -99.5t-148 -261.5h858z" />
<glyph unicode="f" horiz-adv-x="643" d="M637 983h-279v-983h-151v983h-174v137h174q-3 195 105 294t325 99v-137q-155 0 -218 -58t-61 -198h279v-137z" />
<glyph unicode="g" horiz-adv-x="1378" d="M1249 201q0 -165 -23.5 -265t-80.5 -176q-72 -96 -190.5 -148t-264.5 -52q-212 0 -356.5 104t-206.5 301h147q85 -150 177 -208t235 -58q202 0 307 115.5t105 337.5v75q-130 -254 -428 -254q-162 0 -296 76.5t-211 210.5t-77 295q0 167 74.5 302.5t205.5 212.5t293 77 q141 0 247.5 -54.5t191.5 -170.5v198h151v-919zM1098 573q0 183 -124.5 309t-305.5 126q-186 0 -307 -124.5t-121 -316.5q0 -195 122.5 -324.5t307.5 -129.5q183 0 305.5 131.5t122.5 328.5z" />
<glyph unicode="h" horiz-adv-x="1249" d="M1120 0h-151v602q0 202 -93 304t-253 102q-154 0 -248 -98.5t-94 -295.5v-614h-152v1513h152v-538q57 83 149 127.5t207 44.5q226 0 354.5 -136t128.5 -409v-602z" />
<glyph unicode="i" horiz-adv-x="409" d="M281 0h-152v1120h152v-1120zM281 1243h-152v258h152v-258z" />
<glyph unicode="j" horiz-adv-x="415" d="M287 78q0 -240 -93 -351.5t-286 -119.5v145q127 7 177 79t50 247v1042h152v-1042zM287 1243h-152v258h152v-258z" />
<glyph unicode="k" horiz-adv-x="1028" d="M1018 0h-189l-372 449l-176 -218v-231h-152v1513h152v-1073l522 680h186l-436 -563z" />
<glyph unicode="l" horiz-adv-x="409" d="M281 0h-152v1513h152v-1513z" />
<glyph unicode="m" horiz-adv-x="1921" d="M1792 0h-152v649q0 184 -77.5 272.5t-219.5 88.5q-141 0 -224 -89t-83 -272v-649h-151v653q0 179 -83 267t-220 88q-141 0 -221 -94t-80 -261v-653h-152v1120h152v-129q64 85 136.5 120.5t178.5 35.5q126 0 213.5 -51.5t153.5 -163.5q70 112 164 164.5t225 52.5 q200 0 320 -123t120 -360v-666z" />
<glyph unicode="n" horiz-adv-x="1249" d="M1120 0h-151v588q0 420 -346 420q-159 0 -250.5 -97t-91.5 -295v-616h-152v1120h152v-145q141 172 360 172q221 0 350 -138t129 -421v-588z" />
<glyph unicode="o" horiz-adv-x="1341" d="M1255 557q0 -166 -73.5 -299.5t-203.5 -209t-292 -75.5q-261 0 -430.5 168t-169.5 426q0 121 45.5 228.5t123.5 184.5t187 122t232 45q252 0 416.5 -167t164.5 -423zM1102 555q0 195 -122 324t-306 129q-186 0 -310 -127t-124 -318q0 -197 124.5 -323.5t317.5 -126.5 q183 0 301.5 125t118.5 317z" />
<glyph unicode="p" horiz-adv-x="1396" d="M1311 557q0 -162 -78.5 -296t-215 -211t-300.5 -77q-139 0 -250.5 56.5t-185.5 163.5v-586h-152v1513h152v-192q71 106 184.5 162.5t255.5 56.5q165 0 300 -77.5t212.5 -212.5t77.5 -300zM1157 557q0 193 -126.5 322t-315.5 129q-186 0 -315.5 -128.5t-129.5 -314.5 q0 -194 127.5 -323t319.5 -129q187 0 313.5 127.5t126.5 316.5z" />
<glyph unicode="q" horiz-adv-x="1396" d="M1268 -393h-152v586q-74 -107 -185.5 -163.5t-250.5 -56.5q-165 0 -301 77t-214.5 212t-78.5 297q0 164 77.5 299t213 212t299.5 77q143 0 256.5 -56t183.5 -163v192h152v-1513zM1126 553q0 195 -127 325t-317 130q-189 0 -315.5 -129t-126.5 -322q0 -189 126.5 -316.5 t315.5 -127.5q186 0 315 128t129 312z" />
<glyph unicode="r" horiz-adv-x="616" d="M598 997q-317 -30 -317 -344v-653h-152v1120h152v-159q44 92 119.5 136t197.5 50v-150z" />
<glyph unicode="s" horiz-adv-x="794" d="M739 322q0 -154 -95.5 -251.5t-246.5 -97.5q-162 0 -261 97.5t-99 259.5h149q0 -101 58 -159t153 -58q82 0 135.5 54.5t53.5 139.5q0 81 -44 122t-173 93q-117 47 -145 61.5t-62 47.5q-84 78 -84 200q0 136 90 226t227 90q136 0 226 -84.5t90 -218.5h-154q0 78 -44.5 121 t-119.5 43q-67 0 -114.5 -47t-47.5 -115q0 -96 103 -148q43 -21 211 -90q194 -81 194 -286z" />
<glyph unicode="t" horiz-adv-x="694" d="M670 983h-252v-983h-152v983h-241v137h241v393h152v-393h252v-137z" />
<glyph unicode="u" horiz-adv-x="1245" d="M1116 0h-151v174q-57 -104 -144 -152.5t-217 -48.5q-110 0 -195 30.5t-149 94t-97.5 169t-33.5 249.5v604h152v-604q0 -209 84 -306t251 -97q162 0 255.5 106t93.5 326v575h151v-1120z" />
<glyph unicode="v" d="M1118 1120l-471 -1120h-160l-471 1120h154l393 -942l402 942h153z" />
<glyph unicode="w" horiz-adv-x="1701" d="M1688 1120l-435 -1120h-161l-244 743l-242 -743h-164l-428 1120h152l356 -938l264 801h125l265 -801l364 938h148z" />
<glyph unicode="x" horiz-adv-x="983" d="M967 0h-174l-301 449l-304 -449h-172l390 571l-390 549h172l304 -432l301 432h174l-392 -549z" />
<glyph unicode="y" horiz-adv-x="1097" d="M1079 1120l-647 -1513h-162l183 430l-435 1083h166l355 -893l379 893h161z" />
<glyph unicode="z" horiz-adv-x="870" d="M850 0h-830v137l619 846h-598v137h770v-129l-612 -854h651v-137z" />
<glyph unicode="{" horiz-adv-x="718" d="M555 -258q-100 1 -162.5 17t-96.5 52.5t-46 86t-12 129.5v348q0 95 -31 129t-131 53v141q100 17 131 52.5t31 130.5v348q0 65 7 107.5t26.5 77.5t55.5 54.5t91 31t137 13.5v-137q-59 -5 -89 -12t-47 -25t-20.5 -40t-3.5 -68v-348q0 -106 -31 -158.5t-114 -83.5 q-27 -9 -37 -14q56 -21 87.5 -39t55 -47t31.5 -68t8 -100v-348q0 -78 27.5 -107.5t109.5 -36.5l23 -2v-137z" />
<glyph unicode="|" horiz-adv-x="1376" d="M764 -256h-152v1769h152v-1769z" />
<glyph unicode="}" horiz-adv-x="718" d="M551 557q-97 -17 -126.5 -52t-29.5 -130v-348q0 -81 -12 -130.5t-46.5 -86t-96.5 -51.5t-162 -17v137l22 2q49 4 78 14t41.5 32t15.5 41t3 57v348q0 61 8 100t31.5 68t55 47t87.5 39q-98 48 -123 70q-47 39 -56 119q-3 28 -3 67v348q0 31 -1.5 47t-8.5 35.5t-21 29.5 t-40.5 18.5t-66.5 12.5l-22 2v137q102 -3 163.5 -18.5t96 -52t46 -84.5t11.5 -129v-348q0 -96 30 -131t126 -52v-141z" />
<glyph unicode="~" horiz-adv-x="1241" d="M1137 702q-53 -103 -131 -166t-156 -63q-59 0 -191 53l-112 45q-70 28 -95.5 35.5t-54.5 7.5q-65 0 -103 -37t-104 -147l-86 96q74 133 140.5 189.5t152.5 56.5q60 0 158 -39l133 -55q112 -47 164 -47q50 0 96.5 39.5t98.5 128.5z" />
<glyph unicode="&#xa1;" horiz-adv-x="604" d="M377 862h-152v258h152v-258zM377 -393h-152v1110h152v-1110z" />
<glyph unicode="&#xa2;" d="M1042 948h-170q-96 172 -292 172q-145 0 -240.5 -95.5t-95.5 -240.5q0 -142 97 -241t237 -99q84 0 150.5 35t135.5 115h166q-41 -113 -141 -190.5t-223 -92.5v-184h-136v184q-124 9 -224.5 73t-157 169t-56.5 229q0 192 121.5 323.5t316.5 151.5v191h136v-191 q132 -19 232 -101t144 -208z" />
<glyph unicode="&#xa3;" d="M1212 436q0 -199 -129 -317.5t-378 -118.5h-584v137h285q86 95 86 238q0 95 -40 163.5t-157 172.5h-258v137h153q-26 62 -35.5 105t-9.5 96q0 215 136 353t346 138q205 0 345.5 -120t162.5 -312h-142q-31 138 -127 216.5t-237 78.5q-148 0 -240 -97.5t-92 -254.5 q0 -57 11.5 -98.5t45.5 -104.5h582v-137h-440q147 -156 147 -334q0 -106 -59 -240h116q184 0 272.5 85.5t88.5 226.5q0 39 -12 100h147q16 -63 16 -113z" />
<glyph unicode="&#xa4;" d="M1081 614q0 -182 -96 -301l86 -86l-110 -108l-84 86q-87 -58 -155.5 -80.5t-156.5 -22.5q-87 0 -155 23t-152 80l-86 -86l-109 110l84 84q-94 128 -94 308q0 91 23 162.5t74 142.5l-91 86l113 110l88 -86q82 53 151.5 75t153.5 22q171 0 307 -95l89 86l110 -112l-84 -86 q94 -137 94 -312zM936 621q0 158 -103 263t-260 105q-163 0 -268.5 -105t-105.5 -266q0 -158 106 -263t266 -105q155 0 260 106.5t105 264.5z" />
<glyph unicode="&#xa5;" d="M1206 1513l-299 -565h211v-137h-284l-99 -188h369v-138h-422v-485h-150v485h-430v138h375l-100 188h-289v137h215l-303 565h156l452 -843l443 843h155z" />
<glyph unicode="&#xa6;" horiz-adv-x="1376" d="M764 805h-152v708h152v-708zM764 -256h-152v709h152v-709z" />
<glyph unicode="&#xa7;" horiz-adv-x="1259" d="M1083 592q0 -85 -40 -161.5t-115 -131.5q98 -104 98 -223q0 -157 -110 -261t-275 -104q-180 0 -299 118t-125 302h139q9 -128 87 -205.5t198 -77.5q104 0 175 64.5t71 159.5q0 61 -45 109.5t-148 99.5l-293 143q-126 61 -174.5 120t-48.5 150q0 188 176 312 q-42 45 -60 91t-18 109q0 145 100.5 239.5t252.5 94.5q149 0 249 -83.5t111 -215.5h-145q-35 162 -215 162q-94 0 -153.5 -54t-59.5 -139q0 -56 31.5 -102t89.5 -74l323 -151q223 -104 223 -291zM944 573q0 117 -125 175l-385 182q-54 -37 -85.5 -94t-31.5 -119 q0 -95 111 -148l406 -196q51 37 80.5 90.5t29.5 109.5z" />
<glyph unicode="&#xa8;" horiz-adv-x="755" d="M303 1243h-151v258h151v-258zM604 1243h-151v258h151v-258z" />
<glyph unicode="&#xa9;" horiz-adv-x="1529" d="M1491 698q0 -196 -97.5 -362.5t-264.5 -263.5t-363 -97t-362.5 97t-263.5 263.5t-97 362.5t97 363t263.5 264.5t362.5 97.5t363 -97.5t264.5 -264.5t97.5 -363zM1415 698q0 132 -51.5 252.5t-138.5 207.5t-207 138.5t-252 51.5t-252 -51.5t-206.5 -139t-137.5 -207.5 t-51 -252q0 -176 86.5 -325t235.5 -235.5t325 -86.5t325.5 86.5t236.5 235.5t87 325zM1229 518q-139 -260 -436 -260q-209 0 -348.5 126t-139.5 312q0 190 136.5 316.5t344.5 126.5q151 0 269.5 -70t167.5 -188h-129q-101 151 -306 151q-155 0 -260.5 -96t-105.5 -238 q0 -138 109 -235.5t260 -97.5q96 0 167 35.5t142 117.5h129z" />
<glyph unicode="&#xaa;" horiz-adv-x="755" d="M682 918h-98v92q-44 -57 -94 -82t-117 -25q-126 0 -218 93t-92 221t91.5 218.5t220.5 90.5q63 0 121.5 -29.5t87.5 -75.5v92h98v-595zM578 1212q0 86 -60.5 149.5t-140.5 63.5t-142.5 -62.5t-62.5 -143.5q0 -86 61.5 -150.5t143.5 -64.5q79 0 140 63t61 145zM694 653 h-631v105h631v-105z" />
<glyph unicode="&#xab;" horiz-adv-x="870" d="M434 270l-121 -67l-231 411l231 408l121 -66l-192 -342zM788 270l-120 -67l-236 411l236 408l120 -66l-192 -342z" />
<glyph unicode="&#xac;" horiz-adv-x="1241" d="M1112 776v-452h-151v301h-832v151h983z" />
<glyph unicode="&#xad;" horiz-adv-x="679" d="M618 477h-555v129h555v-129z" />
<glyph unicode="&#xae;" horiz-adv-x="1529" d="M1491 698q0 -196 -97.5 -362.5t-264.5 -263.5t-363 -97t-362.5 97t-263.5 263.5t-97 362.5t97 363t263.5 264.5t362.5 97.5t363 -97.5t264.5 -264.5t97.5 -363zM1415 698q0 132 -51.5 252.5t-138.5 207.5t-207 138.5t-252 51.5t-252 -51.5t-206.5 -139t-137.5 -207.5 t-51 -252q0 -176 86.5 -325t235.5 -235.5t325 -86.5t325.5 86.5t236.5 235.5t87 325zM1087 272h-149l-330 404q206 -2 281.5 31.5t75.5 140.5q0 94 -68 132t-221 38h-115v-746h-117v852h238q214 0 306.5 -70.5t92.5 -209.5q0 -109 -63.5 -176t-186.5 -86z" />
<glyph unicode="&#xaf;" horiz-adv-x="993" d="M842 1307h-690v131h690v-131z" />
<glyph unicode="&#xb0;" horiz-adv-x="819" d="M717 1092q0 -132 -89 -223t-218 -91t-218.5 92t-89.5 224q0 130 92 220.5t224 90.5q126 0 212.5 -90.5t86.5 -222.5zM600 1092q0 81 -54.5 138.5t-131.5 57.5q-83 0 -140 -57t-57 -139q0 -81 57.5 -139t135.5 -58q80 0 135 57t55 140z" />
<glyph unicode="&#xb1;" horiz-adv-x="1241" d="M1112 588h-416v-299h-151v299h-416v151h416v416h151v-416h416v-151zM1112 0h-983v152h983v-152z" />
<glyph unicode="&#xb2;" horiz-adv-x="679" d="M655 1241q0 -72 -39.5 -137.5t-136.5 -153.5l-272 -248h444v-112h-626v104l333 307q81 74 113.5 109t45.5 64t13 71q0 69 -55 120.5t-131 51.5q-84 0 -136 -55.5t-52 -157.5v-10h-123q3 160 86.5 248t230.5 88q127 0 216 -84.5t89 -204.5z" />
<glyph unicode="&#xb3;" horiz-adv-x="679" d="M653 874q0 -123 -92.5 -212t-220.5 -89q-133 0 -219.5 86t-93.5 240h125q6 -110 57.5 -161.5t128.5 -51.5q76 0 133 55t57 129q0 189 -266 189v110l43 -2q75 0 119.5 34t44.5 91q0 54 -36.5 89.5t-92.5 35.5q-60 0 -93.5 -40t-33.5 -117h-125q1 123 70.5 196.5 t183.5 73.5q106 0 179 -70.5t73 -173.5q0 -52 -18.5 -88.5t-65.5 -79.5q143 -88 143 -244z" />
<glyph unicode="&#xb4;" horiz-adv-x="768" d="M694 1450l-395 -233l-70 114l396 238z" />
<glyph unicode="&#xb5;" horiz-adv-x="1245" d="M1116 0h-151v174q-104 -201 -336 -201q-109 0 -199.5 52t-148.5 149v-567h-152v1513h152v-575q0 -142 21.5 -210t86.5 -128q104 -96 240 -96q156 0 246 107t90 327v575h151v-1120z" />
<glyph unicode="&#xb6;" horiz-adv-x="1155" d="M1006 -272h-154v1648h-234v-1648h-153v999q-181 19 -285 125t-104 272q0 176 116.5 282.5t339.5 106.5h474v-1785z" />
<glyph unicode="&#xb7;" horiz-adv-x="567" d="M414 512q0 -54 -38 -91.5t-91 -37.5q-54 0 -91.5 37.5t-37.5 91.5t37.5 91.5t91.5 37.5q53 0 91 -37.5t38 -91.5z" />
<glyph unicode="&#xb8;" horiz-adv-x="663" d="M590 -281q0 -98 -63 -165.5t-165 -67.5q-76 0 -126.5 46.5t-69.5 127.5l108 12q10 -36 31 -51.5t60 -15.5q43 0 70.5 29.5t27.5 74.5q0 50 -29 79.5t-76 29.5q-55 0 -94 -39l-65 39l77 192h80l-34 -108q42 10 67 10q85 0 143 -54t58 -139z" />
<glyph unicode="&#xb9;" horiz-adv-x="679" d="M477 590h-123v811h-153v112h276v-923z" />
<glyph unicode="&#xba;" horiz-adv-x="755" d="M690 1217q0 -127 -92.5 -219.5t-220.5 -92.5q-129 0 -220 92t-91 224q0 123 93 214t220 91q126 0 218.5 -91.5t92.5 -217.5zM582 1212q0 91 -58.5 152t-146.5 61q-85 0 -144 -61t-59 -147q0 -88 59.5 -149.5t145.5 -61.5q83 0 143 60.5t60 145.5zM690 653h-624v105h624 v-105z" />
<glyph unicode="&#xbb;" horiz-adv-x="870" d="M788 614l-231 -411l-121 67l193 344l-193 342l121 66zM438 614l-235 -411l-121 67l192 344l-192 342l121 66z" />
<glyph unicode="&#xbc;" horiz-adv-x="1701" d="M1645 162h-86v-162h-123v162h-473v102l462 660h134v-650h86v-112zM1436 274v461l-320 -461h320zM1243 1513l-700 -1513h-111l698 1513h113zM483 590h-123v811h-153v112h276v-923z" />
<glyph unicode="&#xbd;" horiz-adv-x="1701" d="M1233 1513l-701 -1513h-110l698 1513h113zM473 590h-123v811h-153v112h276v-923zM1667 651q0 -72 -39.5 -137.5t-136.5 -153.5l-272 -247h444v-113h-627v104l334 308q115 105 143.5 144.5t28.5 98.5q0 69 -55 120.5t-131 51.5q-84 0 -136.5 -56t-52.5 -157v-10h-123 q3 160 87 248t231 88q127 0 216 -84.5t89 -204.5z" />
<glyph unicode="&#xbe;" horiz-adv-x="1701" d="M1645 162h-86v-162h-123v162h-473v102l462 660h134v-650h86v-112zM1436 274v461l-320 -461h320zM1300 1513l-700 -1513h-111l699 1513h112zM653 874q0 -123 -92.5 -212t-220.5 -89q-133 0 -221.5 87.5t-91.5 238.5h125q6 -112 57.5 -162.5t128.5 -50.5q76 0 133 55 t57 129q0 189 -266 189v110l43 -2q75 0 119.5 34t44.5 91q0 54 -36.5 89.5t-92.5 35.5q-60 0 -93.5 -40t-33.5 -117h-125q1 123 70.5 196.5t183.5 73.5q106 0 179 -70.5t73 -173.5q0 -52 -18.5 -88.5t-65.5 -79.5q143 -90 143 -244z" />
<glyph unicode="&#xbf;" horiz-adv-x="1210" d="M676 862h-152v258h152v-258zM1077 80q0 -239 -134 -369.5t-345 -130.5q-201 0 -332 126t-131 319q0 99 41.5 178.5t142.5 169.5q116 103 162 179t47 173h144q-1 -125 -48 -217t-165 -201q-103 -96 -137.5 -153.5t-34.5 -133.5q0 -132 88 -217.5t223 -85.5q154 0 245 91.5 t91 271.5h143z" />
<glyph unicode="&#xc0;" horiz-adv-x="1515" d="M1493 0h-166l-219 510h-705l-221 -510h-159l649 1513h170zM1049 647l-291 694l-297 -694h588zM911 1704l-69 -115l-396 234l70 119z" />
<glyph unicode="&#xc1;" horiz-adv-x="1515" d="M1493 0h-166l-219 510h-705l-221 -510h-159l649 1513h170zM1049 647l-291 694l-297 -694h588zM1067 1823l-395 -234l-70 115l395 238z" />
<glyph unicode="&#xc2;" horiz-adv-x="1515" d="M1493 0h-166l-219 510h-705l-221 -510h-159l649 1513h170zM1049 647l-291 694l-297 -694h588zM1120 1616h-182l-176 151l-180 -151h-187l297 258h135z" />
<glyph unicode="&#xc3;" horiz-adv-x="1515" d="M1493 0h-166l-219 510h-705l-221 -510h-159l649 1513h170zM1049 647l-291 694l-297 -694h588zM1055 1749q-25 -40 -80.5 -70t-106.5 -30q-42 0 -135 45q-48 20 -82 20q-29 0 -48.5 -9.5t-59.5 -43.5l-15 -12l-67 94q36 46 86.5 73t103.5 27q19 0 104 -31.5t115 -31.5 q57 0 117 63z" />
<glyph unicode="&#xc4;" horiz-adv-x="1515" d="M1493 0h-166l-219 510h-705l-221 -510h-159l649 1513h170zM1049 647l-291 694l-297 -694h588zM682 1616h-152v258h152v-258zM983 1616h-152v258h152v-258z" />
<glyph unicode="&#xc5;" horiz-adv-x="1515" d="M1493 0h-166l-219 510h-705l-221 -510h-159l649 1513h170zM1049 647l-291 694l-297 -694h588zM965 1772q0 -86 -60.5 -146.5t-146.5 -60.5t-146.5 59.5t-60.5 144.5q0 88 60.5 148.5t148.5 60.5q85 0 145 -60.5t60 -145.5zM872 1772q0 46 -33.5 80t-80.5 34 q-48 0 -81.5 -34t-33.5 -83q0 -46 34 -79t81 -33t80.5 34t33.5 81z" />
<glyph unicode="&#xc6;" horiz-adv-x="2031" d="M1917 0h-805v512h-555l-354 -512h-180l1046 1513h848v-137h-653v-542h630v-138h-630v-559h653v-137zM1112 649v670l-459 -670h459z" />
<glyph unicode="&#xc7;" horiz-adv-x="1665" d="M1577 397q-227 -418 -680 -424l-23 -71q43 10 68 10q85 0 143 -54t58 -139q0 -98 -63 -165.5t-165 -67.5q-76 0 -126.5 46.5t-69.5 127.5l108 12q10 -36 31 -51.5t60 -15.5q43 0 70.5 29.5t27.5 74.5q0 50 -29 79.5t-76 29.5q-55 0 -94 -39l-65 39l63 157 q-155 12 -289.5 76.5t-230 166.5t-150.5 240.5t-55 293.5q0 223 101.5 403.5t281 282.5t401.5 102q235 0 422 -112.5t275 -307.5h-170q-179 281 -520 281q-133 0 -251 -49.5t-202.5 -134.5t-134 -204.5t-49.5 -254.5q0 -130 51 -249.5t137 -206t204 -138t247 -51.5 q164 0 284.5 66t241.5 218h168z" />
<glyph unicode="&#xc8;" horiz-adv-x="1097" d="M983 0h-827v1513h827v-137h-676v-542h654v-138h-654v-559h676v-137zM725 1704l-70 -115l-395 234l70 119z" />
<glyph unicode="&#xc9;" horiz-adv-x="1097" d="M983 0h-827v1513h827v-137h-676v-542h654v-138h-654v-559h676v-137zM879 1823l-396 -234l-69 115l395 238z" />
<glyph unicode="&#xca;" horiz-adv-x="1097" d="M983 0h-827v1513h827v-137h-676v-542h654v-138h-654v-559h676v-137zM932 1616h-182l-177 151l-180 -151h-186l297 258h135z" />
<glyph unicode="&#xcb;" horiz-adv-x="1097" d="M983 0h-827v1513h827v-137h-676v-542h654v-138h-654v-559h676v-137zM496 1616h-152v258h152v-258zM797 1616h-152v258h152v-258z" />
<glyph unicode="&#xcc;" horiz-adv-x="462" d="M307 0h-151v1513h151v-1513zM377 1704l-70 -115l-395 234l70 119z" />
<glyph unicode="&#xcd;" horiz-adv-x="462" d="M307 0h-151v1513h151v-1513zM551 1823l-395 -234l-70 115l395 238z" />
<glyph unicode="&#xce;" horiz-adv-x="462" d="M307 0h-151v1513h151v-1513zM594 1616h-182l-176 151l-181 -151h-186l297 258h135z" />
<glyph unicode="&#xcf;" horiz-adv-x="462" d="M307 0h-151v1513h151v-1513zM158 1616h-152v258h152v-258zM459 1616h-152v258h152v-258z" />
<glyph unicode="&#xd0;" horiz-adv-x="1617" d="M1528 752q0 -166 -53.5 -302t-159 -237t-273.5 -157t-385 -56h-407v711h-197v137h197v665h356q206 0 338.5 -27t239.5 -91q167 -100 255.5 -264.5t88.5 -378.5zM1374 758q0 169 -72 305.5t-202 214.5q-86 52 -200.5 75t-287.5 23h-211v-528h420v-137h-420v-574h211 q201 0 327.5 31.5t217.5 103.5q104 85 160.5 211t56.5 275z" />
<glyph unicode="&#xd1;" horiz-adv-x="1515" d="M1360 0h-152l-901 1331v-1331h-151v1513h204l848 -1255v1255h152v-1513zM1057 1749q-25 -40 -80.5 -70t-106.5 -30q-42 0 -135 45q-48 20 -82 20q-29 0 -48.5 -9.5t-59.5 -43.5l-15 -12l-67 94q36 46 86.5 73t103.5 27q19 0 104 -31.5t115 -31.5q57 0 117 63z" />
<glyph unicode="&#xd2;" horiz-adv-x="1779" d="M1690 756q0 -158 -64 -302.5t-171 -250t-255 -168t-309 -62.5q-164 0 -312 62.5t-255.5 168.5t-170.5 253t-63 309q0 155 64.5 298t172.5 247t256 166.5t308 62.5q161 0 309 -62t255.5 -167.5t171 -250.5t63.5 -304zM1536 754q0 130 -51.5 250t-138.5 207t-206 138.5 t-249 51.5q-129 0 -248.5 -51.5t-206.5 -137.5t-139.5 -204.5t-52.5 -245.5q0 -176 87 -325.5t236 -236.5t324 -87q130 0 249 51.5t206 137.5t138.5 204.5t51.5 247.5zM1047 1704l-70 -115l-395 234l69 119z" />
<glyph unicode="&#xd3;" horiz-adv-x="1779" d="M1690 756q0 -158 -64 -302.5t-171 -250t-255 -168t-309 -62.5q-164 0 -312 62.5t-255.5 168.5t-170.5 253t-63 309q0 155 64.5 298t172.5 247t256 166.5t308 62.5q161 0 309 -62t255.5 -167.5t171 -250.5t63.5 -304zM1536 754q0 130 -51.5 250t-138.5 207t-206 138.5 t-249 51.5q-129 0 -248.5 -51.5t-206.5 -137.5t-139.5 -204.5t-52.5 -245.5q0 -176 87 -325.5t236 -236.5t324 -87q130 0 249 51.5t206 137.5t138.5 204.5t51.5 247.5zM1200 1823l-395 -234l-70 115l395 238z" />
<glyph unicode="&#xd4;" horiz-adv-x="1779" d="M1690 756q0 -158 -64 -302.5t-171 -250t-255 -168t-309 -62.5q-164 0 -312 62.5t-255.5 168.5t-170.5 253t-63 309q0 155 64.5 298t172.5 247t256 166.5t308 62.5q161 0 309 -62t255.5 -167.5t171 -250.5t63.5 -304zM1536 754q0 130 -51.5 250t-138.5 207t-206 138.5 t-249 51.5q-129 0 -248.5 -51.5t-206.5 -137.5t-139.5 -204.5t-52.5 -245.5q0 -176 87 -325.5t236 -236.5t324 -87q130 0 249 51.5t206 137.5t138.5 204.5t51.5 247.5zM1253 1616h-182l-176 151l-180 -151h-187l297 258h136z" />
<glyph unicode="&#xd5;" horiz-adv-x="1779" d="M1690 756q0 -158 -64 -302.5t-171 -250t-255 -168t-309 -62.5q-164 0 -312 62.5t-255.5 168.5t-170.5 253t-63 309q0 155 64.5 298t172.5 247t256 166.5t308 62.5q161 0 309 -62t255.5 -167.5t171 -250.5t63.5 -304zM1536 754q0 130 -51.5 250t-138.5 207t-206 138.5 t-249 51.5q-129 0 -248.5 -51.5t-206.5 -137.5t-139.5 -204.5t-52.5 -245.5q0 -176 87 -325.5t236 -236.5t324 -87q130 0 249 51.5t206 137.5t138.5 204.5t51.5 247.5zM1190 1749q-25 -40 -80 -70t-106 -30q-43 0 -136 45q-48 20 -82 20q-29 0 -48.5 -9.5t-59.5 -43.5 l-14 -12l-68 94q36 46 86.5 73t103.5 27q18 0 104 -31.5t116 -31.5q56 0 116 63z" />
<glyph unicode="&#xd6;" horiz-adv-x="1779" d="M1690 756q0 -158 -64 -302.5t-171 -250t-255 -168t-309 -62.5q-164 0 -312 62.5t-255.5 168.5t-170.5 253t-63 309q0 155 64.5 298t172.5 247t256 166.5t308 62.5q161 0 309 -62t255.5 -167.5t171 -250.5t63.5 -304zM1536 754q0 130 -51.5 250t-138.5 207t-206 138.5 t-249 51.5q-129 0 -248.5 -51.5t-206.5 -137.5t-139.5 -204.5t-52.5 -245.5q0 -176 87 -325.5t236 -236.5t324 -87q130 0 249 51.5t206 137.5t138.5 204.5t51.5 247.5zM817 1616h-151v258h151v-258zM1118 1616h-151v258h151v-258z" />
<glyph unicode="&#xd7;" horiz-adv-x="1241" d="M1022 217l-107 -106l-294 295l-295 -295l-107 106l295 295l-295 295l107 106l295 -295l294 295l107 -106l-295 -295z" />
<glyph unicode="&#xd8;" horiz-adv-x="1777" d="M1688 762q0 -162 -62 -308.5t-168 -251.5t-253 -167t-310 -62q-230 0 -418 113l-192 -256l-115 84l190 254q-131 109 -200.5 261t-69.5 329q0 162 62 307t167.5 249t252.5 165t311 61q117 0 230 -31t190 -84l192 256l111 -86l-189 -252q271 -229 271 -581zM1219 1313 q-145 88 -338 88q-175 0 -321.5 -86t-231 -235.5t-84.5 -329.5q0 -274 205 -467zM1534 756q0 276 -203 473l-770 -1030q165 -86 332 -86q176 0 323.5 85.5t232.5 233.5t85 324z" />
<glyph unicode="&#xd9;" horiz-adv-x="1341" d="M1186 569q0 -299 -138 -447.5t-378 -148.5q-238 0 -376 148.5t-138 447.5v944h151v-944q0 -456 365 -456q177 0 269.5 113.5t92.5 342.5v944h152v-944zM825 1704l-69 -115l-396 234l70 119z" />
<glyph unicode="&#xda;" horiz-adv-x="1341" d="M1186 569q0 -299 -138 -447.5t-378 -148.5q-238 0 -376 148.5t-138 447.5v944h151v-944q0 -456 365 -456q177 0 269.5 113.5t92.5 342.5v944h152v-944zM981 1823l-395 -234l-70 115l395 238z" />
<glyph unicode="&#xdb;" horiz-adv-x="1341" d="M1186 569q0 -299 -138 -447.5t-378 -148.5q-238 0 -376 148.5t-138 447.5v944h151v-944q0 -456 365 -456q177 0 269.5 113.5t92.5 342.5v944h152v-944zM1034 1616h-182l-176 151l-180 -151h-187l297 258h135z" />
<glyph unicode="&#xdc;" horiz-adv-x="1341" d="M1186 569q0 -299 -138 -447.5t-378 -148.5q-238 0 -376 148.5t-138 447.5v944h151v-944q0 -456 365 -456q177 0 269.5 113.5t92.5 342.5v944h152v-944zM596 1616h-152v258h152v-258zM897 1616h-152v258h152v-258z" />
<glyph unicode="&#xdd;" horiz-adv-x="1212" d="M1208 1513l-528 -1007v-506h-152v506l-524 1007h168l430 -847l440 847h166zM913 1823l-395 -234l-69 115l395 238z" />
<glyph unicode="&#xde;" horiz-adv-x="1212" d="M1157 782q0 -223 -129.5 -332.5t-429.5 -109.5h-291v-340h-151v1513h137v-272h280q310 0 447 -109.5t137 -349.5zM1004 782q0 51 -7.5 92t-19.5 72.5t-34 55.5t-44.5 40.5t-57.5 28t-65.5 18t-77 10t-83.5 4.5t-93 1h-215v-627h281q225 0 320.5 70t95.5 235z" />
<glyph unicode="&#xdf;" d="M1073 408q0 -186 -120 -310.5t-300 -124.5q-267 0 -381 250v-223h-151v985q0 283 104 419t314 136q186 0 309 -121.5t123 -304.5q0 -110 -42 -186.5t-132 -130.5q134 -43 205 -143t71 -246zM920 403q0 139 -98.5 219t-270.5 80q-24 0 -92 -4v138h18q160 0 250 75.5 t90 210.5q0 120 -78 199.5t-196 79.5q-140 0 -205.5 -98t-65.5 -318v-569h105q3 -134 79 -218.5t193 -84.5q114 0 192.5 83.5t78.5 206.5z" />
<glyph unicode="&#xe0;" horiz-adv-x="1398" d="M1270 0h-152v197q-89 -120 -189.5 -172t-242.5 -52q-170 0 -307.5 76t-215 209.5t-77.5 298.5q0 166 77 301t212 212t301 77q146 0 252.5 -54t189.5 -171v198h152v-1120zM1118 565q0 187 -126.5 315t-311.5 128q-183 0 -311.5 -129t-128.5 -312q0 -192 129 -323t319 -131 q181 0 305.5 130.5t124.5 321.5zM831 1331l-69 -114l-395 233l69 119z" />
<glyph unicode="&#xe1;" horiz-adv-x="1398" d="M1270 0h-152v197q-89 -120 -189.5 -172t-242.5 -52q-170 0 -307.5 76t-215 209.5t-77.5 298.5q0 166 77 301t212 212t301 77q146 0 252.5 -54t189.5 -171v198h152v-1120zM1118 565q0 187 -126.5 315t-311.5 128q-183 0 -311.5 -129t-128.5 -312q0 -192 129 -323t319 -131 q181 0 305.5 130.5t124.5 321.5zM985 1450l-395 -233l-70 114l395 238z" />
<glyph unicode="&#xe2;" horiz-adv-x="1398" d="M1270 0h-152v197q-89 -120 -189.5 -172t-242.5 -52q-170 0 -307.5 76t-215 209.5t-77.5 298.5q0 166 77 301t212 212t301 77q146 0 252.5 -54t189.5 -171v198h152v-1120zM1118 565q0 187 -126.5 315t-311.5 128q-183 0 -311.5 -129t-128.5 -312q0 -192 129 -323t319 -131 q181 0 305.5 130.5t124.5 321.5zM1038 1243h-182l-176 152l-180 -152h-187l297 258h135z" />
<glyph unicode="&#xe3;" horiz-adv-x="1398" d="M1270 0h-152v197q-89 -120 -189.5 -172t-242.5 -52q-170 0 -307.5 76t-215 209.5t-77.5 298.5q0 166 77 301t212 212t301 77q146 0 252.5 -54t189.5 -171v198h152v-1120zM1118 565q0 187 -126.5 315t-311.5 128q-183 0 -311.5 -129t-128.5 -312q0 -192 129 -323t319 -131 q181 0 305.5 130.5t124.5 321.5zM973 1376q-25 -40 -80.5 -70t-106.5 -30q-42 0 -135 45q-48 20 -82 20q-29 0 -48.5 -9.5t-59.5 -43.5l-15 -12l-67 94q36 46 86.5 73t103.5 27q19 0 104 -31.5t115 -31.5q57 0 117 63z" />
<glyph unicode="&#xe4;" horiz-adv-x="1398" d="M1270 0h-152v197q-89 -120 -189.5 -172t-242.5 -52q-170 0 -307.5 76t-215 209.5t-77.5 298.5q0 166 77 301t212 212t301 77q146 0 252.5 -54t189.5 -171v198h152v-1120zM1118 565q0 187 -126.5 315t-311.5 128q-183 0 -311.5 -129t-128.5 -312q0 -192 129 -323t319 -131 q181 0 305.5 130.5t124.5 321.5zM600 1243h-151v258h151v-258zM901 1243h-151v258h151v-258z" />
<glyph unicode="&#xe5;" horiz-adv-x="1398" d="M1270 0h-152v197q-89 -120 -189.5 -172t-242.5 -52q-170 0 -307.5 76t-215 209.5t-77.5 298.5q0 166 77 301t212 212t301 77q146 0 252.5 -54t189.5 -171v198h152v-1120zM1118 565q0 187 -126.5 315t-311.5 128q-183 0 -311.5 -129t-128.5 -312q0 -192 129 -323t319 -131 q181 0 305.5 130.5t124.5 321.5zM883 1393q0 -86 -60.5 -146.5t-146.5 -60.5t-146.5 60t-60.5 145q0 88 60.5 148t148.5 60q85 0 145 -60.5t60 -145.5zM791 1393q0 46 -34 80t-81 34q-48 0 -81.5 -33.5t-33.5 -82.5q0 -46 34 -79.5t81 -33.5t81 34t34 81z" />
<glyph unicode="&#xe6;" horiz-adv-x="2369" d="M2290 506h-1014q15 -168 141.5 -280.5t300.5 -112.5q129 0 234.5 68.5t152.5 183.5h158q-59 -175 -209 -283.5t-336 -108.5q-265 0 -450 215v-188h-146v188q-93 -114 -198.5 -164.5t-245.5 -50.5q-124 0 -234 45t-188.5 122.5t-124 185.5t-45.5 231q0 161 75 296 t211 214.5t304 79.5q148 0 255.5 -53.5t190.5 -167.5v194h146v-194q91 114 198 167.5t244 53.5q120 0 224.5 -41.5t184 -119.5t125.5 -201.5t46 -278.5zM2142 643q-31 166 -148.5 265.5t-281.5 99.5q-167 0 -286 -101.5t-144 -263.5h860zM1126 561q0 194 -125.5 320.5 t-318.5 126.5q-188 0 -314 -128.5t-126 -318.5q0 -189 127 -318.5t313 -129.5q187 0 315.5 129.5t128.5 318.5z" />
<glyph unicode="&#xe7;" horiz-adv-x="1325" d="M1245 330q-96 -183 -228 -268.5t-304 -88.5l-23 -71q43 10 68 10q85 0 142.5 -54t57.5 -139q0 -98 -62.5 -165.5t-164.5 -67.5q-76 0 -126.5 46.5t-69.5 127.5l108 12q10 -37 31 -52t59 -15q43 0 70.5 29.5t27.5 74.5q0 50 -29 79.5t-75 29.5q-55 0 -94 -39l-66 39 l64 159q-235 22 -390 187.5t-155 398.5q0 161 79.5 295t217.5 211.5t303 77.5q189 0 339 -99t218 -268h-170q-65 110 -165 169t-224 59q-187 0 -315.5 -130t-128.5 -319q0 -186 130.5 -316t319.5 -130q119 0 207 50t176 167h172z" />
<glyph unicode="&#xe8;" horiz-adv-x="1331" d="M1251 510h-1013q9 -165 136.5 -281t299.5 -116q128 0 236 70.5t155 185.5h158q-56 -165 -208 -280.5t-337 -115.5q-122 0 -232 46t-189 125t-125 189t-46 232q0 161 77 294.5t210.5 210.5t294.5 77q124 0 231 -44t185 -125t122.5 -201.5t44.5 -266.5zM1100 647 q-38 167 -154.5 264t-279.5 97q-159 0 -276 -99.5t-148 -261.5h858zM823 1331l-69 -114l-396 233l70 119z" />
<glyph unicode="&#xe9;" horiz-adv-x="1331" d="M1251 510h-1013q9 -165 136.5 -281t299.5 -116q128 0 236 70.5t155 185.5h158q-56 -165 -208 -280.5t-337 -115.5q-122 0 -232 46t-189 125t-125 189t-46 232q0 161 77 294.5t210.5 210.5t294.5 77q124 0 231 -44t185 -125t122.5 -201.5t44.5 -266.5zM1100 647 q-38 167 -154.5 264t-279.5 97q-159 0 -276 -99.5t-148 -261.5h858zM977 1450l-395 -233l-70 114l395 238z" />
<glyph unicode="&#xea;" horiz-adv-x="1331" d="M1251 510h-1013q9 -165 136.5 -281t299.5 -116q128 0 236 70.5t155 185.5h158q-56 -165 -208 -280.5t-337 -115.5q-122 0 -232 46t-189 125t-125 189t-46 232q0 161 77 294.5t210.5 210.5t294.5 77q124 0 231 -44t185 -125t122.5 -201.5t44.5 -266.5zM1100 647 q-38 167 -154.5 264t-279.5 97q-159 0 -276 -99.5t-148 -261.5h858zM1030 1243h-182l-176 152l-180 -152h-187l297 258h135z" />
<glyph unicode="&#xeb;" horiz-adv-x="1331" d="M1251 510h-1013q9 -165 136.5 -281t299.5 -116q128 0 236 70.5t155 185.5h158q-56 -165 -208 -280.5t-337 -115.5q-122 0 -232 46t-189 125t-125 189t-46 232q0 161 77 294.5t210.5 210.5t294.5 77q124 0 231 -44t185 -125t122.5 -201.5t44.5 -266.5zM1100 647 q-38 167 -154.5 264t-279.5 97q-159 0 -276 -99.5t-148 -261.5h858zM592 1243h-152v258h152v-258zM893 1243h-152v258h152v-258z" />
<glyph unicode="&#xec;" horiz-adv-x="409" d="M281 0h-152v1120h152v-1120zM350 1331l-69 -114l-396 233l70 119z" />
<glyph unicode="&#xed;" horiz-adv-x="409" d="M281 0h-152v1120h152v-1120zM524 1450l-395 -233l-70 114l396 238z" />
<glyph unicode="&#xee;" horiz-adv-x="409" d="M281 0h-152v1120h152v-1120zM567 1243h-182l-176 152l-180 -152h-187l297 258h135z" />
<glyph unicode="&#xef;" horiz-adv-x="409" d="M281 0h-152v1120h152v-1120zM129 1243h-152v258h152v-258zM430 1243h-151v258h151v-258z" />
<glyph unicode="&#xf0;" horiz-adv-x="1341" d="M1255 571q0 -264 -159.5 -431t-411.5 -167q-170 0 -306.5 76t-214 210.5t-77.5 301.5q0 121 43 228.5t117.5 184t178.5 121t222 44.5q85 0 197 -37q-94 96 -120 121t-75 67l-178 -80l-74 95l162 71q-42 42 -67 64l-56 49l109 59q88 -65 139 -112l195 86l79 -90l-182 -80 q120 -105 203.5 -194.5t148.5 -186t96 -195.5t31 -205zM1102 557q0 194 -122 322.5t-306 128.5q-186 0 -310 -127t-124 -318q0 -197 124.5 -323.5t317.5 -126.5q184 0 302 124.5t118 319.5z" />
<glyph unicode="&#xf1;" horiz-adv-x="1249" d="M1120 0h-151v588q0 420 -346 420q-159 0 -250.5 -97t-91.5 -295v-616h-152v1120h152v-145q141 172 360 172q221 0 350 -138t129 -421v-588zM922 1376q-25 -40 -80.5 -70t-106.5 -30q-42 0 -135 45q-48 20 -82 20q-29 0 -48.5 -9.5t-59.5 -43.5l-15 -12l-67 94 q36 46 86.5 73t103.5 27q18 0 103.5 -31.5t115.5 -31.5q57 0 117 63z" />
<glyph unicode="&#xf2;" horiz-adv-x="1341" d="M1255 557q0 -166 -73.5 -299.5t-203.5 -209t-292 -75.5q-261 0 -430.5 168t-169.5 426q0 121 45.5 228.5t123.5 184.5t187 122t232 45q252 0 416.5 -167t164.5 -423zM1102 555q0 195 -122 324t-306 129q-186 0 -310 -127t-124 -318q0 -197 124.5 -323.5t317.5 -126.5 q183 0 301.5 125t118.5 317zM829 1331l-69 -114l-395 233l69 119z" />
<glyph unicode="&#xf3;" horiz-adv-x="1341" d="M1255 557q0 -166 -73.5 -299.5t-203.5 -209t-292 -75.5q-261 0 -430.5 168t-169.5 426q0 121 45.5 228.5t123.5 184.5t187 122t232 45q252 0 416.5 -167t164.5 -423zM1102 555q0 195 -122 324t-306 129q-186 0 -310 -127t-124 -318q0 -197 124.5 -323.5t317.5 -126.5 q183 0 301.5 125t118.5 317zM983 1450l-395 -233l-70 114l395 238z" />
<glyph unicode="&#xf4;" horiz-adv-x="1341" d="M1255 557q0 -166 -73.5 -299.5t-203.5 -209t-292 -75.5q-261 0 -430.5 168t-169.5 426q0 121 45.5 228.5t123.5 184.5t187 122t232 45q252 0 416.5 -167t164.5 -423zM1102 555q0 195 -122 324t-306 129q-186 0 -310 -127t-124 -318q0 -197 124.5 -323.5t317.5 -126.5 q183 0 301.5 125t118.5 317zM1036 1243h-182l-176 152l-180 -152h-187l297 258h135z" />
<glyph unicode="&#xf5;" horiz-adv-x="1341" d="M1255 557q0 -166 -73.5 -299.5t-203.5 -209t-292 -75.5q-261 0 -430.5 168t-169.5 426q0 121 45.5 228.5t123.5 184.5t187 122t232 45q252 0 416.5 -167t164.5 -423zM1102 555q0 195 -122 324t-306 129q-186 0 -310 -127t-124 -318q0 -197 124.5 -323.5t317.5 -126.5 q183 0 301.5 125t118.5 317zM971 1376q-25 -40 -80.5 -70t-106.5 -30q-42 0 -135 45q-48 20 -82 20q-29 0 -48.5 -9.5t-59.5 -43.5l-15 -12l-67 94q36 46 86.5 73t103.5 27q19 0 104 -31.5t115 -31.5q57 0 117 63z" />
<glyph unicode="&#xf6;" horiz-adv-x="1341" d="M1255 557q0 -166 -73.5 -299.5t-203.5 -209t-292 -75.5q-261 0 -430.5 168t-169.5 426q0 121 45.5 228.5t123.5 184.5t187 122t232 45q252 0 416.5 -167t164.5 -423zM1102 555q0 195 -122 324t-306 129q-186 0 -310 -127t-124 -318q0 -197 124.5 -323.5t317.5 -126.5 q183 0 301.5 125t118.5 317zM598 1243h-152v258h152v-258zM899 1243h-151v258h151v-258z" />
<glyph unicode="&#xf7;" horiz-adv-x="1241" d="M1112 436h-983v152h983v-152zM750 891q0 -54 -37.5 -91.5t-91.5 -37.5t-91.5 37.5t-37.5 91.5t37.5 91.5t91.5 37.5t91.5 -37.5t37.5 -91.5zM750 133q0 -54 -37.5 -91.5t-91.5 -37.5t-91.5 37.5t-37.5 91.5t37.5 91.5t91.5 37.5t91.5 -37.5t37.5 -91.5z" />
<glyph unicode="&#xf8;" horiz-adv-x="1337" d="M1251 575q0 -263 -163 -432.5t-416 -169.5q-83 0 -151.5 19t-155.5 65l-107 -137l-108 82l104 137q-92 107 -130 201.5t-38 216.5q0 161 78 297t213 214.5t295 78.5q163 0 299 -84l116 154l109 -87l-115 -151q170 -154 170 -404zM889 958q-100 50 -215 50 q-184 0 -309 -133t-125 -330q0 -85 23 -153.5t77 -143.5zM1098 573q0 175 -101 299l-551 -710q109 -49 216 -49q193 0 314.5 128.5t121.5 331.5z" />
<glyph unicode="&#xf9;" horiz-adv-x="1245" d="M1116 0h-151v174q-57 -104 -144 -152.5t-217 -48.5q-110 0 -195 30.5t-149 94t-97.5 169t-33.5 249.5v604h152v-604q0 -209 84 -306t251 -97q162 0 255.5 106t93.5 326v575h151v-1120zM778 1331l-69 -114l-396 233l70 119z" />
<glyph unicode="&#xfa;" horiz-adv-x="1245" d="M1116 0h-151v174q-57 -104 -144 -152.5t-217 -48.5q-110 0 -195 30.5t-149 94t-97.5 169t-33.5 249.5v604h152v-604q0 -209 84 -306t251 -97q162 0 255.5 106t93.5 326v575h151v-1120zM932 1450l-395 -233l-70 114l395 238z" />
<glyph unicode="&#xfb;" horiz-adv-x="1245" d="M1116 0h-151v174q-57 -104 -144 -152.5t-217 -48.5q-110 0 -195 30.5t-149 94t-97.5 169t-33.5 249.5v604h152v-604q0 -209 84 -306t251 -97q162 0 255.5 106t93.5 326v575h151v-1120zM985 1243h-182l-176 152l-181 -152h-186l297 258h135z" />
<glyph unicode="&#xfc;" horiz-adv-x="1245" d="M1116 0h-151v174q-57 -104 -144 -152.5t-217 -48.5q-110 0 -195 30.5t-149 94t-97.5 169t-33.5 249.5v604h152v-604q0 -209 84 -306t251 -97q162 0 255.5 106t93.5 326v575h151v-1120zM547 1243h-152v258h152v-258zM848 1243h-152v258h152v-258z" />
<glyph unicode="&#xfd;" horiz-adv-x="1097" d="M1079 1120l-647 -1513h-162l183 430l-435 1083h166l355 -893l379 893h161zM860 1450l-395 -233l-70 114l396 238z" />
<glyph unicode="&#xfe;" horiz-adv-x="1396" d="M1311 557q0 -162 -78.5 -296t-215 -211t-300.5 -77q-139 0 -250.5 56.5t-185.5 163.5v-586h-152v1906h152v-585q71 106 184.5 162.5t255.5 56.5q165 0 300 -77.5t212.5 -212.5t77.5 -300zM1157 557q0 193 -126.5 322t-315.5 129q-186 0 -315.5 -128.5t-129.5 -314.5 q0 -194 127.5 -323t319.5 -129q187 0 313.5 127.5t126.5 316.5z" />
<glyph unicode="&#xff;" horiz-adv-x="1097" d="M1079 1120l-647 -1513h-162l183 430l-435 1083h166l355 -893l379 893h161zM475 1243h-151v258h151v-258zM776 1243h-151v258h151v-258z" />
<glyph unicode="&#x152;" horiz-adv-x="2445" d="M2331 0h-805v309q-95 -164 -252.5 -250t-362.5 -86q-175 0 -327.5 59.5t-261 163.5t-170.5 250.5t-62 313.5q0 165 60.5 309.5t166 248t253 163t315.5 59.5q213 0 379.5 -85t261.5 -243v301h805v-137h-654v-542h631v-138h-631v-559h654v-137zM1528 762q0 183 -82.5 329 t-229.5 228t-331 82q-136 0 -255.5 -49.5t-204 -134t-133 -201.5t-48.5 -248q0 -139 49.5 -261t136 -208.5t208.5 -136t261 -49.5q179 0 322.5 83.5t225 232t81.5 333.5z" />
<glyph unicode="&#x153;" horiz-adv-x="2328" d="M2249 586q0 -8 -4 -78h-1000q7 -112 71 -203.5t163 -141.5t209 -50q262 0 385 254h151q-27 -103 -100 -192t-186.5 -145.5t-241.5 -56.5q-177 0 -316.5 82.5t-210.5 227.5q-92 -161 -210 -235.5t-281 -74.5q-165 0 -300.5 77t-213.5 212t-78 299q0 122 45 230.5 t121.5 186.5t184 123.5t227.5 45.5q164 0 288.5 -73.5t216.5 -225.5q174 299 504 299q161 0 293 -73.5t207.5 -202.5t75.5 -285zM2103 645q-28 162 -148 262.5t-286 100.5q-157 0 -270 -97t-154 -266h858zM1098 559q0 193 -122.5 321t-307.5 128q-184 0 -306 -127.5 t-122 -321.5q0 -189 126 -317.5t312 -128.5q178 0 299 128.5t121 317.5z" />
<glyph unicode="&#x178;" horiz-adv-x="1212" d="M1208 1513l-528 -1007v-506h-152v506l-524 1007h168l430 -847l440 847h166zM530 1616h-151v258h151v-258zM831 1616h-151v258h151v-258z" />
<glyph unicode="&#x2c6;" horiz-adv-x="1028" d="M877 1243h-183l-176 152l-180 -152h-186l297 258h135z" />
<glyph unicode="&#x2dc;" horiz-adv-x="899" d="M748 1376q-25 -40 -80.5 -70t-106.5 -30q-42 0 -135 45q-48 20 -82 20q-29 0 -48.5 -9.5t-59.5 -43.5l-15 -12l-67 94q36 46 86.5 73t103.5 27q18 0 103 -31.5t116 -31.5q57 0 117 63z" />
<glyph unicode="&#x2000;" horiz-adv-x="989" />
<glyph unicode="&#x2001;" horiz-adv-x="1978" />
<glyph unicode="&#x2002;" horiz-adv-x="989" />
<glyph unicode="&#x2003;" horiz-adv-x="1978" />
<glyph unicode="&#x2004;" horiz-adv-x="659" />
<glyph unicode="&#x2005;" horiz-adv-x="494" />
<glyph unicode="&#x2006;" horiz-adv-x="329" />
<glyph unicode="&#x2007;" horiz-adv-x="329" />
<glyph unicode="&#x2008;" horiz-adv-x="247" />
<glyph unicode="&#x2009;" horiz-adv-x="395" />
<glyph unicode="&#x200a;" horiz-adv-x="109" />
<glyph unicode="&#x2010;" horiz-adv-x="679" d="M618 477h-555v129h555v-129z" />
<glyph unicode="&#x2011;" horiz-adv-x="679" d="M618 477h-555v129h555v-129z" />
<glyph unicode="&#x2012;" horiz-adv-x="679" d="M618 477h-555v129h555v-129z" />
<glyph unicode="&#x2013;" horiz-adv-x="1024" d="M1024 477h-1024v129h1024v-129z" />
<glyph unicode="&#x2014;" horiz-adv-x="2048" d="M2048 477h-2048v129h2048v-129z" />
<glyph unicode="&#x2018;" horiz-adv-x="718" d="M532 1120h-151l-180 393h151z" />
<glyph unicode="&#x2019;" horiz-adv-x="718" d="M518 1513l-180 -393h-152l181 393h151z" />
<glyph unicode="&#x201a;" horiz-adv-x="724" d="M514 258l-180 -395h-152l180 395h152z" />
<glyph unicode="&#x201c;" horiz-adv-x="1028" d="M831 1120h-151l-180 393h151zM528 1120h-151l-180 393h151z" />
<glyph unicode="&#x201d;" horiz-adv-x="991" d="M510 1513l-180 -393h-152l180 393h152zM805 1513l-180 -393h-152l180 393h152z" />
<glyph unicode="&#x201e;" horiz-adv-x="1028" d="M514 258l-180 -395h-152l180 395h152zM815 258l-180 -395h-152l181 395h151z" />
<glyph unicode="&#x2022;" horiz-adv-x="1241" d="M999 623q0 -160 -111 -270.5t-272 -110.5q-154 0 -264 112t-110 267q0 157 111 267.5t268 110.5q158 0 268 -109.5t110 -266.5z" />
<glyph unicode="&#x2026;" horiz-adv-x="2048" d="M418 0h-152v258h152v-258zM1100 0h-152v258h152v-258zM1782 0h-152v258h152v-258z" />
<glyph unicode="&#x202f;" horiz-adv-x="395" />
<glyph unicode="&#x2039;" horiz-adv-x="514" d="M432 270l-121 -67l-229 411l229 408l121 -66l-190 -342z" />
<glyph unicode="&#x203a;" horiz-adv-x="514" d="M432 614l-229 -411l-121 67l190 344l-190 342l121 66z" />
<glyph unicode="&#x205f;" horiz-adv-x="494" />
<glyph unicode="&#x20ac;" d="M1174 1286l-64 -141q-100 148 -183 204t-202 56q-180 0 -280.5 -104t-153.5 -361h719l-52 -121h-679q-1 -14 -2 -31.5t-2 -29t-1 -17.5q0 -34 2 -63h621l-49 -121h-561q29 -218 139 -334.5t287 -116.5q119 0 191 36.5t194 150.5v-166q-83 -83 -171.5 -118.5t-211.5 -35.5 q-242 0 -386 142.5t-196 441.5h-196l49 121h139q-2 29 -2 63q0 8 4 78h-193l50 121h153q30 168 82 285t127 186t166 99t211 30q138 0 237.5 -52t213.5 -202z" />
<glyph unicode="&#x2122;" horiz-adv-x="2048" d="M713 1513v-106h-228v-756h-127v756h-229v106h584zM1919 651h-127v697l-354 -697h-103l-350 697v-697h-129v862h178l355 -692l354 692h176v-862z" />
<glyph unicode="&#x25fc;" horiz-adv-x="1116" d="M0 1116h1116v-1116h-1116v1116z" />
</font>
</defs>
</svg>
