<?xml version="1.0" encoding="iso-8859-1"?>
<!-- Generator: Adobe Illustrator 19.0.0, SVG Export Plug-In . SVG Version: 6.00 Build 0)  -->
<svg version="1.1" id="Layer_1" xmlns="http://www.w3.org/2000/svg" xmlns:xlink="http://www.w3.org/1999/xlink" x="0px" y="0px"
	 viewBox="0 0 512.002 512.002" style="enable-background:new 0 0 512.002 512.002;" xml:space="preserve">
<g>
	<g>
		<path d="M488.697,1.371l-82.13,34.813c-6.181,2.62-10.2,8.685-10.2,15.4v40.391l-242.21,242.21l-61.17-20.388
			c-6.007-2.01-12.639-0.452-17.116,4.041L4.901,388.81c-8.776,8.775-5.253,23.775,6.535,27.696l63.04,21.017l21.017,63.04
			c3.891,11.696,18.849,15.383,27.696,6.534l70.972-70.972c4.482-4.482,6.045-11.103,4.04-17.116l-20.388-61.17l242.21-242.21h40.39
			c6.715,0,12.781-4.019,15.4-10.2l34.813-82.13C516.5,9.451,502.456-4.481,488.697,1.371z"/>
	</g>
</g>
<g>
	<g>
		<path d="M272.478,168.552l70.988-70.987C223.279,12.112,70.923,6.406,6.391,59.497c-2.525,2.073-4.568,5.006-5.516,8.418
			C-0.794,73.888,1,79.861,4.932,83.945c0.078,0.081,0.129,0.18,0.209,0.26l175.842,175.842l23.656-23.654L51.336,83.088
			C115.555,80.25,209.605,122.913,272.478,168.552z"/>
	</g>
</g>
<g>
	<g>
		<path d="M453.005,505.065c63.124-84.197,31.34-238.212-38.57-336.533l-70.989,70.987c45.649,62.879,88.337,156.948,85.475,221.155
			L275.606,307.359l-23.656,23.654c1.71,1.71,174.366,174.39,176.104,176.057c6.289,6.047,15.679,4.692,11.566,4.692
			C450.554,511.763,456.839,499.95,453.005,505.065z"/>
	</g>
</g>
<g>
</g>
<g>
</g>
<g>
</g>
<g>
</g>
<g>
</g>
<g>
</g>
<g>
</g>
<g>
</g>
<g>
</g>
<g>
</g>
<g>
</g>
<g>
</g>
<g>
</g>
<g>
</g>
<g>
</g>
</svg>
