<?xml version="1.0" standalone="no"?>
<!DOCTYPE svg PUBLIC "-//W3C//DTD SVG 1.1//EN" "http://www.w3.org/Graphics/SVG/1.1/DTD/svg11.dtd" >
<svg xmlns="http://www.w3.org/2000/svg">
<metadata></metadata>
<defs>
<font id="soutaneregular" horiz-adv-x="1132" >
<font-face units-per-em="2048" ascent="1638" descent="-410" />
<missing-glyph horiz-adv-x="563" />
<glyph horiz-adv-x="2048" />
<glyph horiz-adv-x="2048" />
<glyph unicode="&#xd;" horiz-adv-x="563" />
<glyph unicode=" "  horiz-adv-x="563" />
<glyph unicode="&#x09;" horiz-adv-x="563" />
<glyph unicode="&#xa0;" horiz-adv-x="563" />
<glyph unicode="!" horiz-adv-x="567" d="M152 72q0 49 29.5 80.5t74.5 31.5t79 -29.5t34 -74.5t-29 -78t-74 -33t-79.5 29t-34.5 74zM176 1360q0 47 28.5 77.5t71.5 30.5q39 0 72 -38.5t33 -79.5l-82 -951q0 -45 -35 -45t-35 47z" />
<glyph unicode="&#x22;" horiz-adv-x="737" d="M94 1440q-6 31 21.5 60.5t66.5 29.5q37 0 65.5 -28.5t22.5 -61.5l-67 -402h-41zM465 1440q-6 31 21.5 60.5t66.5 29.5q37 0 65.5 -28.5t22.5 -61.5l-68 -402h-41z" />
<glyph unicode="#" horiz-adv-x="1247" d="M12 377l35 160h221l64 272h-232l29 160h244l92 391h90l-90 -391h227l88 391h92l-96 -391h240l-35 -160h-242l-67 -272h252l-35 -160h-252l-92 -381h-92l96 381h-230l-92 -381h-92l92 381h-215zM356 532h228l63 273h-223z" />
<glyph unicode="$" d="M80 303q0 25 17.5 49.5t45.5 24.5q12 0 84 -144.5t252 -144.5v604q-102 57 -205 115q-156 117 -155 283q0 207 184 307q61 33 184 59v148h97v-144q49 14 172 -55q145 -82 145 -195q0 -49 -16.5 -69.5t-48.5 -20.5q-57 0 -63.5 122t-188.5 122v-516l278 -160 q117 -109 117 -246q0 -264 -195 -379q-63 -37 -196 -63v-219h-113v215q-131 27 -196 55q-199 88 -199 252zM236 1133q0 -119 122 -191q41 -22 125 -49v471q-82 -12 -123 -31q-125 -59 -124 -200zM584 76q92 23 137 47q139 78 139 225q0 123 -137 227q-45 35 -139 80v-579z " />
<glyph unicode="%" horiz-adv-x="1679" d="M47 1081q0 182 68 303q86 152 254 152t254 -152q69 -123 69 -303t-69 -303q-86 -152 -254 -151q-168 0 -252 149q-70 123 -70 305zM172 1079q0 -150 31 -245q49 -152 168 -152t166 156q30 100 30 254q0 156 -28 243q-47 145 -168 146q-127 0 -172 -150q-27 -86 -27 -252z M336 12q0 10 14.5 34t14.5 26l847 1378q10 16 23.5 36.5t50.5 20.5q45 0 45 -20q0 -8 -10 -25.5t-10 -19.5l-848 -1379q-27 -43 -31 -47q-20 -23 -53 -22q-27 0 -31 2q-12 6 -12 16zM977 424q0 182 67 303q86 152 254 152t254 -152q70 -123 70 -303t-70 -303 q-86 -152 -254 -152t-251 150q-70 123 -70 305zM1102 422q0 -150 31 -246q49 -152 167 -151q119 0 166 155q31 100 31 254q0 156 -29 244q-47 145 -168 145q-127 0 -172 -149q-27 -86 -26 -252z" />
<glyph unicode="&#x26;" horiz-adv-x="1591" d="M57 354q0 145 101 260q78 90 241 183q-68 88 -104 159q-49 96 -49 181q0 145 113.5 244.5t258.5 99.5q135 0 234 -70q113 -80 113 -211q0 -143 -129 -256q-51 -43 -240 -156q162 -246 373 -452q76 106 96 139q57 96 57 168q0 55 -35.5 84t-78.5 29q0 31 6 47t30 16h336 q27 0 38.5 -13t11.5 -38q0 -14 -3 -20q-94 -25 -178 -142q-109 -172 -217 -342q74 -76 142 -114q84 -47 174 -48q49 0 77.5 8.5t51.5 14.5q20 0 28 -8t8 -35q0 -47 -57 -73.5t-151 -26.5q-131 0 -228 47q-76 37 -166 127q-86 -88 -204.5 -137.5t-241.5 -49.5q-164 0 -281 99 q-127 109 -127 286zM217 356q0 -139 109 -217q92 -66 225 -65q96 0 174 36.5t115 108.5q-227 231 -404 486q-104 -63 -161.5 -150.5t-57.5 -198.5zM391 1163q0 -68 51 -157q14 -25 99 -146q158 98 192 127q103 89 103 193q0 82 -62.5 142t-155.5 60q-92 0 -159.5 -63.5 t-67.5 -155.5z" />
<glyph unicode="'" horiz-adv-x="327" d="M76 1440q-6 31 21.5 60.5t66.5 29.5q37 0 65.5 -28.5t22.5 -61.5l-68 -402h-41z" />
<glyph unicode="(" horiz-adv-x="679" d="M164 578q0 276 82 520q61 184 176 358q10 8 16 12q20 12 39 13q14 0 31 -13l12 -12q-98 -193 -157.5 -443.5t-59.5 -434.5q0 -203 57.5 -423.5t157.5 -406.5q-2 -8 -16.5 -14t-28.5 -6q-23 0 -39 5t-26 7q-119 197 -179 391q-66 215 -65 447z" />
<glyph unicode=")" horiz-adv-x="679" d="M135 1450l12 12q16 12 31 13q18 0 39 -13q6 -4 16 -12q115 -174 177 -356q82 -242 82 -523q0 -229 -62.5 -436t-181.5 -401q-14 -4 -28.5 -8.5t-37.5 -4.5q-16 0 -26 5q-16 6 -19 16q100 188 157.5 406.5t57.5 422.5q0 180 -59.5 432t-157.5 447z" />
<glyph unicode="*" horiz-adv-x="1015" d="M150 1235q0 37 40.5 57.5t77.5 20.5q39 0 76 -47q104 -135 117 -142l12 9q0 31 -41 129q-20 49 -20 79q0 41 19.5 87.5t60.5 46.5q33 0 60.5 -45.5t27.5 -79.5q0 -31 -45 -138q-23 -53 -23 -88q41 16 111 105q61 78 125 78q35 0 51 -20.5t16 -51.5q0 -68 -124 -95.5 t-154 -56.5q31 -20 131 -32q159 -21 159 -119q0 -37 -41 -57.5t-77 -20.5q-39 0 -76 47q-104 135 -117 141l-12 -8q0 -31 41 -129q20 -49 20 -80q0 -41 -16 -80q-23 -53 -64 -53q-33 0 -60.5 45t-27.5 80q0 31 45 137q23 53 23 88q-41 -16 -111 -104q-61 -78 -125 -78 q-35 0 -51 20.5t-16 51.5q0 68 108 92q139 31 170 59q-31 20 -131 33q-160 20 -159 119z" />
<glyph unicode="+" horiz-adv-x="1247" d="M147 553v94h420v508h97v-508h407v-94h-412v-516h-92v516h-420z" />
<glyph unicode="," horiz-adv-x="567" d="M104 59q0 39 30 71t87 32q68 0 100.5 -53t32.5 -125q0 -86 -52 -185.5t-130 -158.5h-33l-8 32q55 43 96 114t41 126q0 16 -16 41q-51 0 -80 10q-68 25 -68 96z" />
<glyph unicode="-" horiz-adv-x="679" d="M74 457q0 16 9 36.5t13 30.5h471q13 -34 13 -57q0 -16 -5 -31l-8 -24h-471q-23 23 -22 45z" />
<glyph unicode="." horiz-adv-x="567" d="M102 74q0 43 29 73.5t72 30.5t73.5 -28.5t30.5 -71.5q0 -41 -28.5 -72t-69.5 -31t-74 29t-33 70z" />
<glyph unicode="/" horiz-adv-x="567" d="M0 -33l469 1460h80l-469 -1460h-80z" />
<glyph unicode="0" d="M53 684q0 326 109 539q131 256 387 256q254 0 385 -234q113 -200 113 -524q0 -354 -135.5 -552t-370.5 -198q-233 0 -367 222q-121 201 -121 491zM231 700q0 -233 62 -411q86 -250 264 -250q176 0 254 221q59 170 59 465q0 266 -61 436q-84 231 -264 232 q-170 0 -252 -242q-61 -184 -62 -451z" />
<glyph unicode="1" d="M160 1276q0 8 8 20q2 4 8 13q166 16 273 61q84 47 169 96q33 0 33 -43v-1214q0 -86 131 -102.5t131 -65.5q0 -14 -14 -27.5t-43 -13.5h-616q-8 0 -17 8q-16 14 -16 29q0 39 136 57.5t136 110.5v932q0 35 -20.5 68.5t-52.5 33.5h-230q-6 6 -8 10q-8 12 -8 27z" />
<glyph unicode="2" d="M25 33q0 121 202 340q186 195 375 391q205 231 205 379q0 100 -76 169.5t-194 69.5q-121 0 -206 -66.5t-85 -156.5q0 -51 25.5 -93t25.5 -46q0 -37 -24.5 -57.5t-65.5 -20.5q-51 0 -91 40t-40 103q0 172 162 289q150 106 329 107q166 0 297 -95q144 -104 144 -260 q0 -168 -154 -335q-37 -39 -328 -295q-213 -186 -295 -336l13 -8h522q35 0 80 41q98 90 121 90q10 0 24.5 -6.5t14.5 -20.5q0 -25 -11 -47l-80 -201l-18 -8h-850q-8 6 -10 10q-12 14 -12 23z" />
<glyph unicode="3" d="M29 270q0 45 24.5 74t57.5 29q55 0 104 -158t272 -158q139 0 237.5 94.5t98.5 237.5q0 217 -155 295q-102 51 -320 51q-4 4 -4 6q-10 18 -10 37q0 16 6 29q2 4 8 10q250 20 337 101t87 229q0 96 -73.5 170t-186.5 74q-98 0 -161.5 -43t-63.5 -117q0 -25 6 -47.5t6 -28.5 q0 -37 -27.5 -53.5t-62.5 -16.5q-51 0 -78 31t-27 72q0 106 126 197.5t278 91.5q184 0 313 -91q139 -98 140 -258q0 -131 -109 -227q-98 -88 -244 -113q178 -25 283 -112q121 -103 121 -277q0 -211 -172 -327q-147 -100 -369 -101q-193 0 -313 76q-129 82 -129 223z" />
<glyph unicode="4" d="M25 428q0 133 149 397q137 242 311 443q184 211 269 211q37 0 61.5 -22.5t24.5 -51.5v-901h186q41 0 59.5 -11.5t18.5 -48.5t-18.5 -48t-59.5 -11h-186v-233q0 -37 63.5 -57.5t63.5 -55.5q-6 -39 -33 -39h-363q-41 0 -41 39q0 29 67 47t67 49v246h-564q-33 0 -54 10 t-21 37zM176 492h496v792q-172 -164 -299 -362q-137 -213 -197 -430z" />
<glyph unicode="5" d="M31 242q0 51 20.5 84.5t57.5 33.5q55 0 76.5 -27.5t21.5 -96.5q0 -92 80 -138q66 -37 166 -37q166 0 267 105.5t101 267.5q0 164 -75.5 262.5t-221.5 98.5q-86 0 -169 -37t-158 -99q-12 -4 -23 -4q-33 0 -43 25l45 772q78 -8 123 -10q158 -12 229 -12q92 0 171 8t157 18 q16 0 28.5 -12t12.5 -27q0 -78 -174 -114q-133 -29 -309 -29q-51 0 -79 1t-54 5l-37 -469q66 43 145.5 63.5t167.5 20.5q186 0 320 -109q143 -117 143 -297q0 -231 -148.5 -375.5t-404.5 -144.5q-160 0 -289 70q-147 80 -147 203z" />
<glyph unicode="6" d="M63 543q0 342 164 577q127 182 342 283q166 78 297 78q23 0 45.5 -16.5t22.5 -41.5q0 -37 -165 -60.5t-280 -123.5q-182 -160 -249 -522q55 84 156.5 128t215.5 44q199 0 321 -116t122 -298q0 -207 -140 -350q-147 -152 -374 -152q-205 0 -341.5 158t-136.5 412zM240 471 q0 -168 85 -286.5t226 -118.5q139 0 229 102.5t90 249.5q0 172 -80.5 267t-230.5 95q-139 0 -223 -73q-96 -84 -96 -236z" />
<glyph unicode="7" d="M113 1171l8 230q0 55 51 55h823q33 0 33 -37q0 -12 -4 -24l-483 -1303q-29 -78 -52.5 -101.5t-74.5 -23.5q-41 0 -64.5 19.5t-23.5 52.5q0 20 10 47l541 1223h-576q-47 0 -84 -72q-25 -55 -49 -109q-18 0 -36.5 12.5t-18.5 30.5z" />
<glyph unicode="8" d="M35 319q0 129 110 242q76 76 232 170q-131 76 -197 141q-96 94 -96 199q0 176 136 289t325 113q172 0 299 -78q141 -88 141 -232q0 -113 -94 -205q-20 -20 -199 -149q156 -68 248 -170q109 -121 109 -262q0 -164 -158 -287t-387 -123q-180 0 -320 96q-150 104 -149 256z M182 315q0 -125 103.5 -199.5t259.5 -74.5q129 0 234.5 71.5t105.5 180.5q0 166 -142 270q-111 82 -286 117q-111 -45 -193 -149.5t-82 -215.5zM231 1122q0 -115 127 -192q63 -39 217 -90q92 31 166 100q97 92 97 203q0 106 -96.5 174.5t-213.5 68.5q-109 0 -194 -65 q-102 -78 -103 -199z" />
<glyph unicode="9" d="M35 989q0 201 134 345.5t347 144.5q250 0 379 -183.5t129 -502.5q0 -346 -281 -600q-248 -225 -501 -226q-72 0 -72 49q0 27 143 66q184 51 291 151q172 162 223 480q-162 -143 -370 -144q-190 0 -303 107q-119 113 -119 313zM211 1026q0 -143 68 -246q80 -121 217 -121 q131 0 233 70q115 78 115 191q0 180 -96.5 322t-235.5 142q-135 0 -218 -106.5t-83 -251.5z" />
<glyph unicode=":" horiz-adv-x="567" d="M115 801q0 43 31.5 72.5t80.5 29.5q43 0 72 -33t29 -82q0 -43 -33 -71.5t-80 -28.5q-43 0 -71.5 33t-28.5 80zM119 63q0 41 30.5 72t71.5 31t72 -31t31 -72t-30 -70.5t-73 -29.5q-41 0 -71.5 28.5t-30.5 71.5z" />
<glyph unicode=";" horiz-adv-x="567" d="M109 813q0 45 32.5 73.5t79.5 28.5q43 0 72 -32.5t29 -81.5q0 -41 -32 -71t-81 -30q-41 0 -70.5 34t-29.5 79zM117 94q0 45 33.5 73t80.5 28q57 0 89 -40t32 -110q0 -109 -57 -209t-139 -151q-39 0 -39 26q61 57 92 99q49 66 49 124q0 35 -6 54l-29 -4q-43 0 -74.5 31.5 t-31.5 78.5z" />
<glyph unicode="&#x3c;" horiz-adv-x="1351" d="M115 471v119l1134 522v-133l-987 -451l987 -444v-131z" />
<glyph unicode="=" horiz-adv-x="1247" d="M244 373v106h729v-106h-729zM244 713v110h729v-110h-729z" />
<glyph unicode="&#x3e;" horiz-adv-x="1351" d="M102 -47v131l988 444l-988 451v133l1135 -522v-119z" />
<glyph unicode="?" horiz-adv-x="911" d="M59 1188q0 129 107.5 204.5t257.5 75.5q180 0 283.5 -99t103.5 -263q0 -211 -139 -350q-94 -94 -281 -176l-24 -187q-2 -29 -39 -28q-39 0 -39 30v289q162 59 260 162q115 119 115 266q0 113 -71 197t-175 84q-176 0 -192.5 -134.5t-75.5 -134.5q-35 0 -63 17.5t-28 46.5 zM240 74q0 41 32.5 69.5t77.5 28.5q41 0 70 -33t29 -78q0 -43 -32 -70.5t-79 -27.5q-41 0 -69.5 33t-28.5 78z" />
<glyph unicode="@" horiz-adv-x="1595" d="M115 739q0 332 211 561.5t510 229.5q256 0 442 -178q195 -187 195 -463q0 -223 -138 -404q-145 -190 -344 -190q-123 0 -123 123q0 23 2 35q-59 -66 -125.5 -106t-142.5 -40q-104 0 -162.5 76t-58.5 192q0 223 129 418q141 213 338 213q139 0 196 -125l33 95h148 l-219 -623q-31 -90 -31 -133q0 -55 59 -55q145 0 248.5 155.5t103.5 366.5q0 262 -188 420q-160 133 -360 133q-276 0 -456.5 -199t-180.5 -504q0 -289 178 -483.5t440 -194.5q184 0 332.5 90.5t230.5 264.5h70q-92 -211 -257 -328t-378 -117q-289 0 -495.5 225.5 t-206.5 544.5zM520 520q0 -66 27.5 -104.5t87.5 -38.5q139 0 256 254q100 217 100 358q0 61 -26.5 103.5t-81.5 42.5q-147 0 -262 -234q-100 -203 -101 -381z" />
<glyph unicode="A" horiz-adv-x="1359" d="M0 43q0 33 27 66q37 47 41 55l499 1237q14 35 27 49q20 25 47 25q18 0 45 -25t35 -45l526 -1253q8 -20 45 -54q31 -26 31 -55q0 -20 -15.5 -31.5t-35.5 -11.5h-254q-63 0 -64 51q0 18 49.5 43t49.5 45t-6.5 37t-8.5 25l-110 295h-600l-86 -236q-18 -47 -19 -72 q0 -49 51.5 -88t51.5 -59q0 -23 -7 -31q-8 -10 -36 -10h-242q-41 0 -41 43zM360 608h539l-270 652z" />
<glyph unicode="B" horiz-adv-x="1359" d="M43 45q0 45 62.5 67.5t62.5 88.5v1085q0 33 -60.5 63.5t-60.5 61.5q0 10 14 23q32 26 64 26h2h700q133 0 235.5 -96t102.5 -215q0 -123 -98 -221q-90 -90 -227 -135q186 -35 295 -127q133 -113 133 -293q0 -154 -138.5 -263.5t-338.5 -109.5h-695q-31 0 -42 11.5 t-11 33.5zM336 219q0 -63 38 -97t97 -34h236q135 0 243 82q117 88 117 221q0 111 -115 209q-98 84 -235 129l-381 -96v-414zM340 748l442 133q76 23 133.5 102.5t57.5 157.5q0 90 -64.5 144t-156.5 54h-330q-35 0 -58.5 -29.5t-23.5 -66.5v-495z" />
<glyph unicode="C" horiz-adv-x="1476" d="M57 709q0 319 209 538q223 233 578 234q133 0 248 -35q147 -45 204 -133q10 -10 20.5 -96.5t10.5 -131.5q0 -49 -61 -49q-76 133 -185 232q-118 108 -267 108h-3q-248 0 -395 -198q-133 -180 -133 -437q0 -315 149.5 -486t403.5 -171q158 0 272 82q106 92 213 184 q14 0 31.5 -15.5t17.5 -35.5q0 -78 -149 -193q-186 -143 -439 -143q-315 0 -520 217t-205 529z" />
<glyph unicode="D" horiz-adv-x="1476" d="M59 1405q0 20 21.5 35.5t52.5 15.5h543q281 0 484.5 -212t203.5 -501q0 -385 -238 -587q-182 -156 -403 -156h-578q-82 0 -82 37q0 35 52.5 61.5t52.5 94.5v1107q0 27 -54.5 58t-54.5 47zM352 197q0 -61 32 -85t103 -24h220q197 0 338 197.5t141 451.5q0 256 -152 426 q-164 184 -446 185q-133 0 -184.5 -20.5t-51.5 -84.5v-1046z" />
<glyph unicode="E" horiz-adv-x="1247" d="M59 43q0 41 54.5 67.5t54.5 55.5v1137q0 35 -64 73q-31 18 -30 37q0 20 19.5 37.5t43.5 17.5h887q25 0 46.5 -79.5t21.5 -139.5q0 -35 -33 -35q-47 57 -119 99q-80 47 -172 47h-256q-84 0 -126 -36t-42 -128v-348h438q29 0 66 35t55 35q35 0 39 -30t4 -71q0 -59 -9 -101 t-34 -42q-20 0 -86 43q-34 22 -62 22h-3h-404v-538q0 -41 30 -69t71 -28h362q76 0 160 53.5t168 110.5q10 -6 12 -14q8 -19 8 -37q0 -43 -19.5 -130t-35.5 -87h-983q-61 0 -62 43z" />
<glyph unicode="F" d="M41 41q0 31 59.5 57.5t59.5 89.5v1092q0 49 -50.5 83t-50.5 60q0 25 15.5 29t42.5 4h878q33 0 61.5 -64.5t28.5 -111.5v-37q-6 -29 -41 -29q-74 57 -133 99q-68 47 -123 47h-368q-27 0 -51.5 -36t-24.5 -77v-442h412q41 0 88 47q25 25 43 25q27 0 35 -36t8 -89v-27 q0 -96 -37 -96q-25 0 -49 20q-59 47 -84 47h-420v-516q0 -43 67.5 -75.5t67.5 -57.5q0 -27 -16.5 -37t-38.5 -10h-324q-55 0 -55 41z" />
<glyph unicode="G" horiz-adv-x="1591" d="M70 670q0 322 200 551q225 258 602 258q145 0 267.5 -38t208.5 -132l20 -181q4 -35 -10.5 -57t-44.5 -14q-72 147 -168 221q-113 86 -271 86q-309 0 -473 -229q-131 -184 -131 -428q0 -295 181 -476q170 -170 423 -170q205 0 293 82t88 273q0 150 -49 187.5t-258 37.5 q-20 8 -20 31q0 29 24 53h426q57 0 58 -45v-504q-35 -29 -68 -55q-88 -61 -199 -103q-152 -55 -315 -55q-338 0 -561 201t-223 506z" />
<glyph unicode="H" horiz-adv-x="1591" d="M55 1427q0 29 49 29h312q31 0 44 -10t13 -29q0 -35 -58.5 -61.5t-58.5 -63.5v-440h844v416q0 39 -54 81t-54 62q0 45 53 45h287q51 0 51 -37t-53.5 -67.5t-53.5 -79.5v-1086q0 -57 74 -96q35 -18 35 -47q0 -43 -45 -43h-299q-25 0 -39.5 14.5t-14.5 30.5q0 25 54.5 52.5 t54.5 86.5v555h-848v-569q0 -37 80 -84q39 -23 39 -53q0 -33 -39 -33h-328q-37 0 -37 33q0 25 54.5 54.5t54.5 78.5v1118q0 51 -78 92q-39 20 -39 51z" />
<glyph unicode="I" horiz-adv-x="567" d="M61 1425q0 31 39 31h340q47 0 47 -41q0 -16 -61 -40.5t-61 -123.5v-1083q0 -43 94 -82q45 -18 45 -45q0 -16 -14.5 -28.5t-30.5 -12.5h-359q-37 0 -37 33q0 29 39 49q86 45 86 86v1079q0 96 -86 129q-41 16 -41 49z" />
<glyph unicode="J" horiz-adv-x="911" d="M-35 252q0 98 52.5 179t138.5 81q39 0 71.5 -22.5t32.5 -55.5q0 -47 -55 -67q-121 -43 -121 -121q0 -80 66.5 -134.5t164.5 -54.5q94 0 164 68t70 164v964q0 80 -70.5 109t-70.5 55q0 39 41 39h335q39 0 39 -33t-63 -82q-33 -25 -33 -59v-967q0 -160 -115.5 -259 t-281.5 -99q-150 0 -252 76q-113 82 -113 219z" />
<glyph unicode="K" horiz-adv-x="1359" d="M68 45q0 20 77 74q39 27 39 57v1122q0 43 -71 80q-33 16 -33 41q0 10 9 25.5t28 15.5h325q12 0 22.5 -12t10.5 -29q0 -33 -37 -55q-86 -55 -86 -96v-604l537 569q10 10 21.5 32.5t11.5 43.5q0 37 -48.5 57t-48.5 51q0 43 35 43h344q12 0 24.5 -12t12.5 -29q0 -37 -45 -63 q-63 -37 -66 -39l-407 -443l502 -733q14 -23 53 -41t39 -53q0 -16 -19.5 -31.5t-46.5 -15.5h-270q-23 0 -36 16.5t-13 36.5q0 25 38 48.5t38 48.5q0 6 -12.5 24.5t-16.5 24.5l-375 565l-252 -232v-339q0 -55 55.5 -88t55.5 -62q0 -43 -47 -43h-299q-14 0 -31.5 13.5 t-17.5 31.5z" />
<glyph unicode="L" horiz-adv-x="1247" d="M41 1421q0 39 39 39h356q66 0 66 -49q0 -31 -77 -55.5t-77 -83.5v-1053q0 -57 34 -87t87 -30h283q92 0 196 43q92 47 187 95q23 0 33 -21.5t10 -50.5q0 -59 -20.5 -113.5t-53.5 -54.5h-1000q-47 0 -47 39q0 31 33 57q78 61 78 84v1102q0 49 -63.5 84t-63.5 55z" />
<glyph unicode="M" horiz-adv-x="1695" d="M29 41q0 37 73.5 67.5t73.5 67.5v1104q0 70 -60.5 90.5t-60.5 54.5q0 16 8 25q16 14 52 14h270q23 0 33 -24l418 -1024l430 1016q10 25 30 24h248q29 0 48.5 -14.5t19.5 -32.5q0 -29 -63.5 -53.5t-63.5 -100.5v-1062q0 -66 92 -103q45 -18 45 -49q0 -41 -51 -41h-322 q-49 0 -49 37q0 29 58.5 58.5t58.5 84.5v1061l-434 -985q-10 -25 -27.5 -42t-32.5 -17q-25 0 -39 16q-6 6 -22 43l-447 1030v-1110q0 -43 58.5 -75.5t58.5 -59.5q0 -41 -41 -41h-323q-39 0 -39 41z" />
<glyph unicode="N" horiz-adv-x="1476" d="M20 1415q0 41 43 41h277l815 -1096v924q0 59 -64.5 84t-64.5 47q0 12 10.5 24.5t22.5 12.5h301q8 0 19.5 -9.5t11.5 -19.5q0 -23 -55.5 -55.5t-55.5 -91.5v-1243q0 -18 -15.5 -33.5t-31.5 -15.5q-10 0 -29.5 12t-27.5 20l-879 1223v-1059q0 -45 81 -77.5t81 -67.5 t-43 -35h-348q-31 0 -31 37q0 33 65.5 61.5t65.5 73.5v1079q0 70 -74 105t-74 59z" />
<glyph unicode="O" horiz-adv-x="1591" d="M61 668q0 356 191 579q201 236 547 236q307 0 501 -242q183 -225 183 -536q0 -309 -201 -527q-209 -225 -530 -225q-303 0 -504 225q-186 211 -187 490zM262 676q0 -260 129 -436q139 -188 367 -189q244 0 387 199q129 180 129 434q0 289 -117 473q-131 209 -373 209 q-246 0 -389 -207q-133 -193 -133 -483z" />
<glyph unicode="P" horiz-adv-x="1247" d="M39 1407q0 18 13.5 31.5t27.5 13.5h674q164 0 288 -102q138 -113 138 -285q0 -238 -250 -379q-219 -125 -516 -125l-66 2v-391q0 -39 73 -71.5t73 -63.5q0 -37 -33 -37h-373q-41 0 -41 41q0 20 60.5 52t60.5 67v1091q0 74 -64.5 98.5t-64.5 57.5zM360 680h78 q215 0 373 88q184 103 184 285q0 135 -108.5 215t-286.5 80q-121 0 -180.5 -16.5t-59.5 -71.5v-580z" />
<glyph unicode="Q" horiz-adv-x="1591" d="M74 707q0 317 188 542q197 236 494 236q330 0 532 -225q189 -210 189 -519q0 -266 -130 -456.5t-360 -292.5q61 -61 147.5 -93t176.5 -32l75 6q53 0 70 -20.5t17 -63.5t-41 -64.5t-95 -21.5q-127 0 -260 82q-106 68 -209 182l-104 -6q-293 0 -491.5 209t-198.5 537z M270 684q0 -240 121 -420q139 -207 373 -207l37 2q-18 57 -33.5 132t-15.5 116q0 16 14 28.5t31 12.5q29 0 39 -31l71 -245q182 74 277 254q84 161 84 374q0 291 -140.5 483.5t-343.5 192.5q-238 0 -381 -213q-133 -197 -133 -479z" />
<glyph unicode="R" horiz-adv-x="1359" d="M47 1411q0 23 15.5 34t33.5 11h740q143 0 253.5 -98t110.5 -232q0 -139 -104 -249q-94 -98 -228 -142l316 -561q35 -63 88 -88q41 -18 41 -45q0 -41 -33 -41h-360q-39 0 -39 33q0 27 30 45q70 43 70 65q0 20 -9 60.5t-18 54.5l-249 422l-357 -55v-424q0 -72 69.5 -105 t69.5 -53q0 -43 -43 -43h-350q-39 0 -39 35t54.5 62.5t54.5 74.5v1124q0 31 -78 72q-39 20 -39 43zM352 739q182 29 367 60q293 89 293 325q0 84 -85 148.5t-171 64.5h-287q-51 0 -84 -23.5t-33 -70.5v-504z" />
<glyph unicode="S" horiz-adv-x="1247" d="M25 328q0 18 16 34.5t35 16.5q27 0 160 -155.5t360 -155.5q145 0 252 79q119 88 119 230q0 176 -226 246q-211 53 -422 108q-227 90 -227 318q0 199 150 321q137 113 342 113q150 0 272 -47q164 -63 164 -181q0 -55 -12.5 -83.5t-36.5 -28.5q-84 94 -195 164 q-121 77 -247 77h-3q-117 0 -188.5 -75.5t-71.5 -178.5q0 -182 221 -249q207 -53 414 -107q223 -92 223 -334q0 -223 -176 -356q-166 -125 -413 -125q-188 0 -349 110.5t-161 258.5z" />
<glyph unicode="T" horiz-adv-x="1247" d="M4 1278q0 57 25.5 119.5t70.5 62.5h1008q37 0 67.5 -68.5t30.5 -119.5q0 -29 -10 -52.5t-25 -23.5q-102 66 -190 115q-102 57 -199 57q-31 0 -54 -8t-23 -31v-1161q0 -55 57 -80t57 -53q0 -35 -24 -35h-381q-23 0 -23 33q0 35 60.5 58.5t60.5 64.5v1169q0 18 -21.5 27.5 t-48.5 9.5q-123 0 -225 -51q-86 -57 -172 -113q-20 0 -30.5 25.5t-10.5 54.5z" />
<glyph unicode="U" horiz-adv-x="1476" d="M59 1411q0 20 21.5 32.5t44.5 12.5h291q20 0 37.5 -15.5t17.5 -29.5q0 -27 -65 -65q-37 -23 -49.5 -54.5t-29 -265t-16.5 -408.5q0 -238 86 -378q104 -170 324 -170q221 0 323 133q117 152 117 506q0 143 -10 267t-35 300q-6 47 -66.5 78.5t-60.5 66.5q0 39 47 39h295 q43 0 43 -41q0 -33 -51 -57.5t-51 -69.5q16 -152 27.5 -303t11.5 -252q0 -242 -39 -385q-51 -190 -180 -286q-150 -113 -416 -113q-260 0 -408 176q-139 166 -139 432q0 92 18.5 303t18.5 271v26q0 63 -2 96t-12 50q-20 35 -56.5 54t-36.5 50z" />
<glyph unicode="V" horiz-adv-x="1359" d="M4 1413q0 43 53 43h279q25 0 37 -8t12 -21q0 -33 -37 -53q-80 -43 -80 -121q0 -68 17 -104l397 -973l401 1041l9 40q0 70 -82 109q-39 18 -39 53q0 37 45 37h252q57 0 57 -49q0 -31 -28.5 -56.5t-34.5 -41.5l-502 -1254q-10 -27 -41 -57.5t-55 -30.5q-25 0 -63 38t-48 63 l-483 1235q-10 29 -38 53t-28 57z" />
<glyph unicode="W" horiz-adv-x="1927" d="M12 1407q0 18 13.5 33.5t29.5 15.5h301q37 0 37 -37q0 -20 -84 -82q-41 -31 -41 -65q0 -8 4 -25l273 -1003l260 700l59 291q4 29 4 37q0 51 -48 85t-48 54t14.5 32.5t36.5 12.5h277q45 0 45 -41q0 -18 -55.5 -61t-55.5 -105q0 -23 2 -39t11 -41l317 -921l276 932 q4 16 5 26q-2 23 -3 35q0 80 -64.5 103.5t-64.5 66.5q0 16 16.5 30.5t35.5 14.5h252q16 0 33.5 -15.5t17.5 -31.5q0 -20 -37 -54t-43 -50l-373 -1272q-8 -27 -23.5 -45.5t-33.5 -18.5q-35 0 -51.5 32t-22.5 48l-364 866l-304 -835q-12 -39 -30 -66q-29 -43 -66 -43 q-27 0 -41 17.5t-26 60.5l-367 1268q-8 25 -53 61q-20 16 -21 29z" />
<glyph unicode="X" horiz-adv-x="1359" d="M33 33q0 20 73 73q57 41 117 130l336 491l-383 561q-14 20 -102 86q-33 25 -33 41q0 20 10 32.5t29 12.5h319q18 0 30.5 -14t12.5 -33q0 -10 -35.5 -28.5t-35.5 -63.5q0 -23 16 -45l285 -412l280 383q6 8 13.5 25.5t7.5 32.5q0 51 -51.5 71.5t-51.5 46.5q0 12 14.5 24.5 t28.5 12.5h291q45 0 45 -45q0 -20 -20 -33q-68 -41 -92 -77l-369 -541l453 -629q16 -25 63 -45t47 -51q0 -16 -4 -25q-8 -14 -43 -14h-315q-41 0 -41 35q0 29 34.5 51.5t34.5 54.5q0 23 -8 45.5t-20 36.5l-328 418l-297 -465q-16 -25 -16 -45q0 -27 44 -52.5t44 -43.5 q0 -35 -25 -35h-330q-6 0 -14 6q-14 12 -14 27z" />
<glyph unicode="Y" horiz-adv-x="1359" d="M-10 1417q0 43 35 43h323q35 0 35 -39q0 -27 -42 -54.5t-42 -61.5q0 -12 10 -31q2 -4 19 -27l368 -538l353 530q14 25 14 66q0 39 -46 66.5t-46 43.5q0 14 8 29.5t20 15.5h269q41 0 41 -37q0 -31 -19 -53l-67 -67l-463 -715v-416q0 -35 63.5 -63.5t63.5 -63.5 q0 -45 -41 -45h-350q-39 0 -39 41q0 35 61.5 65.5t61.5 73.5v404l-455 682q-43 66 -115 108q-20 12 -20 43z" />
<glyph unicode="Z" d="M10 82q0 29 20.5 80t37.5 74l733 1032q25 37 24 53q0 27 -32 27h-347q-106 0 -184 -48q-70 -53 -137 -104q-31 0 -31 35q0 90 14.5 157.5t47.5 67.5h825q18 0 36.5 -20.5t18.5 -49.5q0 -41 -12 -57l-762 -1141q-4 -8 -13 -25.5t-9 -25.5q0 -20 26 -20h432q92 0 169 56 t155 116q16 0 21.5 -23.5t5.5 -64.5q0 -90 -18.5 -145.5t-63.5 -55.5h-922l-10 10q-25 31 -25 72z" />
<glyph unicode="[" horiz-adv-x="679" d="M172 -215v1642q0 29 29 29h305q6 -8 8 -14q10 -23 10 -37q0 -18 -6 -37q-2 -6 -8 -16h-186q-25 0 -25 -25v-1440q0 -27 37 -26h168q8 -8 10 -13q10 -16 10 -41q0 -23 -10 -40q-2 -4 -10 -15h-299q-33 0 -33 33z" />
<glyph unicode="\" horiz-adv-x="1247" d="M92 1309h127l873 -1338h-111z" />
<glyph unicode="]" horiz-adv-x="679" d="M131 -193q0 23 10 41q2 4 11 13h167q20 0 25 2q12 6 12 24v1440q0 25 -24 25h-187q-4 10 -6 16q-8 25 -8 37q0 16 8 35q2 6 11 16h305q29 0 28 -29v-1642q0 -33 -32 -33h-299q-8 8 -11 12q-10 18 -10 43z" />
<glyph unicode="^" horiz-adv-x="679" d="M43 1053v14l221 272h135l222 -268v-18l-109 -4l-176 190l-180 -190z" />
<glyph unicode="_" horiz-adv-x="1247" d="M0 -59h1247v-93h-1247v93z" />
<glyph unicode="`" horiz-adv-x="679" d="M53 1233l41 100q8 18 31 6l399 -198q21 -11 21 -25q0 -35 -33 -67l-442 153q-25 8 -17 31z" />
<glyph unicode="a" horiz-adv-x="1015" d="M41 248q0 168 154 280q143 104 329 105q82 0 160 -25q-14 109 -89 175.5t-181 66.5q-86 0 -170 -44t-92 -44q-20 0 -38 17.5t-18 35.5q0 59 105.5 103.5t220.5 44.5q197 0 319 -129q98 -102 99 -201v-461q0 -31 71 -82q35 -24 35 -55q0 -20 -25.5 -33.5t-99.5 -13.5 q-49 0 -78.5 12t-29.5 33v139q-55 -92 -150.5 -143.5t-200.5 -51.5q-137 0 -229 79t-92 192zM205 250q0 -82 63 -129q55 -41 135 -41q125 0 207 76q92 85 92 241l-6 148q-190 -20 -282 -53q-209 -76 -209 -242z" />
<glyph unicode="b" d="M25 1368q0 31 87 74t121 43q39 0 52.5 -22.5t13.5 -65.5v-604q142 161 340 161h2q172 0 283 -133q104 -125 104 -297q0 -246 -140 -396.5t-376 -150.5q-172 0 -272.5 90.5t-100.5 233.5v938q0 49 -57 82t-57 47zM299 311q0 -111 76 -177t182 -66q139 0 225 108.5 t86 280.5q0 176 -81.5 274t-217.5 98q-78 0 -174 -54t-96 -99v-365z" />
<glyph unicode="c" horiz-adv-x="911" d="M43 457q0 193 132 346t321 153q109 0 198 -43q117 -55 117 -153q0 -23 -20.5 -47.5t-38.5 -24.5q-53 0 -129 78t-142 78q-127 0 -199.5 -116t-72.5 -271q0 -168 82 -264.5t213 -96.5q111 0 174 45q57 51 117 105q16 0 30.5 -10.5t14.5 -20.5q0 -80 -114 -157.5 t-243 -77.5q-213 0 -326.5 131t-113.5 346z" />
<glyph unicode="d" d="M59 451q0 193 121 342q130 161 322 161h2q72 0 134 -14t163 -72v328q0 96 -86 129q-41 16 -41 49q0 20 26 35l142 59l53 19q31 0 44 -26.5t13 -67.5v-1213q0 -43 57.5 -79.5t57.5 -63.5q0 -10 -9 -23.5t-22 -13.5h-139q-20 0 -36.5 9t-20.5 32l-17 94q-61 -78 -143 -118 t-180 -40q-176 0 -301 121q-139 133 -140 353zM213 440q0 -152 88 -252t231 -100q104 0 183 49q90 58 90 148v391q0 82 -94 131q-76 39 -164 39q-152 0 -243 -112.5t-91 -293.5z" />
<glyph unicode="e" horiz-adv-x="1015" d="M55 436q0 207 148 361q155 161 380 161h3q129 0 227 -72.5t98 -193.5q0 -172 -268 -268q-186 -68 -346 -68l-66 4q20 -125 110.5 -193.5t211.5 -68.5q102 0 190 47q76 53 154 107q37 0 37 -47q0 -68 -142.5 -146.5t-281.5 -78.5q-207 0 -336 141q-119 131 -119 315z M219 428q272 41 381 92q143 68 143 191q0 66 -56 108.5t-132 42.5q-152 0 -244 -126t-92 -308z" />
<glyph unicode="f" horiz-adv-x="567" d="M37 842q0 55 39 55h117v98q0 186 61 320q74 160 205 160q43 0 79.5 -29t36.5 -76q0 -35 -17 -50t-48 -15q-12 0 -38 15t-40 15q-41 0 -68.5 -79.5t-27.5 -135.5v-221h160q37 0 36 -41q0 -53 -36 -53h-160v-637q0 -55 59.5 -80t59.5 -45q0 -43 -41 -43h-301 q-10 0 -21.5 13.5t-11.5 23.5q0 33 56.5 53.5t56.5 77.5v629h-117q-39 0 -39 45z" />
<glyph unicode="g" horiz-adv-x="995" d="M41 -240q0 51 30.5 95.5t84.5 44.5q8 0 20 -10.5t12 -18.5t-6 -26.5t-6 -28.5q0 -39 78 -69t211 -30q131 0 215 41q100 49 100 146q0 63 -73 116q-18 14 -91 56q-84 -25 -163 -25q-174 0 -285 109q-123 119 -123 323q0 182 109 320q120 153 320 153h3q92 0 191 -16h223 q23 0 44 -17t21 -40q0 -43 -27.5 -55.5t-80.5 -12.5h-53q-25 6 -35 8q59 -63 89 -137t30 -154q0 -227 -179 -389q96 -31 158 -98.5t62 -155.5q0 -125 -134.5 -210t-324.5 -85q-170 0 -275 31q-145 43 -145 135zM186 506q0 -147 72 -246.5t197 -99.5q139 0 209.5 96t70.5 258 q0 160 -65.5 253t-200.5 93q-125 0 -204 -106.5t-79 -247.5z" />
<glyph unicode="h" horiz-adv-x="1120" d="M61 1364q0 31 72 74t119 43q16 0 35.5 -10.5t19.5 -22.5v-629q129 113 307 113q141 0 229.5 -77t88.5 -212v-493q0 -23 24 -46q58 -51 58 -59q0 -18 -27 -45h-235q-23 0 -33 14.5t-10 32.5q0 14 24 33q55 41 55 80v446q0 98 -61 157.5t-166 59.5q-82 0 -168 -49t-86 -104 v-490q0 -51 44 -76.5t44 -54.5q0 -18 -11 -33.5t-38 -15.5h-221q-39 0 -39 39q0 27 25 43q57 37 57 74v1079q0 53 -53.5 84t-53.5 45z" />
<glyph unicode="i" horiz-adv-x="452" d="M23 842q0 33 90 84q49 28 84 28h2q29 0 61.5 -36.5t32.5 -69.5v-674q0 -47 47 -82t47 -55q0 -8 -4 -17q-10 -20 -35 -20h-280q-29 0 -29 33q0 25 50 50.5t50 76.5v520q0 92 -58 104.5t-58 57.5zM76 1200q0 45 31.5 77t76.5 32t77 -32t32 -77t-31 -75.5t-78 -30.5 q-43 0 -75.5 30.5t-32.5 75.5z" />
<glyph unicode="j" horiz-adv-x="452" d="M-74 -293q0 72 105 72q33 0 69 -10q16 18 29.5 51t13.5 51v805q0 86 -61.5 106.5t-61.5 36.5q0 29 82 79t129 50q18 0 43 -16.5t25 -26.5v-964q0 -57 -74 -172q-94 -147 -219 -148q-37 0 -58.5 25.5t-21.5 60.5zM76 1200q0 45 31.5 77t76.5 32t77 -32t32 -77t-31 -75.5 t-78 -30.5q-43 0 -75.5 30.5t-32.5 75.5z" />
<glyph unicode="k" horiz-adv-x="1015" d="M47 1348q0 31 87 80t116 49q20 0 34.5 -14.5t14.5 -32.5v-998l301 277q20 20 30.5 34.5t10.5 36.5q0 20 -22.5 41t-22.5 43q0 16 10 27q8 8 19 8h262q31 0 31 -39q0 -27 -56 -59q-70 -41 -78 -49l-194 -199l325 -436q10 -14 41 -41t31 -37q0 -39 -39 -39h-239 q-27 0 -36 15.5t-9 29.5q0 25 29.5 40t29.5 38q0 35 -18 57l-236 287l-166 -119v-209q0 -41 39 -53t39 -41q0 -45 -41 -45h-234q-10 0 -20 6q-20 12 -20 31q0 27 45 53.5t45 50.5v1123q0 39 -54.5 51t-54.5 33z" />
<glyph unicode="l" horiz-adv-x="440" d="M23 1358q0 23 71.5 71t114.5 48q29 0 52.5 -12.5t23.5 -28.5q0 -12 -6.5 -31t-6.5 -27v-1202q0 -55 52.5 -83.5t52.5 -55.5q0 -37 -37 -37h-270q-12 0 -21.5 13.5t-9.5 29.5q0 31 46 51.5t46 57.5v1116q-43 23 -75.5 43t-32.5 47z" />
<glyph unicode="m" horiz-adv-x="1695" d="M47 834q0 20 55 67q63 53 109 53q27 0 50.5 -59t23.5 -119q55 84 137 129t174 45q102 0 170 -39q55 -33 127 -118q63 76 143 117.5t168 41.5q125 0 218.5 -80.5t93.5 -195.5v-520q0 -43 41.5 -65.5t41.5 -57.5q0 -33 -26 -33h-273q-33 0 -32 29q0 29 48 60.5t48 86.5v424 q0 104 -53.5 167.5t-143.5 63.5q-78 0 -165 -56t-87 -132v-463q0 -63 50.5 -91t50.5 -54q0 -8 -9.5 -21.5t-19.5 -13.5h-274q-25 0 -34 15.5t-9 25.5q0 25 43 45t43 76v510q0 70 -55.5 116t-129.5 46q-121 0 -196 -86q-68 -76 -68 -179v-426q0 -35 46 -58.5t46 -47.5 q0 -10 -9 -23.5t-19 -13.5h-275q-6 0 -15 13.5t-9 23.5q0 14 42 50t42 85v541q0 39 -54.5 68.5t-54.5 52.5z" />
<glyph unicode="n" d="M51 834q0 33 64.5 75.5t89.5 42.5q37 0 64.5 -61.5t27.5 -126.5q35 90 131 141t203 51q125 0 219 -90t94 -215v-508q0 -37 50 -61t50 -53q0 -12 -17 -20.5t-34 -8.5h-252q-8 0 -16 6q-14 12 -14 31q0 25 43 45t43 78v424q0 106 -58 180q-63 82 -166 82q-86 0 -172 -68.5 t-86 -159.5v-479q0 -43 41 -63.5t41 -42.5q0 -33 -30 -33h-258q-10 0 -22.5 10t-12.5 21q0 27 41 47t41 55v569q0 61 -52.5 90t-52.5 42z" />
<glyph unicode="o" d="M49 469q0 188 143.5 335.5t339.5 147.5q211 0 364 -144t153 -345q0 -197 -144.5 -343.5t-353.5 -146.5q-199 0 -344 131q-158 141 -158 365zM223 455q0 -160 78 -269q88 -123 238 -123q162 0 254 121q84 109 84 275q0 162 -89 270q-94 117 -256 117q-135 0 -222 -119 t-87 -272z" />
<glyph unicode="p" d="M12 836q0 31 67.5 71.5t110.5 40.5q53 0 78 -76q16 -53 17 -120q47 92 135 142t190 50q215 0 332 -143q109 -133 109 -352q0 -205 -109 -330q-125 -145 -369 -146q-100 0 -154 28t-54 50q0 20 20 49q2 4 10 13q31 -12 73 -21.5t103 -9.5q137 0 217 86q90 96 91 293 q0 150 -66 248q-75 114 -215 114h-2q-92 0 -176 -49q-100 -59 -101 -143v-840q0 -68 50.5 -93.5t50.5 -51.5q0 -12 -9.5 -26.5t-21.5 -14.5h-295q-14 0 -24.5 12t-10.5 25q0 31 29 47q68 41 68 84v923q0 57 -72 86t-72 54z" />
<glyph unicode="q" d="M57 465q0 201 136.5 347t338.5 146q76 0 146 -22q41 -14 127 -55q14 25 45 50t57 25q16 0 32.5 -18t16.5 -31v-1114q0 -63 46.5 -82.5t46.5 -54.5q0 -14 -11.5 -27.5t-23.5 -13.5h-281q-33 0 -33 41q0 27 52.5 52.5t52.5 82.5v322q-49 -45 -86 -66q-113 -65 -252 -65h-4 q-180 0 -293 139t-113 344zM215 463q0 -147 80 -254q88 -117 231 -117q96 0 181.5 51t85.5 117v383q0 88 -80 152.5t-181 64.5q-145 0 -235 -127q-82 -115 -82 -270z" />
<glyph unicode="r" horiz-adv-x="679" d="M29 844q0 29 55 71.5t96 42.5q49 0 80 -104q25 -86 25 -182q31 111 94 190q80 100 174 101q55 0 76.5 -36t21.5 -122q0 -39 -39 -39q-31 0 -73 27q-25 14 -39 14q-74 0 -125 -115q-68 -150 -68 -274v-230q0 -78 72 -92t72 -53q0 -18 -14.5 -30.5t-24.5 -12.5h-316 q-14 0 -25.5 13.5t-11.5 27.5q0 29 52.5 55.5t52.5 83.5v492q0 78 -67.5 110.5t-67.5 61.5z" />
<glyph unicode="s" horiz-adv-x="796" d="M23 178q0 27 18 47.5t49 20.5q63 -66 140 -118t161 -52q76 0 127 39q61 47 62 137q0 98 -254 157.5t-254 266.5q0 121 89 206t249 85q115 0 188 -37q94 -47 94 -139q0 -33 -8 -56.5t-29 -23.5q-68 59 -141 104q-84 51 -156 51q-74 0 -117.5 -42t-43.5 -97 q0 -100 262 -170t262 -287q0 -123 -97.5 -214t-234.5 -91q-135 0 -250.5 72t-115.5 141z" />
<glyph unicode="t" horiz-adv-x="567" d="M14 877q0 16 9 28q16 27 40 27h60q14 0 30.5 11t18.5 26l55 278q8 35 41 35q16 0 31.5 -13.5t15.5 -29.5v-303h185q18 0 34.5 -18.5t16.5 -49.5q0 -27 -14.5 -36t-40.5 -9h-177v-608q0 -57 29 -86t94 -29h72q16 0 28.5 -14.5t12.5 -32.5q0 -27 -17.5 -40t-41.5 -13h-285 q-18 0 -32.5 16.5t-14.5 36.5v774h-113q-37 0 -37 50z" />
<glyph unicode="u" d="M45 881q0 31 62.5 57.5t125.5 26.5q35 0 52.5 -27t17.5 -61q-6 -84 -10 -144.5t-4 -144.5q0 -258 24 -344q41 -143 181 -144q94 0 184 66q98 72 98 166v424q0 37 -44 72.5t-44 43.5q0 33 52.5 61t105.5 28q90 0 90 -105v-659q0 -63 84 -103q41 -18 41 -47t-34 -40 t-89 -11q-90 0 -113.5 28.5t-31.5 127.5q-51 -82 -140.5 -127t-189.5 -45q-127 0 -217 71q-98 78 -99 205v508q0 27 -30 49q-70 53 -72 68z" />
<glyph unicode="v" horiz-adv-x="1015" d="M2 885q0 16 11.5 27.5t27.5 11.5h274q29 0 29 -35q0 -25 -46 -56.5t-46 -101.5q0 -96 84 -264q78 -158 188 -299q96 115 181 313q77 182 77 275q0 51 -41 86t-41 53q0 6 11.5 17.5t25.5 11.5h199q43 0 43 -45q0 -31 -15.5 -48.5t-39.5 -25.5q-51 -252 -197.5 -541 t-232.5 -289q-35 0 -131.5 139.5t-178.5 321.5q-96 211 -121 373q-33 20 -47 39.5t-14 36.5z" />
<glyph unicode="w" horiz-adv-x="1476" d="M8 889q0 35 33 35h229q10 0 19 -11q8 -10 8 -20q0 -33 -41 -51.5t-41 -57.5q0 -109 77 -321.5t140 -294.5q72 92 131 223q88 197 88 375q0 66 -28.5 84t-28.5 43q0 31 33 31h223q10 0 20 -9q10 -8 11 -18q0 -23 -23 -35q-51 -31 -51 -106q0 -109 66.5 -281t158.5 -315 q57 80 135 292t78 302q0 41 -35.5 78.5t-35.5 56.5q0 10 2 14q10 20 28 21h166q16 0 27.5 -13.5t11.5 -29.5q0 -61 -72 -277q-78 -236 -163 -405q-104 -209 -170 -209q-53 0 -136.5 147.5t-154.5 349.5q-59 -133 -101 -219q-66 -133 -108 -194q-61 -86 -107 -86 q-78 0 -188 288q-100 262 -146 521q-25 27 -34 41q-20 27 -21 51z" />
<glyph unicode="x" horiz-adv-x="1015" d="M68 80q51 29 61 41l279 340l-269 336q-45 31 -71.5 53t-26.5 39q0 14 10 24.5t25 10.5h264q33 0 33 -25q0 -31 -25.5 -50.5t-25.5 -31.5q0 -18 73 -104q63 -76 129 -150q57 68 84 105q86 115 86 151q0 12 -16 27q-41 35 -41 41q0 12 12.5 24.5t22.5 12.5h221q29 0 29 -37 q0 -12 -54 -53q-63 -49 -77 -70l-207 -272l297 -349q14 -16 71 -49q47 -26 47 -51q0 -43 -24 -43h-295q-18 0 -25 33q-2 12 21.5 38.5t23.5 39.5q0 23 -79 118q-72 82 -142 166q-51 -55 -92 -104q-100 -121 -100 -166q0 -25 34.5 -45.5t34.5 -36.5q0 -14 -9 -28.5t-23 -14.5 h-273q-22 0 -22 32q0 26 39 48z" />
<glyph unicode="y" horiz-adv-x="1015" d="M8 885q0 10 6 18q14 20 31 21h227q25 0 35 -12.5t10 -34.5q0 -47 -33.5 -63.5t-33.5 -117.5q0 -190 80 -372q88 -201 205 -201q100 0 178 217q69 190 69 364q0 103 -45 129.5t-45 55.5q0 8 9.5 21.5t17.5 13.5h203q16 0 27.5 -18t11.5 -38q0 -39 -29 -63 q0 -395 -242 -807q-254 -432 -534 -432q-57 0 -83 23.5t-26 62.5q0 27 26.5 47t63.5 20q18 0 51 -5t39 -5q76 0 158 70q106 90 199 268q-57 -35 -117 -35q-113 0 -201 138q-70 111 -123 313q-39 152 -67 342q-29 16 -48.5 36.5t-19.5 43.5z" />
<glyph unicode="z" horiz-adv-x="796" d="M2 45q0 78 139 258q131 156 262 311q141 168 142 213h-287q-51 0 -94 -36l-84 -84q-14 0 -20.5 25.5t-6.5 55.5q0 45 24.5 90.5t63.5 45.5h535q20 0 36.5 -18.5t16.5 -41.5q0 -74 -111 -223q-29 -37 -231 -281q-145 -174 -190 -256h315q39 0 90 45.5t107 94.5 q12 0 19 -13.5t7 -29.5q0 -45 -22.5 -123t-48.5 -78h-615q-16 0 -31.5 13.5t-15.5 31.5z" />
<glyph unicode="{" horiz-adv-x="614" d="M76 653q90 10 128 61.5t38 170.5v352q0 180 61.5 246.5t241.5 66.5q-90 -25 -126 -81t-36 -156v-373q0 -129 -31 -188q-39 -76 -151 -99q106 -27 147 -94q35 -57 35 -176v-401q0 -100 35 -155.5t127 -84.5q-186 0 -252 76q-51 59 -51 205v397q0 190 -166 233z" />
<glyph unicode="|" horiz-adv-x="1351" d="M618 0v1550h130v-1550h-130z" />
<glyph unicode="}" horiz-adv-x="614" d="M78 -258q94 31 128 84t34 156v401q0 117 37.5 180.5t144.5 89.5q-109 23 -150 99q-33 61 -32 188v373q0 96 -37 154.5t-125 82.5q178 0 240.5 -66.5t62.5 -246.5v-352q0 -98 41 -161t125 -71q-166 -43 -166 -233v-397q0 -145 -62 -209q-70 -72 -241 -72z" />
<glyph unicode="~" horiz-adv-x="1351" d="M104 449q74 113 132 159q84 68 194 68q86 0 269.5 -73t238.5 -73q70 0 125 48q37 31 86 104l98 -61q-96 -135 -161.5 -175t-143.5 -40q-59 0 -266 73.5t-248 73.5q-76 0 -135 -51q-39 -33 -92 -117z" />
<glyph unicode="&#xa1;" horiz-adv-x="567" d="M168 -256l82 950q0 45 35 45t34 -47l54 -958q0 -47 -29 -78t-72 -31q-39 0 -71.5 39t-32.5 80zM180 1014q0 45 29 77.5t74 32.5t79.5 -28.5t34.5 -73.5q0 -49 -29.5 -81t-74.5 -32t-79 30t-34 75z" />
<glyph unicode="&#xa2;" d="M61 430q0 195 117 345.5t309 189.5v231q4 8 22.5 17.5t33.5 9.5q18 0 30 -9q10 -6 23 -22v-227q82 0 185.5 -67t103.5 -120q0 -41 -27 -63.5t-67 -22.5q-20 0 -96.5 84t-174.5 84q-115 0 -198.5 -110.5t-83.5 -262.5q0 -154 75 -266q84 -125 228 -125q109 0 184 49 q70 53 141 109q12 0 22.5 -10.5t10.5 -24.5q0 -86 -108 -156q-86 -55 -195 -75v-234q-8 -4 -23.5 -7t-29.5 -3q-20 0 -43 4q-4 0 -13 4v232q-174 0 -300 136t-126 310z" />
<glyph unicode="&#xa3;" horiz-adv-x="1247" d="M61 45q174 109 242 188q82 98 82 238q0 51 -8 98t-29 95h-264q-4 14 -8 31.5t-4 31.5q0 10 6 29q2 6 6 16h219q-18 80 -27 119q-27 121 -26 137q0 193 125 322q133 137 346 137q139 0 258 -95.5t119 -224.5q0 -57 -19 -92q-25 -45 -75 -45q-37 0 -53.5 33t-16.5 76l2 84 q0 51 -64 106q-74 63 -172 64q-129 0 -205.5 -87t-76.5 -208q0 -37 43 -187q14 -49 43 -143h319q8 -10 12.5 -26.5t4.5 -30.5q0 -27 -13 -52h-295q16 -72 17 -135q0 -113 -55 -209q-41 -72 -129 -159q55 29 111 45t118 16q14 0 172 -46t207 -46q51 0 88 18q33 20 67 43 q20 0 29.5 -11.5t9.5 -31.5q0 -70 -99 -123t-204 -53q-45 0 -213 51.5t-217 51.5q-82 0 -155.5 -23.5t-157.5 -71.5q-25 -8 -46.5 15.5t-13.5 54.5z" />
<glyph unicode="&#xa4;" horiz-adv-x="1228" d="M43 1245q0 23 19.5 42.5t43.5 19.5q29 0 58 -33l102 -109q66 63 154 95t184 32q184 0 336 -112l98 100q14 14 30.5 28.5t35.5 14.5q20 0 40.5 -20.5t20.5 -42.5q0 -12 -6 -23q-4 -6 -18 -20l-117 -119q70 -98 98.5 -173t28.5 -186q0 -182 -109 -315l101 -100 q27 -25 33 -33q8 -13 8 -29q0 -23 -23.5 -46t-44.5 -23q-18 0 -33 12q-20 20 -30 31l-101 98q-74 -55 -158.5 -87t-177.5 -32q-88 0 -174 30.5t-157 84.5l-109 -109q-33 -31 -35 -31q-14 -10 -28 -10q-23 0 -42.5 19.5t-19.5 42.5q0 18 16.5 36.5t24.5 26.5l109 109 q-61 74 -93 166t-32 192q0 84 27.5 166t80.5 143l-100 101q-14 12 -27.5 27.5t-13.5 35.5zM225 750q0 -162 115 -272.5t274 -110.5q158 0 270.5 114.5t112.5 272.5q0 164 -114.5 274.5t-278.5 110.5q-158 0 -268.5 -115t-110.5 -274z" />
<glyph unicode="&#xa5;" horiz-adv-x="1228" d="M16 1456q0 43 45 43h230q35 0 47 -12t12 -37q0 -23 -24 -39q-53 -35 -54 -61q0 -31 64 -150q18 -33 82 -145l209 -344q74 74 209 316.5t135 305.5q0 43 -62 78q-31 18 -30 49q0 25 15 32t40 7h217q37 0 37 -45q0 -16 -44 -77.5t-71 -108.5l-276 -494h166q47 0 47 -43 q0 -35 -9 -45q-8 -10 -34 -10h-234l-35 -60v-77h246q63 0 64 -45q0 -35 -14.5 -44.5t-53.5 -9.5h-242v-262q0 -53 56.5 -78.5t56.5 -62.5q0 -23 -14 -31q-10 -6 -33 -6h-283q-16 0 -27.5 13.5t-11.5 33.5q0 27 54.5 52.5t54.5 76.5v264h-250q-33 0 -48 6.5t-15 47.5 q0 45 53 45h260v59l-51 78h-211q-37 0 -45 6q-14 10 -15 51q0 27 14.5 34t47.5 7h145l-311 557q-29 51 -69 66.5t-40 58.5z" />
<glyph unicode="&#xa6;" horiz-adv-x="573" d="M227 303v471q39 14 60 14q31 0 53 -6v-479q-20 -20 -51 -20q-23 0 -36 6t-26 14zM236 926v471q16 6 24 8q25 8 43 8q31 -6 45 -8v-479q-18 -20 -53 -21q-16 0 -32.5 8.5t-26.5 12.5z" />
<glyph unicode="&#xa7;" horiz-adv-x="1015" d="M147 690q0 119 69 182.5t183 63.5q-94 100 -120 139q-55 80 -56 160q0 111 80 178.5t203 67.5q96 0 176 -59.5t80 -129.5q0 -45 -21 -73q-27 -39 -82 -39q-39 0 -67.5 20.5t-28.5 50.5q0 23 43 82q23 31 23 53q0 20 -27 36t-84 16q-78 0 -135 -34t-57 -101 q0 -84 135 -199q246 -209 254 -217q137 -145 137 -299q0 -125 -82 -180q-63 -43 -166 -43q51 -59 103 -117q70 -84 69 -164q0 -117 -84 -192.5t-217 -75.5q-102 0 -182 63.5t-80 161.5q0 31 30.5 59.5t65.5 28.5q43 0 73 -27.5t30 -70.5q0 -27 -21 -56q-12 -18 -43 -43 q8 -43 53 -61q31 -12 80 -12q74 0 128.5 43t54.5 118q0 76 -134 187q-236 197 -247 209q-135 139 -136 274zM248 752q0 -111 151 -238q135 -113 201 -113q68 0 112 35t44 103q0 111 -146 233q-133 113 -215 113q-68 0 -107.5 -38t-39.5 -95z" />
<glyph unicode="&#xa8;" horiz-adv-x="794" d="M102 1475q0 43 29 73.5t72 30.5t73.5 -28.5t30.5 -71.5q0 -41 -28.5 -72t-69.5 -31t-74 29t-33 70zM479 1466q0 43 29 74t72 31t73.5 -29t30.5 -72q0 -41 -28.5 -71.5t-69.5 -30.5t-74 28.5t-33 69.5z" />
<glyph unicode="&#xa9;" horiz-adv-x="1720" d="M109 750q0 322 219 551t530 229q313 0 532.5 -227t219.5 -553q0 -324 -220.5 -552.5t-531.5 -228.5t-530 227.5t-219 553.5zM199 750q0 -285 192.5 -488t466.5 -203q272 0 467 203t195 488q0 287 -193.5 488.5t-468.5 201.5q-270 0 -464.5 -203t-194.5 -487zM442 760 q0 201 115 348q123 158 311 158q176 0 258 -68q70 -57 70 -160v-37q0 -33 -8 -49t-41 -16q-23 0 -84.5 108.5t-196.5 108.5q-137 0 -204 -135q-53 -106 -54 -264q0 -158 66 -260q78 -123 221 -123q115 0 194.5 88t94.5 88q20 0 36.5 -17.5t16.5 -40.5q0 -92 -118 -165.5 t-238 -73.5q-201 0 -324 153q-115 143 -115 357z" />
<glyph unicode="&#xaa;" horiz-adv-x="606" d="M86 1196q0 84 73.5 138.5t168.5 54.5q43 0 80 -13q-6 53 -43 86t-93 33q-35 0 -66.5 -14.5t-64.5 -28.5q-27 0 -26 27q0 29 53 51t108 22q98 0 160 -63q49 -51 49 -100v-230q0 -16 27 -34.5t27 -34.5q0 -8 -13.5 -15.5t-48.5 -7.5q-55 0 -55 23v69q-27 -45 -74 -70.5 t-100 -25.5q-70 0 -116 38t-46 95zM168 1198q0 -43 28.5 -64.5t71.5 -21.5q61 0 105.5 40t44.5 118l-4 73q-80 0 -142 -22q-104 -39 -104 -123z" />
<glyph unicode="&#xab;" horiz-adv-x="804" d="M55 440v43l226 301h122l13 -12l-240 -297l236 -303l-9 -20h-106zM348 440v35l223 305h101l8 -8l-205 -311l225 -289l-4 -20h-108z" />
<glyph unicode="&#xac;" horiz-adv-x="2095" d="M53 123q0 43 25 115q18 53 41 94l53 74l21 26q-41 0 -59.5 16.5t-27.5 59.5q55 -8 109.5 19.5t103.5 74.5q4 0 9 2q8 -10 8 -29q0 -68 -43 -100q-37 -23 -72 -45q-39 -51 -57 -80q-37 -53 -37 -92q0 -27 14.5 -67.5t30.5 -40.5q37 0 147 77q41 29 82 60q23 57 35 90 q25 59 47 86q10 12 24.5 27.5t31.5 15.5q25 0 24 -27q0 -33 -35 -69q-23 -23 -61 -52q-4 -8 -16.5 -56t-12.5 -58q0 -25 35 -76q29 -43 55 -70q33 164 232 342q188 170 348 201q109 23 195 36t174 13q131 0 301 -28q113 -20 182 -105q94 -115 94 -338q0 -125 -71.5 -184.5 t-200.5 -59.5q-41 0 -72 9q-53 14 -53 45q0 18 10 26t27 8q14 0 30.5 -8t22.5 -21.5t18.5 -21.5t34.5 -16q94 0 149.5 63.5t55.5 151.5q0 190 -41 274q-57 119 -207.5 137.5t-223.5 25.5t-114 7q-63 0 -134 -12t-116 -18q-182 -33 -392 -221.5t-226 -340.5q39 -59 39 -116 q0 -29 -2 -33q-6 -12 -19 -12q-23 0 -38 43t-15 73v11q-49 37 -74 61q-49 49 -53 77t-5 46t-1 27q0 14 2 20q-74 -61 -139 -104q-102 -68 -148 -68q-41 0 -45 35zM635 45q6 23 41 23q8 0 20 -5q55 -18 47 -49q-6 -27 -45 -26q-12 0 -20 2q-16 4 -27 14q-23 18 -16 41z M745 106q0 47 30 82t81 50l4 -7q-37 -16 -51 -30q-25 -23 -29 -54q0 -68 86 -96q55 -18 148 -18q133 0 231 73q23 16 35 36t12 44q0 37 -27.5 48.5t-74.5 11.5q-20 0 -69.5 -4t-51.5 -4q-63 0 -104 24q-51 31 -52 94q0 90 81 142.5t177 52.5q33 0 49.5 -3t32.5 -22 q20 8 31 -10q18 -35 23 -39l4 -8q-4 -14 -24.5 -32.5t-26.5 -30.5q-2 -12 -13 -9q-23 20 -41 24.5t-18 16.5q0 10 16.5 30.5t16.5 37.5q0 20 -22.5 25.5t-33.5 5.5q-70 0 -129 -33q-74 -41 -73 -107q0 -37 33.5 -50t72.5 -13l107 4q76 0 106 -10q59 -21 59 -80 q0 -51 -38 -105q-29 -37 -78 -77q-129 -94 -279 -95q-76 0 -131 29q-70 37 -70 106zM1257 49q6 20 37 21q6 0 23 -4q51 -15 45 -48q-4 -25 -41 -24q-12 0 -21 2q-51 16 -43 53zM1421 72q0 25 21 53q8 12 22 25q18 -20 39 -39t49 -19q70 0 127 123q49 104 50 186 q0 45 -26 59.5t-75 14.5q-76 0 -83 -47t-17 -53l-15 31q2 8 3 32q0 63 8 80q20 43 98 43q76 0 130 -11t54 -54q0 -53 -57 -187q-39 -88 -90 -184q-37 -63 -51 -82q-41 -51 -82 -51q-33 0 -69 24.5t-36 55.5z" />
<glyph unicode="&#xad;" horiz-adv-x="1253" d="M164 383l43 156h889l-43 -156h-889z" />
<glyph unicode="&#xae;" horiz-adv-x="1638" d="M82 750q0 322 219 551t530 229t530.5 -227t219.5 -553q0 -322 -219 -551.5t-531 -229.5q-311 0 -530 227.5t-219 553.5zM172 750q0 -285 192.5 -488t466.5 -203t467 203t193 488t-192.5 487.5t-467.5 202.5q-274 0 -466.5 -203t-192.5 -487zM438 328q0 18 36 43.5 t36 99.5v621q0 39 -36 49t-36 45q0 23 9.5 38t33.5 15h410q131 0 214 -59.5t83 -171.5q0 -82 -58 -154q-49 -61 -131 -102q68 -80 131 -205q55 -109 56 -137q0 -14 39 -34.5t39 -51.5q0 -33 -21.5 -41.5t-58.5 -8.5h-135h-41q-41 6 -41 50q0 29 43 47q20 8 20 24 q0 59 -63 166q-55 92 -109 148l-201 -43v-217q0 -66 42 -74t42 -51q0 -18 -13 -34t-28 -16h-221q-41 0 -41 54zM657 780q147 23 234 60q147 61 147 161q0 68 -49 104t-115 36h-167q-49 0 -50 -70v-291z" />
<glyph unicode="&#xaf;" horiz-adv-x="880" d="M51 1116v164h768v-164h-768z" />
<glyph unicode="&#xb0;" horiz-adv-x="712" d="M115 1313q0 102 70.5 177t170.5 75q104 0 182 -74t78 -176q0 -96 -74.5 -169t-168.5 -73q-106 0 -182 69.5t-76 170.5zM203 1311q0 -80 41 -136.5t118 -56.5q70 0 118 56.5t48 150.5q0 74 -45 129t-125 55q-72 0 -113.5 -59t-41.5 -139z" />
<glyph unicode="&#xb1;" horiz-adv-x="1245" d="M147 750v94h420v508h97v-508h407v-94h-412v-437h426v-94h-919v94h401v437h-420z" />
<glyph unicode="&#xb2;" horiz-adv-x="655" d="M61 797q0 61 101 170q92 96 186 194q102 117 103 189q0 53 -38 86.5t-98 33.5q-59 0 -101 -33.5t-42 -78.5q0 -25 12.5 -45.5t12.5 -22.5q0 -39 -45 -39q-25 0 -45.5 18.5t-20.5 51.5q0 88 77 143.5t169 55.5q84 0 151.5 -50.5t67.5 -128.5q0 -109 -217 -294 q-129 -111 -170 -187l6 -4h260q18 0 64 43q25 23 36 23q21 -1 21 -15l-6 -22l-39 -101l-10 -4h-424z" />
<glyph unicode="&#xb3;" horiz-adv-x="655" d="M86 932q0 51 41 51q33 0 45 -49q27 -109 143 -109q70 0 119 47.5t49 118.5q0 109 -75 148q-51 27 -162 26q-6 14 -6 23q0 12 2 16q2 0 4 2q98 8 143 33q70 39 70 133q0 51 -36 87t-95 36q-49 0 -81 -21.5t-32 -58.5q0 -16 2 -24t4 -15q0 -35 -45 -35q-25 0 -38 15.5 t-13 36.5q0 53 62.5 99t138.5 46q94 0 160.5 -47t66.5 -129q0 -63 -53.5 -110.5t-122.5 -59.5q90 -12 141 -55q62 -52 62 -140q0 -106 -86 -163q-76 -51 -187 -52q-94 0 -157.5 40t-63.5 110z" />
<glyph unicode="&#xb4;" horiz-adv-x="679" d="M127 1116q0 14 20 25l400 198q25 12 31 -6l40 -100q8 -23 -16 -31l-442 -153q-33 33 -33 67z" />
<glyph unicode="&#xb5;" horiz-adv-x="1556" d="M154 -389q100 92 159 268q41 125 62 287q8 82 18 166l139 520q6 18 7 35q0 43 -70 43l14 53h269l-172 -637q-14 -51 -15 -94q0 -70 43 -97.5t127 -27.5q82 0 171 41t171 113l158 593q16 55 -70 56l15 53h270l-229 -852q-4 -20 -4 -35q0 -20 12 -31.5t49 -11.5l-14 -53 h-263l35 131q-82 -70 -194.5 -109.5t-216.5 -39.5q-70 0 -129 24l-97 -395h-245z" />
<glyph unicode="&#xb6;" horiz-adv-x="1474" d="M41 1069q0 227 147.5 328.5t429.5 101.5h715q33 0 55.5 -22.5t22.5 -55.5q0 -37 -28.5 -56t-67.5 -19q-25 0 -69 7t-56 9v-1591q0 -88 -13.5 -118t-60.5 -30q-45 0 -60.5 30t-15.5 111v1616h-135v-1613q0 -80 -15.5 -112t-55.5 -32q-49 0 -63.5 34t-14.5 105v756 q-281 27 -473 146q-242 150 -242 405zM236 1067q0 -190 165 -315q144 -106 355 -131v770h-62q-203 0 -313 -60q-145 -78 -145 -264z" />
<glyph unicode="&#xb7;" horiz-adv-x="567" d="M162 922q0 49 32.5 85.5t81.5 36.5t86 -32.5t37 -81.5t-31.5 -85t-80.5 -36t-87 31.5t-38 81.5z" />
<glyph unicode="&#xb8;" horiz-adv-x="929" d="M227 -336l41 60q23 -8 37 -11q49 -12 72 -12q63 0 97 30.5t34 69.5q0 47 -64 47h-41q-20 -4 -32 -6l-9 8l58 144h96l-45 -80q31 6 59 6q57 0 89 -24.5t32 -73.5q0 -76 -77.5 -131.5t-200.5 -55.5q-29 0 -68 7.5t-78 21.5z" />
<glyph unicode="&#xb9;" horiz-adv-x="655" d="M119 1378l8 17q80 6 129 29.5t92 48.5q16 -8 17 -21v-608q0 -41 65.5 -49t65.5 -35q0 -20 -29 -21h-309q-4 0 -11 9q-2 2 -6 10q0 20 69 28.5t69 55.5v467q0 16 -11.5 33.5t-25.5 17.5h-115q-8 12 -8 18z" />
<glyph unicode="&#xba;" horiz-adv-x="655" d="M76 1313q0 92 73.5 165.5t176.5 73.5q104 0 178 -71.5t74 -171.5q0 -98 -70 -172t-174 -74q-102 0 -176 65q-82 72 -82 185zM166 1305q0 -80 42 -139.5t120 -59.5q82 0 125 61q36 54 36 140q0 84 -40.5 138t-122.5 54q-70 0 -115 -59.5t-45 -134.5z" />
<glyph unicode="&#xbb;" horiz-adv-x="796" d="M76 172l231 303l-231 289l4 20h108l261 -301v-26l-236 -301h-133zM360 172l236 311l-231 277l12 20h110l240 -301v-35l-223 -292h-139z" />
<glyph unicode="&#xbc;" horiz-adv-x="1085" d="M-49 -25l1073 1389h80l-1073 -1389h-80zM55 1370l8 16q80 6 129.5 30t92.5 48q16 -8 16 -20v-608q0 -41 65.5 -49t65.5 -35q0 -20 -29 -21h-309q-4 0 -10 8q-2 2 -6 11q0 20 68.5 28t68.5 56v466q0 16 -11 34t-26 18h-115q-8 12 -8 18zM487 231q0 106 149.5 319.5 t219.5 213.5q45 0 45 -35v-459h94q39 1 39 -26q0 -10 -10 -22.5t-29 -12.5h-94v-117q0 -12 32 -26.5t32 -30.5q0 -20 -17 -21h-184q-18 0 -19 21q0 10 33 20.5t33 26.5v125h-285q-39 0 -39 24zM565 264h250v402q-90 -88 -151 -183q-68 -106 -99 -219z" />
<glyph unicode="&#xbd;" horiz-adv-x="1085" d="M-55 -25l1073 1389h80l-1073 -1389h-80zM84 1378l8 17q80 6 129 29.5t92 48.5q16 -8 17 -21v-608q0 -41 65.5 -49t65.5 -35q0 -20 -29 -21h-309q-4 0 -10 9q-2 2 -7 10q0 20 69 28.5t69 55.5v467q0 16 -11.5 33.5t-25.5 17.5h-115q-8 12 -8 18zM578 35q0 61 100 170 q92 96 186 194q102 117 103 189q0 53 -38 87t-98 34q-59 0 -101 -34t-42 -79q0 -25 12.5 -45.5t12.5 -22.5q0 -39 -45 -39q-25 0 -45.5 18.5t-20.5 51.5q0 88 77 143.5t169 55.5q84 0 151.5 -50.5t67.5 -127.5q0 -109 -217 -295q-129 -111 -170 -187l6 -4h260q18 0 64 43 q25 23 37 23q20 -1 20 -15l-6 -22l-39 -100l-10 -5h-424z" />
<glyph unicode="&#xbe;" horiz-adv-x="1085" d="M-51 -35l1073 1389h80l-1073 -1389h-80zM41 932q0 51 41 51q33 0 45 -49q27 -109 143 -109q70 0 119 47.5t49 118.5q0 109 -76 148q-51 27 -161 26q-6 14 -6 23q0 12 2 16q2 0 4 2q98 8 143 33q70 39 70 133q0 51 -36 87t-95 36q-49 0 -81 -21.5t-32 -58.5q0 -16 2 -24 t4 -15q0 -35 -45 -35q-25 0 -38 15.5t-13 36.5q0 53 62.5 99t138.5 46q94 0 160.5 -47t66.5 -129q0 -63 -53.5 -110.5t-122.5 -59.5q90 -12 141 -55q62 -52 62 -140q0 -106 -86 -163q-76 -51 -187 -52q-94 0 -157.5 40t-63.5 110zM487 223q0 106 149.5 319.5t219.5 213.5 q45 0 45 -35v-459h94q39 1 39 -26q0 -10 -10 -22.5t-29 -12.5h-94v-117q0 -12 32 -26.5t32 -30.5q0 -20 -17 -21h-184q-18 0 -19 21q0 10 33 20t33 27v125h-285q-39 0 -39 24zM565 256h250v401q-90 -88 -151 -182q-68 -106 -99 -219z" />
<glyph unicode="&#xbf;" horiz-adv-x="911" d="M72 -37q0 211 139 350q94 94 281 176l24 187q2 29 39 29q39 0 39 -31v-289q-162 -59 -260 -162q-115 -119 -115 -266q0 -113 70.5 -197t175.5 -84q176 0 192.5 134.5t75.5 134.5q35 0 62.5 -17.5t27.5 -46.5q0 -129 -107.5 -204.5t-256.5 -75.5q-180 0 -283.5 99 t-103.5 263zM434 1008q0 43 32 70.5t79 27.5q41 0 69.5 -33t28.5 -78q0 -41 -32.5 -69.5t-78.5 -28.5q-41 0 -69.5 33t-28.5 78z" />
<glyph unicode="&#xc0;" horiz-adv-x="1359" d="M0 43q0 33 27 66q37 47 41 55l499 1237q14 35 27 49q20 25 47 25q18 0 45 -25t35 -45l526 -1253q8 -20 45 -54q31 -26 31 -55q0 -20 -15.5 -31.5t-35.5 -11.5h-254q-63 0 -64 51q0 18 49.5 43t49.5 45t-6.5 37t-8.5 25l-110 295h-600l-86 -236q-18 -47 -19 -72 q0 -49 51.5 -88t51.5 -59q0 -23 -7 -31q-8 -10 -36 -10h-242q-41 0 -41 43zM360 608h539l-270 652zM381 1710l41 100q8 18 31 6l399 -198q21 -11 21 -25q0 -35 -33 -67l-442 153q-25 8 -17 31z" />
<glyph unicode="&#xc1;" horiz-adv-x="1359" d="M0 43q0 33 27 66q37 47 41 55l499 1237q14 35 27 49q20 25 47 25q18 0 45 -25t35 -45l526 -1253q8 -20 45 -54q31 -26 31 -55q0 -20 -15.5 -31.5t-35.5 -11.5h-254q-63 0 -64 51q0 18 49.5 43t49.5 45t-6.5 37t-8.5 25l-110 295h-600l-86 -236q-18 -47 -19 -72 q0 -49 51.5 -88t51.5 -59q0 -23 -7 -31q-8 -10 -36 -10h-242q-41 0 -41 43zM360 608h539l-270 652zM383 1593q0 14 20 25l400 198q25 12 31 -6l40 -100q8 -23 -16 -31l-442 -153q-33 33 -33 67z" />
<glyph unicode="&#xc2;" horiz-adv-x="1359" d="M0 43q0 33 27 66q37 47 41 55l499 1237q14 35 27 49q20 25 47 25q18 0 45 -25t35 -45l526 -1253q8 -20 45 -54q31 -26 31 -55q0 -20 -15.5 -31.5t-35.5 -11.5h-254q-63 0 -64 51q0 18 49.5 43t49.5 45t-6.5 37t-8.5 25l-110 295h-600l-86 -236q-18 -47 -19 -72 q0 -49 51.5 -88t51.5 -59q0 -23 -7 -31q-8 -10 -36 -10h-242q-41 0 -41 43zM344 1472v15l221 272h136l221 -268v-19l-109 -4l-176 191l-180 -191zM360 608h539l-270 652z" />
<glyph unicode="&#xc3;" horiz-adv-x="1359" d="M0 43q0 33 27 66q37 47 41 55l499 1237q14 35 27 49q20 25 47 25q18 0 45 -25t35 -45l526 -1253q8 -20 45 -54q31 -26 31 -55q0 -20 -15.5 -31.5t-35.5 -11.5h-254q-63 0 -64 51q0 18 49.5 43t49.5 45t-6.5 37t-8.5 25l-110 295h-600l-86 -236q-18 -47 -19 -72 q0 -49 51.5 -88t51.5 -59q0 -23 -7 -31q-8 -10 -36 -10h-242q-41 0 -41 43zM280 1524q55 113 101 159q63 68 145 68q66 0 203 -72.5t178 -72.5q51 0 92 47q29 33 66 104l73 -61q-74 -135 -122 -175t-107 -40q-63 0 -204.5 73.5t-180.5 73.5q-55 0 -100 -51q-31 -35 -70 -117 zM360 608h539l-270 652z" />
<glyph unicode="&#xc4;" horiz-adv-x="1359" d="M0 43q0 33 27 66q37 47 41 55l499 1237q14 35 27 49q20 25 47 25q18 0 45 -25t35 -45l526 -1253q8 -20 45 -54q31 -26 31 -55q0 -20 -15.5 -31.5t-35.5 -11.5h-254q-63 0 -64 51q0 18 49.5 43t49.5 45t-6.5 37t-8.5 25l-110 295h-600l-86 -236q-18 -47 -19 -72 q0 -49 51.5 -88t51.5 -59q0 -23 -7 -31q-8 -10 -36 -10h-242q-41 0 -41 43zM346 1665q0 43 29 73.5t72 30.5t73.5 -28.5t30.5 -71.5q0 -41 -28.5 -72t-69.5 -31t-74 29t-33 70zM360 608h539l-270 652zM723 1656q0 43 29 74t72 31t73.5 -29t30.5 -72q0 -41 -28.5 -71.5 t-69.5 -30.5t-74 28.5t-33 69.5z" />
<glyph unicode="&#xc5;" horiz-adv-x="1359" d="M0 43q0 33 27 66q37 47 41 55l499 1237q14 35 27 49q20 25 47 25q18 0 45 -25t35 -45l526 -1253q8 -20 45 -54q31 -26 31 -55q0 -20 -15.5 -31.5t-35.5 -11.5h-254q-63 0 -64 51q0 18 49.5 43t49.5 45t-6.5 37t-8.5 25l-110 295h-600l-86 -236q-18 -47 -19 -72 q0 -49 51.5 -88t51.5 -59q0 -23 -7 -31q-8 -10 -36 -10h-242q-41 0 -41 43zM360 608h539l-270 652zM469 1739q0 76 55 131t133 55q80 0 133 -53t53 -133q0 -76 -54 -130t-132 -54t-133 53t-55 131zM563 1733q0 -39 26.5 -65.5t67.5 -26.5q39 0 65.5 26.5t26.5 65.5 q0 37 -27.5 64.5t-64.5 27.5t-65.5 -26.5t-28.5 -65.5z" />
<glyph unicode="&#xc6;" horiz-adv-x="1730" d="M0 47q0 33 27 66q37 47 41 55l479 1184q8 18 8 30q0 4 -6 17q-6 12 -6 26q0 20 36.5 31.5t67.5 11.5h854q18 0 40 -89t22 -124q0 -43 -27 -43q-57 55 -133 99q-88 49 -166 49h-256q-84 0 -126 -36t-42 -128v-348h438q29 0 66 35t55 35q35 0 39 -30t4 -71q0 -59 -9 -101 t-34 -42q-20 0 -86 43q-35 23 -65 22h-404v-538q0 -41 30 -69t71 -28h362q76 0 160 53.5t168 110.5q10 0 18 -22t8 -47q0 -70 -23.5 -134.5t-58.5 -64.5h-962q-61 0 -62 43q0 41 54.5 67.5t54.5 55.5l2 328h-315l-82 -230q-18 -47 -19 -71q0 -49 51.5 -88t51.5 -60 q0 -23 -7 -31q-8 -10 -36 -10h-242q-41 0 -41 43zM352 608h287v656z" />
<glyph unicode="&#xc7;" horiz-adv-x="1476" d="M57 709q0 319 209 538q223 233 578 234q133 0 248 -35q147 -45 204 -133l25 -248q-31 -25 -76 -25q-55 133 -166 228q-125 109 -268 108q-248 0 -395 -198q-133 -180 -133 -437q0 -315 149.5 -486t403.5 -171q158 0 272 82q106 92 213 184q14 0 31.5 -15.5t17.5 -35.5 q0 -78 -149 -193q-186 -143 -439 -143h-14l-33 -57q31 6 60 6q57 0 88.5 -24.5t31.5 -73.5q0 -76 -77.5 -131.5t-200.5 -55.5q-29 0 -68 7.5t-77 21.5l40 59q23 -8 37 -10q49 -12 72 -12q63 0 97 30.5t34 69.5q0 47 -63 47h-41q-20 -4 -33 -6l-8 8l51 127 q-274 39 -447.5 247t-173.5 493z" />
<glyph unicode="&#xc8;" horiz-adv-x="1247" d="M59 43q0 41 54.5 67.5t54.5 55.5v1137q0 35 -64 73q-31 18 -30 37q0 20 19.5 37.5t43.5 17.5h887q25 0 46.5 -79.5t21.5 -139.5q0 -35 -33 -35q-47 57 -119 99q-80 47 -172 47h-256q-84 0 -126 -36t-42 -128v-348h438q29 0 66 35t55 35q35 0 39 -30t4 -71q0 -59 -9 -101 t-34 -42q-20 0 -86 43q-35 23 -65 22h-404v-538q0 -41 30 -69t71 -28h362q76 0 160 53.5t168 110.5q10 -6 12 -14q8 -19 8 -37q0 -43 -19.5 -130t-35.5 -87h-983q-61 0 -62 43zM366 1710l41 100q8 18 31 6l399 -198q21 -11 21 -25q0 -35 -33 -67l-442 153q-25 8 -17 31z" />
<glyph unicode="&#xc9;" horiz-adv-x="1247" d="M59 43q0 41 54.5 67.5t54.5 55.5v1137q0 35 -64 73q-31 18 -30 37q0 20 19.5 37.5t43.5 17.5h887q25 0 46.5 -79.5t21.5 -139.5q0 -35 -33 -35q-47 57 -119 99q-80 47 -172 47h-256q-84 0 -126 -36t-42 -128v-348h438q29 0 66 35t55 35q35 0 39 -30t4 -71q0 -59 -9 -101 t-34 -42q-20 0 -86 43q-35 23 -65 22h-404v-538q0 -41 30 -69t71 -28h362q76 0 160 53.5t168 110.5q10 -6 12 -14q8 -19 8 -37q0 -43 -19.5 -130t-35.5 -87h-983q-61 0 -62 43zM397 1599q0 14 20 25l400 198q25 12 31 -6l40 -100q8 -23 -16 -31l-442 -153q-33 33 -33 67z " />
<glyph unicode="&#xca;" horiz-adv-x="1247" d="M59 43q0 41 54.5 67.5t54.5 55.5v1137q0 35 -64 73q-31 18 -30 37q0 20 19.5 37.5t43.5 17.5h887q25 0 46.5 -79.5t21.5 -139.5q0 -35 -33 -35q-47 57 -119 99q-80 47 -172 47h-256q-84 0 -126 -36t-42 -128v-348h438q29 0 66 35t55 35q35 0 39 -30t4 -71q0 -59 -9 -101 t-34 -42q-20 0 -86 43q-35 23 -65 22h-404v-538q0 -41 30 -69t71 -28h362q76 0 160 53.5t168 110.5q10 -6 12 -14q8 -19 8 -37q0 -43 -19.5 -130t-35.5 -87h-983q-61 0 -62 43zM336 1550v15l221 272h136l221 -268v-19l-109 -4l-176 191l-180 -191z" />
<glyph unicode="&#xcb;" horiz-adv-x="1247" d="M59 43q0 41 54.5 67.5t54.5 55.5v1137q0 35 -64 73q-31 18 -30 37q0 20 19.5 37.5t43.5 17.5h887q25 0 46.5 -79.5t21.5 -139.5q0 -35 -33 -35q-47 57 -119 99q-80 47 -172 47h-256q-84 0 -126 -36t-42 -128v-348h438q29 0 66 35t55 35q35 0 39 -30t4 -71q0 -59 -9 -101 t-34 -42q-20 0 -86 43q-35 23 -65 22h-404v-538q0 -41 30 -69t71 -28h362q76 0 160 53.5t168 110.5q10 -6 12 -14q8 -19 8 -37q0 -43 -19.5 -130t-35.5 -87h-983q-61 0 -62 43zM346 1639q0 43 29 73.5t72 30.5t73.5 -28.5t30.5 -71.5q0 -41 -28.5 -72t-69.5 -31t-74 29 t-33 70zM723 1630q0 43 29 74t72 31t73.5 -29t30.5 -72q0 -41 -28.5 -71.5t-69.5 -30.5t-74 28.5t-33 69.5z" />
<glyph unicode="&#xcc;" horiz-adv-x="567" d="M-27 1718l41 100q8 18 31 6l399 -198q21 -11 21 -25q0 -35 -33 -67l-442 153q-25 8 -17 31zM61 1425q0 31 39 31h340q47 0 47 -41q0 -16 -61 -40.5t-61 -123.5v-1083q0 -43 94 -82q45 -18 45 -45q0 -16 -14.5 -28.5t-30.5 -12.5h-359q-37 0 -37 33q0 29 39 49 q86 45 86 86v1079q0 96 -86 129q-41 16 -41 49z" />
<glyph unicode="&#xcd;" horiz-adv-x="567" d="M59 1603q0 14 20 25l400 198q25 12 31 -6l40 -100q8 -23 -16 -31l-442 -153q-33 33 -33 67zM61 1425q0 31 39 31h340q47 0 47 -41q0 -16 -61 -40.5t-61 -123.5v-1083q0 -43 94 -82q45 -18 45 -45q0 -16 -14.5 -28.5t-30.5 -12.5h-359q-37 0 -37 33q0 29 39 49 q86 45 86 86v1079q0 96 -86 129q-41 16 -41 49z" />
<glyph unicode="&#xce;" horiz-adv-x="567" d="M-29 1534v15l221 272h136l221 -268v-19l-109 -4l-176 191l-180 -191zM61 1425q0 31 39 31h340q47 0 47 -41q0 -16 -61 -40.5t-61 -123.5v-1083q0 -43 94 -82q45 -18 45 -45q0 -16 -14.5 -28.5t-30.5 -12.5h-359q-37 0 -37 33q0 29 39 49q86 45 86 86v1079q0 96 -86 129 q-41 16 -41 49z" />
<glyph unicode="&#xcf;" horiz-adv-x="567" d="M-15 1647q0 43 29 73.5t72 30.5t73.5 -28.5t30.5 -71.5q0 -41 -28.5 -72t-69.5 -31t-74 29t-33 70zM61 1425q0 31 39 31h340q47 0 47 -41q0 -16 -61 -40.5t-61 -123.5v-1083q0 -43 94 -82q45 -18 45 -45q0 -16 -14.5 -28.5t-30.5 -12.5h-359q-37 0 -37 33q0 29 39 49 q86 45 86 86v1079q0 96 -86 129q-41 16 -41 49zM362 1638q0 43 29 74t72 31t73.5 -29t30.5 -72q0 -41 -28.5 -71.5t-69.5 -30.5t-74 28.5t-33 69.5z" />
<glyph unicode="&#xd0;" horiz-adv-x="1476" d="M37 770q0 39 15.5 58.5t43.5 19.5h72v452q0 27 -54.5 58t-54.5 47q0 20 21.5 35.5t52.5 15.5h543q281 0 484.5 -212t203.5 -501q0 -385 -238 -587q-182 -156 -403 -156h-578q-82 0 -82 37q0 35 52.5 61.5t52.5 94.5v499h-70q-23 0 -42 21.5t-19 56.5zM352 197 q0 -61 32 -85t103 -24h220q197 0 338 197.5t141 451.5q0 256 -152 426q-164 184 -446 185q-133 0 -184.5 -20.5t-51.5 -84.5v-397h103q25 0 37 -20.5t12 -51.5q0 -35 -12.5 -58.5t-36.5 -23.5h-103v-495z" />
<glyph unicode="&#xd1;" horiz-adv-x="1476" d="M20 1415q0 41 43 41h277l815 -1096v924q0 59 -64.5 84t-64.5 47q0 12 10.5 24.5t22.5 12.5h301q8 0 19.5 -9.5t11.5 -19.5q0 -23 -55.5 -55.5t-55.5 -91.5v-1243q0 -18 -15.5 -33.5t-31.5 -15.5q-10 0 -29.5 12t-27.5 20l-879 1223v-1059q0 -45 81 -77.5t81 -67.5 t-43 -35h-348q-31 0 -31 37q0 33 65.5 61.5t65.5 73.5v1079q0 70 -74 105t-74 59zM325 1594q55 113 101 159q63 68 145 68q66 0 203 -72.5t178 -72.5q51 0 92 47q29 33 66 104l73 -61q-74 -135 -122 -175t-107 -40q-63 0 -204.5 73.5t-180.5 73.5q-55 0 -100 -51 q-31 -35 -70 -117z" />
<glyph unicode="&#xd2;" horiz-adv-x="1591" d="M61 668q0 356 191 579q201 236 547 236q307 0 501 -242q183 -225 183 -536q0 -309 -201 -527q-209 -225 -530 -225q-303 0 -504 225q-186 211 -187 490zM262 676q0 -260 129 -436q139 -188 367 -189q244 0 387 199q129 180 129 434q0 289 -117 473q-131 209 -373 209 q-246 0 -389 -207q-133 -193 -133 -483zM532 1714l41 100q8 18 31 6l399 -198q21 -11 21 -25q0 -35 -33 -67l-442 153q-25 8 -17 31z" />
<glyph unicode="&#xd3;" horiz-adv-x="1591" d="M61 668q0 356 191 579q201 236 547 236q307 0 501 -242q183 -225 183 -536q0 -309 -201 -527q-209 -225 -530 -225q-303 0 -504 225q-186 211 -187 490zM262 676q0 -260 129 -436q139 -188 367 -189q244 0 387 199q129 180 129 434q0 289 -117 473q-131 209 -373 209 q-246 0 -389 -207q-133 -193 -133 -483zM526 1605q0 14 20 25l400 198q25 12 31 -6l40 -100q8 -23 -16 -31l-442 -153q-33 33 -33 67z" />
<glyph unicode="&#xd4;" horiz-adv-x="1591" d="M61 668q0 356 191 579q201 236 547 236q307 0 501 -242q183 -225 183 -536q0 -309 -201 -527q-209 -225 -530 -225q-303 0 -504 225q-186 211 -187 490zM262 676q0 -260 129 -436q139 -188 367 -189q244 0 387 199q129 180 129 434q0 289 -117 473q-131 209 -373 209 q-246 0 -389 -207q-133 -193 -133 -483zM475 1546v15l221 272h136l221 -268v-19l-109 -4l-176 191l-180 -191z" />
<glyph unicode="&#xd5;" horiz-adv-x="1591" d="M61 668q0 356 191 579q201 236 547 236q307 0 501 -242q183 -225 183 -536q0 -309 -201 -527q-209 -225 -530 -225q-303 0 -504 225q-186 211 -187 490zM262 676q0 -260 129 -436q139 -188 367 -189q244 0 387 199q129 180 129 434q0 289 -117 473q-131 209 -373 209 q-246 0 -389 -207q-133 -193 -133 -483zM381 1612q55 113 101 159q63 68 145 68q66 0 203 -72.5t178 -72.5q51 0 92 47q29 33 66 104l73 -61q-74 -135 -122 -175t-107 -40q-63 0 -204.5 73.5t-180.5 73.5q-55 0 -100 -51q-31 -35 -70 -117z" />
<glyph unicode="&#xd6;" horiz-adv-x="1591" d="M61 668q0 356 191 579q201 236 547 236q307 0 501 -242q183 -225 183 -536q0 -309 -201 -527q-209 -225 -530 -225q-303 0 -504 225q-186 211 -187 490zM262 676q0 -260 129 -436q139 -188 367 -189q244 0 387 199q129 180 129 434q0 289 -117 473q-131 209 -373 209 q-246 0 -389 -207q-133 -193 -133 -483zM512 1668q0 43 29 73.5t72 30.5t73.5 -28.5t30.5 -71.5q0 -41 -28.5 -72t-69.5 -31t-74 29t-33 70zM889 1659q0 43 29 74t72 31t73.5 -29t30.5 -72q0 -41 -28.5 -71.5t-69.5 -30.5t-74 28.5t-33 69.5z" />
<glyph unicode="&#xd7;" horiz-adv-x="1277" d="M250 311l297 297l-268 266l69 68l266 -266l289 289l66 -68l-291 -291l293 -293l-66 -65l-293 293l-297 -297z" />
<glyph unicode="&#xd8;" horiz-adv-x="1591" d="M27 702q0 356 190 580q201 236 547 236q137 0 247.5 -47.5t202.5 -139.5l119 137l113 -6l-172 -196q84 -106 129 -243t45 -284q0 -309 -201 -526q-209 -225 -530 -225q-123 0 -230.5 40t-195.5 111l-117 -133l-108 19l157 178q-94 100 -145 232t-51 267zM227 711 q0 -221 99 -389l782 888q-63 92 -152.5 141.5t-205.5 49.5q-246 0 -390 -207q-133 -193 -133 -483zM381 244q66 -76 150.5 -117t191.5 -41q244 0 387 199q129 180 129 434q0 113 -20.5 218t-63.5 191z" />
<glyph unicode="&#xd9;" horiz-adv-x="1476" d="M59 1411q0 20 21.5 32.5t44.5 12.5h291q20 0 37.5 -15.5t17.5 -29.5q0 -27 -65 -65q-37 -23 -49.5 -54.5t-29 -265t-16.5 -408.5q0 -238 86 -378q104 -170 324 -170q221 0 323 133q117 152 117 506q0 143 -10 267t-35 300q-6 47 -66.5 78.5t-60.5 66.5q0 39 47 39h295 q43 0 43 -41q0 -33 -51 -57.5t-51 -69.5q16 -152 27.5 -303t11.5 -252q0 -242 -39 -385q-51 -190 -180 -286q-150 -113 -416 -113q-260 0 -408 176q-139 166 -139 432q0 92 18.5 303t18.5 271v26q0 63 -2 96t-12 50q-20 35 -56.5 54t-36.5 50zM467 1698l41 100q8 18 31 6 l399 -198q21 -11 21 -25q0 -35 -33 -67l-442 153q-25 8 -17 31z" />
<glyph unicode="&#xda;" horiz-adv-x="1476" d="M59 1411q0 20 21.5 32.5t44.5 12.5h291q20 0 37.5 -15.5t17.5 -29.5q0 -27 -65 -65q-37 -23 -49.5 -54.5t-29 -265t-16.5 -408.5q0 -238 86 -378q104 -170 324 -170q221 0 323 133q117 152 117 506q0 143 -10 267t-35 300q-6 47 -66.5 78.5t-60.5 66.5q0 39 47 39h295 q43 0 43 -41q0 -33 -51 -57.5t-51 -69.5q16 -152 27.5 -303t11.5 -252q0 -242 -39 -385q-51 -190 -180 -286q-150 -113 -416 -113q-260 0 -408 176q-139 166 -139 432q0 92 18.5 303t18.5 271v26q0 63 -2 96t-12 50q-20 35 -56.5 54t-36.5 50zM481 1589q0 14 20 25l400 198 q25 12 31 -6l40 -100q8 -23 -16 -31l-442 -153q-33 33 -33 67z" />
<glyph unicode="&#xdb;" horiz-adv-x="1476" d="M59 1411q0 20 21.5 32.5t44.5 12.5h291q20 0 37.5 -15.5t17.5 -29.5q0 -27 -65 -65q-37 -23 -49.5 -54.5t-29 -265t-16.5 -408.5q0 -238 86 -378q104 -170 324 -170q221 0 323 133q117 152 117 506q0 143 -10 267t-35 300q-6 47 -66.5 78.5t-60.5 66.5q0 39 47 39h295 q43 0 43 -41q0 -33 -51 -57.5t-51 -69.5q16 -152 27.5 -303t11.5 -252q0 -242 -39 -385q-51 -190 -180 -286q-150 -113 -416 -113q-260 0 -408 176q-139 166 -139 432q0 92 18.5 303t18.5 271v26q0 63 -2 96t-12 50q-20 35 -56.5 54t-36.5 50zM426 1532v15l221 272h136 l221 -268v-19l-109 -4l-176 191l-180 -191z" />
<glyph unicode="&#xdc;" horiz-adv-x="1476" d="M59 1411q0 20 21.5 32.5t44.5 12.5h291q20 0 37.5 -15.5t17.5 -29.5q0 -27 -65 -65q-37 -23 -49.5 -54.5t-29 -265t-16.5 -408.5q0 -238 86 -378q104 -170 324 -170q221 0 323 133q117 152 117 506q0 143 -10 267t-35 300q-6 47 -66.5 78.5t-60.5 66.5q0 39 47 39h295 q43 0 43 -41q0 -33 -51 -57.5t-51 -69.5q16 -152 27.5 -303t11.5 -252q0 -242 -39 -385q-51 -190 -180 -286q-150 -113 -416 -113q-260 0 -408 176q-139 166 -139 432q0 92 18.5 303t18.5 271v26q0 63 -2 96t-12 50q-20 35 -56.5 54t-36.5 50zM432 1643q0 43 29 73.5 t72 30.5t73.5 -28.5t30.5 -71.5q0 -41 -28.5 -72t-69.5 -31t-74 29t-33 70zM809 1634q0 43 29 74t72 31t73.5 -29t30.5 -72q0 -41 -28.5 -71.5t-69.5 -30.5t-74 28.5t-33 69.5z" />
<glyph unicode="&#xdd;" horiz-adv-x="1359" d="M-10 1417q0 43 35 43h323q35 0 35 -39q0 -27 -42 -54.5t-42 -61.5q0 -12 10 -31q2 -4 19 -27l368 -538l353 530q14 25 14 66q0 39 -46 66.5t-46 43.5q0 14 8 29.5t20 15.5h269q41 0 41 -37q0 -31 -19 -53l-67 -67l-463 -715v-416q0 -35 63.5 -63.5t63.5 -63.5 q0 -45 -41 -45h-350q-39 0 -39 41q0 35 61.5 65.5t61.5 73.5v404l-455 682q-43 66 -115 108q-20 12 -20 43zM440 1601q0 14 20 25l400 198q25 12 31 -6l40 -100q8 -23 -16 -31l-442 -153q-33 33 -33 67z" />
<glyph unicode="&#xde;" horiz-adv-x="1024" d="M98 0v61q35 0 58.5 19.5t23.5 50.5v1212q0 51 -82 72v58h353v-58q-39 -6 -60.5 -26.5t-21.5 -45.5v-155h194q147 0 264 -125t117 -299q0 -168 -137 -270.5t-340 -102.5q-23 0 -52.5 3t-45.5 5v-268q0 -27 27.5 -48.5t54.5 -21.5v-61h-353zM369 516q12 -2 39.5 -4t52.5 -2 q150 0 240 67.5t90 190.5q0 125 -66 205q-72 88 -201 88h-155v-545z" />
<glyph unicode="&#xdf;" horiz-adv-x="1359" d="M35 -207q0 29 70.5 53.5t70.5 73.5v1147q0 199 147.5 310.5t376.5 111.5q190 0 333 -99.5t143 -263.5q0 -96 -54 -165q-63 -82 -237 -152q174 -37 270 -139q109 -115 109 -301q0 -178 -156 -283q-139 -92 -334 -92q-184 0 -276 81t-92 214q0 74 34 135q43 76 113 76 q55 0 55 -45q0 -37 -43 -74t-43 -105q0 -76 72 -130t188 -54q133 0 219 76q96 86 97 242q0 137 -102.5 237.5t-252.5 100.5h-251q-31 29 -31 57q0 20 8 31q8 10 18 20h254q111 0 185.5 79t74.5 195q0 102 -67 177q-84 90 -240 90q-176 0 -273 -93.5t-97 -228.5v-1155 q0 -51 27.5 -72.5t27.5 -46.5q0 -57 -47 -57h-248q-49 0 -49 49z" />
<glyph unicode="&#xe0;" horiz-adv-x="1015" d="M41 248q0 168 154 280q143 104 329 105q82 0 160 -25q-14 109 -89 175.5t-181 66.5q-86 0 -170 -44t-92 -44q-20 0 -38 17.5t-18 35.5q0 59 105.5 103.5t220.5 44.5q197 0 319 -129q98 -102 99 -201v-461q0 -31 71 -82q35 -24 35 -55q0 -20 -25.5 -33.5t-99.5 -13.5 q-49 0 -78.5 12t-29.5 33v139q-55 -92 -150.5 -143.5t-200.5 -51.5q-137 0 -229 79t-92 192zM205 250q0 -82 63 -129q55 -41 135 -41q125 0 207 76q92 85 92 241l-6 148q-190 -20 -282 -53q-209 -76 -209 -242zM209 1229l41 100q8 18 31 6l399 -198q21 -11 21 -25 q0 -35 -33 -67l-442 153q-25 8 -17 31z" />
<glyph unicode="&#xe1;" horiz-adv-x="1015" d="M41 248q0 168 154 280q143 104 329 105q82 0 160 -25q-14 109 -89 175.5t-181 66.5q-86 0 -170 -44t-92 -44q-20 0 -38 17.5t-18 35.5q0 59 105.5 103.5t220.5 44.5q197 0 319 -129q98 -102 99 -201v-461q0 -31 71 -82q35 -24 35 -55q0 -20 -25.5 -33.5t-99.5 -13.5 q-49 0 -78.5 12t-29.5 33v139q-55 -92 -150.5 -143.5t-200.5 -51.5q-137 0 -229 79t-92 192zM205 250q0 -82 63 -129q55 -41 135 -41q125 0 207 76q92 85 92 241l-6 148q-190 -20 -282 -53q-209 -76 -209 -242zM270 1108q0 14 20 25l400 198q25 12 31 -6l40 -100 q8 -23 -16 -31l-442 -153q-33 33 -33 67z" />
<glyph unicode="&#xe2;" horiz-adv-x="1015" d="M41 248q0 168 154 280q143 104 329 105q82 0 160 -25q-14 109 -89 175.5t-181 66.5q-86 0 -170 -44t-92 -44q-20 0 -38 17.5t-18 35.5q0 59 105.5 103.5t220.5 44.5q197 0 319 -129q98 -102 99 -201v-461q0 -31 71 -82q35 -24 35 -55q0 -20 -25.5 -33.5t-99.5 -13.5 q-49 0 -78.5 12t-29.5 33v139q-55 -92 -150.5 -143.5t-200.5 -51.5q-137 0 -229 79t-92 192zM160 1038v15l221 272h136l221 -268v-19l-109 -4l-176 191l-180 -191zM205 250q0 -82 63 -129q55 -41 135 -41q125 0 207 76q92 85 92 241l-6 148q-190 -20 -282 -53 q-209 -76 -209 -242z" />
<glyph unicode="&#xe3;" horiz-adv-x="1015" d="M41 248q0 168 154 280q143 104 329 105q82 0 160 -25q-14 109 -89 175.5t-181 66.5q-86 0 -170 -44t-92 -44q-20 0 -38 17.5t-18 35.5q0 59 105.5 103.5t220.5 44.5q197 0 319 -129q98 -102 99 -201v-461q0 -31 71 -82q35 -24 35 -55q0 -20 -25.5 -33.5t-99.5 -13.5 q-49 0 -78.5 12t-29.5 33v139q-55 -92 -150.5 -143.5t-200.5 -51.5q-137 0 -229 79t-92 192zM57 1102q55 113 101 159q63 68 145 68q66 0 203 -72.5t178 -72.5q51 0 92 47q29 33 66 104l73 -61q-74 -135 -122 -175t-107 -40q-63 0 -204.5 73.5t-180.5 73.5q-55 0 -100 -51 q-31 -35 -70 -117zM205 250q0 -82 63 -129q55 -41 135 -41q125 0 207 76q92 85 92 241l-6 148q-190 -20 -282 -53q-209 -76 -209 -242z" />
<glyph unicode="&#xe4;" horiz-adv-x="1015" d="M41 248q0 168 154 280q143 104 329 105q82 0 160 -25q-14 109 -89 175.5t-181 66.5q-86 0 -170 -44t-92 -44q-20 0 -38 17.5t-18 35.5q0 59 105.5 103.5t220.5 44.5q197 0 319 -129q98 -102 99 -201v-461q0 -31 71 -82q35 -24 35 -55q0 -20 -25.5 -33.5t-99.5 -13.5 q-49 0 -78.5 12t-29.5 33v139q-55 -92 -150.5 -143.5t-200.5 -51.5q-137 0 -229 79t-92 192zM155 1156q0 43 29 73.5t72 30.5t73.5 -28.5t30.5 -71.5q0 -41 -28.5 -72t-69.5 -31t-74 29t-33 70zM205 250q0 -82 63 -129q55 -41 135 -41q125 0 207 76q92 85 92 241l-6 148 q-190 -20 -282 -53q-209 -76 -209 -242zM532 1147q0 43 29 74t72 31t73.5 -29t30.5 -72q0 -41 -28.5 -71.5t-69.5 -30.5t-74 28.5t-33 69.5z" />
<glyph unicode="&#xe5;" horiz-adv-x="1015" d="M41 248q0 168 154 280q143 104 329 105q82 0 160 -25q-14 109 -89 175.5t-181 66.5q-86 0 -170 -44t-92 -44q-20 0 -38 17.5t-18 35.5q0 59 105.5 103.5t220.5 44.5q197 0 319 -129q98 -102 99 -201v-461q0 -31 71 -82q35 -24 35 -55q0 -20 -25.5 -33.5t-99.5 -13.5 q-49 0 -78.5 12t-29.5 33v139q-55 -92 -150.5 -143.5t-200.5 -51.5q-137 0 -229 79t-92 192zM205 250q0 -82 63 -129q55 -41 135 -41q125 0 207 76q92 85 92 241l-6 148q-190 -20 -282 -53q-209 -76 -209 -242zM269 1229q0 76 55 131t133 55q80 0 133 -53t53 -133 q0 -76 -54 -130t-132 -54t-133 53t-55 131zM363 1223q0 -39 26.5 -65.5t67.5 -26.5q39 0 65.5 26.5t26.5 65.5q0 37 -27.5 64.5t-64.5 27.5t-65.5 -26.5t-28.5 -65.5z" />
<glyph unicode="&#xe6;" horiz-adv-x="1689" d="M45 270q0 168 154 281q143 104 329 104q82 0 160 -24q-14 109 -89 175t-181 66q-86 0 -170 -44t-92 -44q-20 0 -38 17.5t-18 36.5q0 59 105.5 103t220.5 44q141 0 246 -67q86 -55 135 -146q74 98 183.5 155.5t242.5 57.5q129 0 223 -70q104 -78 105 -196 q0 -143 -166 -232q-197 -104 -451 -104l-65 4q20 -125 110 -193.5t211 -68.5q102 0 191 47q76 53 153 107q37 -1 37 -48q0 -68 -143.5 -147.5t-280.5 -79.5q-145 0 -266 92q-39 31 -92 94l-54 -18q-57 -82 -149 -131t-201 -49q-139 0 -244.5 83t-105.5 195zM209 272 q0 -82 63 -129q55 -41 136 -41q131 0 215 84q92 92 92 256q0 31 -5 62t-10 63q-190 -20 -282 -53q-209 -76 -209 -242zM868 455q525 79 525 282q0 63 -58.5 107.5t-132.5 44.5q-152 0 -243 -125t-91 -309z" />
<glyph unicode="&#xe7;" horiz-adv-x="911" d="M43 457q0 193 132 346t321 153q109 0 198 -43q117 -55 117 -153q0 -23 -20.5 -47.5t-38.5 -24.5q-53 0 -129 78t-142 78q-127 0 -199.5 -116t-72.5 -271q0 -168 82 -264.5t213 -96.5q111 0 174 45q57 51 117 105q16 0 30.5 -10.5t14.5 -20.5q0 -76 -100.5 -149.5 t-223.5 -83.5l-33 -60q31 6 60 6q57 0 89 -24.5t32 -73.5q0 -76 -78 -131t-201 -55q-29 0 -67.5 7t-77.5 21l41 60q23 -8 36 -11q49 -12 72 -12q63 0 97 31t34 70q0 47 -63 47h-41q-20 -4 -33 -7l-8 9l49 123q-184 18 -282.5 147t-98.5 328z" />
<glyph unicode="&#xe8;" horiz-adv-x="1015" d="M55 436q0 207 148 361q156 162 383 161q129 0 227 -72.5t98 -193.5q0 -172 -268 -268q-186 -68 -346 -68l-66 4q20 -125 110.5 -193.5t211.5 -68.5q102 0 190 47q76 53 154 107q37 0 37 -47q0 -68 -142.5 -146.5t-281.5 -78.5q-207 0 -336 141q-119 131 -119 315z M219 428q272 41 381 92q143 68 143 191q0 66 -56 108.5t-132 42.5q-152 0 -244 -126t-92 -308zM286 1229l41 100q8 18 31 6l399 -198q21 -11 21 -25q0 -35 -33 -67l-442 153q-25 8 -17 31z" />
<glyph unicode="&#xe9;" horiz-adv-x="1015" d="M55 436q0 207 148 361q156 162 383 161q129 0 227 -72.5t98 -193.5q0 -172 -268 -268q-186 -68 -346 -68l-66 4q20 -125 110.5 -193.5t211.5 -68.5q102 0 190 47q76 53 154 107q37 0 37 -47q0 -68 -142.5 -146.5t-281.5 -78.5q-207 0 -336 141q-119 131 -119 315z M219 428q272 41 381 92q143 68 143 191q0 66 -56 108.5t-132 42.5q-152 0 -244 -126t-92 -308zM320 1104q0 14 20 25l400 198q25 12 31 -6l40 -100q8 -23 -16 -31l-442 -153q-33 33 -33 67z" />
<glyph unicode="&#xea;" horiz-adv-x="1015" d="M55 436q0 207 148 361q156 162 383 161q129 0 227 -72.5t98 -193.5q0 -172 -268 -268q-186 -68 -346 -68l-66 4q20 -125 110.5 -193.5t211.5 -68.5q102 0 190 47q76 53 154 107q37 0 37 -47q0 -68 -142.5 -146.5t-281.5 -78.5q-207 0 -336 141q-119 131 -119 315z M219 428q272 41 381 92q143 68 143 191q0 66 -56 108.5t-132 42.5q-152 0 -244 -126t-92 -308zM276 1044v15l221 272h136l221 -268v-19l-109 -4l-176 191l-180 -191z" />
<glyph unicode="&#xeb;" horiz-adv-x="1015" d="M55 436q0 207 148 361q156 162 383 161q129 0 227 -72.5t98 -193.5q0 -172 -268 -268q-186 -68 -346 -68l-66 4q20 -125 110.5 -193.5t211.5 -68.5q102 0 190 47q76 53 154 107q37 0 37 -47q0 -68 -142.5 -146.5t-281.5 -78.5q-207 0 -336 141q-119 131 -119 315z M219 428q272 41 381 92q143 68 143 191q0 66 -56 108.5t-132 42.5q-152 0 -244 -126t-92 -308zM284 1156q0 43 29 73.5t72 30.5t73.5 -28.5t30.5 -71.5q0 -41 -28.5 -72t-69.5 -31t-74 29t-33 70zM661 1147q0 43 29 74t72 31t73.5 -29t30.5 -72q0 -41 -28.5 -71.5 t-69.5 -30.5t-74 28.5t-33 69.5z" />
<glyph unicode="&#xec;" horiz-adv-x="452" d="M-176 1213l41 100q8 18 31 6l399 -198q21 -11 21 -25q0 -35 -33 -67l-442 153q-25 8 -17 31zM23 842q0 33 90 84q51 29 86 28q29 0 61.5 -36.5t32.5 -69.5v-674q0 -47 47 -82t47 -55q0 -8 -4 -17q-10 -20 -35 -20h-280q-29 0 -29 33q0 25 50 50.5t50 76.5v520 q0 92 -58 104.5t-58 57.5z" />
<glyph unicode="&#xed;" horiz-adv-x="452" d="M4 1087q0 14 20 25l400 198q25 12 31 -6l40 -100q8 -23 -16 -31l-442 -153q-33 33 -33 67zM23 842q0 33 90 84q51 29 86 28q29 0 61.5 -36.5t32.5 -69.5v-674q0 -47 47 -82t47 -55q0 -8 -4 -17q-10 -20 -35 -20h-280q-29 0 -29 33q0 25 50 50.5t50 76.5v520 q0 92 -58 104.5t-58 57.5z" />
<glyph unicode="&#xee;" horiz-adv-x="452" d="M-96 1034v15l221 272h136l221 -268v-19l-109 -4l-176 191l-180 -191zM23 842q0 33 90 84q51 29 86 28q29 0 61.5 -36.5t32.5 -69.5v-674q0 -47 47 -82t47 -55q0 -8 -4 -17q-10 -20 -35 -20h-280q-29 0 -29 33q0 25 50 50.5t50 76.5v520q0 92 -58 104.5t-58 57.5z" />
<glyph unicode="&#xef;" horiz-adv-x="452" d="M-80 1162q0 43 29 73.5t72 30.5t73.5 -28.5t30.5 -71.5q0 -41 -28.5 -72t-69.5 -31t-74 29t-33 70zM23 842q0 33 90 84q51 29 86 28q29 0 61.5 -36.5t32.5 -69.5v-674q0 -47 47 -82t47 -55q0 -8 -4 -17q-10 -20 -35 -20h-280q-29 0 -29 33q0 25 50 50.5t50 76.5v520 q0 92 -58 104.5t-58 57.5zM297 1153q0 43 29 74t72 31t73.5 -29t30.5 -72q0 -41 -28.5 -71.5t-69.5 -30.5t-74 28.5t-33 69.5z" />
<glyph unicode="&#xf0;" horiz-adv-x="1218" d="M61 1610q0 23 18.5 39t33.5 16q147 0 338 -66q231 -80 372 -217l160 93q18 -6 29 -11q31 -16 45 -47q6 -12 8 -28q0 -8 2 -15q0 -12 -4 -24q0 -2 -4 -9l-133 -77q96 -133 153 -310q66 -196 66 -393q0 -281 -141 -438q-131 -147 -342 -148q-225 0 -369 152 q-135 143 -135 346q0 170 116 289q125 127 328 127q113 0 215.5 -45t155.5 -127q-20 123 -69.5 243.5t-123.5 217.5l-233 -136q-16 6 -25 13q-27 18 -41 43.5t-14 56.5q0 14 2 23q0 2 2 4l193 110q-63 70 -230.5 135.5t-347.5 98.5q-25 37 -25 84zM342 430q0 -150 90 -258.5 t227 -108.5q141 0 227.5 120t86.5 290q0 147 -87 228t-247 81q-150 0 -227 -108q-70 -96 -70 -244z" />
<glyph unicode="&#xf1;" d="M51 834q0 33 64.5 75.5t89.5 42.5q37 0 64.5 -61.5t27.5 -126.5q35 90 131 141t203 51q125 0 219 -90t94 -215v-508q0 -37 50 -61t50 -53q0 -12 -17 -20.5t-34 -8.5h-252q-8 0 -16 6q-14 12 -14 31q0 25 43 45t43 78v424q0 106 -58 180q-63 82 -166 82q-86 0 -172 -68.5 t-86 -159.5v-479q0 -43 41 -63.5t41 -42.5q0 -33 -30 -33h-258q-10 0 -22.5 10t-12.5 21q0 27 41 47t41 55v569q0 61 -52.5 90t-52.5 42zM135 1086q55 113 101 159q63 68 145 68q66 0 203 -72.5t178 -72.5q51 0 92 47q29 33 66 104l73 -61q-74 -135 -122 -175t-107 -40 q-63 0 -204.5 73.5t-180.5 73.5q-55 0 -100 -51q-31 -35 -70 -117z" />
<glyph unicode="&#xf2;" d="M49 469q0 188 143.5 335.5t339.5 147.5q211 0 364 -144t153 -345q0 -197 -144.5 -343.5t-353.5 -146.5q-199 0 -344 131q-158 141 -158 365zM223 455q0 -160 78 -269q88 -123 238 -123q162 0 254 121q84 109 84 275q0 162 -89 270q-94 117 -256 117q-135 0 -222 -119 t-87 -272zM295 1208l41 100q8 18 31 6l399 -198q21 -11 21 -25q0 -35 -33 -67l-442 153q-25 8 -17 31z" />
<glyph unicode="&#xf3;" d="M49 469q0 188 143.5 335.5t339.5 147.5q211 0 364 -144t153 -345q0 -197 -144.5 -343.5t-353.5 -146.5q-199 0 -344 131q-158 141 -158 365zM223 455q0 -160 78 -269q88 -123 238 -123q162 0 254 121q84 109 84 275q0 162 -89 270q-94 117 -256 117q-135 0 -222 -119 t-87 -272zM336 1096q0 14 20 25l400 198q25 12 31 -6l40 -100q8 -23 -16 -31l-442 -153q-33 33 -33 67z" />
<glyph unicode="&#xf4;" d="M49 469q0 188 143.5 335.5t339.5 147.5q211 0 364 -144t153 -345q0 -197 -144.5 -343.5t-353.5 -146.5q-199 0 -344 131q-158 141 -158 365zM223 455q0 -160 78 -269q88 -123 238 -123q162 0 254 121q84 109 84 275q0 162 -89 270q-94 117 -256 117q-135 0 -222 -119 t-87 -272zM270 1040v15l221 272h136l221 -268v-19l-109 -4l-176 191l-180 -191z" />
<glyph unicode="&#xf5;" d="M49 469q0 188 143.5 335.5t339.5 147.5q211 0 364 -144t153 -345q0 -197 -144.5 -343.5t-353.5 -146.5q-199 0 -344 131q-158 141 -158 365zM71 1078q55 113 101 159q63 68 145 68q66 0 203 -72.5t178 -72.5q51 0 92 47q29 33 66 104l73 -61q-74 -135 -122 -175t-107 -40 q-63 0 -204.5 73.5t-180.5 73.5q-55 0 -100 -51q-31 -35 -70 -117zM223 455q0 -160 78 -269q88 -123 238 -123q162 0 254 121q84 109 84 275q0 162 -89 270q-94 117 -256 117q-135 0 -222 -119t-87 -272z" />
<glyph unicode="&#xf6;" d="M49 469q0 188 143.5 335.5t339.5 147.5q211 0 364 -144t153 -345q0 -197 -144.5 -343.5t-353.5 -146.5q-199 0 -344 131q-158 141 -158 365zM223 455q0 -160 78 -269q88 -123 238 -123q162 0 254 121q84 109 84 275q0 162 -89 270q-94 117 -256 117q-135 0 -222 -119 t-87 -272zM247 1151q0 43 29 73.5t72 30.5t73.5 -28.5t30.5 -71.5q0 -41 -28.5 -72t-69.5 -31t-74 29t-33 70zM624 1142q0 43 29 74t72 31t73.5 -29t30.5 -72q0 -41 -28.5 -71.5t-69.5 -30.5t-74 28.5t-33 69.5z" />
<glyph unicode="&#xf7;" horiz-adv-x="1253" d="M164 383l43 156h889l-43 -156h-889zM489 123q0 49 33 86t82 37t86 -33t37 -82t-31.5 -85t-81.5 -36q-49 0 -87 32t-38 81zM489 799q0 49 33 86t82 37t86 -33t37 -82t-31.5 -85t-81.5 -36q-49 0 -87 32t-38 81z" />
<glyph unicode="&#xf8;" d="M33 0l143 133q-66 88 -88 135q-39 82 -39 178q0 197 135 347q143 160 348 159q106 0 199.5 -39t167.5 -110l92 86h80l-135 -125q55 -63 86 -139t31 -154q0 -199 -148.5 -349.5t-343.5 -150.5q-90 0 -180 32t-164 93l-104 -96h-80zM221 451q0 -61 14.5 -116.5t40.5 -109.5 l527 488q-41 57 -114 96t-150 39q-139 0 -228.5 -119t-89.5 -278zM305 178q41 -55 99.5 -86t136.5 -31q154 0 247 121q89 113 89 273q0 57 -11.5 111.5t-34.5 99.5z" />
<glyph unicode="&#xf9;" d="M45 881q0 31 62.5 57.5t125.5 26.5q35 0 52.5 -27t17.5 -61q-6 -84 -10 -144.5t-4 -144.5q0 -258 24 -344q41 -143 181 -144q94 0 184 66q98 72 98 166v424q0 37 -44 72.5t-44 43.5q0 33 52.5 61t105.5 28q90 0 90 -105v-659q0 -63 84 -103q41 -18 41 -47t-34 -40 t-89 -11q-90 0 -113.5 28.5t-31.5 127.5q-51 -82 -140.5 -127t-189.5 -45q-127 0 -217 71q-98 78 -99 205v508q0 27 -30 49q-70 53 -72 68zM266 1204l41 100q8 18 31 6l399 -198q21 -11 21 -25q0 -35 -33 -67l-442 153q-25 8 -17 31z" />
<glyph unicode="&#xfa;" d="M45 881q0 31 62.5 57.5t125.5 26.5q35 0 52.5 -27t17.5 -61q-6 -84 -10 -144.5t-4 -144.5q0 -258 24 -344q41 -143 181 -144q94 0 184 66q98 72 98 166v424q0 37 -44 72.5t-44 43.5q0 33 52.5 61t105.5 28q90 0 90 -105v-659q0 -63 84 -103q41 -18 41 -47t-34 -40 t-89 -11q-90 0 -113.5 28.5t-31.5 127.5q-51 -82 -140.5 -127t-189.5 -45q-127 0 -217 71q-98 78 -99 205v508q0 27 -30 49q-70 53 -72 68zM291 1104q0 14 20 25l400 198q25 12 31 -6l40 -100q8 -23 -16 -31l-442 -153q-33 33 -33 67z" />
<glyph unicode="&#xfb;" d="M45 881q0 31 62.5 57.5t125.5 26.5q35 0 52.5 -27t17.5 -61q-6 -84 -10 -144.5t-4 -144.5q0 -258 24 -344q41 -143 181 -144q94 0 184 66q98 72 98 166v424q0 37 -44 72.5t-44 43.5q0 33 52.5 61t105.5 28q90 0 90 -105v-659q0 -63 84 -103q41 -18 41 -47t-34 -40 t-89 -11q-90 0 -113.5 28.5t-31.5 127.5q-51 -82 -140.5 -127t-189.5 -45q-127 0 -217 71q-98 78 -99 205v508q0 27 -30 49q-70 53 -72 68zM217 1046v15l221 272h136l221 -268v-19l-109 -4l-176 191l-180 -191z" />
<glyph unicode="&#xfc;" d="M45 881q0 31 62.5 57.5t125.5 26.5q35 0 52.5 -27t17.5 -61q-6 -84 -10 -144.5t-4 -144.5q0 -258 24 -344q41 -143 181 -144q94 0 184 66q98 72 98 166v424q0 37 -44 72.5t-44 43.5q0 33 52.5 61t105.5 28q90 0 90 -105v-659q0 -63 84 -103q41 -18 41 -47t-34 -40 t-89 -11q-90 0 -113.5 28.5t-31.5 127.5q-51 -82 -140.5 -127t-189.5 -45q-127 0 -217 71q-98 78 -99 205v508q0 27 -30 49q-70 53 -72 68zM231 1156q0 43 29 73.5t72 30.5t73.5 -28.5t30.5 -71.5q0 -41 -28.5 -72t-69.5 -31t-74 29t-33 70zM608 1147q0 43 29 74t72 31 t73.5 -29t30.5 -72q0 -41 -28.5 -71.5t-69.5 -30.5t-74 28.5t-33 69.5z" />
<glyph unicode="&#xfd;" horiz-adv-x="1015" d="M8 885q0 10 6 18q14 20 31 21h227q25 0 35 -12.5t10 -34.5q0 -47 -33.5 -63.5t-33.5 -117.5q0 -190 80 -372q88 -201 205 -201q100 0 178 217q70 193 69 369q0 98 -45 124.5t-45 55.5q0 8 9.5 21.5t17.5 13.5h203q16 0 27.5 -18t11.5 -38q0 -39 -29 -63q0 -395 -242 -807 q-254 -432 -534 -432q-57 0 -83 23.5t-26 62.5q0 27 26.5 47t63.5 20q18 0 51 -5t39 -5q76 0 158 70q106 90 199 268q-57 -35 -117 -35q-113 0 -201 138q-70 111 -123 313q-39 152 -67 342q-29 16 -48.5 36.5t-19.5 43.5zM299 1091q0 14 20 25l400 198q25 12 31 -6l40 -100 q8 -23 -16 -31l-442 -153q-33 33 -33 67z" />
<glyph unicode="&#xfe;" horiz-adv-x="1116" d="M78 -287l10 54q37 -4 58.5 13t21.5 68v1491q0 45 -24.5 62.5t-65.5 17.5v54h270v-545q59 76 136 109.5t169 33.5q139 0 255 -107t116 -259q0 -172 -122 -288t-294 -116q-68 0 -130 15.5t-130 52.5v-516q0 -47 15.5 -64.5t68.5 -21.5v-54h-354zM348 446q39 -31 98.5 -50 t110.5 -19q113 0 197 88t84 192q0 106 -82 184.5t-178 78.5q-63 0 -130 -31t-100 -86v-357z" />
<glyph unicode="&#xff;" horiz-adv-x="1015" d="M8 885q0 10 6 18q14 20 31 21h227q25 0 35 -12.5t10 -34.5q0 -47 -33.5 -63.5t-33.5 -117.5q0 -190 80 -372q88 -201 205 -201q100 0 178 217q70 193 69 369q0 98 -45 124.5t-45 55.5q0 8 9.5 21.5t17.5 13.5h203q16 0 27.5 -18t11.5 -38q0 -39 -29 -63q0 -395 -242 -807 q-254 -432 -534 -432q-57 0 -83 23.5t-26 62.5q0 27 26.5 47t63.5 20q18 0 51 -5t39 -5q76 0 158 70q106 90 199 268q-57 -35 -117 -35q-113 0 -201 138q-70 111 -123 313q-39 152 -67 342q-29 16 -48.5 36.5t-19.5 43.5zM225 1143q0 43 29 73.5t72 30.5t73.5 -28.5 t30.5 -71.5q0 -41 -28.5 -72t-69.5 -31t-74 29t-33 70zM602 1134q0 43 29 74t72 31t73.5 -29t30.5 -72q0 -41 -28.5 -71.5t-69.5 -30.5t-74 28.5t-33 69.5z" />
<glyph unicode="&#x152;" horiz-adv-x="1591" d="M61 668q0 356 191 579q201 236 547 236q86 0 164 -19l47 4h886q25 0 46.5 -79.5t21.5 -139.5q0 -35 -33 -35q-47 57 -119 99q-80 47 -172 47h-256q-84 0 -125.5 -36t-41.5 -128v-348h438q29 0 65.5 35t55.5 35q35 0 39 -30t4 -71q0 -59 -9.5 -101t-33.5 -42q-20 0 -86 43 q-35 23 -66 22h-403v-538q0 -41 29.5 -69t70.5 -28h362q76 0 160 53.5t168 110.5q10 -6 12 -14q9 -19 9 -37q0 -43 -19.5 -130t-36.5 -87h-958q-59 -23 -126 -35t-140 -12q-303 0 -504 225q-186 211 -187 490zM262 676q0 -260 129 -436q139 -188 367 -189q92 0 187 37t95 78 v1124q-106 76 -256 76q-246 0 -389 -207q-133 -193 -133 -483z" />
<glyph unicode="&#x153;" horiz-adv-x="1812" d="M49 475q0 188 143.5 335.5t339.5 147.5q135 0 253 -65.5t188 -173.5q72 109 182 170q121 68 262 67q129 0 227.5 -72.5t98.5 -193.5q0 -172 -268 -268q-186 -68 -347 -68l-65 4q20 -125 110.5 -193.5t210.5 -68.5q102 0 191 47q76 53 154 107q36 0 36 -47 q0 -68 -142 -147t-282 -79q-129 0 -228 56.5t-159 152.5q-68 -96 -173 -151t-230 -55q-199 0 -344 131q-158 141 -158 364zM223 461q0 -160 78 -268q88 -123 238 -123q162 0 254 120q84 109 84 275q0 162 -89 270q-94 117 -256 117q-135 0 -222 -119t-87 -272zM1051 426 q231 41 321 76q203 76 203 207q0 66 -56.5 108.5t-132.5 42.5q-154 0 -244.5 -119.5t-90.5 -314.5z" />
<glyph unicode="&#x178;" horiz-adv-x="1359" d="M-10 1417q0 43 35 43h323q35 0 35 -39q0 -27 -42 -54.5t-42 -61.5q0 -12 10 -31q2 -4 19 -27l368 -538l353 530q14 25 14 66q0 39 -46 66.5t-46 43.5q0 14 8 29.5t20 15.5h269q41 0 41 -37q0 -31 -19 -53l-67 -67l-463 -715v-416q0 -35 63.5 -63.5t63.5 -63.5 q0 -45 -41 -45h-350q-39 0 -39 41q0 35 61.5 65.5t61.5 73.5v404l-455 682q-43 66 -115 108q-20 12 -20 43zM409 1647q0 43 29 73.5t72 30.5t73.5 -28.5t30.5 -71.5q0 -41 -28.5 -72t-69.5 -31t-74 29t-33 70zM786 1638q0 43 29 74t72 31t73.5 -29t30.5 -72 q0 -41 -28.5 -71.5t-69.5 -30.5t-74 28.5t-33 69.5z" />
<glyph unicode="&#x2c6;" horiz-adv-x="794" d="M92 1290v15l221 272h136l221 -268v-19l-109 -4l-176 191l-180 -191z" />
<glyph unicode="&#x2dc;" horiz-adv-x="974" d="M57 1350q55 113 101 159q63 68 145 68q66 0 203 -72.5t178 -72.5q51 0 92 47q29 33 66 104l73 -61q-74 -135 -122 -175t-107 -40q-63 0 -204.5 73.5t-180.5 73.5q-55 0 -100 -51q-31 -35 -70 -117z" />
<glyph unicode="&#x2000;" horiz-adv-x="962" />
<glyph unicode="&#x2001;" horiz-adv-x="1925" />
<glyph unicode="&#x2002;" horiz-adv-x="962" />
<glyph unicode="&#x2003;" horiz-adv-x="1925" />
<glyph unicode="&#x2004;" horiz-adv-x="641" />
<glyph unicode="&#x2005;" horiz-adv-x="481" />
<glyph unicode="&#x2006;" horiz-adv-x="320" />
<glyph unicode="&#x2007;" horiz-adv-x="320" />
<glyph unicode="&#x2008;" horiz-adv-x="240" />
<glyph unicode="&#x2009;" horiz-adv-x="385" />
<glyph unicode="&#x200a;" horiz-adv-x="106" />
<glyph unicode="&#x2010;" horiz-adv-x="679" d="M74 457q0 16 9 36.5t13 30.5h471q13 -34 13 -57q0 -16 -5 -31l-8 -24h-471q-23 23 -22 45z" />
<glyph unicode="&#x2011;" horiz-adv-x="679" d="M74 457q0 16 9 36.5t13 30.5h471q13 -34 13 -57q0 -16 -5 -31l-8 -24h-471q-23 23 -22 45z" />
<glyph unicode="&#x2012;" horiz-adv-x="679" d="M74 457q0 16 9 36.5t13 30.5h471q13 -34 13 -57q0 -16 -5 -31l-8 -24h-471q-23 23 -22 45z" />
<glyph unicode="&#x2013;" horiz-adv-x="1290" d="M66 391v111h1153v-111h-1153z" />
<glyph unicode="&#x2014;" horiz-adv-x="2170" d="M63 377v110h2048v-110h-2048z" />
<glyph unicode="&#x2018;" horiz-adv-x="573" d="M172 1204q0 119 72 230q63 96 100 96q25 0 25 -25q-47 -51 -82 -104q-41 -61 -41 -121q0 -23 4 -33q6 -16 41 -16q108 0 108 -98q0 -41 -28.5 -68t-71.5 -27q-63 0 -95 49.5t-32 116.5z" />
<glyph unicode="&#x2019;" horiz-adv-x="573" d="M170 1436q0 41 28.5 67.5t71.5 26.5q63 0 99 -53q28 -45 28 -113q0 -119 -71 -229q-63 -96 -101 -97q-25 0 -24 25q47 51 85 108.5t38 116.5q0 23 -5 33q-6 16 -40 16q-109 0 -109 99z" />
<glyph unicode="&#x201a;" horiz-adv-x="399" d="M92 104q0 41 29 68t72 27q63 0 98 -54q28 -44 28 -112q0 -119 -71 -230q-63 -96 -101 -96q-25 0 -24 25q47 51 85 108.5t38 116.5q0 23 -4 33q-6 16 -41 16q-109 0 -109 98z" />
<glyph unicode="&#x201c;" horiz-adv-x="942" d="M170 1204q0 119 72 230q63 96 100 96q25 0 25 -25q-47 -51 -82 -104q-41 -61 -41 -121q0 -23 4 -33q6 -16 41 -16q108 0 108 -98q0 -41 -28.5 -68t-71.5 -27q-63 0 -95 49.5t-32 116.5zM530 1204q0 119 72 230q63 96 100 96q25 0 25 -25q-47 -51 -82 -104 q-41 -61 -41 -121q0 -23 4 -33q6 -16 41 -16q109 0 109 -98q0 -41 -29 -68t-72 -27q-63 0 -95 49.5t-32 116.5z" />
<glyph unicode="&#x201d;" horiz-adv-x="942" d="M174 1438q0 41 28.5 67.5t71.5 26.5q63 0 99 -53q28 -45 28 -113q0 -119 -71 -229q-63 -96 -101 -97q-25 0 -24 25q47 51 85 108.5t38 116.5q0 23 -4 33q-6 16 -41 16q-109 0 -109 99zM532 1436q0 41 29 67.5t72 26.5q63 0 98 -53q29 -45 29 -113q0 -119 -72 -229 q-63 -96 -100 -97q-25 0 -25 25q47 51 85 108.5t38 116.5q0 23 -4 33q-6 16 -41 16q-109 0 -109 99z" />
<glyph unicode="&#x201e;" horiz-adv-x="757" d="M84 104q0 41 28.5 68t71.5 27q63 0 99 -54q28 -44 28 -112q0 -119 -71 -230q-63 -96 -101 -96q-25 0 -24 25q47 51 85 108.5t38 116.5q0 23 -5 33q-6 16 -40 16q-109 0 -109 98zM440 104q0 41 29 68t72 27q63 0 98 -54q29 -44 29 -112q0 -119 -72 -230q-63 -96 -100 -96 q-25 0 -25 25q47 51 85 108.5t38 116.5q0 23 -4 33q-6 16 -41 16q-109 0 -109 98z" />
<glyph unicode="&#x2022;" horiz-adv-x="942" d="M119 698q0 147 104.5 248t253.5 101q141 0 243.5 -101t102.5 -248q0 -145 -104.5 -247.5t-253.5 -102.5q-139 0 -242.5 103.5t-103.5 246.5z" />
<glyph unicode="&#x2026;" horiz-adv-x="2048" d="M231 96q0 45 33 76t78 31q47 0 78 -33t31 -80q0 -45 -33 -75.5t-78 -30.5q-47 0 -78 32.5t-31 79.5zM913 96q0 45 33 76t78 31q47 0 78 -33t31 -80q0 -45 -33 -75.5t-78 -30.5q-47 0 -78 32.5t-31 79.5zM1595 96q0 45 33 76t78 31q47 0 78 -33t31 -80q0 -45 -33 -75.5 t-78 -30.5q-47 0 -78 32.5t-31 79.5z" />
<glyph unicode="&#x202f;" horiz-adv-x="385" />
<glyph unicode="&#x2039;" horiz-adv-x="409" d="M51 584q0 10 14.5 31.5t18.5 29.5l139 215q12 18 28.5 40t39.5 22q33 0 33 -31q0 -12 -10.5 -37t-12.5 -33l-84 -207l-6 -36l6 -37l84 -195q8 -20 15.5 -39.5t7.5 -23.5q0 -12 -9.5 -23.5t-21.5 -11.5q-23 0 -49 35q-16 25 -21 30l-135 199q-8 12 -22.5 35.5t-14.5 36.5z " />
<glyph unicode="&#x203a;" horiz-adv-x="409" d="M76 279q0 12 10 36.5t12 32.5l84 207q6 16 6 37q0 18 -6 37l-84 194q-8 20 -15 40t-7 24q0 12 9 23.5t21 11.5q18 0 41 -25q14 -20 29 -41l135 -199q8 -12 22.5 -35.5t14.5 -35.5q0 -10 -14.5 -32t-18.5 -30l-139 -215q-14 -20 -29.5 -40.5t-37.5 -20.5q-33 0 -33 31z " />
<glyph unicode="&#x205f;" horiz-adv-x="481" />
<glyph unicode="&#x2122;" horiz-adv-x="1638" d="M53 1325q0 43 17.5 108.5t44.5 65.5h567q49 0 70 -96q8 -39 8 -74q0 -18 -10.5 -33.5t-24.5 -15.5q-8 0 -61.5 61.5t-141.5 61.5q-51 0 -51 -14v-535q0 -14 37 -26.5t37 -43.5q0 -10 -11.5 -29.5t-17.5 -19.5h-201q-45 0 -45 41q0 33 37 49.5t37 34.5v526 q0 12 -14.5 15.5t-26.5 3.5q-86 0 -131 -41q-43 -47 -86 -92q-12 0 -22.5 18.5t-10.5 34.5zM762 782q0 31 36 43.5t36 65.5v481q0 16 -35 32.5t-35 49.5q0 45 53 45h139q37 0 52 -37l163 -473l150 428q6 20 12 43q16 43 64 43h108q29 0 45.5 -9t16.5 -40q0 -35 -33 -53.5 t-33 -65.5v-452q0 -45 36 -59.5t36 -41.5q0 -47 -53 -47h-160q-33 0 -42 11.5t-9 33.5q0 29 34.5 45.5t34.5 38.5v393l-153 -397q-18 -43 -21 -47q-18 -31 -41 -31q-18 0 -31.5 16.5t-29.5 59.5l-174 430v-422q0 -16 42 -34.5t42 -51.5q0 -45 -35 -45h-162q-23 0 -38 6.5 t-15 40.5z" />
<glyph unicode="&#xe000;" horiz-adv-x="921" d="M0 0v922h922v-922h-922z" />
</font>
</defs>
</svg>
